<svg width="480" height="595" viewBox="0 0 480 595" fill="none" xmlns="http://www.w3.org/2000/svg">
<path d="M247.204 2.19707C226.149 -9.05397 206.848 25.6367 199.83 44.3885L247.204 69C255.977 51.4203 268.26 13.4481 247.204 2.19707Z" fill="#A37556"/>
<path d="M131.271 386.039C143.93 367.524 139.183 342.253 120.668 329.594L67.4916 293.237C48.9767 280.579 23.7055 285.326 11.0467 303.841C-1.61201 322.356 3.13536 347.627 21.6503 360.286L74.8266 396.643C93.3415 409.301 118.613 404.554 131.271 386.039Z" fill="#846047"/>
<path d="M81.7844 302.739L67.9209 293.261C49.406 280.602 24.1347 285.349 11.476 303.864C-1.18275 322.379 3.56461 347.65 22.0795 360.309L35.9431 369.788L81.7844 302.739Z" fill="#4B3E35"/>
<rect x="299.83" y="537" width="104" height="58" rx="29" fill="#846047"/>
<path d="M299.83 572H403.83C403.83 584.703 393.533 595 380.83 595H322.83C310.128 595 299.83 584.703 299.83 572Z" fill="#4B3E35"/>
<rect x="99.8301" y="537" width="104" height="58" rx="29" fill="#846047"/>
<path d="M99.8301 572H203.83C203.83 584.703 193.533 595 180.83 595H122.83C110.128 595 99.8301 584.703 99.8301 572Z" fill="#4B3E35"/>
<path d="M103.513 145C103.513 89.7715 148.284 45 203.513 45H307.449C355.777 45 397.189 79.5608 405.836 127.109L462.391 438.109C473.553 499.494 426.396 556 364.004 556H142.404C55.3551 556 9.87045 452.488 68.7441 388.367L77.173 379.187C94.1132 360.737 103.513 336.602 103.513 311.555L103.513 145Z" fill="#A37556"/>
<path d="M214.5 364.5C220.5 342.5 109.433 312.469 107 323.5" stroke="#D9D9D9" stroke-width="5"/>
<path d="M57.9655 142.579C64.7453 100.187 101.316 69 144.247 69C186.471 69 222.655 99.1943 230.213 140.737L243.388 213.149C254.553 274.511 207.414 331 145.045 331C83.5426 331 36.6289 275.987 46.3418 215.256L57.9655 142.579Z" fill="#604F44"/>
<path d="M126.222 248.951C118.133 248.125 109.37 239.658 106 235.528C123.911 221.898 139.463 229.849 145 235.528C142.111 240.346 134.311 249.777 126.222 248.951Z" fill="#A2766B"/>
<path d="M126.714 132.789C122.296 156.391 107.436 218.496 126.714 225.579M126.714 225.579C137.83 235 175.749 252.521 193.639 255M126.714 225.579C101.33 241 93.8301 248.5 89.8301 255" stroke="#3A2E2B" stroke-width="10" stroke-linecap="round"/>
<ellipse cx="125.33" cy="133" rx="25.5" ry="17" fill="#3A2E2B"/>
<path d="M277.83 90C287.997 90.5 311.03 96.2 321.83 115" stroke="#3A2E2B" stroke-width="15" stroke-linecap="round"/>
<path d="M383.204 12.1971C362.149 0.946033 342.848 35.6367 335.83 54.3885L383.204 79C391.977 61.4203 404.26 23.4481 383.204 12.1971Z" fill="#A37556"/>
<path d="M217 370.5C196 345 323.9 303.697 345.5 268.497C372.5 224.497 355.5 134.497 407 136.997" stroke="#D9D9D9" stroke-width="5"/>
<path d="M337.119 327.667C370.587 303.021 406.318 285.683 434 275.998C467.333 363.498 503.2 541.798 380 554.998L233.499 558.498C220.353 513.639 226.027 473.033 242.092 437.493C265.486 383.479 310.03 344.466 337.119 327.667Z" fill="#D9D9D9"/>
<path d="M127.999 554.999H200.625C215.926 409.799 141.417 338.665 103 321.498C94.9996 347.998 85.5004 357.541 73.9995 381.498C16.4995 426.498 31.3589 537.061 127.999 554.999Z" fill="#D9D9D9"/>
<path d="M330.692 389.155C314.108 371.747 324.251 344.238 331.396 332.659C211.763 398.774 216.352 509.406 233.601 556.458C219.204 491.874 279.44 435.853 311.357 415.916C304.568 415.031 295 404.378 291.065 399.162C300.803 388.082 321.541 387.874 330.692 389.155Z" fill="#B5B5B5"/>
<path d="M108 389.498C124.584 372.09 127.644 343.576 120.499 331.997C215.499 402.806 204.5 509.998 200.499 554.498C194.499 491.998 155.917 438.435 124 418.498C130.789 417.613 139.565 404.714 143.5 399.498C133.761 388.419 117.151 388.217 108 389.498Z" fill="#B5B5B5"/>
<path d="M381.242 443.998C349.642 455.598 322.409 448.831 312.742 443.998C302.342 470.798 308.409 497.165 312.742 506.998C335.542 516.598 367.909 510.998 381.242 506.998C389.242 492.598 384.576 457.165 381.242 443.998Z" fill="#B5B5B5"/>
<path d="M133.799 446.998C110.9 458.547 91.166 451.81 84.1612 446.998C76.6249 473.68 81.0211 499.931 84.1612 509.721C100.683 519.278 124.137 513.703 133.799 509.721C139.596 495.384 136.215 460.107 133.799 446.998Z" fill="#B5B5B5"/>
<path d="M384.696 322.071C403.87 310.435 428.846 316.545 440.483 335.719L473.903 390.789C485.539 409.963 479.429 434.939 460.255 446.575C441.081 458.212 416.104 452.101 404.468 432.927L371.047 377.858C359.411 358.684 365.522 333.707 384.696 322.071Z" fill="#846047"/>
<path d="M465.19 376.432L473.903 390.789C485.539 409.963 479.429 434.939 460.255 446.575C441.081 458.212 416.104 452.101 404.468 432.927L395.755 418.57L465.19 376.432Z" fill="#4B3E35"/>
<circle cx="216" cy="384" r="22" fill="#D9D9D9"/>
<circle cx="216" cy="384" r="18.6154" fill="#636363"/>
<circle cx="216" cy="384" r="11.8462" fill="#ECEAE8"/>
</svg>
