<svg width="38" height="47" viewBox="0 0 38 47" fill="none" xmlns="http://www.w3.org/2000/svg">
<path d="M19.6264 0.174038C17.9633 -0.714699 16.4387 2.02557 15.8843 3.5068L19.6264 5.45091C20.3194 4.06226 21.2896 1.06278 19.6264 0.174038Z" fill="#A37556"/>
<path d="M10.4692 30.4944C11.4691 29.0318 11.0941 27.0356 9.6316 26.0357L5.43111 23.1638C3.96859 22.1639 1.97238 22.5389 0.972441 24.0014C-0.0274925 25.4639 0.34751 27.4601 1.81003 28.46L6.01052 31.3319C7.47304 32.3319 9.46925 31.9569 10.4692 30.4944Z" fill="#846047"/>
<path d="M6.56012 23.9144L5.46502 23.1656C4.0025 22.1657 2.00628 22.5407 1.00635 24.0032C0.00641408 25.4657 0.381416 27.462 1.84394 28.4619L2.93904 29.2106L6.56012 23.9144Z" fill="#4B3E35"/>
<rect x="23.7837" y="42.4194" width="8.21513" height="4.58151" rx="2.29076" fill="#846047"/>
<path d="M23.7837 45.1841H31.9988C31.9988 46.1875 31.1854 47.0009 30.182 47.0009H25.6005C24.5971 47.0009 23.7837 46.1875 23.7837 45.1841Z" fill="#4B3E35"/>
<rect x="7.98584" y="42.4194" width="8.21513" height="4.58151" rx="2.29076" fill="#846047"/>
<path d="M7.98584 45.1841H16.201C16.201 46.1875 15.3876 47.0009 14.3842 47.0009H9.80265C8.79925 47.0009 7.98584 46.1875 7.98584 45.1841Z" fill="#4B3E35"/>
<path d="M8.27623 11.4543C8.27623 7.09175 11.8128 3.55518 16.1754 3.55518H24.3855C28.203 3.55518 31.4742 6.28519 32.1572 10.0411L36.6246 34.6075C37.5063 39.4563 33.7813 43.9199 28.8529 43.9199H11.3483C4.47218 43.9199 0.879275 35.7433 5.5298 30.6783L6.19561 29.9532C7.53374 28.4958 8.27623 26.5893 8.27623 24.6108L8.27623 11.4543Z" fill="#A37556"/>
<path d="M17.0434 28.7929C17.5173 27.0551 8.74392 24.6829 8.55176 25.5542" stroke="#D9D9D9" stroke-width="0.394958"/>
<path d="M4.67825 11.263C5.2138 7.91442 8.1026 5.45093 11.4938 5.45093C14.8291 5.45093 17.6873 7.83603 18.2844 11.1175L19.3251 16.8375C20.207 21.6846 16.4834 26.1467 11.5568 26.1467C6.69863 26.1467 2.99284 21.8012 3.76008 17.0039L4.67825 11.263Z" fill="#604F44"/>
<path d="M10.07 19.6655C9.43109 19.6003 8.73889 18.9315 8.47266 18.6052C9.88748 17.5286 11.1159 18.1566 11.5533 18.6052C11.3251 18.9858 10.709 19.7308 10.07 19.6655Z" fill="#A2766B"/>
<path d="M10.1088 10.4907C9.75981 12.355 8.58607 17.2608 10.1088 17.8203M10.1088 17.8203C10.9869 18.5645 13.9822 19.9485 15.3953 20.1443M10.1088 17.8203C8.10371 19.0384 7.51128 19.6309 7.19531 20.1443" stroke="#3A2E2B" stroke-width="0.789916" stroke-linecap="round"/>
<ellipse cx="9.99964" cy="10.5074" rx="2.01429" ry="1.34286" fill="#3A2E2B"/>
<path d="M22.0459 7.10962C22.849 7.14911 24.6684 7.59937 25.5215 9.08441" stroke="#3A2E2B" stroke-width="1.18487" stroke-linecap="round"/>
<path d="M30.3696 0.963833C28.7064 0.0750958 27.1818 2.81537 26.6274 4.2966L30.3696 6.2407C31.0626 4.85205 32.0328 1.85257 30.3696 0.963833Z" fill="#A37556"/>
<path d="M17.2409 29.2669C15.5821 27.2526 25.6851 23.99 27.3914 21.2095C29.5241 17.7339 28.1813 10.6247 32.2493 10.8221" stroke="#D9D9D9" stroke-width="0.394958"/>
<path d="M26.7292 25.8834C29.3729 23.9366 32.1954 22.567 34.3819 21.802C37.015 28.7138 39.8482 42.798 30.1164 43.8407L18.5441 44.1171C17.5057 40.5737 17.9539 37.3661 19.2229 34.5588C21.0708 30.2921 24.5894 27.2104 26.7292 25.8834Z" fill="#D9D9D9"/>
<path d="M10.2104 43.8408H15.9472C17.1558 32.3713 11.2702 26.7523 8.23558 25.3962C7.60366 27.4895 6.8533 28.2433 5.94482 30.1357C1.40281 33.6904 2.57658 42.4239 10.2104 43.8408Z" fill="#D9D9D9"/>
<path d="M26.2213 30.7404C24.9113 29.3653 25.7125 27.1923 26.2769 26.2777C16.8269 31.5002 17.1894 40.2392 18.5519 43.9559C17.4147 38.8543 22.1728 34.4292 24.694 32.8543C24.1577 32.7844 23.4019 31.9429 23.0911 31.5308C23.8603 30.6557 25.4984 30.6392 26.2213 30.7404Z" fill="#B5B5B5"/>
<path d="M8.63089 30.7676C9.94092 29.3926 10.1826 27.1402 9.61822 26.2256C17.1224 31.8189 16.2536 40.2861 15.9376 43.8012C15.4636 38.8643 12.416 34.6333 9.89474 33.0584C10.4311 32.9885 11.1242 31.9696 11.4351 31.5576C10.6658 30.6824 9.35377 30.6665 8.63089 30.7676Z" fill="#B5B5B5"/>
<path d="M30.2146 35.0725C27.7185 35.9888 25.5673 35.4543 24.8037 35.0725C23.9822 37.1895 24.4614 39.2722 24.8037 40.049C26.6047 40.8073 29.1614 40.3649 30.2146 40.049C30.8466 38.9115 30.4779 36.1126 30.2146 35.0725Z" fill="#B5B5B5"/>
<path d="M10.6686 35.3096C8.85982 36.2218 7.30097 35.6897 6.74764 35.3096C6.15234 37.4172 6.4996 39.4908 6.74764 40.2641C8.05273 41.0191 9.90541 40.5787 10.6686 40.2641C11.1265 39.1317 10.8594 36.345 10.6686 35.3096Z" fill="#B5B5B5"/>
<path d="M30.4874 25.4413C32.002 24.5221 33.975 25.0048 34.8941 26.5194L37.5341 30.8694C38.4532 32.384 37.9705 34.357 36.456 35.2761C34.9414 36.1953 32.9684 35.7126 32.0493 34.198L29.4093 29.848C28.4902 28.3334 28.9728 26.3605 30.4874 25.4413Z" fill="#846047"/>
<path d="M36.8458 29.7354L37.5341 30.8694C38.4532 32.384 37.9705 34.357 36.456 35.2761C34.9414 36.1953 32.9684 35.7126 32.0493 34.198L31.361 33.064L36.8458 29.7354Z" fill="#4B3E35"/>
<circle cx="17.1616" cy="30.3333" r="1.73782" fill="#D9D9D9"/>
<circle cx="17.1619" cy="30.3333" r="1.47046" fill="#636363"/>
<circle cx="17.1618" cy="30.3332" r="0.935747" fill="#ECEAE8"/>
</svg>
