<svg width="76" height="100" viewBox="0 0 76 100" fill="none" xmlns="http://www.w3.org/2000/svg">
<path d="M36.0012 0.369256C32.4625 -1.52168 29.2186 4.30871 28.0391 7.46027L36.0012 11.5967C37.4756 8.6421 39.5399 2.26019 36.0012 0.369256Z" fill="#A37556"/>
<path d="M15.9843 54.1301C12.7618 52.1744 8.56401 53.2014 6.60832 56.4239L0.991438 65.6793C-0.964245 68.9019 0.0627427 73.0996 3.28528 75.0553C6.50781 77.011 10.7056 75.984 12.6613 72.7615L18.2782 63.5061C20.2338 60.2836 19.2069 56.0858 15.9843 54.1301Z" fill="#835E45"/>
<path d="M2.45581 63.1941L0.99144 65.6071C-0.964243 68.8296 0.0627417 73.0274 3.28528 74.9831C6.50781 76.9388 10.7056 75.9118 12.6613 72.6892L14.1256 70.2763L2.45581 63.1941Z" fill="#412F22"/>
<rect x="44.8477" y="90.25" width="17.4791" height="9.74793" rx="4.87397" fill="#835E45"/>
<path d="M44.8477 96.1328H62.3267C62.3267 98.2677 60.596 99.9984 58.4611 99.9984H48.7132C46.5783 99.9984 44.8477 98.2677 44.8477 96.1328Z" fill="#412F22"/>
<rect x="11.2305" y="90.25" width="17.4791" height="9.74793" rx="4.87397" fill="#835E45"/>
<path d="M11.2305 96.1328H28.7095C28.7095 98.2677 26.9789 99.9984 24.844 99.9984H15.096C12.9611 99.9984 11.2305 98.2677 11.2305 96.1328Z" fill="#412F22"/>
<path d="M11.8504 24.3693C11.8504 15.0872 19.3751 7.5625 28.6572 7.5625H46.1256C54.2479 7.5625 61.208 13.3711 62.6612 21.3623L72.1662 73.6314C74.0423 83.9482 66.1167 93.4452 55.6306 93.4452H18.3868C3.75664 93.4452 -3.88787 76.0481 6.0069 65.2715L7.42353 63.7286C10.2706 60.6278 11.8504 56.5714 11.8504 52.3618L11.8504 24.3693Z" fill="#A37556"/>
<path d="M4.19949 23.9638C5.33897 16.8391 11.4854 11.5977 18.7006 11.5977C25.7972 11.5977 31.8785 16.6724 33.1488 23.6543L35.3631 35.8245C37.2395 46.1374 29.317 55.6314 18.8348 55.6314C8.49819 55.6314 0.613509 46.3855 2.24594 36.1786L4.19949 23.9638Z" fill="#624634"/>
<path d="M15.7459 22.3164C15.0033 26.2831 12.5059 36.721 15.7459 37.9113M15.7459 37.9113C17.6141 39.4947 23.9871 42.4395 26.9938 42.8561M15.7459 37.9113C11.4797 40.5031 10.2191 41.7636 9.54688 42.8561" stroke="#211711" stroke-width="1.43671" stroke-linecap="round"/>
<ellipse cx="15.5123" cy="22.3513" rx="4.28573" ry="2.85715" fill="#211711"/>
<path d="M41.1445 15.127C42.8532 15.211 46.7244 16.169 48.5395 19.3286" stroke="#211711" stroke-width="2.15506" stroke-linecap="round"/>
<path d="M59.1095 54.1301C62.332 52.1744 66.5298 53.2014 68.4855 56.4239L74.1024 65.6793C76.0581 68.9019 75.0311 73.0996 71.8085 75.0553C68.586 77.011 64.3882 75.984 62.4325 72.7615L56.8157 63.5061C54.86 60.2836 55.887 56.0858 59.1095 54.1301Z" fill="#835E45"/>
<path d="M72.638 63.2664L74.1024 65.6793C76.0581 68.9019 75.0311 73.0996 71.8085 75.0553C68.586 77.011 64.3882 75.984 62.4325 72.7615L60.9682 70.3486L72.638 63.2664Z" fill="#412F22"/>
<path d="M58.8605 2.04894C55.3218 0.158007 52.078 5.9884 50.8984 9.13996L58.8605 13.2764C60.335 10.3218 62.3992 3.93988 58.8605 2.04894Z" fill="#A37556"/>
</svg>
