<svg width="36" height="47" viewBox="0 0 36 47" fill="none" xmlns="http://www.w3.org/2000/svg">
<path d="M17.6269 0.174038C15.9638 -0.714699 14.4392 2.02557 13.8848 3.5068L17.6269 5.45091C18.3199 4.06226 19.2901 1.06278 17.6269 0.174038Z" fill="#A37556"/>
<path d="M8.21914 25.4412C6.70456 24.522 4.73161 25.0047 3.81244 26.5193L1.17252 30.8693C0.253349 32.3839 0.736032 34.3568 2.25062 35.276C3.7652 36.1952 5.73815 35.7125 6.65732 34.1979L9.29725 29.8479C10.2164 28.3333 9.73373 26.3604 8.21914 25.4412Z" fill="#3D7FC4"/>
<path d="M1.86077 29.7013L1.17252 30.8354C0.25335 32.3499 0.736031 34.3229 2.25062 35.2421C3.7652 36.1612 5.73815 35.6785 6.65732 34.164L7.34557 33.0299L1.86077 29.7013Z" fill="#4B3E35"/>
<rect x="21.7832" y="42.4194" width="8.21513" height="4.58151" rx="2.29076" fill="#846047"/>
<path d="M21.7832 45.1841H29.9983C29.9983 46.1875 29.1849 47.0009 28.1815 47.0009H23.6C22.5966 47.0009 21.7832 46.1875 21.7832 45.1841Z" fill="#4B3E35"/>
<rect x="5.98535" y="42.4194" width="8.21513" height="4.58151" rx="2.29076" fill="#846047"/>
<path d="M5.98535 45.1841H14.2005C14.2005 46.1875 13.3871 47.0009 12.3837 47.0009H7.80216C6.79877 47.0009 5.98535 46.1875 5.98535 45.1841Z" fill="#4B3E35"/>
<path d="M6.27623 11.4542C6.27623 7.09163 9.81281 3.55505 14.1754 3.55505H22.3855C26.203 3.55505 29.4742 6.28507 30.1572 10.0409L34.6246 34.6073C35.5063 39.4562 31.7813 43.9198 26.8529 43.9198H9.34834C2.47218 43.9198 -1.12073 35.7432 3.5298 30.6782L4.19561 29.953C5.53374 28.4956 6.27623 26.5892 6.27623 24.6106L6.27623 11.4542Z" fill="#A37556"/>
<path d="M2.67874 11.263C3.21429 7.91442 6.10309 5.45093 9.49424 5.45093C12.8296 5.45093 15.6878 7.83603 16.2849 11.1175L17.3256 16.8375C18.2075 21.6846 14.4839 26.1467 9.5573 26.1467C4.69912 26.1467 0.993332 21.8012 1.76057 17.0039L2.67874 11.263Z" fill="#604F44"/>
<path d="M8.10835 10.4906C7.75933 12.3549 6.58558 17.2607 8.10835 17.8202M8.10835 17.8202C8.98642 18.5644 11.9817 19.9484 13.3949 20.1442M8.10835 17.8202C6.10323 19.0383 5.51079 19.6308 5.19482 20.1442" stroke="#3A2E2B" stroke-width="0.789916" stroke-linecap="round"/>
<ellipse cx="7.99915" cy="10.5073" rx="2.01429" ry="1.34286" fill="#3A2E2B"/>
<path d="M20.0459 7.10974C20.849 7.14924 22.6684 7.59949 23.5215 9.08453" stroke="#3A2E2B" stroke-width="1.18487" stroke-linecap="round"/>
<path d="M28.3696 0.963955C26.7064 0.0752179 25.1818 2.81549 24.6274 4.29672L28.3696 6.24083C29.0626 4.85218 30.0328 1.85269 28.3696 0.963955Z" fill="#A37556"/>
<path d="M19.8224 25.7183C22.9107 23.775 29.649 22.4079 32.2032 21.6442C35.279 28.5437 38.5885 42.603 27.2204 43.6438L10.2611 43.9198C9.04812 40.3826 9.57168 37.1807 11.0541 34.3783C13.2126 30.1192 17.3229 27.0429 19.8224 25.7183Z" fill="#75A3D4"/>
<path d="M8.02877 43.8804H17.808C19.0166 32.4108 9.11239 26.7918 6.07775 25.4358C5.44582 27.5291 4.6717 28.2829 3.76323 30.1753C-0.778786 33.7299 0.394981 42.4635 8.02877 43.8804Z" fill="#75A3D4"/>
<path d="M24.9763 30.3333C22.4802 31.2496 20.329 30.715 19.5654 30.3333C18.7439 32.4502 19.2231 34.533 19.5654 35.3097C21.3664 36.068 23.9231 35.6257 24.9763 35.3097C25.6083 34.1722 25.2396 31.3733 24.9763 30.3333Z" fill="#3D7FC4"/>
<path d="M9.30955 30.3333C7.56421 31.2455 6.06006 30.7134 5.52615 30.3333C4.95173 32.4409 5.28681 34.5145 5.52615 35.2878C6.78544 36.0428 8.57312 35.6024 9.30955 35.2878C9.75141 34.1553 9.49366 31.3687 9.30955 30.3333Z" fill="#3D7FC4"/>
<g clip-path="url(#clip0_4053_10049)">
<path d="M5.92498 11.4532C5.92498 7.09065 9.50494 3.55408 13.921 3.55408H22.2318C26.0961 3.55408 29.4075 6.28409 30.0989 10.04L34.621 34.6064C35.5136 39.4552 31.7429 43.9188 26.754 43.9188H9.03477C2.07427 43.9188 -1.5627 35.7422 3.14487 30.6772L3.81885 29.9521C5.17339 28.4947 5.92499 26.5882 5.92499 24.6097L5.92498 11.4532Z" fill="#5D5D5D"/>
</g>
<path d="M28.4874 25.4412C30.002 24.522 31.975 25.0047 32.8941 26.5193L35.5341 30.8693C36.4532 32.3839 35.9705 34.3568 34.456 35.276C32.9414 36.1952 30.9684 35.7125 30.0493 34.1979L27.4093 29.8479C26.4902 28.3333 26.9728 26.3604 28.4874 25.4412Z" fill="#3D7FC4"/>
<path d="M34.8458 29.7352L35.5341 30.8693C36.4532 32.3839 35.9705 34.3568 34.456 35.276C32.9414 36.1952 30.9684 35.7125 30.0493 34.1979L29.361 33.0638L34.8458 29.7352Z" fill="#4B3E35"/>
<rect x="24.6411" y="8.45264" width="6.47731" height="0.789916" rx="0.394958" fill="#313131"/>
<path d="M21.8369 28.319L13.4243 30.8073C15.5729 27.774 20.3624 25.3042 22.6268 24.4089L20.3756 26.7392L21.8369 28.319Z" fill="#3D7FC4"/>
<path d="M6.90455 28.7438L13.4243 30.8072C11.7592 28.2918 7.83303 26.1782 6.0781 25.4358L8.03709 27.4337L6.90455 28.7438Z" fill="#3D7FC4"/>
<rect x="10.6597" y="36.5736" width="6.5563" height="3.7126" rx="1.8563" fill="#D9D9D9"/>
<path d="M11.2915 38.3904C11.2915 37.5615 11.9635 36.8895 12.7923 36.8895H15.0831C15.912 36.8895 16.5839 37.5615 16.5839 38.3904C16.5839 39.2193 15.912 39.8912 15.0831 39.8912H12.7923C11.9635 39.8912 11.2915 39.2193 11.2915 38.3904Z" fill="#494949"/>
<path d="M17.7721 8.27815C17.484 6.81383 18.6048 5.45093 20.0972 5.45093H23.9503C25.4496 5.45093 26.5721 6.82574 26.2722 8.29474L25.5625 11.7704C25.3373 12.8736 24.3667 13.6661 23.2407 13.6661H20.7811C19.6487 13.6661 18.6745 12.8649 18.4559 11.7538L17.7721 8.27815Z" fill="#313131"/>
<defs>
<clipPath id="clip0_4053_10049">
<rect width="33.3345" height="6.08235" fill="white" transform="translate(1.41748 37.8374)"/>
</clipPath>
</defs>
</svg>
