<svg width="447" height="595" viewBox="0 0 447 595" fill="none" xmlns="http://www.w3.org/2000/svg">
<path d="M214.204 2.19707C193.149 -9.05397 173.848 25.6367 166.83 44.3885L214.204 69C222.977 51.4203 235.26 13.4481 214.204 2.19707Z" fill="#A37556"/>
<path d="M95.1063 322.069C75.9323 310.433 50.9557 316.543 39.3194 335.717L5.89904 390.787C-5.73724 409.961 0.373318 434.937 19.5473 446.574C38.7213 458.21 63.698 452.099 75.3343 432.925L108.755 377.856C120.391 358.682 114.28 333.705 95.1063 322.069Z" fill="#3D7FC4"/>
<path d="M14.612 376L5.89905 390.357C-5.73723 409.531 0.373312 434.507 19.5473 446.144C38.7213 457.78 63.698 451.669 75.3343 432.495L84.0473 418.138L14.612 376Z" fill="#4B3E35"/>
<rect x="266.83" y="537" width="104" height="58" rx="29" fill="#846047"/>
<path d="M266.83 572H370.83C370.83 584.703 360.533 595 347.83 595H289.83C277.128 595 266.83 584.703 266.83 572Z" fill="#4B3E35"/>
<rect x="66.8301" y="537" width="104" height="58" rx="29" fill="#846047"/>
<path d="M66.8301 572H170.83C170.83 584.703 160.533 595 147.83 595H89.8301C77.1275 595 66.8301 584.703 66.8301 572Z" fill="#4B3E35"/>
<path d="M70.5128 145C70.5128 89.7715 115.284 45 170.513 45H274.449C322.777 45 364.189 79.5608 372.836 127.109L429.391 438.109C440.553 499.494 393.396 556 331.004 556H109.404C22.3551 556 -23.1296 452.488 35.7441 388.367L44.173 379.187C61.1132 360.737 70.5128 336.602 70.5128 311.555L70.5128 145Z" fill="#A37556"/>
<path d="M24.9655 142.579C31.7453 100.187 68.3163 69 111.247 69C153.471 69 189.655 99.1943 197.213 140.737L210.388 213.149C221.553 274.511 174.414 331 112.045 331C50.5426 331 3.62893 275.987 13.3418 215.256L24.9655 142.579Z" fill="#604F44"/>
<path d="M93.7141 132.789C89.2956 156.391 74.4364 218.496 93.7141 225.579M93.7141 225.579C104.83 235 142.749 252.521 160.639 255M93.7141 225.579C68.3301 241 60.8301 248.5 56.8301 255" stroke="#3A2E2B" stroke-width="10" stroke-linecap="round"/>
<ellipse cx="92.3301" cy="133" rx="25.5" ry="17" fill="#3A2E2B"/>
<path d="M244.83 90C254.997 90.5 278.03 96.2 288.83 115" stroke="#3A2E2B" stroke-width="15" stroke-linecap="round"/>
<path d="M350.204 12.1971C329.149 0.946033 309.848 35.6367 302.83 54.3885L350.204 79C358.977 61.4203 371.26 23.4481 350.204 12.1971Z" fill="#A37556"/>
<path d="M242 325.577C281.096 300.975 366.401 283.668 398.736 274C437.674 361.345 479.571 539.33 335.656 552.506L120.959 556C105.602 511.221 112.23 470.687 130.997 435.209C158.323 381.291 210.357 342.346 242 325.577Z" fill="#75A3D4"/>
<path d="M92.6992 555.501H216.5C231.801 410.301 106.417 339.167 68 322C60.0001 348.5 50.2001 358.043 38.6992 382C-18.8008 427 -3.94138 537.563 92.6992 555.501Z" fill="#75A3D4"/>
<path d="M307.242 384C275.642 395.6 248.409 388.833 238.742 384C228.342 410.8 234.409 437.167 238.742 447C261.542 456.6 293.909 451 307.242 447C315.242 432.6 310.576 397.167 307.242 384Z" fill="#3D7FC4"/>
<path d="M108.911 384C86.8162 395.549 67.7742 388.812 61.0152 384C53.7433 410.682 57.9852 436.933 61.0152 446.723C76.9573 456.28 99.5885 450.705 108.911 446.723C114.505 432.386 111.242 397.109 108.911 384Z" fill="#3D7FC4"/>
<g clip-path="url(#clip0_3483_17339)">
<path d="M66.0577 145C66.0577 89.7715 111.378 45 167.284 45H272.496C321.416 45 363.336 79.5608 372.089 127.109L429.337 438.109C440.637 499.494 392.901 556 329.744 556H105.426C17.3093 556 -28.7332 452.488 30.8626 388.367L39.3949 379.187C56.5428 360.737 66.0577 336.602 66.0577 311.555L66.0577 145Z" fill="#5D5D5D"/>
</g>
<path d="M351.696 322.069C370.87 310.433 395.846 316.543 407.483 335.717L440.903 390.787C452.539 409.961 446.429 434.937 427.255 446.574C408.081 458.21 383.104 452.099 371.468 432.925L338.047 377.856C326.411 358.682 332.522 333.705 351.696 322.069Z" fill="#3D7FC4"/>
<path d="M432.19 376.43L440.903 390.787C452.539 409.961 446.429 434.937 427.255 446.574C408.081 458.21 383.104 452.099 371.468 432.925L362.755 418.568L432.19 376.43Z" fill="#4B3E35"/>
<rect x="303" y="107" width="82" height="10" rx="5" fill="#313131"/>
<path d="M267.5 358.5L161 390C188.2 351.6 248.833 320.333 277.5 309L249 338.5L267.5 358.5Z" fill="#3D7FC4"/>
<path d="M78.4625 363.878L161 390C139.92 358.156 90.2167 331.398 68 322L92.8 347.293L78.4625 363.878Z" fill="#3D7FC4"/>
<rect x="126" y="463" width="83" height="47" rx="23.5" fill="#D9D9D9"/>
<path d="M134 486C134 475.507 142.507 467 153 467H182C192.493 467 201 475.507 201 486C201 496.493 192.493 505 182 505H153C142.507 505 134 496.493 134 486Z" fill="#494949"/>
<path d="M216.042 104.791C212.395 86.2537 226.585 69 245.478 69H294.256C313.236 69 327.446 86.4046 323.649 105.001L314.666 149.001C311.814 162.968 299.527 173 285.272 173H254.135C239.799 173 227.466 162.858 224.699 148.791L216.042 104.791Z" fill="#313131"/>
<defs>
<clipPath id="clip0_3483_17339">
<rect width="422" height="77" fill="white" transform="translate(9 479)"/>
</clipPath>
</defs>
</svg>
