<svg width="365" height="252" viewBox="0 0 365 252" fill="none" xmlns="http://www.w3.org/2000/svg">
<ellipse cx="138.594" cy="70.3216" rx="138.594" ry="70.3216" transform="matrix(-0.952725 0.303836 0.499347 0.866402 380.728 28.8442)" fill="#F4C363"/>
<ellipse cx="140.606" cy="68.7679" rx="140.606" ry="68.7679" transform="matrix(-0.972368 0.233455 0.398041 0.917368 365.964 60.1802)" fill="#F4C363"/>
<ellipse cx="115.652" cy="53.8209" rx="115.652" ry="53.8209" transform="matrix(-0.994962 -0.100255 -0.179154 0.983821 241.402 109.083)" fill="#F4C363"/>
<ellipse cx="116.101" cy="53.4501" rx="116.101" ry="53.4501" transform="matrix(-0.99979 -0.020487 -0.0370069 0.999315 348.339 24.7588)" fill="#F4C363"/>
<ellipse cx="114.385" cy="54.8477" rx="114.385" ry="54.8477" transform="matrix(-0.980876 -0.194635 -0.337558 0.941305 278.132 75.7822)" fill="#F4C363"/>
<ellipse cx="110.211" cy="51.4441" rx="110.211" ry="51.4441" transform="matrix(-0.994253 -0.107053 -0.191004 0.981589 440.158 119.934)" fill="#F4C363"/>
<ellipse cx="123.802" cy="62.865" rx="123.802" ry="62.865" transform="matrix(-0.952621 0.30416 0.498907 0.866656 370.535 27.9033)" fill="#A7D8A1"/>
<ellipse cx="125.593" cy="61.4826" rx="125.593" ry="61.4826" transform="matrix(-0.972305 0.233715 0.397648 0.917538 357.357 55.9282)" fill="#A7D8A1"/>
<ellipse cx="103.299" cy="48.1263" rx="103.299" ry="48.1263" transform="matrix(-0.99495 -0.100372 -0.17895 0.983858 246.091 99.6582)" fill="#A7D8A1"/>
<ellipse cx="103.698" cy="47.7964" rx="103.698" ry="47.7964" transform="matrix(-0.99979 -0.0205111 -0.0369635 0.999317 341.613 24.2539)" fill="#A7D8A1"/>
<ellipse cx="102.17" cy="49.0397" rx="102.17" ry="49.0397" transform="matrix(-0.980832 -0.194855 -0.337207 0.941431 278.901 69.8794)" fill="#A7D8A1"/>
<ellipse cx="98.4389" cy="46.0007" rx="98.4389" ry="46.0007" transform="matrix(-0.99424 -0.107177 -0.190787 0.981631 423.616 109.362)" fill="#A7D8A1"/>
<path d="M287.723 96.2843C284.998 94.8283 282.5 99.3177 281.592 101.744L287.723 104.929C288.858 102.654 290.447 97.7403 287.723 96.2843Z" fill="#A37556"/>
<path d="M272.311 137.68C269.83 136.174 266.598 136.965 265.092 139.446L260.767 146.573C259.261 149.054 260.052 152.286 262.533 153.792C265.014 155.298 268.247 154.507 269.753 152.026L274.078 144.899C275.583 142.418 274.793 139.186 272.311 137.68Z" fill="#846047"/>
<path d="M261.894 144.659L260.767 146.517C259.261 148.999 260.052 152.231 262.533 153.737C265.014 155.243 268.247 154.452 269.753 151.97L270.88 150.112L261.894 144.659Z" fill="#4B3E35"/>
<rect x="294.536" y="165.491" width="13.4588" height="7.5059" rx="3.75295" fill="#846047"/>
<path d="M294.536 170.021H307.995V170.021C307.995 171.664 306.662 172.997 305.019 172.997H297.513C295.869 172.997 294.536 171.664 294.536 170.021V170.021Z" fill="#4B3E35"/>
<rect x="268.647" y="165.491" width="13.4588" height="7.5059" rx="3.75295" fill="#846047"/>
<path d="M268.647 170.021H282.106V170.021C282.106 171.664 280.773 172.997 279.129 172.997H271.623C269.98 172.997 268.647 171.664 268.647 170.021V170.021Z" fill="#4B3E35"/>
<path d="M269.124 114.766C269.124 107.619 274.918 101.825 282.065 101.825H295.515C301.77 101.825 307.129 106.297 308.248 112.451L315.567 152.698C317.011 160.642 310.909 167.954 302.834 167.954H274.157C262.891 167.954 257.005 154.559 264.624 146.261L265.715 145.073C267.907 142.685 269.124 139.561 269.124 136.32L269.124 114.766Z" fill="#A37556"/>
<path d="M263.235 114.452C264.113 108.966 268.846 104.93 274.401 104.93C279.866 104.93 284.548 108.838 285.526 114.214L287.231 123.585C288.676 131.526 282.576 138.836 274.505 138.836C266.545 138.836 260.474 131.717 261.731 123.857L263.235 114.452Z" fill="#604F44"/>
<path d="M272.138 113.183C271.566 116.237 269.643 124.275 272.138 125.191M272.138 125.191C273.577 126.41 278.484 128.678 280.799 128.999M272.138 125.191C268.853 127.187 267.882 128.157 267.365 128.999" stroke="#3A2E2B" stroke-width="0.873949" stroke-linecap="round"/>
<ellipse cx="271.96" cy="113.212" rx="3.30001" ry="2.2" fill="#3A2E2B"/>
<path d="M291.688 107.649C293.004 107.714 295.985 108.452 297.383 110.885" stroke="#3A2E2B" stroke-width="1.31092" stroke-linecap="round"/>
<path d="M305.521 137.68C308.003 136.174 311.235 136.965 312.741 139.446L317.066 146.573C318.572 149.054 317.781 152.286 315.3 153.792C312.818 155.298 309.586 154.507 308.08 152.026L303.755 144.899C302.249 142.418 303.04 139.186 305.521 137.68Z" fill="#846047"/>
<path d="M315.938 144.715L317.066 146.573C318.572 149.054 317.781 152.286 315.3 153.792C312.818 155.298 309.586 154.507 308.08 152.026L306.953 150.168L315.938 144.715Z" fill="#4B3E35"/>
<path d="M305.325 97.5797C302.6 96.1237 300.103 100.613 299.194 103.04L305.325 106.225C306.46 103.95 308.05 99.0358 305.325 97.5797Z" fill="#A37556"/>
</svg>
