<svg width="48" height="47" viewBox="0 0 48 47" fill="none" xmlns="http://www.w3.org/2000/svg">
<path d="M19.5093 0.174038C17.8461 -0.714699 16.3215 2.02557 15.7671 3.5068L19.5093 5.45091C20.2022 4.06226 21.1724 1.06278 19.5093 0.174038Z" fill="#A37556"/>
<rect x="23.6655" y="42.4194" width="8.21511" height="4.58151" rx="2.29076" fill="#846047"/>
<path d="M23.6655 45.1841H31.8806C31.8806 46.1875 31.0672 47.0009 30.0638 47.0009H25.4823C24.4789 47.0009 23.6655 46.1875 23.6655 45.1841Z" fill="#4B3E35"/>
<rect x="7.86768" y="42.4194" width="8.21511" height="4.58151" rx="2.29076" fill="#846047"/>
<path d="M7.86768 45.1841H16.0828C16.0828 46.1875 15.2694 47.0009 14.266 47.0009H9.68448C8.68109 47.0009 7.86768 46.1875 7.86768 45.1841Z" fill="#4B3E35"/>
<path d="M8.15903 11.4543C8.15903 7.09175 11.6956 3.55518 16.0582 3.55518H24.2683C28.0857 3.55518 31.357 6.28519 32.04 10.0411L36.5073 34.6075C37.3891 39.4563 33.664 43.9199 28.7356 43.9199H11.2311C4.35499 43.9199 0.762092 35.7433 5.41261 30.6783L6.07842 29.9532C7.41655 28.4958 8.15904 26.5893 8.15904 24.6108L8.15903 11.4543Z" fill="#A37556"/>
<path d="M4.56106 11.263C5.09661 7.91442 7.98541 5.45093 11.3766 5.45093C14.7119 5.45093 17.5701 7.83603 18.1672 11.1175L19.2079 16.8375C20.0898 21.6846 16.3662 26.1467 11.4396 26.1467C6.58144 26.1467 2.87566 21.8012 3.64289 17.0039L4.56106 11.263Z" fill="#604F44"/>
<path d="M9.87473 19.6653C9.23577 19.6 8.54357 18.9312 8.27734 18.605C9.69217 17.5283 10.9206 18.1564 11.358 18.605C11.1298 18.9856 10.5137 19.7306 9.87473 19.6653Z" fill="#A2766B"/>
<path d="M9.99263 10.4907C9.6436 12.355 8.46985 17.2608 9.99263 17.8203M9.99263 17.8203C10.8707 18.5645 13.866 19.9485 15.2791 20.1443M9.99263 17.8203C7.9875 19.0384 7.39507 19.6309 7.0791 20.1443" stroke="#3A2E2B" stroke-width="0.789915" stroke-linecap="round"/>
<ellipse cx="9.88342" cy="10.5074" rx="2.01428" ry="1.34286" fill="#3A2E2B"/>
<path d="M21.9287 7.10962C22.7318 7.14911 24.5512 7.59937 25.4043 9.08441" stroke="#3A2E2B" stroke-width="1.18487" stroke-linecap="round"/>
<path d="M30.2524 0.963833C28.5892 0.0750958 27.0646 2.81537 26.5103 4.2966L30.2524 6.2407C30.9454 4.85205 31.9156 1.85257 30.2524 0.963833Z" fill="#A37556"/>
<path d="M21.7052 25.7184C24.7935 23.7751 31.5318 22.408 34.086 21.6443C37.1618 28.5438 40.4712 42.6031 29.1032 43.6439L12.1439 43.9199C10.9309 40.3827 11.4545 37.1809 12.9369 34.3785C15.0954 30.1194 19.2056 27.0431 21.7052 25.7184Z" fill="#E9B44C"/>
<path d="M9.9116 43.8804H19.6908C20.8994 32.4108 10.9952 26.7918 7.96058 25.4358C7.32865 27.5291 6.55454 28.2829 5.64606 30.1753C1.10406 33.7299 2.27783 42.4635 9.9116 43.8804Z" fill="#E9B44C"/>
<g clip-path="url(#clip0_4053_9991)">
<path d="M7.8073 11.4534C7.8073 7.09077 11.3872 3.5542 15.8033 3.5542H24.1141C27.9784 3.5542 31.2898 6.28422 31.9812 10.0401L36.5033 34.6065C37.3959 39.4554 33.6251 43.9189 28.6363 43.9189H10.9171C3.95659 43.9189 0.319629 35.7423 5.02719 30.6773L5.70117 29.9522C7.05571 28.4948 7.8073 26.5883 7.8073 24.6098L7.8073 11.4534Z" fill="#2E2A24"/>
</g>
<path d="M23.7983 28.319L15.3857 30.8072C17.5343 27.7739 22.2435 25.0803 24.581 24.3694L22.337 26.7391L23.7983 28.319Z" fill="#2E2A24"/>
<path d="M8.86598 28.7438L15.3857 30.8072C13.7206 28.2918 9.79446 26.1782 8.03954 25.4358L9.99853 27.4337L8.86598 28.7438Z" fill="#2E2A24"/>
<path d="M30.6876 24.7504C32.2022 23.8312 34.1752 24.3139 35.0943 25.8285L37.7342 30.1785C38.6534 31.6931 38.1707 33.666 36.6561 34.5852C35.1416 35.5044 33.1686 35.0217 32.2494 33.5071L29.6095 29.1571C28.6904 27.6425 29.173 25.6696 30.6876 24.7504Z" fill="#846047"/>
<path d="M37.046 29.0444L37.7342 30.1785C38.6534 31.6931 38.1707 33.666 36.6561 34.5852C35.1416 35.5044 33.1686 35.0217 32.2494 33.5071L31.5612 32.373L37.046 29.0444Z" fill="#4B3E35"/>
<path d="M2.25436 30.9909C3.71229 31.9975 5.7102 31.6316 6.71681 30.1737L9.6079 25.9864C10.6145 24.5285 10.2487 22.5306 8.79074 21.524C7.33281 20.5173 5.3349 20.8832 4.32829 22.3411L1.4372 26.5284C0.430578 27.9863 0.796437 29.9843 2.25436 30.9909Z" fill="#846047"/>
<path d="M8.85217 27.112L9.60591 26.0203C10.6125 24.5624 10.2467 22.5645 8.78874 21.5579C7.33081 20.5512 5.33291 20.9171 4.32629 22.375L3.57256 23.4667L8.85217 27.112Z" fill="#4B3E35"/>
<path d="M37.6814 27.5149C38.0983 26.8295 39.0205 26.6626 39.6514 27.1582L42.7585 29.5996C42.8424 29.6655 42.9338 29.7212 43.0309 29.7654L46.6274 31.4023C47.3576 31.7347 47.6333 32.6304 47.2163 33.3158L43.6419 39.1911C43.22 39.8846 42.283 40.0458 41.6536 39.5332L38.6191 37.0618C38.5242 36.9846 38.4192 36.9207 38.307 36.872L34.7172 35.3133C33.9727 34.99 33.6851 34.0837 34.1069 33.3903L37.6814 27.5149Z" fill="#F5F5F5"/>
<path d="M37.8074 28.1665C38.2235 27.4826 39.143 27.3146 39.774 27.8072L42.5403 29.9664C42.6221 30.0302 42.7111 30.0844 42.8054 30.1277L45.9946 31.5916C46.7222 31.9256 46.9957 32.8194 46.5796 33.5033L43.5411 38.4978C43.1203 39.1895 42.1863 39.352 41.5567 38.843L38.8572 36.6609C38.7646 36.5861 38.6625 36.524 38.5535 36.4761L35.3747 35.082C34.6332 34.7568 34.3481 33.8527 34.7689 33.161L37.8074 28.1665Z" fill="#A7D8A1"/>
<line y1="-0.111514" x2="8.33346" y2="-0.111514" transform="matrix(-0.519746 0.854321 -0.85432 -0.519748 40.1553 28.1252)" stroke="#E5D9BD" stroke-width="0.223028"/>
<path d="M36.7444 35.6887C37.3916 34.1954 38.0213 33.3469 41.5854 35.0339C46.2138 37.6316 44.3161 32.1664 44.8077 31.072" stroke="#67B7D1" stroke-width="0.892113"/>
<line y1="-0.111514" x2="10.268" y2="-0.111514" transform="matrix(0.85432 0.519747 -0.519746 0.854321 37.2998 29.001)" stroke="#E5D9BD" stroke-width="0.223028"/>
<line y1="-0.111514" x2="10.268" y2="-0.111514" transform="matrix(0.85432 0.519747 -0.519746 0.854321 34.7988 33.1116)" stroke="#E5D9BD" stroke-width="0.223028"/>
<line y1="-0.111514" x2="7.5894" y2="-0.111514" transform="matrix(-0.519746 0.854321 -0.85432 -0.519748 42.6865 30.072)" stroke="#E5D9BD" stroke-width="0.223028"/>
<rect width="2.5298" height="1.14089" rx="0.133817" transform="matrix(0.85432 0.519747 -0.519746 0.854321 40.2183 28.9763)" fill="#3A6351"/>
<rect width="1.19049" height="1.14089" rx="0.133817" transform="matrix(0.85432 0.519747 -0.519746 0.854321 39.3413 30.4172)" fill="#3A6351"/>
<rect width="1.19049" height="2.18257" rx="0.133817" transform="matrix(0.85432 0.519747 -0.519746 0.854321 36.707 31.3113)" fill="#3A6351"/>
<rect width="1.63693" height="1.14089" rx="0.133817" transform="matrix(0.85432 0.519747 -0.519746 0.854321 37.4341 29.2571)" fill="#3A6351"/>
<rect width="1.19049" height="1.14089" rx="0.133817" transform="matrix(0.85432 0.519747 -0.519746 0.854321 38.6924 28.0481)" fill="#3A6351"/>
<rect width="1.19049" height="1.14089" rx="0.133817" transform="matrix(0.85432 0.519747 -0.519746 0.854321 41.9688 32.0156)" fill="#3A6351"/>
<rect width="0.694454" height="0.744059" rx="0.133817" transform="matrix(0.85432 0.519747 -0.519746 0.854321 45.9023 32.8989)" fill="#3A6351"/>
<rect width="0.694454" height="0.744059" rx="0.133817" transform="matrix(0.85432 0.519747 -0.519746 0.854321 38.2222 35.3105)" fill="#3A6351"/>
<rect width="0.694454" height="1.19049" rx="0.133817" transform="matrix(0.85432 0.519747 -0.519746 0.854321 35.7646 33.8152)" fill="#3A6351"/>
<rect width="1.58732" height="1.14089" rx="0.133817" transform="matrix(0.85432 0.519747 -0.519746 0.854321 42.8452 30.5747)" fill="#3A6351"/>
<rect width="1.19049" height="0.744059" rx="0.133817" transform="matrix(0.85432 0.519747 -0.519746 0.854321 39.4512 36.0581)" fill="#3A6351"/>
<rect width="2.38099" height="0.992079" rx="0.133817" transform="matrix(0.85432 0.519747 -0.519746 0.854321 40.8921 36.9346)" fill="#3A6351"/>
<rect width="2.38099" height="0.992079" rx="0.133817" transform="matrix(0.85432 0.519747 -0.519746 0.854321 42.1484 36.0151)" fill="#3A6351"/>
<rect width="0.89287" height="0.744059" rx="0.133817" transform="matrix(0.85432 0.519747 -0.519746 0.854321 40.5361 35.3247)" fill="#3A6351"/>
<rect width="1.19049" height="2.28178" rx="0.133817" transform="matrix(0.85432 0.519747 -0.519746 0.854321 40.4854 31.113)" fill="#3A6351"/>
<defs>
<clipPath id="clip0_4053_9991">
<rect width="33.3344" height="6.08235" fill="white" transform="translate(3.30029 37.8374)"/>
</clipPath>
</defs>
</svg>
