<svg width="599" height="595" viewBox="0 0 599 595" fill="none" xmlns="http://www.w3.org/2000/svg">
<path d="M238.296 2.19707C217.241 -9.05397 197.94 25.6367 190.922 44.3885L238.296 69C247.069 51.4203 259.351 13.4481 238.296 2.19707Z" fill="#A37556"/>
<rect x="290.922" y="537" width="104" height="58" rx="29" fill="#846047"/>
<path d="M290.922 572H394.922C394.922 584.703 384.624 595 371.922 595H313.922C301.219 595 290.922 584.703 290.922 572Z" fill="#4B3E35"/>
<rect x="90.9219" y="537" width="104" height="58" rx="29" fill="#846047"/>
<path d="M90.9219 572H194.922C194.922 584.703 184.624 595 171.922 595H113.922C101.219 595 90.9219 584.703 90.9219 572Z" fill="#4B3E35"/>
<path d="M94.6046 145C94.6046 89.7715 139.376 45 194.605 45H298.541C346.869 45 388.281 79.5608 396.928 127.109L453.483 438.109C464.645 499.494 417.488 556 355.096 556H133.496C46.4469 556 0.962242 452.488 59.8359 388.367L68.2648 379.187C85.205 360.737 94.6046 336.602 94.6046 311.555L94.6046 145Z" fill="#A37556"/>
<path d="M49.0573 142.579C55.8371 100.187 92.4081 69 135.339 69C177.563 69 213.747 99.1943 221.305 140.737L234.48 213.149C245.645 274.511 198.506 331 136.137 331C74.6344 331 27.7207 275.987 37.4336 215.256L49.0573 142.579Z" fill="#604F44"/>
<path d="M116.324 248.949C108.235 248.123 99.4719 239.656 96.1016 235.526C114.013 221.896 129.565 229.847 135.102 235.526C132.213 240.344 124.413 249.775 116.324 248.949Z" fill="#A2766B"/>
<path d="M117.806 132.789C113.387 156.391 98.5282 218.496 117.806 225.579M117.806 225.579C128.922 235 166.841 252.521 184.731 255M117.806 225.579C92.4219 241 84.9219 248.5 80.9219 255" stroke="#3A2E2B" stroke-width="10" stroke-linecap="round"/>
<ellipse cx="116.422" cy="133" rx="25.5" ry="17" fill="#3A2E2B"/>
<path d="M268.922 90C279.089 90.5 302.122 96.2 312.922 115" stroke="#3A2E2B" stroke-width="15" stroke-linecap="round"/>
<path d="M374.296 12.1971C353.241 0.946033 333.94 35.6367 326.922 54.3885L374.296 79C383.069 61.4203 395.351 23.4481 374.296 12.1971Z" fill="#A37556"/>
<path d="M266.092 325.577C305.188 300.975 390.492 283.668 422.828 274C461.766 361.345 503.663 539.33 359.748 552.506L145.05 556C129.694 511.221 136.322 470.687 155.088 435.209C182.415 381.291 234.449 342.346 266.092 325.577Z" fill="#E9B44C"/>
<path d="M116.789 555.501H240.59C255.89 410.301 130.507 339.167 92.0898 322C84.0899 348.5 74.2899 358.043 62.789 382C5.28906 427 20.1485 537.563 116.789 555.501Z" fill="#E9B44C"/>
<g clip-path="url(#clip0_4014_675)">
<path d="M90.1495 145C90.1495 89.7715 135.47 45 191.376 45H296.587C345.508 45 387.428 79.5608 396.181 127.109L453.429 438.109C464.729 499.494 416.993 556 353.836 556H129.518C41.4011 556 -4.64142 452.488 54.9544 388.367L63.4867 379.187C80.6346 360.737 90.1495 336.602 90.1495 311.555L90.1495 145Z" fill="#2E2A24"/>
</g>
<path d="M292.592 358.5L186.092 390C213.292 351.6 272.908 317.5 302.5 308.5L274.092 338.5L292.592 358.5Z" fill="#2E2A24"/>
<path d="M103.554 363.878L186.092 390C165.012 358.156 115.308 331.398 93.0918 322L117.892 347.293L103.554 363.878Z" fill="#2E2A24"/>
<path d="M379.817 313.325C398.991 301.689 423.968 307.799 435.604 326.973L469.024 382.042C480.66 401.216 474.55 426.193 455.376 437.829C436.202 449.466 411.225 443.355 399.589 424.181L366.169 369.112C354.532 349.938 360.643 324.961 379.817 313.325Z" fill="#846047"/>
<path d="M460.311 367.686L469.024 382.042C480.66 401.216 474.55 426.193 455.376 437.829C436.202 449.466 411.225 443.355 399.589 424.181L390.876 409.824L460.311 367.686Z" fill="#4B3E35"/>
<path d="M19.86 392.327C38.3168 405.07 63.6095 400.438 76.3529 381.982L112.953 328.972C125.696 310.515 121.065 285.223 102.608 272.479C84.1511 259.736 58.8584 264.368 46.1151 282.824L9.51502 335.834C-3.22835 354.291 1.40328 379.583 19.86 392.327Z" fill="#846047"/>
<path d="M103.386 343.221L112.928 329.401C125.671 310.945 121.039 285.652 102.583 272.909C84.1259 260.165 58.8332 264.797 46.0898 283.254L36.5478 297.074L103.386 343.221Z" fill="#4B3E35"/>
<path d="M468.353 348.313C473.631 339.637 485.306 337.523 493.292 343.798L532.627 374.705C533.689 375.539 534.847 376.243 536.076 376.803L581.606 397.526C590.85 401.733 594.34 413.073 589.061 421.749L543.811 496.129C538.47 504.908 526.607 506.949 518.64 500.46L480.224 469.173C479.023 468.195 477.694 467.386 476.273 466.77L430.828 447.037C421.402 442.945 417.761 431.472 423.102 422.693L468.353 348.313Z" fill="#F5F5F5"/>
<path d="M469.951 356.561C475.219 347.903 486.859 345.776 494.848 352.012L529.867 379.347C530.903 380.155 532.029 380.84 533.224 381.388L573.598 399.922C582.808 404.15 586.271 415.464 581.003 424.123L542.537 487.351C537.209 496.107 525.386 498.164 517.415 491.72L483.241 464.097C482.069 463.15 480.776 462.363 479.396 461.758L439.154 444.108C429.766 439.991 426.157 428.546 431.485 419.789L469.951 356.561Z" fill="#A7D8A1"/>
<line x1="500.876" y1="356.773" x2="446.044" y2="446.902" stroke="#E5D9BD" stroke-width="2.82345"/>
<path d="M456.489 451.789C464.682 432.884 472.655 422.143 517.774 443.5C576.368 476.386 552.344 407.198 558.567 393.343" stroke="#67B7D1" stroke-width="11.2938"/>
<line x1="464.255" y1="365.921" x2="575.307" y2="433.482" stroke="#E5D9BD" stroke-width="2.82345"/>
<line x1="432.597" y1="417.958" x2="543.649" y2="485.519" stroke="#E5D9BD" stroke-width="2.82345"/>
<line x1="532.923" y1="381.417" x2="482.986" y2="463.499" stroke="#E5D9BD" stroke-width="2.82345"/>
<rect x="500.467" y="366.812" width="32.0262" height="14.4432" rx="1.69407" transform="rotate(31.3153 500.467 366.812)" fill="#3A6351"/>
<rect x="489.367" y="385.055" width="15.0712" height="14.4432" rx="1.69407" transform="rotate(31.3153 489.367 385.055)" fill="#3A6351"/>
<rect x="456.02" y="396.373" width="15.0712" height="27.6305" rx="1.69407" transform="rotate(31.3153 456.02 396.373)" fill="#3A6351"/>
<rect x="465.225" y="370.369" width="20.7228" height="14.4432" rx="1.69407" transform="rotate(31.3153 465.225 370.369)" fill="#3A6351"/>
<rect x="481.152" y="355.062" width="15.0712" height="14.4432" rx="1.69407" transform="rotate(31.3153 481.152 355.062)" fill="#3A6351"/>
<rect x="522.631" y="405.289" width="15.0712" height="14.4432" rx="1.69407" transform="rotate(31.3153 522.631 405.289)" fill="#3A6351"/>
<rect x="572.426" y="416.473" width="8.79151" height="9.41947" rx="1.69407" transform="rotate(31.3153 572.426 416.473)" fill="#3A6351"/>
<rect x="475.201" y="447.004" width="8.79151" height="9.41947" rx="1.69407" transform="rotate(31.3153 475.201 447.004)" fill="#3A6351"/>
<rect x="444.086" y="428.07" width="8.79151" height="15.0712" rx="1.69407" transform="rotate(31.3153 444.086 428.07)" fill="#3A6351"/>
<rect x="533.727" y="387.049" width="20.0949" height="14.4432" rx="1.69407" transform="rotate(31.3153 533.727 387.049)" fill="#3A6351"/>
<rect x="490.76" y="456.467" width="15.0712" height="9.41947" rx="1.69407" transform="rotate(31.3153 490.76 456.467)" fill="#3A6351"/>
<rect x="509" y="467.562" width="30.1423" height="12.5593" rx="1.69407" transform="rotate(31.3153 509 467.562)" fill="#3A6351"/>
<rect x="524.902" y="455.924" width="30.1423" height="12.5593" rx="1.69407" transform="rotate(31.3153 524.902 455.924)" fill="#3A6351"/>
<rect x="504.492" y="447.182" width="11.3034" height="9.41947" rx="1.69407" transform="rotate(31.3153 504.492 447.182)" fill="#3A6351"/>
<rect x="503.852" y="393.865" width="15.0712" height="28.8864" rx="1.69407" transform="rotate(31.3153 503.852 393.865)" fill="#3A6351"/>
<defs>
<clipPath id="clip0_4014_675">
<rect width="422" height="77" fill="white" transform="translate(33.0918 479)"/>
</clipPath>
</defs>
</svg>
