<svg width="91" height="136" viewBox="0 0 91 136" fill="none" xmlns="http://www.w3.org/2000/svg">
<path d="M29.5476 26.2197C25.1753 27.5466 27.2582 34.8538 28.8461 38.3415L38.5887 35.2608C37.3968 31.6942 33.9199 24.8928 29.5476 26.2197Z" fill="#A37556"/>
<path d="M56.7201 85.6298C52.5502 86.65 49.9969 90.8573 51.017 95.0272L53.947 107.003C54.9672 111.173 59.1745 113.727 63.3444 112.706C67.5142 111.686 70.0675 107.479 69.0474 103.309L66.1174 91.3329C65.0973 87.163 60.8899 84.6097 56.7201 85.6298Z" fill="#846047"/>
<path d="M53.125 103.823L53.8888 106.945C54.909 111.115 59.1163 113.668 63.2862 112.648C67.456 111.628 70.0094 107.421 68.9892 103.251L68.2253 100.129L53.125 103.823Z" fill="#4B3E35"/>
<rect x="81.9814" y="118.546" width="19.9055" height="11.1011" rx="5.55057" transform="rotate(-45 81.9814 118.546)" fill="#846047"/>
<path d="M86.7183 123.283L100.794 109.207C102.513 110.927 102.513 113.714 100.794 115.433L92.9439 123.283C91.2247 125.002 88.4374 125.002 86.7183 123.283Z" fill="#4B3E35"/>
<path d="M29.4275 64.9937C21.9529 57.5191 21.9529 45.4004 29.4275 37.9258L43.4942 23.859C50.0349 17.3184 60.3171 16.3911 67.9224 21.656L117.667 56.0925C127.486 62.8896 128.751 76.9194 120.307 85.3635L90.3157 115.355C78.5344 127.136 58.3693 119.283 57.6592 102.637L57.5575 100.253C57.3532 95.4637 55.3588 90.925 51.9689 87.5351L29.4275 64.9937Z" fill="#A37556"/>
<path d="M22.9351 70.8312C18.1154 64.1763 18.8441 55.006 24.6543 49.1958C30.3689 43.4812 39.3525 42.6706 45.9978 47.27L57.5812 55.2872C67.3968 62.0809 68.6623 76.1058 60.2213 84.5468C51.8976 92.8705 38.1028 91.7744 31.1981 82.2405L22.9351 70.8312Z" fill="#604F44"/>
<path d="M30.9156 60.2011C33.5118 63.9933 39.3251 75.3753 42.8927 73.7248M42.8927 73.7248C45.6722 73.4954 44.2461 73.4541 51.9605 72.2361M42.8927 73.7248C41.5443 79.2473 42.7574 80.3564 43.2988 80.8978" stroke="#3A2E2B" stroke-width="1.18692" stroke-linecap="round"/>
<ellipse cx="30.7568" cy="60.417" rx="4.88068" ry="3.25379" transform="rotate(-45 30.7568 60.417)" fill="#3A2E2B"/>
<path d="M45.5752 33.9585C47.0188 32.6502 50.9076 30.3043 54.9136 31.387" stroke="#3A2E2B" stroke-width="1.78037" stroke-linecap="round"/>
<path d="M91.4468 50.9033C92.467 46.7335 96.6743 44.1801 100.844 45.2003L112.82 48.1303C116.99 49.1504 119.544 53.3578 118.523 57.5276C117.503 61.6975 113.296 64.2508 109.126 63.2306L97.1499 60.3007C92.98 59.2805 90.4267 55.0732 91.4468 50.9033Z" fill="#846047"/>
<path d="M109.698 47.3664L112.82 48.1303C116.99 49.1504 119.544 53.3578 118.523 57.5276C117.503 61.6975 113.296 64.2508 109.126 63.2306L106.004 62.4668L109.698 47.3664Z" fill="#4B3E35"/>
<path d="M49.3069 9.16698C44.9346 10.4939 47.0174 17.801 48.6054 21.2888L58.348 18.2081C57.1561 14.6415 53.6792 7.84008 49.3069 9.16698Z" fill="#A37556"/>
<path d="M56.9689 33.122C57.7704 36.0738 61.1369 42.7581 63.7331 39.8862C66.0203 37.3559 60.6768 34.6796 56.9689 33.122Z" fill="#67B7D1"/>
</svg>
