<svg width="528" height="595" viewBox="0 0 528 595" fill="none" xmlns="http://www.w3.org/2000/svg">
<path d="M238.296 2.19707C217.241 -9.05397 197.94 25.6367 190.922 44.3885L238.296 69C247.069 51.4203 259.351 13.4481 238.296 2.19707Z" fill="#A37556"/>
<rect x="290.922" y="537" width="104" height="58" rx="29" fill="#846047"/>
<path d="M290.922 572H394.922C394.922 584.703 384.624 595 371.922 595H313.922C301.219 595 290.922 584.703 290.922 572Z" fill="#4B3E35"/>
<rect x="90.9219" y="537" width="104" height="58" rx="29" fill="#846047"/>
<path d="M90.9219 572H194.922C194.922 584.703 184.624 595 171.922 595H113.922C101.219 595 90.9219 584.703 90.9219 572Z" fill="#4B3E35"/>
<path d="M94.6046 145C94.6046 89.7715 139.376 45 194.605 45H298.541C346.869 45 388.281 79.5608 396.928 127.109L453.483 438.109C464.645 499.494 417.488 556 355.096 556H133.496C46.4469 556 0.962242 452.488 59.8359 388.367L68.2648 379.187C85.205 360.737 94.6046 336.602 94.6046 311.555L94.6046 145Z" fill="#A37556"/>
<path d="M49.0573 142.579C55.8371 100.187 92.4081 69 135.339 69C177.563 69 213.747 99.1943 221.305 140.737L234.48 213.149C245.645 274.511 198.506 331 136.137 331C74.6344 331 27.7207 275.987 37.4336 215.256L49.0573 142.579Z" fill="#604F44"/>
<path d="M116.324 248.949C108.235 248.123 99.4719 239.656 96.1016 235.526C114.013 221.896 129.565 229.847 135.102 235.526C132.213 240.344 124.413 249.775 116.324 248.949Z" fill="#A2766B"/>
<path d="M117.806 132.789C113.387 156.391 98.5282 218.496 117.806 225.579M117.806 225.579C128.922 235 166.841 252.521 184.731 255M117.806 225.579C92.4219 241 84.9219 248.5 80.9219 255" stroke="#3A2E2B" stroke-width="10" stroke-linecap="round"/>
<ellipse cx="116.422" cy="133" rx="25.5" ry="17" fill="#3A2E2B"/>
<path d="M268.922 90C279.089 90.5 302.122 96.2 312.922 115" stroke="#3A2E2B" stroke-width="15" stroke-linecap="round"/>
<path d="M374.296 12.1971C353.241 0.946033 333.94 35.6367 326.922 54.3885L374.296 79C383.069 61.4203 395.351 23.4481 374.296 12.1971Z" fill="#A37556"/>
<path d="M266.092 325.577C305.188 300.975 390.492 283.668 422.828 274C461.766 361.345 503.663 539.33 359.748 552.506L145.05 556C129.694 511.221 136.322 470.687 155.088 435.209C182.415 381.291 234.449 342.346 266.092 325.577Z" fill="#F5F5F5"/>
<path d="M116.789 555.501H240.59C255.89 410.301 130.507 339.167 92.0898 322C84.0899 348.5 74.2899 358.043 62.789 382C5.28906 427 20.1485 537.563 116.789 555.501Z" fill="#F5F5F5"/>
<g clip-path="url(#clip0_4053_389)">
<path d="M90.0577 145C90.0577 89.7715 135.378 45 191.284 45H296.496C345.416 45 387.336 79.5608 396.089 127.109L453.337 438.109C464.637 499.494 416.901 556 353.744 556H129.426C41.3093 556 -4.73322 452.488 54.8626 388.367L63.3949 379.187C80.5428 360.737 90.0577 336.602 90.0577 311.555L90.0577 145Z" fill="#636363"/>
</g>
<path d="M292.592 358.5L186.092 390C213.292 351.6 272.908 317.5 302.5 308.5L274.092 338.5L292.592 358.5Z" fill="#636363"/>
<path d="M103.554 363.878L186.092 390C165.012 358.156 115.308 331.398 93.0918 322L117.892 347.293L103.554 363.878Z" fill="#636363"/>
<path d="M379.817 313.325C398.991 301.689 423.968 307.799 435.604 326.973L469.024 382.042C480.66 401.216 474.55 426.193 455.376 437.829C436.202 449.466 411.225 443.355 399.589 424.181L366.169 369.112C354.532 349.938 360.643 324.961 379.817 313.325Z" fill="#846047"/>
<path d="M460.311 367.686L469.024 382.042C480.66 401.216 474.55 426.193 455.376 437.829C436.202 449.466 411.225 443.355 399.589 424.181L390.876 409.824L460.311 367.686Z" fill="#4B3E35"/>
<path d="M19.86 392.327C38.3168 405.07 63.6095 400.438 76.3529 381.982L112.953 328.972C125.696 310.515 121.065 285.223 102.608 272.479C84.1511 259.736 58.8584 264.368 46.1151 282.824L9.51502 335.834C-3.22835 354.291 1.40328 379.583 19.86 392.327Z" fill="#846047"/>
<path d="M103.386 343.221L112.928 329.401C125.671 310.945 121.039 285.652 102.583 272.909C84.1259 260.165 58.8332 264.797 46.0898 283.254L36.5478 297.074L103.386 343.221Z" fill="#4B3E35"/>
<path d="M465.367 170.246C472.755 170.246 476.133 165.182 476.133 158.431C476.133 157.271 476.133 156.005 476.133 154.845C476.344 140.921 481.304 135.12 498.192 123.517C516.346 111.281 527.85 97.1461 527.85 76.7879C527.85 45.143 502.097 27 470.011 27C446.157 27 425.259 38.2867 416.287 58.6448C414.071 63.6026 413.121 68.4548 413.121 72.4631C413.121 78.4756 416.604 82.695 423.042 82.695C428.425 82.695 432.014 79.5305 433.597 74.3618C438.98 54.32 452.279 46.7253 469.272 46.7253C489.854 46.7253 506.002 58.3284 506.002 76.6825C506.002 91.7665 496.609 100.205 483.099 109.699C466.528 121.196 454.39 133.538 454.39 152.103C454.39 154.318 454.39 156.532 454.39 158.748C454.39 165.499 458.084 170.246 465.367 170.246ZM465.367 227.945C473.81 227.945 480.46 221.194 480.46 212.967C480.46 204.633 473.81 197.987 465.367 197.987C457.134 197.987 450.379 204.633 450.379 212.967C450.379 221.194 457.134 227.945 465.367 227.945Z" fill="#2E2A24"/>
<defs>
<clipPath id="clip0_4053_389">
<rect width="422" height="77" fill="white" transform="translate(33 479)"/>
</clipPath>
</defs>
</svg>
