<svg width="42" height="47" viewBox="0 0 42 47" fill="none" xmlns="http://www.w3.org/2000/svg">
<path d="M19.1269 0.174038C17.4637 -0.714699 15.9392 2.02557 15.3848 3.5068L19.1269 5.45091C19.8199 4.06226 20.7901 1.06278 19.1269 0.174038Z" fill="#A37556"/>
<rect x="23.2852" y="42.4194" width="8.21512" height="4.58151" rx="2.29076" fill="#846047"/>
<path d="M23.2852 45.1841H31.5003C31.5003 46.1875 30.6869 47.0009 29.6835 47.0009H25.102C24.0986 47.0009 23.2852 46.1875 23.2852 45.1841Z" fill="#4B3E35"/>
<rect x="7.48535" y="42.4194" width="8.21512" height="4.58151" rx="2.29076" fill="#846047"/>
<path d="M7.48535 45.1841H15.7005C15.7005 46.1875 14.8871 47.0009 13.8837 47.0009H9.30216C8.29876 47.0009 7.48535 46.1875 7.48535 45.1841Z" fill="#4B3E35"/>
<path d="M7.77672 11.4543C7.77672 7.09175 11.3133 3.55518 15.6759 3.55518H23.886C27.7034 3.55518 30.9747 6.28519 31.6577 10.0411L36.125 34.6075C37.0068 39.4563 33.2818 43.9199 28.3533 43.9199H10.8488C3.97267 43.9199 0.379765 35.7433 5.03029 30.6783L5.6961 29.9532C7.03423 28.4958 7.77672 26.5893 7.77672 24.6108L7.77672 11.4543Z" fill="#A37556"/>
<path d="M4.17874 11.263C4.71429 7.91442 7.60309 5.45093 10.9942 5.45093C14.3296 5.45093 17.1878 7.83603 17.7849 11.1175L18.8256 16.8375C19.7075 21.6846 15.9839 26.1467 11.0573 26.1467C6.19912 26.1467 2.49333 21.8012 3.26057 17.0039L4.17874 11.263Z" fill="#604F44"/>
<path d="M9.4924 19.6653C8.85345 19.6 8.16125 18.9312 7.89502 18.605C9.30985 17.5283 10.5383 18.1564 10.9757 18.605C10.7475 18.9856 10.1314 19.7306 9.4924 19.6653Z" fill="#A2766B"/>
<path d="M9.60982 10.4907C9.26079 12.355 8.08704 17.2608 9.60982 17.8203M9.60982 17.8203C10.4879 18.5645 13.4832 19.9485 14.8963 20.1443M9.60982 17.8203C7.60469 19.0384 7.01226 19.6309 6.69629 20.1443" stroke="#3A2E2B" stroke-width="0.789916" stroke-linecap="round"/>
<ellipse cx="9.50061" cy="10.5074" rx="2.01428" ry="1.34286" fill="#3A2E2B"/>
<path d="M21.5464 7.10962C22.3495 7.14911 24.1689 7.59937 25.022 9.08441" stroke="#3A2E2B" stroke-width="1.18487" stroke-linecap="round"/>
<path d="M29.8701 0.963833C28.2069 0.0750958 26.6823 2.81537 26.1279 4.2966L29.8701 6.2407C30.5631 4.85205 31.5333 1.85257 29.8701 0.963833Z" fill="#A37556"/>
<path d="M21.3229 25.7184C24.4112 23.7751 31.1495 22.408 33.7037 21.6443C36.7795 28.5438 40.089 42.6031 28.7209 43.6439L11.7616 43.9199C10.5486 40.3827 11.0722 37.1809 12.5545 34.3785C14.7131 30.1194 18.8233 27.0431 21.3229 25.7184Z" fill="#F5F5F5"/>
<path d="M9.52927 43.8804H19.3085C20.5171 32.4108 10.6129 26.7918 7.57824 25.4358C6.94631 27.5291 6.1722 28.2829 5.26372 30.1753C0.72171 33.7299 1.89548 42.4635 9.52927 43.8804Z" fill="#F5F5F5"/>
<g clip-path="url(#clip0_4053_9836)">
<path d="M7.42498 11.4534C7.42498 7.09077 11.0049 3.5542 15.421 3.5542H23.7318C27.5961 3.5542 30.9075 6.28422 31.5989 10.0401L36.121 34.6065C37.0136 39.4554 33.2429 43.9189 28.254 43.9189H10.5348C3.57427 43.9189 -0.0626984 35.7423 4.64487 30.6773L5.31885 29.9522C6.67339 28.4948 7.42498 26.5883 7.42498 24.6098L7.42498 11.4534Z" fill="#636363"/>
</g>
<path d="M23.416 28.319L15.0034 30.8072C17.152 27.7739 21.8612 25.0803 24.1987 24.3694L21.9547 26.7391L23.416 28.319Z" fill="#636363"/>
<path d="M8.48365 28.7438L15.0034 30.8072C13.3383 28.2918 9.41213 26.1782 7.6572 25.4358L9.61619 27.4337L8.48365 28.7438Z" fill="#636363"/>
<path d="M30.3063 24.7504C31.8209 23.8312 33.7938 24.3139 34.713 25.8285L37.3529 30.1785C38.2721 31.6931 37.7894 33.666 36.2748 34.5852C34.7602 35.5044 32.7873 35.0217 31.8681 33.5071L29.2282 29.1571C28.309 27.6425 28.7917 25.6696 30.3063 24.7504Z" fill="#846047"/>
<path d="M36.6647 29.0444L37.3529 30.1785C38.2721 31.6931 37.7894 33.666 36.2748 34.5852C34.7602 35.5044 32.7873 35.0217 31.8681 33.5071L31.1799 32.373L36.6647 29.0444Z" fill="#4B3E35"/>
<path d="M1.87252 30.9909C3.33045 31.9975 5.32836 31.6316 6.33497 30.1737L9.22607 25.9864C10.2327 24.5285 9.86683 22.5306 8.4089 21.524C6.95097 20.5173 4.95306 20.8832 3.94644 22.3411L1.05535 26.5284C0.0487296 27.9863 0.414589 29.9843 1.87252 30.9909Z" fill="#846047"/>
<path d="M8.47034 27.112L9.22407 26.0203C10.2307 24.5624 9.86483 22.5645 8.4069 21.5579C6.94898 20.5512 4.95106 20.9171 3.94445 22.375L3.19071 23.4667L8.47034 27.112Z" fill="#4B3E35"/>
<path d="M37.0645 13.4485C37.6481 13.4485 37.9149 13.0485 37.9149 12.5153C37.9149 12.4236 37.9149 12.3236 37.9149 12.232C37.9315 11.1321 38.3234 10.6738 39.6574 9.75732C41.0914 8.79078 42.0001 7.67426 42.0001 6.06613C42.0001 3.56645 39.9658 2.1333 37.4313 2.1333C35.5471 2.1333 33.8963 3.02485 33.1876 4.63298C33.0125 5.0246 32.9375 5.40788 32.9375 5.7245C32.9375 6.19944 33.2126 6.53274 33.7212 6.53274C34.1464 6.53274 34.4299 6.28277 34.5549 5.87448C34.9801 4.29135 36.0306 3.69144 37.3729 3.69144C38.9987 3.69144 40.2743 4.60799 40.2743 6.0578C40.2743 7.24931 39.5323 7.91589 38.4651 8.6658C37.1562 9.57401 36.1974 10.5489 36.1974 12.0154C36.1974 12.1904 36.1974 12.3653 36.1974 12.5403C36.1974 13.0735 36.4892 13.4485 37.0645 13.4485ZM37.0645 18.0063C37.7314 18.0063 38.2567 17.473 38.2567 16.8231C38.2567 16.1649 37.7314 15.6399 37.0645 15.6399C36.4142 15.6399 35.8806 16.1649 35.8806 16.8231C35.8806 17.473 36.4142 18.0063 37.0645 18.0063Z" fill="#2E2A24"/>
<defs>
<clipPath id="clip0_4053_9836">
<rect width="33.3344" height="6.08235" fill="white" transform="translate(2.91797 37.8374)"/>
</clipPath>
</defs>
</svg>
