<svg width="393" height="778" viewBox="0 0 393 778" fill="none" xmlns="http://www.w3.org/2000/svg">
<path d="M-8.63574 137.551L432.124 157.505L402.818 804.842C401.569 832.428 378.194 853.779 350.608 852.53L9.74572 837.098C-17.8403 835.85 -39.1907 812.474 -37.9419 784.888L-8.63574 137.551Z" fill="#67B7D1"/>
<path d="M558.685 178.851C556.667 223.409 491.384 238.333 430.546 263.243C377.663 284.896 350.86 313.99 275.743 310.59C200.626 307.189 191.494 264.964 128.125 256.122C65.0532 240.724 -17.4407 213.545 -15.4235 168.987C-14.2357 142.751 -16.6334 138.47 24.8356 118.844C54.8166 96.9066 28.4895 69.4337 54.4917 47.169C98.7191 9.29876 137.178 41.6444 243.299 17.0338C304.968 6.23066 418.172 24.3583 460.109 65.532C504.911 109.519 560.702 134.293 558.685 178.851Z" fill="#67B7D1"/>
</svg>
