<svg width="51" height="57" viewBox="0 0 51 57" fill="none" xmlns="http://www.w3.org/2000/svg">
<path d="M27.1186 0.208721C29.1188 -0.860126 30.9524 2.43549 31.6191 4.2169L27.1186 6.555C26.2851 4.88492 25.1183 1.27757 27.1186 0.208721Z" fill="#A37556"/>
<path d="M37.9295 36.3569C36.8241 34.5353 37.4046 32.1626 39.2261 31.0571L44.4577 27.8822C46.2793 26.7767 48.652 27.3572 49.7575 29.1788C50.8629 31.0003 50.2824 33.3731 48.4609 34.4785L43.2293 37.6535C41.4078 38.7589 39.035 38.1784 37.9295 36.3569Z" fill="#846047"/>
<path d="M43.053 28.7099L44.4169 27.8822C46.2384 26.7767 48.6112 27.3572 49.7166 29.1788C50.8221 31.0003 50.2416 33.3731 48.4201 34.4785L47.0561 35.3063L43.053 28.7099Z" fill="#4B3E35"/>
<rect width="9.87999" height="5.51" rx="2.755" transform="matrix(-1 0 0 1 22.1221 51.0142)" fill="#846047"/>
<path d="M22.1221 54.3389H12.2421C12.2421 55.5456 13.2203 56.5239 14.4271 56.5239H19.9371C21.1438 56.5239 22.1221 55.5456 22.1221 54.3389Z" fill="#4B3E35"/>
<rect width="9.87999" height="5.51" rx="2.755" transform="matrix(-1 0 0 1 41.1216 51.0142)" fill="#846047"/>
<path d="M41.1216 54.3389H31.2416C31.2416 55.5456 32.2198 56.5239 33.4266 56.5239H38.9366C40.1433 56.5239 41.1216 55.5456 41.1216 54.3389Z" fill="#4B3E35"/>
<path d="M40.7708 13.7747C40.7708 8.52809 36.5176 4.2749 31.2711 4.2749H21.3974C16.8064 4.2749 12.8723 7.5581 12.0509 12.075L6.6783 41.6193C5.61787 47.4507 10.0977 52.8187 16.0248 52.8187H37.0762C45.3457 52.8187 49.6666 42.9853 44.0738 36.894L43.273 36.0219C41.6638 34.2692 40.7708 31.9764 40.7708 29.5969L40.7708 13.7747Z" fill="#A37556"/>
<path d="M45.0991 13.545C44.4551 9.51784 40.9809 6.55518 36.9026 6.55518C32.8914 6.55518 29.454 9.42356 28.736 13.37L27.4844 20.249C26.4238 26.0782 30.9019 31.4445 36.8268 31.4445C42.6694 31.4445 47.1261 26.2184 46.2034 20.4492L45.0991 13.545Z" fill="#604F44"/>
<path d="M38.6126 23.7455C39.381 23.6671 40.2135 22.8627 40.5337 22.4703C38.8321 21.1755 37.3547 21.9308 36.8287 22.4703C37.1031 22.9281 37.8441 23.824 38.6126 23.7455Z" fill="#A2766B"/>
<path d="M38.5663 12.6123C38.9861 14.8544 40.3977 20.7545 38.5663 21.4273M38.5663 21.4273C37.5103 22.3223 33.908 23.9868 32.2085 24.2223M38.5663 21.4273C40.9778 22.8923 41.6903 23.6048 42.0703 24.2223" stroke="#3A2E2B" stroke-width="0.949976" stroke-linecap="round"/>
<ellipse cx="2.4225" cy="1.615" rx="2.4225" ry="1.615" transform="matrix(-1 0 0 1 41.1211 11.0186)" fill="#3A2E2B"/>
<path d="M24.2095 8.54834C23.2436 8.59584 21.0555 9.13734 20.0295 10.9233" stroke="#3A2E2B" stroke-width="1.42496" stroke-linecap="round"/>
<path d="M11.657 37.1712C13.5251 36.1464 14.2088 33.8013 13.184 31.9331L10.2408 26.5678C9.21605 24.6997 6.87091 24.016 5.0028 25.0408C3.13469 26.0655 2.45103 28.4107 3.4758 30.2788L6.41902 35.6442C7.44379 37.5123 9.78893 38.1959 11.657 37.1712Z" fill="#846047"/>
<path d="M11.0081 27.9666L10.2408 26.5678C9.21605 24.6997 6.87091 24.016 5.0028 25.0408C3.13469 26.0655 2.45103 28.4107 3.4758 30.2788L4.2431 31.6776L11.0081 27.9666Z" fill="#4B3E35"/>
<path d="M14.1996 1.15794C16.1999 0.0890923 18.0334 3.38471 18.7002 5.16612L14.1996 7.50422C13.3662 5.83414 12.1994 2.22679 14.1996 1.15794Z" fill="#A37556"/>
</svg>
