<svg width="294" height="174" viewBox="0 0 294 174" fill="none" xmlns="http://www.w3.org/2000/svg">
<path d="M146.804 92.5824C149.666 91.0529 152.29 95.7686 153.244 98.3176L146.804 101.663C145.611 99.2735 143.942 94.1118 146.804 92.5824Z" fill="#A37556"/>
<path d="M162.274 144.307C160.692 141.701 161.522 138.306 164.129 136.724L171.615 132.181C174.221 130.599 177.616 131.43 179.198 134.036C180.78 136.643 179.949 140.038 177.343 141.62L169.857 146.163C167.251 147.744 163.855 146.914 162.274 144.307Z" fill="#846047"/>
<path d="M169.605 133.365L171.556 132.181C174.163 130.599 177.558 131.43 179.14 134.036C180.721 136.643 179.891 140.038 177.284 141.62L175.333 142.804L169.605 133.365Z" fill="#4B3E35"/>
<rect width="14.1373" height="7.88425" rx="3.94212" transform="matrix(-1 0 0 1 139.656 165.279)" fill="#846047"/>
<path d="M139.656 170.036H125.519C125.519 171.763 126.919 173.163 128.645 173.163H136.529C138.256 173.163 139.656 171.763 139.656 170.036Z" fill="#4B3E35"/>
<rect width="14.1373" height="7.88425" rx="3.94212" transform="matrix(-1 0 0 1 166.838 165.279)" fill="#846047"/>
<path d="M166.838 170.036H152.701C152.701 171.763 154.101 173.163 155.828 173.163H163.712C165.439 173.163 166.838 171.763 166.838 170.036Z" fill="#4B3E35"/>
<path d="M166.338 111.994C166.338 104.487 160.252 98.4008 152.745 98.4008H138.617C132.047 98.4008 126.418 103.099 125.243 109.562L117.555 151.837C116.038 160.181 122.448 167.862 130.929 167.862H161.051C172.884 167.862 179.067 153.791 171.064 145.075L169.918 143.828C167.616 141.32 166.338 138.039 166.338 134.634L166.338 111.994Z" fill="#A37556"/>
<path d="M172.531 111.665C171.61 105.902 166.638 101.663 160.803 101.663C155.063 101.663 150.145 105.767 149.117 111.414L147.326 121.257C145.809 129.598 152.216 137.277 160.694 137.277C169.055 137.277 175.432 129.799 174.111 121.544L172.531 111.665Z" fill="#604F44"/>
<path d="M163.25 126.261C164.349 126.148 165.541 124.997 165.999 124.436C163.564 122.583 161.45 123.664 160.697 124.436C161.09 125.091 162.15 126.373 163.25 126.261Z" fill="#A2766B"/>
<path d="M163.183 110.333C163.784 113.541 165.804 121.984 163.183 122.947M163.183 122.947C161.672 124.227 156.518 126.609 154.086 126.946M163.183 122.947C166.634 125.043 167.653 126.062 168.197 126.946" stroke="#3A2E2B" stroke-width="1.35932" stroke-linecap="round"/>
<ellipse cx="3.46635" cy="2.3109" rx="3.46635" ry="2.3109" transform="matrix(-1 0 0 1 166.837 108.052)" fill="#3A2E2B"/>
<path d="M142.643 104.517C141.261 104.585 138.13 105.359 136.661 107.915" stroke="#3A2E2B" stroke-width="2.03898" stroke-linecap="round"/>
<path d="M124.68 145.472C127.353 144.006 128.331 140.65 126.865 137.977L122.654 130.3C121.187 127.627 117.832 126.649 115.158 128.115C112.485 129.581 111.507 132.937 112.974 135.61L117.185 143.287C118.651 145.96 122.007 146.939 124.68 145.472Z" fill="#846047"/>
<path d="M123.751 132.302L122.654 130.3C121.187 127.627 117.832 126.649 115.158 128.115C112.485 129.581 111.507 132.937 112.974 135.61L114.071 137.612L123.751 132.302Z" fill="#4B3E35"/>
<path d="M128.319 93.941C131.181 92.4116 133.804 97.1273 134.759 99.6763L128.319 103.022C127.126 100.632 125.457 95.4704 128.319 93.941Z" fill="#A37556"/>
<path d="M255.104 79.4998C258.431 77.7221 261.48 83.2034 262.589 86.1662L255.104 90.055C253.718 87.2773 251.777 81.2775 255.104 79.4998Z" fill="#A37556"/>
<path d="M273.085 139.622C271.247 136.593 272.212 132.646 275.242 130.808L283.943 125.527C286.972 123.689 290.919 124.654 292.757 127.684C294.596 130.713 293.631 134.66 290.601 136.498L281.9 141.779C278.87 143.618 274.924 142.652 273.085 139.622Z" fill="#846047"/>
<path d="M281.606 126.904L283.875 125.527C286.905 123.689 290.851 124.654 292.69 127.684C294.528 130.713 293.563 134.66 290.533 136.498L288.265 137.875L281.606 126.904Z" fill="#4B3E35"/>
<rect width="16.4325" height="9.16428" rx="4.58214" transform="matrix(-1 0 0 1 246.795 163.999)" fill="#846047"/>
<path d="M246.795 169.528H230.363C230.363 171.535 231.99 173.162 233.997 173.162H243.161C245.168 173.162 246.795 171.535 246.795 169.528Z" fill="#4B3E35"/>
<rect width="16.4325" height="9.16428" rx="4.58214" transform="matrix(-1 0 0 1 278.391 163.999)" fill="#846047"/>
<path d="M278.391 169.528H261.958C261.958 171.535 263.585 173.162 265.592 173.162H274.757C276.764 173.162 278.391 171.535 278.391 169.528Z" fill="#4B3E35"/>
<path d="M277.809 102.063C277.809 93.3369 270.736 86.2629 262.009 86.2629H245.587C237.952 86.2629 231.408 91.7236 230.042 99.2362L221.106 148.374C219.343 158.073 226.794 167.001 236.652 167.001H271.665C285.418 167.001 292.605 150.646 283.303 140.515L281.971 139.065C279.295 136.15 277.809 132.336 277.809 128.379L277.809 102.063Z" fill="#A37556"/>
<path d="M285.008 101.68C283.937 94.9821 278.159 90.0546 271.375 90.0546C264.704 90.0546 258.987 94.8253 257.793 101.389L255.711 112.83C253.947 122.525 261.395 131.451 271.249 131.451C280.967 131.451 288.379 122.759 286.845 113.163L285.008 101.68Z" fill="#604F44"/>
<path d="M274.22 118.646C275.498 118.515 276.883 117.177 277.415 116.525C274.585 114.371 272.128 115.627 271.253 116.525C271.709 117.286 272.942 118.776 274.22 118.646Z" fill="#A2766B"/>
<path d="M274.142 100.133C274.841 103.862 277.188 113.675 274.142 114.794M274.142 114.794C272.386 116.282 266.395 119.051 263.568 119.442M274.142 114.794C278.153 117.23 279.338 118.415 279.97 119.442" stroke="#3A2E2B" stroke-width="1.58001" stroke-linecap="round"/>
<ellipse cx="4.02912" cy="2.68608" rx="4.02912" ry="2.68608" transform="matrix(-1 0 0 1 278.389 97.4809)" fill="#3A2E2B"/>
<path d="M250.267 93.3717C248.66 93.4507 245.021 94.3513 243.315 97.3218" stroke="#3A2E2B" stroke-width="2.37001" stroke-linecap="round"/>
<path d="M229.388 140.977C232.495 139.272 233.632 135.372 231.928 132.265L227.033 123.341C225.328 120.234 221.428 119.097 218.321 120.801C215.214 122.506 214.077 126.406 215.781 129.513L220.676 138.437C222.381 141.544 226.281 142.681 229.388 140.977Z" fill="#846047"/>
<path d="M228.309 125.668L227.033 123.341C225.328 120.234 221.428 119.097 218.321 120.801C215.214 122.506 214.077 126.406 215.781 129.513L217.057 131.84L228.309 125.668Z" fill="#4B3E35"/>
<path d="M233.617 81.079C236.944 79.3013 239.994 84.7826 241.103 87.7455L233.617 91.6342C232.231 88.8565 230.291 82.8567 233.617 81.079Z" fill="#A37556"/>
<path d="M148.762 51.1503C150.482 50.2307 152.06 53.066 152.634 54.5986L148.762 56.6101C148.045 55.1733 147.041 52.0698 148.762 51.1503Z" fill="#A37556"/>
<path d="M158.062 82.2493C157.111 80.6822 157.611 78.6408 159.178 77.6898L163.679 74.9583C165.246 74.0073 167.287 74.5067 168.238 76.0738C169.189 77.6409 168.69 79.6823 167.123 80.6333L162.622 83.3648C161.055 84.3158 159.013 83.8164 158.062 82.2493Z" fill="#846047"/>
<path d="M162.47 75.6704L163.644 74.9583C165.211 74.0073 167.252 74.5067 168.203 76.0738C169.154 77.6409 168.655 79.6823 167.088 80.6333L165.914 81.3454L162.47 75.6704Z" fill="#4B3E35"/>
<rect width="8.49999" height="4.74038" rx="2.37019" transform="matrix(-1 0 0 1 144.463 94.8594)" fill="#846047"/>
<path d="M144.463 97.7195H135.963C135.963 98.7577 136.804 99.5993 137.842 99.5993H142.583C143.621 99.5993 144.463 98.7577 144.463 97.7195Z" fill="#4B3E35"/>
<rect width="8.49999" height="4.74038" rx="2.37019" transform="matrix(-1 0 0 1 160.809 94.8594)" fill="#846047"/>
<path d="M160.809 97.7195H152.309C152.309 98.7577 153.15 99.5993 154.188 99.5993H158.929C159.967 99.5993 160.809 98.7577 160.809 97.7195Z" fill="#4B3E35"/>
<path d="M160.507 62.8214C160.507 58.3077 156.848 54.6486 152.334 54.6486H143.839C139.89 54.6486 136.505 57.4732 135.798 61.3592L131.176 86.7768C130.264 91.7937 134.118 96.4119 139.217 96.4119H157.328C164.443 96.4119 168.16 87.952 163.348 82.7115L162.66 81.9612C161.275 80.4533 160.507 78.4808 160.507 76.4337L160.507 62.8214Z" fill="#A37556"/>
<path d="M164.231 62.6236C163.676 59.159 160.688 56.6101 157.179 56.6101C153.728 56.6101 150.771 59.0778 150.153 62.4731L149.076 68.3912C148.164 73.4062 152.016 78.023 157.114 78.023C162.14 78.023 165.974 73.5269 165.181 68.5634L164.231 62.6236Z" fill="#604F44"/>
<path d="M158.65 71.3996C159.311 71.332 160.027 70.64 160.303 70.3025C158.839 69.1885 157.568 69.8383 157.115 70.3025C157.351 70.6963 157.989 71.4671 158.65 71.3996Z" fill="#A2766B"/>
<path d="M158.61 61.8217C158.972 63.7507 160.186 68.8266 158.61 69.4055M158.61 69.4055C157.702 70.1754 154.603 71.6075 153.141 71.8101M158.61 69.4055C160.685 70.6658 161.298 71.2788 161.625 71.8101" stroke="#3A2E2B" stroke-width="0.817286" stroke-linecap="round"/>
<ellipse cx="2.08413" cy="1.38942" rx="2.08413" ry="1.38942" transform="matrix(-1 0 0 1 160.809 60.4504)" fill="#3A2E2B"/>
<path d="M146.259 58.3252C145.428 58.3661 143.545 58.8319 142.662 60.3685" stroke="#3A2E2B" stroke-width="1.22593" stroke-linecap="round"/>
<path d="M135.46 82.9498C137.067 82.0682 137.655 80.0506 136.773 78.4434L134.241 73.8275C133.36 72.2203 131.342 71.6321 129.735 72.5138C128.128 73.3954 127.539 75.413 128.421 77.0202L130.953 81.6361C131.835 83.2433 133.852 83.8315 135.46 82.9498Z" fill="#846047"/>
<path d="M134.901 75.0309L134.241 73.8275C133.36 72.2203 131.342 71.6321 129.735 72.5138C128.128 73.3954 127.539 75.413 128.421 77.0202L129.081 78.2236L134.901 75.0309Z" fill="#4B3E35"/>
<path d="M137.647 51.9667C139.368 51.0472 140.945 53.8825 141.519 55.4151L137.647 57.4266C136.93 55.9898 135.926 52.8863 137.647 51.9667Z" fill="#A37556"/>
<path d="M257.379 31.3411C259.38 30.2723 261.213 33.5679 261.88 35.3493L257.379 37.6874C256.546 36.0173 255.379 32.41 257.379 31.3411Z" fill="#A37556"/>
<path d="M268.19 67.4891C267.085 65.6676 267.665 63.2948 269.487 62.1894L274.718 59.0144C276.54 57.909 278.913 58.4895 280.018 60.311C281.124 62.1326 280.543 64.5053 278.722 65.6108L273.49 68.7857C271.669 69.8912 269.296 69.3107 268.19 67.4891Z" fill="#846047"/>
<path d="M273.314 59.8422L274.678 59.0144C276.499 57.909 278.872 58.4895 279.977 60.311C281.083 62.1326 280.502 64.5053 278.681 65.6108L277.317 66.4385L273.314 59.8422Z" fill="#4B3E35"/>
<rect width="9.87999" height="5.51" rx="2.755" transform="matrix(-1 0 0 1 252.383 82.1465)" fill="#846047"/>
<path d="M252.383 85.4709H242.503C242.503 86.6777 243.481 87.6559 244.688 87.6559H250.198C251.404 87.6559 252.383 86.6777 252.383 85.4709Z" fill="#4B3E35"/>
<rect width="9.87999" height="5.51" rx="2.755" transform="matrix(-1 0 0 1 271.382 82.1465)" fill="#846047"/>
<path d="M271.382 85.4709H261.502C261.502 86.6777 262.481 87.6559 263.687 87.6559H269.197C270.404 87.6559 271.382 86.6777 271.382 85.4709Z" fill="#4B3E35"/>
<path d="M271.032 44.9071C271.032 39.6605 266.778 35.4073 261.532 35.4073H251.658C247.067 35.4073 243.133 38.6905 242.312 43.2075L236.939 72.7517C235.879 78.5831 240.358 83.9511 246.286 83.9511H267.337C275.606 83.9511 279.927 74.1177 274.335 68.0264L273.534 67.1543C271.925 65.4016 271.032 63.1088 271.032 60.7294L271.032 44.9071Z" fill="#A37556"/>
<path d="M275.36 44.6771C274.716 40.65 271.241 37.6873 267.163 37.6873C263.152 37.6873 259.715 40.5557 258.997 44.5021L257.745 51.3812C256.684 57.2104 261.162 62.5767 267.087 62.5767C272.93 62.5767 277.387 57.3506 276.464 51.5813L275.36 44.6771Z" fill="#604F44"/>
<path d="M268.873 54.8779C269.642 54.7994 270.474 53.9951 270.794 53.6027C269.093 52.3079 267.615 53.0632 267.089 53.6027C267.364 54.0605 268.105 54.9564 268.873 54.8779Z" fill="#A2766B"/>
<path d="M268.827 43.7451C269.247 45.9872 270.659 51.8872 268.827 52.5601M268.827 52.5601C267.771 53.455 264.169 55.1196 262.469 55.355M268.827 52.5601C271.239 54.025 271.951 54.7375 272.331 55.355" stroke="#3A2E2B" stroke-width="0.949976" stroke-linecap="round"/>
<ellipse cx="2.4225" cy="1.615" rx="2.4225" ry="1.615" transform="matrix(-1 0 0 1 271.382 42.1511)" fill="#3A2E2B"/>
<path d="M254.47 39.6808C253.504 39.7283 251.316 40.2698 250.29 42.0558" stroke="#3A2E2B" stroke-width="1.42496" stroke-linecap="round"/>
<path d="M241.918 68.3034C243.786 67.2787 244.47 64.9335 243.445 63.0654L240.502 57.7C239.477 55.8319 237.132 55.1483 235.264 56.173C233.395 57.1978 232.712 59.543 233.737 61.4111L236.68 66.7764C237.705 68.6445 240.05 69.3282 241.918 68.3034Z" fill="#846047"/>
<path d="M241.269 59.0988L240.502 57.7C239.477 55.8319 237.132 55.1483 235.264 56.173C233.395 57.1978 232.712 59.543 233.737 61.4111L234.504 62.8098L241.269 59.0988Z" fill="#4B3E35"/>
<path d="M244.46 32.2901C246.461 31.2213 248.294 34.5169 248.961 36.2983L244.46 38.6364C243.627 36.9663 242.46 33.359 244.46 32.2901Z" fill="#A37556"/>
<path d="M30.1809 109.849C32.407 108.66 34.4477 112.328 35.1897 114.31L30.1809 116.912C29.2534 115.054 27.9548 111.039 30.1809 109.849Z" fill="#A37556"/>
<path d="M42.2128 150.079C40.9825 148.052 41.6286 145.411 43.6558 144.181L49.4782 140.648C51.5054 139.417 54.1461 140.063 55.3764 142.091C56.6067 144.118 55.9606 146.759 53.9334 147.989L48.111 151.522C46.0838 152.753 43.4431 152.107 42.2128 150.079Z" fill="#846047"/>
<path d="M47.9148 141.569L49.4327 140.648C51.4599 139.417 54.1007 140.063 55.3309 142.091C56.5612 144.118 55.9152 146.759 53.8879 147.989L52.37 148.91L47.9148 141.569Z" fill="#4B3E35"/>
<rect width="10.9957" height="6.13221" rx="3.06611" transform="matrix(-1 0 0 1 24.6199 166.392)" fill="#846047"/>
<path d="M24.6199 170.092H13.6242C13.6242 171.435 14.7129 172.523 16.0559 172.523H22.1881C23.5311 172.523 24.6199 171.435 24.6199 170.092Z" fill="#4B3E35"/>
<rect width="10.9957" height="6.13221" rx="3.06611" transform="matrix(-1 0 0 1 45.7651 166.392)" fill="#846047"/>
<path d="M45.7651 170.092H34.7694C34.7694 171.435 35.8582 172.523 37.2012 172.523H43.3334C44.6764 172.523 45.7651 171.435 45.7651 170.092Z" fill="#4B3E35"/>
<path d="M45.3749 124.947C45.3749 119.108 40.6414 114.375 34.8024 114.375H23.8137C18.7042 114.375 14.3259 118.029 13.4117 123.056L7.43247 155.936C6.25229 162.426 11.238 168.4 17.8344 168.4H41.2631C50.4664 168.4 55.2752 157.456 49.0508 150.677L48.1597 149.707C46.3687 147.756 45.3749 145.204 45.3749 142.556L45.3749 124.947Z" fill="#A37556"/>
<path d="M50.1917 124.691C49.4749 120.209 45.6084 116.912 41.0696 116.912C36.6054 116.912 32.7799 120.104 31.9808 124.497L30.5878 132.152C29.4075 138.64 34.3912 144.612 40.9852 144.612C47.4876 144.612 52.4475 138.796 51.4206 132.375L50.1917 124.691Z" fill="#604F44"/>
<path d="M42.9725 136.044C43.8278 135.957 44.7543 135.061 45.1106 134.625C43.2169 133.184 41.5726 134.024 40.9872 134.625C41.2926 135.134 42.1173 136.131 42.9725 136.044Z" fill="#A2766B"/>
<path d="M42.9216 123.654C43.3888 126.149 44.9598 132.716 42.9216 133.464M42.9216 133.464C41.7464 134.46 37.7372 136.313 35.8458 136.575M42.9216 133.464C45.6054 135.095 46.3984 135.888 46.8213 136.575" stroke="#3A2E2B" stroke-width="1.05725" stroke-linecap="round"/>
<ellipse cx="2.69606" cy="1.79737" rx="2.69606" ry="1.79737" transform="matrix(-1 0 0 1 45.7651 121.88)" fill="#3A2E2B"/>
<path d="M26.9431 119.131C25.8682 119.184 23.433 119.786 22.2911 121.774" stroke="#3A2E2B" stroke-width="1.58588" stroke-linecap="round"/>
<path d="M12.9734 150.986C15.0525 149.845 15.8134 147.235 14.6729 145.156L11.3973 139.185C10.2568 137.106 7.64684 136.345 5.56778 137.485C3.48871 138.626 2.72785 141.236 3.86834 143.315L7.14392 149.286C8.28441 151.365 10.8944 152.126 12.9734 150.986Z" fill="#846047"/>
<path d="M12.2512 140.742L11.3973 139.185C10.2568 137.106 7.64684 136.345 5.56778 137.485C3.48871 138.626 2.72785 141.236 3.86834 143.315L4.72229 144.872L12.2512 140.742Z" fill="#4B3E35"/>
<path d="M15.8032 110.906C18.0294 109.716 20.07 113.384 20.812 115.366L15.8032 117.968C14.8757 116.11 13.5771 112.095 15.8032 110.906Z" fill="#A37556"/>
<path d="M257.991 0.133842C259.274 -0.551552 260.449 1.56174 260.877 2.70407L257.991 4.20336C257.457 3.13243 256.708 0.819235 257.991 0.133842Z" fill="#A37556"/>
<path d="M264.924 23.3138C264.215 22.1457 264.587 20.6242 265.755 19.9153L269.11 17.8794C270.278 17.1706 271.8 17.5428 272.508 18.7109C273.217 19.8789 272.845 21.4005 271.677 22.1093L268.322 24.1452C267.154 24.8541 265.633 24.4818 264.924 23.3138Z" fill="#846047"/>
<path d="M268.209 18.4102L269.084 17.8794C270.252 17.1706 271.773 17.5428 272.482 18.7109C273.191 19.8789 272.819 21.4005 271.651 22.1093L270.776 22.6401L268.209 18.4102Z" fill="#4B3E35"/>
<rect width="6.3355" height="3.53326" rx="1.76663" transform="matrix(-1 0 0 1 254.785 32.7123)" fill="#846047"/>
<path d="M254.785 34.8439H248.45C248.45 35.6177 249.077 36.2451 249.851 36.2451H253.384C254.158 36.2451 254.785 35.6177 254.785 34.8439Z" fill="#4B3E35"/>
<rect width="6.3355" height="3.53326" rx="1.76663" transform="matrix(-1 0 0 1 266.97 32.7123)" fill="#846047"/>
<path d="M266.97 34.8439H260.635C260.635 35.6177 261.262 36.2451 262.036 36.2451H265.569C266.343 36.2451 266.97 35.6177 266.97 34.8439Z" fill="#4B3E35"/>
<path d="M266.744 8.83295C266.744 5.46861 264.017 2.74127 260.653 2.74127L254.321 2.74127C251.377 2.74127 248.854 4.84661 248.328 7.74306L244.883 26.6882C244.203 30.4275 247.075 33.8697 250.876 33.8697H264.375C269.678 33.8697 272.449 27.5641 268.862 23.6581L268.349 23.0989C267.317 21.975 266.744 20.5047 266.744 18.9789L266.744 8.83295Z" fill="#A37556"/>
<path d="M269.52 8.68517C269.107 6.1028 266.879 4.203 264.264 4.203C261.691 4.203 259.487 6.04234 259.027 8.57298L258.224 12.9841C257.544 16.7221 260.416 20.1632 264.215 20.1632C267.961 20.1632 270.819 16.812 270.228 13.1125L269.52 8.68517Z" fill="#604F44"/>
<path d="M265.363 15.2264C265.855 15.1761 266.389 14.6603 266.594 14.4087C265.503 13.5784 264.556 14.0628 264.219 14.4087C264.395 14.7023 264.87 15.2768 265.363 15.2264Z" fill="#A2766B"/>
<path d="M265.331 8.08844C265.6 9.5262 266.505 13.3096 265.331 13.741M265.331 13.741C264.654 14.3149 262.344 15.3823 261.254 15.5333M265.331 13.741C266.877 14.6804 267.334 15.1373 267.578 15.5333" stroke="#3A2E2B" stroke-width="0.609167" stroke-linecap="round"/>
<ellipse cx="1.55342" cy="1.03561" rx="1.55342" ry="1.03561" transform="matrix(-1 0 0 1 266.969 7.06598)" fill="#3A2E2B"/>
<path d="M256.126 5.48108C255.507 5.51154 254.103 5.85877 253.446 7.00404" stroke="#3A2E2B" stroke-width="0.913751" stroke-linecap="round"/>
<path d="M248.078 23.8351C249.276 23.178 249.714 21.6742 249.057 20.4763L247.169 17.0358C246.512 15.8379 245.009 15.3995 243.811 16.0566C242.613 16.7137 242.174 18.2175 242.831 19.4155L244.719 22.856C245.376 24.0539 246.88 24.4923 248.078 23.8351Z" fill="#846047"/>
<path d="M247.662 17.9327L247.169 17.0358C246.512 15.8379 245.009 15.3995 243.811 16.0566C242.613 16.7137 242.174 18.2175 242.831 19.4155L243.323 20.3124L247.662 17.9327Z" fill="#4B3E35"/>
<path d="M249.706 0.742057C250.988 0.0566635 252.164 2.16996 252.592 3.31228L249.706 4.81157C249.171 3.74065 248.423 1.42745 249.706 0.742057Z" fill="#A37556"/>
</svg>
