<svg width="46" height="47" viewBox="0 0 46 47" fill="none" xmlns="http://www.w3.org/2000/svg">
<path d="M27.6264 0.17355C25.9633 -0.715187 24.4387 2.02509 23.8843 3.50631L27.6264 5.45042C28.3194 4.06177 29.2896 1.06229 27.6264 0.17355Z" fill="#A37556"/>
<path d="M18.4692 30.4939C19.4691 29.0313 19.0941 27.0351 17.6316 26.0352L13.4311 23.1633C11.9686 22.1634 9.97238 22.5384 8.97244 24.0009C7.97251 25.4634 8.34751 27.4596 9.81003 28.4596L14.0105 31.3315C15.473 32.3314 17.4693 31.9564 18.4692 30.4939Z" fill="#846047"/>
<path d="M14.5601 23.9139L13.465 23.1651C12.0025 22.1652 10.0063 22.5402 9.00635 24.0027C8.00641 25.4653 8.38142 27.4615 9.84394 28.4614L10.939 29.2101L14.5601 23.9139Z" fill="#4B3E35"/>
<rect x="31.7827" y="42.4189" width="8.21513" height="4.58151" rx="2.29076" fill="#846047"/>
<path d="M31.7827 45.1836H39.9978C39.9978 46.187 39.1844 47.0004 38.181 47.0004H33.5995C32.5961 47.0004 31.7827 46.187 31.7827 45.1836Z" fill="#4B3E35"/>
<rect x="15.9849" y="42.4189" width="8.21513" height="4.58151" rx="2.29076" fill="#846047"/>
<path d="M15.9849 45.1836H24.2C24.2 46.187 23.3866 47.0004 22.3832 47.0004H17.8017C16.7983 47.0004 15.9849 46.187 15.9849 45.1836Z" fill="#4B3E35"/>
<path d="M16.2762 11.4538C16.2762 7.09126 19.8128 3.55469 24.1754 3.55469H32.3855C36.203 3.55469 39.4742 6.2847 40.1572 10.0406L44.6246 34.607C45.5063 39.4559 41.7813 43.9194 36.8529 43.9194H19.3483C12.4722 43.9194 8.87927 35.7428 13.5298 30.6778L14.1956 29.9527C15.5337 28.4953 16.2762 26.5888 16.2762 24.6103L16.2762 11.4538Z" fill="#A37556"/>
<path d="M12.6783 11.2625C13.2138 7.91393 16.1026 5.45044 19.4938 5.45044C22.8291 5.45044 25.6873 7.83554 26.2844 11.117L27.3251 16.837C28.207 21.6841 24.4834 26.1462 19.5568 26.1462C14.6986 26.1462 10.9928 21.8007 11.7601 17.0035L12.6783 11.2625Z" fill="#604F44"/>
<path d="M18.07 19.6651C17.4311 19.5998 16.7389 18.931 16.4727 18.6047C17.8875 17.5281 19.1159 18.1561 19.5533 18.6047C19.3251 18.9854 18.709 19.7303 18.07 19.6651Z" fill="#A2766B"/>
<path d="M18.1098 10.4902C17.7608 12.3546 16.587 17.2604 18.1098 17.8198M18.1098 17.8198C18.9879 18.564 21.9832 19.948 23.3963 20.1438M18.1098 17.8198C16.1047 19.038 15.5123 19.6304 15.1963 20.1438" stroke="#3A2E2B" stroke-width="0.789916" stroke-linecap="round"/>
<ellipse cx="18.0006" cy="10.5069" rx="2.01429" ry="1.34286" fill="#3A2E2B"/>
<path d="M30.0459 7.10913C30.849 7.14863 32.6684 7.59888 33.5215 9.08392" stroke="#3A2E2B" stroke-width="1.18487" stroke-linecap="round"/>
<path d="M38.3696 0.963345C36.7064 0.0746076 35.1818 2.81488 34.6274 4.29611L38.3696 6.24022C39.0626 4.85157 40.0328 1.85208 38.3696 0.963345Z" fill="#A37556"/>
<path d="M34.7292 25.7249C37.3729 23.7781 40.1164 22.4877 42.303 21.7227C45.9761 28.7529 47.4927 42.9159 37.761 43.9586H26.5441C25.5057 40.4152 25.9539 37.2076 27.2229 34.4003C29.0708 30.1336 32.5894 27.0519 34.7292 25.7249Z" fill="#E5D9BD"/>
<path d="M18.2104 43.9192H23.9472C25.1558 32.4497 19.2702 26.8307 16.2356 25.4746C15.6037 27.5679 14.8533 28.3217 13.9448 30.2141C9.40281 33.7687 10.5766 42.5023 18.2104 43.9192Z" fill="#E5D9BD"/>
<path d="M34.404 25.9487C27.7002 28.197 23.8464 28.7924 17.7368 26.3832C22.867 31.422 23.7797 43.9193 23.7797 43.9193H26.7419C25.2288 35.4609 27.6706 31.7706 34.404 25.9487Z" fill="#F3EDE0"/>
<path d="M16.631 30.7672C17.941 29.3921 18.1827 27.1795 17.6183 26.2649C25.1225 31.8582 24.2537 40.2857 23.9377 43.8008C23.4637 38.8639 20.416 34.6329 17.8948 33.058C18.4311 32.9881 19.1243 31.9692 19.4352 31.5571C18.6659 30.6819 17.3539 30.6661 16.631 30.7672Z" fill="#2E2A24"/>
<path d="M38.2146 35.072C35.7185 35.9883 33.5673 35.4538 32.8037 35.072C31.9822 37.189 32.4614 39.2717 32.8037 40.0485C34.6047 40.8068 37.1614 40.3645 38.2146 40.0485C38.8466 38.911 38.4779 36.1121 38.2146 35.072Z" fill="#2E2A24"/>
<path d="M18.6686 35.3091C16.8598 36.2214 15.301 35.6892 14.7476 35.3091C14.1523 37.4167 14.4996 39.4903 14.7476 40.2636C16.0527 41.0186 17.9054 40.5782 18.6686 40.2636C19.1265 39.1312 18.8594 36.3446 18.6686 35.3091Z" fill="#2E2A24"/>
<path d="M38.4874 25.4408C40.002 24.5217 41.975 25.0043 42.8941 26.5189L45.5341 30.8689C46.4532 32.3835 45.9705 34.3565 44.456 35.2756C42.9414 36.1948 40.9684 35.7121 40.0493 34.1975L37.4093 29.8475C36.4902 28.3329 36.9728 26.36 38.4874 25.4408Z" fill="#846047"/>
<path d="M44.8458 29.7349L45.5341 30.8689C46.4532 32.3835 45.9705 34.3565 44.456 35.2756C42.9414 36.1948 40.9684 35.7121 40.0493 34.1975L39.361 33.0635L44.8458 29.7349Z" fill="#4B3E35"/>
<path d="M34.2213 30.7399C32.9113 29.3648 33.7125 27.1918 34.2769 26.2772C24.8269 31.4997 25.1894 40.2387 26.5519 43.9554C25.4147 38.8538 30.1728 34.4287 32.694 32.8538C32.1577 32.7839 31.4019 31.9424 31.0911 31.5304C31.8603 30.6552 33.4984 30.6387 34.2213 30.7399Z" fill="#2E2A24"/>
<g clip-path="url(#clip0_4053_9728)">
<path d="M8.52947 11.35C8.78844 11.35 8.93815 11.1639 8.93815 10.8806V9.36324H9.2376C10.7024 9.36324 11.5197 8.53777 11.5197 7.08916V2.96185C11.5197 1.51324 10.7024 0.679688 9.2376 0.679688H2.40325C0.934415 0.679688 0.121094 1.51729 0.121094 2.96185V7.08916C0.121094 8.52965 0.934415 9.36324 2.40325 9.36324H6.11784L8.01154 11.0668C8.21788 11.2569 8.34737 11.35 8.52947 11.35Z" fill="#A47551"/>
</g>
<defs>
<clipPath id="clip0_4053_9728">
<rect width="11.5484" height="11.3501" fill="white" transform="translate(0.121094)"/>
</clipPath>
</defs>
</svg>
