<svg width="581" height="595" viewBox="0 0 581 595" fill="none" xmlns="http://www.w3.org/2000/svg">
<path d="M348.204 2.19707C327.149 -9.05397 307.848 25.6367 300.83 44.3885L348.204 69C356.977 51.4203 369.26 13.4481 348.204 2.19707Z" fill="#A37556"/>
<path d="M232.271 386.039C244.93 367.524 240.183 342.253 221.668 329.594L168.492 293.237C149.977 280.579 124.705 285.326 112.047 303.841C99.388 322.356 104.135 347.627 122.65 360.286L175.827 396.643C194.342 409.301 219.613 404.554 232.271 386.039Z" fill="#846047"/>
<path d="M182.784 302.739L168.921 293.261C150.406 280.602 125.135 285.349 112.476 303.864C99.8172 322.379 104.565 347.65 123.08 360.309L136.943 369.788L182.784 302.739Z" fill="#4B3E35"/>
<rect x="400.83" y="537" width="104" height="58" rx="29" fill="#846047"/>
<path d="M400.83 572H504.83C504.83 584.703 494.533 595 481.83 595H423.83C411.128 595 400.83 584.703 400.83 572Z" fill="#4B3E35"/>
<rect x="200.83" y="537" width="104" height="58" rx="29" fill="#846047"/>
<path d="M200.83 572H304.83C304.83 584.703 294.533 595 281.83 595H223.83C211.128 595 200.83 584.703 200.83 572Z" fill="#4B3E35"/>
<path d="M204.513 145C204.513 89.7715 249.284 45 304.513 45H408.449C456.777 45 498.189 79.5608 506.836 127.109L563.391 438.109C574.553 499.494 527.396 556 465.004 556H243.404C156.355 556 110.87 452.488 169.744 388.367L178.173 379.187C195.113 360.737 204.513 336.602 204.513 311.555L204.513 145Z" fill="#A37556"/>
<path d="M158.965 142.579C165.745 100.187 202.316 69 245.247 69C287.471 69 323.655 99.1943 331.213 140.737L344.388 213.149C355.553 274.511 308.414 331 246.045 331C184.543 331 137.629 275.987 147.342 215.256L158.965 142.579Z" fill="#604F44"/>
<path d="M227.222 248.951C219.133 248.125 210.37 239.658 207 235.528C224.911 221.898 240.463 229.849 246 235.528C243.111 240.346 235.311 249.777 227.222 248.951Z" fill="#A2766B"/>
<path d="M227.714 132.789C223.296 156.391 208.436 218.496 227.714 225.579M227.714 225.579C238.83 235 276.749 252.521 294.639 255M227.714 225.579C202.33 241 194.83 248.5 190.83 255" stroke="#3A2E2B" stroke-width="10" stroke-linecap="round"/>
<ellipse cx="226.33" cy="133" rx="25.5" ry="17" fill="#3A2E2B"/>
<path d="M378.83 90C388.997 90.5 412.03 96.2 422.83 115" stroke="#3A2E2B" stroke-width="15" stroke-linecap="round"/>
<path d="M484.204 12.1971C463.149 0.946033 443.848 35.6367 436.83 54.3885L484.204 79C492.977 61.4203 505.26 23.4481 484.204 12.1971Z" fill="#A37556"/>
<path d="M438.119 325.667C471.587 301.021 506.319 284.685 534 275C580.5 364 599.7 543.298 476.5 556.498H334.499C321.353 511.639 327.027 471.033 343.092 435.493C366.486 381.479 411.03 342.466 438.119 325.667Z" fill="#E5D9BD"/>
<path d="M228.999 555.999H301.625C316.926 410.799 242.417 339.665 204 322.498C196 348.998 186.5 358.541 174.999 382.498C117.5 427.498 132.359 538.061 228.999 555.999Z" fill="#E5D9BD"/>
<path d="M434 328.5C349.132 356.962 300.344 364.499 223 334C287.946 397.789 299.5 556 299.5 556H337C317.845 448.92 348.758 402.202 434 328.5Z" fill="#F3EDE0"/>
<path d="M209.001 389.499C225.585 372.091 228.645 344.08 221.5 332.501C316.5 403.31 305.501 509.999 301.5 554.499C295.5 491.999 256.918 438.436 225.001 418.499C231.79 417.614 240.565 404.715 244.501 399.499C234.762 388.419 218.152 388.218 209.001 389.499Z" fill="#2E2A24"/>
<path d="M482.242 443.998C450.642 455.598 423.409 448.831 413.742 443.998C403.342 470.798 409.409 497.165 413.742 506.998C436.542 516.598 468.909 510.998 482.242 506.998C490.242 492.598 485.576 457.165 482.242 443.998Z" fill="#2E2A24"/>
<path d="M234.799 446.998C211.9 458.547 192.166 451.81 185.161 446.998C177.625 473.68 182.021 499.931 185.161 509.721C201.683 519.278 225.137 513.703 234.799 509.721C240.596 495.384 237.215 460.107 234.799 446.998Z" fill="#2E2A24"/>
<path d="M485.696 322.071C504.87 310.435 529.846 316.545 541.483 335.719L574.903 390.789C586.539 409.963 580.429 434.939 561.255 446.575C542.081 458.212 517.104 452.101 505.468 432.927L472.047 377.858C460.411 358.684 466.522 333.707 485.696 322.071Z" fill="#846047"/>
<path d="M566.19 376.432L574.903 390.789C586.539 409.963 580.429 434.939 561.255 446.575C542.081 458.212 517.104 452.101 505.468 432.927L496.755 418.57L566.19 376.432Z" fill="#4B3E35"/>
<path d="M431.692 389.155C415.108 371.747 425.251 344.238 432.396 332.659C312.763 398.774 317.352 509.406 334.601 556.458C320.204 491.874 380.44 435.853 412.357 415.916C405.568 415.031 396 404.378 392.065 399.162C401.803 388.082 422.541 387.874 431.692 389.155Z" fill="#2E2A24"/>
<g clip-path="url(#clip0_4053_388)">
<path d="M106.448 143.686C109.727 143.686 111.622 141.33 111.622 137.744V118.535H115.413C133.956 118.535 144.304 108.084 144.304 89.7457V37.4957C144.304 19.1569 133.956 8.60449 115.413 8.60449H28.8931C10.2983 8.60449 0.00195312 19.2082 0.00195312 37.4957V89.7457C0.00195312 107.982 10.2983 118.535 28.8931 118.535H75.9182L99.8916 140.1C102.504 142.508 104.143 143.686 106.448 143.686Z" fill="#A47551"/>
</g>
<defs>
<clipPath id="clip0_4053_388">
<rect width="146.197" height="143.687" fill="white"/>
</clipPath>
</defs>
</svg>
