<svg width="293" height="86" viewBox="0 0 293 86" fill="none" xmlns="http://www.w3.org/2000/svg">
<path d="M20 68.5C20 64.3579 23.3579 61 27.5 61C31.6421 61 35 64.3579 35 68.5V79.75C35 83.2018 32.2018 86 28.75 86H26.25C22.7982 86 20 83.2018 20 79.75V68.5Z" fill="#A47551"/>
<path d="M258 68.5C258 64.3579 261.358 61 265.5 61C269.642 61 273 64.3579 273 68.5V79.75C273 83.2018 270.202 86 266.75 86H264.25C260.798 86 258 83.2018 258 79.75V68.5Z" fill="#A47551"/>
<rect width="293" height="78" rx="30" fill="#3A6351"/>
<path d="M16.77 28.3C16.77 26.7893 17.1073 25.44 17.782 24.252C18.4713 23.0493 19.4027 22.118 20.576 21.458C21.764 20.7833 23.0913 20.446 24.558 20.446C26.274 20.446 27.7773 20.886 29.068 21.766C30.3587 22.646 31.2607 23.8633 31.774 25.418H28.232C27.88 24.6847 27.3813 24.1347 26.736 23.768C26.1053 23.4013 25.372 23.218 24.536 23.218C23.6413 23.218 22.842 23.4307 22.138 23.856C21.4487 24.2667 20.906 24.8533 20.51 25.616C20.1287 26.3787 19.938 27.2733 19.938 28.3C19.938 29.312 20.1287 30.2067 20.51 30.984C20.906 31.7467 21.4487 32.3407 22.138 32.766C22.842 33.1767 23.6413 33.382 24.536 33.382C25.372 33.382 26.1053 33.1987 26.736 32.832C27.3813 32.4507 27.88 31.8933 28.232 31.16H31.774C31.2607 32.7293 30.3587 33.954 29.068 34.834C27.792 35.6993 26.2887 36.132 24.558 36.132C23.0913 36.132 21.764 35.802 20.576 35.142C19.4027 34.4673 18.4713 33.536 17.782 32.348C17.1073 31.16 16.77 29.8107 16.77 28.3ZM33.1727 29.862C33.1727 28.63 33.4147 27.5373 33.8987 26.584C34.3974 25.6307 35.0647 24.8973 35.9007 24.384C36.7514 23.8707 37.6974 23.614 38.7387 23.614C39.6481 23.614 40.4401 23.7973 41.1147 24.164C41.8041 24.5307 42.3541 24.9927 42.7647 25.55V23.812H45.8667V36H42.7647V34.218C42.3687 34.79 41.8187 35.2667 41.1147 35.648C40.4254 36.0147 39.6261 36.198 38.7167 36.198C37.6901 36.198 36.7514 35.934 35.9007 35.406C35.0647 34.878 34.3974 34.1373 33.8987 33.184C33.4147 32.216 33.1727 31.1087 33.1727 29.862ZM42.7647 29.906C42.7647 29.158 42.6181 28.52 42.3247 27.992C42.0314 27.4493 41.6354 27.0387 41.1367 26.76C40.6381 26.4667 40.1027 26.32 39.5307 26.32C38.9587 26.32 38.4307 26.4593 37.9467 26.738C37.4627 27.0167 37.0667 27.4273 36.7587 27.97C36.4654 28.498 36.3187 29.1287 36.3187 29.862C36.3187 30.5953 36.4654 31.2407 36.7587 31.798C37.0667 32.3407 37.4627 32.7587 37.9467 33.052C38.4454 33.3453 38.9734 33.492 39.5307 33.492C40.1027 33.492 40.6381 33.3527 41.1367 33.074C41.6354 32.7807 42.0314 32.37 42.3247 31.842C42.6181 31.2993 42.7647 30.654 42.7647 29.906ZM51.5149 25.704C51.9109 25.0587 52.4242 24.5527 53.0549 24.186C53.7002 23.8193 54.4335 23.636 55.2549 23.636V26.87H54.4409C53.4729 26.87 52.7395 27.0973 52.2409 27.552C51.7569 28.0067 51.5149 28.7987 51.5149 29.928V36H48.4349V23.812H51.5149V25.704ZM56.0974 29.862C56.0974 28.63 56.3394 27.5373 56.8234 26.584C57.3221 25.6307 57.9967 24.8973 58.8474 24.384C59.6981 23.8707 60.6441 23.614 61.6854 23.614C62.4774 23.614 63.2327 23.79 63.9514 24.142C64.6701 24.4793 65.2421 24.934 65.6674 25.506V19.72H68.7914V36H65.6674V34.196C65.2861 34.7973 64.7507 35.2813 64.0614 35.648C63.3721 36.0147 62.5727 36.198 61.6634 36.198C60.6367 36.198 59.6981 35.934 58.8474 35.406C57.9967 34.878 57.3221 34.1373 56.8234 33.184C56.3394 32.216 56.0974 31.1087 56.0974 29.862ZM65.6894 29.906C65.6894 29.158 65.5427 28.52 65.2494 27.992C64.9561 27.4493 64.5601 27.0387 64.0614 26.76C63.5627 26.4667 63.0274 26.32 62.4554 26.32C61.8834 26.32 61.3554 26.4593 60.8714 26.738C60.3874 27.0167 59.9914 27.4273 59.6834 27.97C59.3901 28.498 59.2434 29.1287 59.2434 29.862C59.2434 30.5953 59.3901 31.2407 59.6834 31.798C59.9914 32.3407 60.3874 32.7587 60.8714 33.052C61.3701 33.3453 61.8981 33.492 62.4554 33.492C63.0274 33.492 63.5627 33.3527 64.0614 33.074C64.5601 32.7807 64.9561 32.37 65.2494 31.842C65.5427 31.2993 65.6894 30.654 65.6894 29.906ZM76.0236 36.198C75.0262 36.198 74.1316 36.022 73.3396 35.67C72.5476 35.3033 71.9169 34.812 71.4476 34.196C70.9929 33.58 70.7436 32.898 70.6996 32.15H73.8016C73.8602 32.6193 74.0876 33.008 74.4836 33.316C74.8942 33.624 75.4002 33.778 76.0016 33.778C76.5882 33.778 77.0429 33.6607 77.3656 33.426C77.7029 33.1913 77.8716 32.8907 77.8716 32.524C77.8716 32.128 77.6662 31.8347 77.2556 31.644C76.8596 31.4387 76.2216 31.2187 75.3416 30.984C74.4322 30.764 73.6842 30.5367 73.0976 30.302C72.5256 30.0673 72.0269 29.708 71.6016 29.224C71.1909 28.74 70.9856 28.0873 70.9856 27.266C70.9856 26.5913 71.1762 25.9753 71.5576 25.418C71.9536 24.8607 72.5109 24.4207 73.2296 24.098C73.9629 23.7753 74.8209 23.614 75.8036 23.614C77.2556 23.614 78.4142 23.9807 79.2796 24.714C80.1449 25.4327 80.6216 26.408 80.7096 27.64H77.7616C77.7176 27.156 77.5122 26.7747 77.1456 26.496C76.7936 26.2027 76.3169 26.056 75.7156 26.056C75.1582 26.056 74.7256 26.1587 74.4176 26.364C74.1242 26.5693 73.9776 26.8553 73.9776 27.222C73.9776 27.6327 74.1829 27.948 74.5936 28.168C75.0042 28.3733 75.6422 28.586 76.5076 28.806C77.3876 29.026 78.1136 29.2533 78.6856 29.488C79.2576 29.7227 79.7489 30.0893 80.1596 30.588C80.5849 31.072 80.8049 31.7173 80.8196 32.524C80.8196 33.228 80.6216 33.8587 80.2256 34.416C79.8442 34.9733 79.2869 35.4133 78.5536 35.736C77.8349 36.044 76.9916 36.198 76.0236 36.198ZM90.79 19.72V36H87.71V19.72H90.79ZM104.723 29.642C104.723 30.082 104.694 30.478 104.635 30.83H95.7251C95.7984 31.71 96.1064 32.3993 96.6491 32.898C97.1917 33.3967 97.8591 33.646 98.6511 33.646C99.7951 33.646 100.609 33.1547 101.093 32.172H104.415C104.063 33.3453 103.388 34.3133 102.391 35.076C101.394 35.824 100.169 36.198 98.7171 36.198C97.5437 36.198 96.4877 35.9413 95.5491 35.428C94.6251 34.9 93.8991 34.1593 93.3711 33.206C92.8577 32.2527 92.6011 31.1527 92.6011 29.906C92.6011 28.6447 92.8577 27.5373 93.3711 26.584C93.8844 25.6307 94.6031 24.8973 95.5271 24.384C96.4511 23.8707 97.5144 23.614 98.7171 23.614C99.8757 23.614 100.91 23.8633 101.819 24.362C102.743 24.8607 103.454 25.572 103.953 26.496C104.466 27.4053 104.723 28.454 104.723 29.642ZM101.533 28.762C101.518 27.97 101.232 27.3393 100.675 26.87C100.118 26.386 99.4357 26.144 98.6291 26.144C97.8664 26.144 97.2211 26.3787 96.6931 26.848C96.1797 27.3027 95.8644 27.9407 95.7471 28.762H101.533ZM105.739 29.862C105.739 28.63 105.981 27.5373 106.465 26.584C106.964 25.6307 107.631 24.8973 108.467 24.384C109.318 23.8707 110.264 23.614 111.305 23.614C112.215 23.614 113.007 23.7973 113.681 24.164C114.371 24.5307 114.921 24.9927 115.331 25.55V23.812H118.433V36H115.331V34.218C114.935 34.79 114.385 35.2667 113.681 35.648C112.992 36.0147 112.193 36.198 111.283 36.198C110.257 36.198 109.318 35.934 108.467 35.406C107.631 34.878 106.964 34.1373 106.465 33.184C105.981 32.216 105.739 31.1087 105.739 29.862ZM115.331 29.906C115.331 29.158 115.185 28.52 114.891 27.992C114.598 27.4493 114.202 27.0387 113.703 26.76C113.205 26.4667 112.669 26.32 112.097 26.32C111.525 26.32 110.997 26.4593 110.513 26.738C110.029 27.0167 109.633 27.4273 109.325 27.97C109.032 28.498 108.885 29.1287 108.885 29.862C108.885 30.5953 109.032 31.2407 109.325 31.798C109.633 32.3407 110.029 32.7587 110.513 33.052C111.012 33.3453 111.54 33.492 112.097 33.492C112.669 33.492 113.205 33.3527 113.703 33.074C114.202 32.7807 114.598 32.37 114.891 31.842C115.185 31.2993 115.331 30.654 115.331 29.906ZM124.081 25.704C124.477 25.0587 124.991 24.5527 125.621 24.186C126.267 23.8193 127 23.636 127.821 23.636V26.87H127.007C126.039 26.87 125.306 27.0973 124.807 27.552C124.323 28.0067 124.081 28.7987 124.081 29.928V36H121.001V23.812H124.081V25.704ZM136.21 23.636C137.662 23.636 138.835 24.098 139.73 25.022C140.625 25.9313 141.072 27.2073 141.072 28.85V36H137.992V29.268C137.992 28.3 137.75 27.5593 137.266 27.046C136.782 26.518 136.122 26.254 135.286 26.254C134.435 26.254 133.761 26.518 133.262 27.046C132.778 27.5593 132.536 28.3 132.536 29.268V36H129.456V23.812H132.536V25.33C132.947 24.802 133.467 24.3913 134.098 24.098C134.743 23.79 135.447 23.636 136.21 23.636ZM154.891 29.642C154.891 30.082 154.861 30.478 154.803 30.83H145.893C145.966 31.71 146.274 32.3993 146.817 32.898C147.359 33.3967 148.027 33.646 148.819 33.646C149.963 33.646 150.777 33.1547 151.261 32.172H154.583C154.231 33.3453 153.556 34.3133 152.559 35.076C151.561 35.824 150.337 36.198 148.885 36.198C147.711 36.198 146.655 35.9413 145.717 35.428C144.793 34.9 144.067 34.1593 143.539 33.206C143.025 32.2527 142.769 31.1527 142.769 29.906C142.769 28.6447 143.025 27.5373 143.539 26.584C144.052 25.6307 144.771 24.8973 145.695 24.384C146.619 23.8707 147.682 23.614 148.885 23.614C150.043 23.614 151.077 23.8633 151.987 24.362C152.911 24.8607 153.622 25.572 154.121 26.496C154.634 27.4053 154.891 28.454 154.891 29.642ZM151.701 28.762C151.686 27.97 151.4 27.3393 150.843 26.87C150.285 26.386 149.603 26.144 148.797 26.144C148.034 26.144 147.389 26.3787 146.861 26.848C146.347 27.3027 146.032 27.9407 145.915 28.762H151.701ZM155.907 29.862C155.907 28.63 156.149 27.5373 156.633 26.584C157.132 25.6307 157.806 24.8973 158.657 24.384C159.508 23.8707 160.454 23.614 161.495 23.614C162.287 23.614 163.042 23.79 163.761 24.142C164.48 24.4793 165.052 24.934 165.477 25.506V19.72H168.601V36H165.477V34.196C165.096 34.7973 164.56 35.2813 163.871 35.648C163.182 36.0147 162.382 36.198 161.473 36.198C160.446 36.198 159.508 35.934 158.657 35.406C157.806 34.878 157.132 34.1373 156.633 33.184C156.149 32.216 155.907 31.1087 155.907 29.862ZM165.499 29.906C165.499 29.158 165.352 28.52 165.059 27.992C164.766 27.4493 164.37 27.0387 163.871 26.76C163.372 26.4667 162.837 26.32 162.265 26.32C161.693 26.32 161.165 26.4593 160.681 26.738C160.197 27.0167 159.801 27.4273 159.493 27.97C159.2 28.498 159.053 29.1287 159.053 29.862C159.053 30.5953 159.2 31.2407 159.493 31.798C159.801 32.3407 160.197 32.7587 160.681 33.052C161.18 33.3453 161.708 33.492 162.265 33.492C162.837 33.492 163.372 33.3527 163.871 33.074C164.37 32.7807 164.766 32.37 165.059 31.842C165.352 31.2993 165.499 30.654 165.499 29.906Z" fill="white"/>
<path d="M22.216 60L19.892 56.01H18.352V60H17.078V50.242H20.228C20.9653 50.242 21.586 50.368 22.09 50.62C22.6033 50.872 22.986 51.2127 23.238 51.642C23.49 52.0713 23.616 52.5613 23.616 53.112C23.616 53.784 23.42 54.3767 23.028 54.89C22.6453 55.4033 22.0667 55.744 21.292 55.912L23.742 60H22.216ZM18.352 54.988H20.228C20.9187 54.988 21.4367 54.82 21.782 54.484C22.1273 54.1387 22.3 53.6813 22.3 53.112C22.3 52.5333 22.1273 52.0853 21.782 51.768C21.446 51.4507 20.928 51.292 20.228 51.292H18.352V54.988ZM32.3156 55.87C32.3156 56.1127 32.3016 56.3693 32.2736 56.64H26.1416C26.1882 57.396 26.4449 57.9887 26.9116 58.418C27.3876 58.838 27.9616 59.048 28.6336 59.048C29.1842 59.048 29.6416 58.922 30.0056 58.67C30.3789 58.4087 30.6402 58.0633 30.7896 57.634H32.1616C31.9562 58.3713 31.5456 58.9733 30.9296 59.44C30.3136 59.8973 29.5482 60.126 28.6336 60.126C27.9056 60.126 27.2522 59.9627 26.6736 59.636C26.1042 59.3093 25.6562 58.8473 25.3296 58.25C25.0029 57.6433 24.8396 56.9433 24.8396 56.15C24.8396 55.3567 24.9982 54.6613 25.3156 54.064C25.6329 53.4667 26.0762 53.0093 26.6456 52.692C27.2242 52.3653 27.8869 52.202 28.6336 52.202C29.3616 52.202 30.0056 52.3607 30.5656 52.678C31.1256 52.9953 31.5549 53.434 31.8536 53.994C32.1616 54.5447 32.3156 55.17 32.3156 55.87ZM30.9996 55.604C30.9996 55.1187 30.8922 54.7033 30.6776 54.358C30.4629 54.0033 30.1689 53.7373 29.7956 53.56C29.4316 53.3733 29.0256 53.28 28.5776 53.28C27.9336 53.28 27.3829 53.4853 26.9256 53.896C26.4776 54.3067 26.2209 54.876 26.1556 55.604H30.9996ZM36.5732 58.824L38.9532 52.328H40.3112L37.3012 60H35.8172L32.8072 52.328H34.1792L36.5732 58.824ZM41.9429 51.082C41.7002 51.082 41.4949 50.998 41.3269 50.83C41.1589 50.662 41.0749 50.4567 41.0749 50.214C41.0749 49.9713 41.1589 49.766 41.3269 49.598C41.4949 49.43 41.7002 49.346 41.9429 49.346C42.1762 49.346 42.3722 49.43 42.5309 49.598C42.6989 49.766 42.7829 49.9713 42.7829 50.214C42.7829 50.4567 42.6989 50.662 42.5309 50.83C42.3722 50.998 42.1762 51.082 41.9429 51.082ZM42.5589 52.328V60H41.2849V52.328H42.5589ZM47.1662 60.126C46.5782 60.126 46.0509 60.028 45.5842 59.832C45.1175 59.6267 44.7489 59.3467 44.4782 58.992C44.2075 58.628 44.0582 58.2127 44.0302 57.746H45.3462C45.3835 58.1287 45.5609 58.4413 45.8782 58.684C46.2049 58.9267 46.6295 59.048 47.1522 59.048C47.6375 59.048 48.0202 58.9407 48.3002 58.726C48.5802 58.5113 48.7202 58.2407 48.7202 57.914C48.7202 57.578 48.5709 57.3307 48.2722 57.172C47.9735 57.004 47.5115 56.8407 46.8862 56.682C46.3169 56.5327 45.8502 56.3833 45.4862 56.234C45.1315 56.0753 44.8235 55.8467 44.5622 55.548C44.3102 55.24 44.1842 54.8387 44.1842 54.344C44.1842 53.952 44.3009 53.5927 44.5342 53.266C44.7675 52.9393 45.0989 52.6827 45.5282 52.496C45.9575 52.3 46.4475 52.202 46.9982 52.202C47.8475 52.202 48.5335 52.4167 49.0562 52.846C49.5789 53.2753 49.8589 53.8633 49.8962 54.61H48.6222C48.5942 54.2087 48.4309 53.8867 48.1322 53.644C47.8429 53.4013 47.4509 53.28 46.9562 53.28C46.4989 53.28 46.1349 53.378 45.8642 53.574C45.5935 53.77 45.4582 54.0267 45.4582 54.344C45.4582 54.596 45.5375 54.806 45.6962 54.974C45.8642 55.1327 46.0695 55.2633 46.3122 55.366C46.5642 55.4593 46.9095 55.5667 47.3482 55.688C47.8989 55.8373 48.3469 55.9867 48.6922 56.136C49.0375 56.276 49.3315 56.4907 49.5742 56.78C49.8262 57.0693 49.9569 57.4473 49.9662 57.914C49.9662 58.334 49.8495 58.712 49.6162 59.048C49.3829 59.384 49.0515 59.65 48.6222 59.846C48.2022 60.0327 47.7169 60.126 47.1662 60.126ZM52.1426 51.082C51.9 51.082 51.6946 50.998 51.5266 50.83C51.3586 50.662 51.2746 50.4567 51.2746 50.214C51.2746 49.9713 51.3586 49.766 51.5266 49.598C51.6946 49.43 51.9 49.346 52.1426 49.346C52.376 49.346 52.572 49.43 52.7306 49.598C52.8986 49.766 52.9826 49.9713 52.9826 50.214C52.9826 50.4567 52.8986 50.662 52.7306 50.83C52.572 50.998 52.376 51.082 52.1426 51.082ZM52.7586 52.328V60H51.4846V52.328H52.7586ZM56.204 53.378V57.9C56.204 58.2733 56.2833 58.5393 56.442 58.698C56.6006 58.8473 56.876 58.922 57.268 58.922H58.206V60H57.058C56.3486 60 55.8166 59.8367 55.462 59.51C55.1073 59.1833 54.93 58.6467 54.93 57.9V53.378H53.936V52.328H54.93V50.396H56.204V52.328H58.206V53.378H56.204ZM72.148 52.188C72.7453 52.188 73.2773 52.314 73.744 52.566C74.2106 52.8087 74.5793 53.1773 74.85 53.672C75.1207 54.1667 75.256 54.7687 75.256 55.478V60H73.996V55.66C73.996 54.8947 73.8046 54.3113 73.422 53.91C73.0487 53.4993 72.54 53.294 71.896 53.294C71.2333 53.294 70.706 53.5087 70.314 53.938C69.922 54.358 69.726 54.9693 69.726 55.772V60H68.466V55.66C68.466 54.8947 68.2746 54.3113 67.892 53.91C67.5186 53.4993 67.01 53.294 66.366 53.294C65.7033 53.294 65.176 53.5087 64.784 53.938C64.392 54.358 64.196 54.9693 64.196 55.772V60H62.922V52.328H64.196V53.434C64.448 53.0327 64.784 52.7247 65.204 52.51C65.6333 52.2953 66.1046 52.188 66.618 52.188C67.262 52.188 67.8313 52.3327 68.326 52.622C68.8206 52.9113 69.1893 53.336 69.432 53.896C69.6466 53.3547 70.0013 52.9347 70.496 52.636C70.9906 52.3373 71.5413 52.188 72.148 52.188ZM84.0658 55.87C84.0658 56.1127 84.0518 56.3693 84.0238 56.64H77.8918C77.9385 57.396 78.1951 57.9887 78.6618 58.418C79.1378 58.838 79.7118 59.048 80.3838 59.048C80.9345 59.048 81.3918 58.922 81.7558 58.67C82.1291 58.4087 82.3905 58.0633 82.5398 57.634H83.9118C83.7065 58.3713 83.2958 58.9733 82.6798 59.44C82.0638 59.8973 81.2985 60.126 80.3838 60.126C79.6558 60.126 79.0025 59.9627 78.4238 59.636C77.8545 59.3093 77.4065 58.8473 77.0798 58.25C76.7531 57.6433 76.5898 56.9433 76.5898 56.15C76.5898 55.3567 76.7485 54.6613 77.0658 54.064C77.3831 53.4667 77.8265 53.0093 78.3958 52.692C78.9745 52.3653 79.6371 52.202 80.3838 52.202C81.1118 52.202 81.7558 52.3607 82.3158 52.678C82.8758 52.9953 83.3051 53.434 83.6038 53.994C83.9118 54.5447 84.0658 55.17 84.0658 55.87ZM82.7498 55.604C82.7498 55.1187 82.6425 54.7033 82.4278 54.358C82.2131 54.0033 81.9191 53.7373 81.5458 53.56C81.1818 53.3733 80.7758 53.28 80.3278 53.28C79.6838 53.28 79.1331 53.4853 78.6758 53.896C78.2278 54.3067 77.9711 54.876 77.9058 55.604H82.7498ZM94.6935 52.188C95.2908 52.188 95.8228 52.314 96.2895 52.566C96.7561 52.8087 97.1248 53.1773 97.3955 53.672C97.6661 54.1667 97.8015 54.7687 97.8015 55.478V60H96.5415V55.66C96.5415 54.8947 96.3501 54.3113 95.9675 53.91C95.5941 53.4993 95.0855 53.294 94.4415 53.294C93.7788 53.294 93.2515 53.5087 92.8595 53.938C92.4675 54.358 92.2715 54.9693 92.2715 55.772V60H91.0115V55.66C91.0115 54.8947 90.8201 54.3113 90.4375 53.91C90.0641 53.4993 89.5555 53.294 88.9115 53.294C88.2488 53.294 87.7215 53.5087 87.3295 53.938C86.9375 54.358 86.7415 54.9693 86.7415 55.772V60H85.4675V52.328H86.7415V53.434C86.9935 53.0327 87.3295 52.7247 87.7495 52.51C88.1788 52.2953 88.6501 52.188 89.1635 52.188C89.8075 52.188 90.3768 52.3327 90.8715 52.622C91.3661 52.9113 91.7348 53.336 91.9775 53.896C92.1921 53.3547 92.5468 52.9347 93.0415 52.636C93.5361 52.3373 94.0868 52.188 94.6935 52.188ZM102.957 60.126C102.239 60.126 101.585 59.9627 100.997 59.636C100.419 59.3093 99.9613 58.8473 99.6253 58.25C99.2986 57.6433 99.1353 56.9433 99.1353 56.15C99.1353 55.366 99.3033 54.6753 99.6393 54.078C99.9846 53.4713 100.451 53.0093 101.039 52.692C101.627 52.3653 102.285 52.202 103.013 52.202C103.741 52.202 104.399 52.3653 104.987 52.692C105.575 53.0093 106.037 53.4667 106.373 54.064C106.719 54.6613 106.891 55.3567 106.891 56.15C106.891 56.9433 106.714 57.6433 106.359 58.25C106.014 58.8473 105.543 59.3093 104.945 59.636C104.348 59.9627 103.685 60.126 102.957 60.126ZM102.957 59.006C103.415 59.006 103.844 58.8987 104.245 58.684C104.647 58.4693 104.969 58.1473 105.211 57.718C105.463 57.2887 105.589 56.766 105.589 56.15C105.589 55.534 105.468 55.0113 105.225 54.582C104.983 54.1527 104.665 53.8353 104.273 53.63C103.881 53.4153 103.457 53.308 102.999 53.308C102.533 53.308 102.103 53.4153 101.711 53.63C101.329 53.8353 101.021 54.1527 100.787 54.582C100.554 55.0113 100.437 55.534 100.437 56.15C100.437 56.7753 100.549 57.3027 100.773 57.732C101.007 58.1613 101.315 58.4833 101.697 58.698C102.08 58.9033 102.5 59.006 102.957 59.006ZM109.56 53.574C109.784 53.1353 110.102 52.7947 110.512 52.552C110.932 52.3093 111.441 52.188 112.038 52.188V53.504H111.702C110.274 53.504 109.56 54.2787 109.56 55.828V60H108.286V52.328H109.56V53.574ZM113.887 51.082C113.644 51.082 113.439 50.998 113.271 50.83C113.103 50.662 113.019 50.4567 113.019 50.214C113.019 49.9713 113.103 49.766 113.271 49.598C113.439 49.43 113.644 49.346 113.887 49.346C114.12 49.346 114.316 49.43 114.475 49.598C114.643 49.766 114.727 49.9713 114.727 50.214C114.727 50.4567 114.643 50.662 114.475 50.83C114.316 50.998 114.12 51.082 113.887 51.082ZM114.503 52.328V60H113.229V52.328H114.503ZM117.346 58.95H121.112V60H115.89V58.95L119.614 53.364H115.918V52.328H121.084V53.364L117.346 58.95ZM129.485 55.87C129.485 56.1127 129.471 56.3693 129.443 56.64H123.311C123.358 57.396 123.615 57.9887 124.081 58.418C124.557 58.838 125.131 59.048 125.803 59.048C126.354 59.048 126.811 58.922 127.175 58.67C127.549 58.4087 127.81 58.0633 127.959 57.634H129.331C129.126 58.3713 128.715 58.9733 128.099 59.44C127.483 59.8973 126.718 60.126 125.803 60.126C125.075 60.126 124.422 59.9627 123.843 59.636C123.274 59.3093 122.826 58.8473 122.499 58.25C122.173 57.6433 122.009 56.9433 122.009 56.15C122.009 55.3567 122.168 54.6613 122.485 54.064C122.803 53.4667 123.246 53.0093 123.815 52.692C124.394 52.3653 125.057 52.202 125.803 52.202C126.531 52.202 127.175 52.3607 127.735 52.678C128.295 52.9953 128.725 53.434 129.023 53.994C129.331 54.5447 129.485 55.17 129.485 55.87ZM128.169 55.604C128.169 55.1187 128.062 54.7033 127.847 54.358C127.633 54.0033 127.339 53.7373 126.965 53.56C126.601 53.3733 126.195 53.28 125.747 53.28C125.103 53.28 124.553 53.4853 124.095 53.896C123.647 54.3067 123.391 54.876 123.325 55.604H128.169ZM130.411 56.136C130.411 55.352 130.57 54.666 130.887 54.078C131.204 53.4807 131.638 53.0187 132.189 52.692C132.749 52.3653 133.374 52.202 134.065 52.202C134.662 52.202 135.218 52.342 135.731 52.622C136.244 52.8927 136.636 53.252 136.907 53.7V49.64H138.195V60H136.907V58.558C136.655 59.0153 136.282 59.3933 135.787 59.692C135.292 59.9813 134.714 60.126 134.051 60.126C133.37 60.126 132.749 59.958 132.189 59.622C131.638 59.286 131.204 58.8147 130.887 58.208C130.57 57.6013 130.411 56.9107 130.411 56.136ZM136.907 56.15C136.907 55.5713 136.79 55.0673 136.557 54.638C136.324 54.2087 136.006 53.882 135.605 53.658C135.213 53.4247 134.779 53.308 134.303 53.308C133.827 53.308 133.393 53.42 133.001 53.644C132.609 53.868 132.296 54.1947 132.063 54.624C131.83 55.0533 131.713 55.5573 131.713 56.136C131.713 56.724 131.83 57.2373 132.063 57.676C132.296 58.1053 132.609 58.4367 133.001 58.67C133.393 58.894 133.827 59.006 134.303 59.006C134.779 59.006 135.213 58.894 135.605 58.67C136.006 58.4367 136.324 58.1053 136.557 57.676C136.79 57.2373 136.907 56.7287 136.907 56.15ZM146.376 58.824L148.756 52.328H150.114L147.104 60H145.62L142.61 52.328H143.982L146.376 58.824ZM154.434 60.126C153.715 60.126 153.062 59.9627 152.474 59.636C151.895 59.3093 151.438 58.8473 151.102 58.25C150.775 57.6433 150.612 56.9433 150.612 56.15C150.612 55.366 150.78 54.6753 151.116 54.078C151.461 53.4713 151.928 53.0093 152.516 52.692C153.104 52.3653 153.762 52.202 154.49 52.202C155.218 52.202 155.876 52.3653 156.464 52.692C157.052 53.0093 157.514 53.4667 157.85 54.064C158.195 54.6613 158.368 55.3567 158.368 56.15C158.368 56.9433 158.191 57.6433 157.836 58.25C157.491 58.8473 157.019 59.3093 156.422 59.636C155.825 59.9627 155.162 60.126 154.434 60.126ZM154.434 59.006C154.891 59.006 155.321 58.8987 155.722 58.684C156.123 58.4693 156.445 58.1473 156.688 57.718C156.94 57.2887 157.066 56.766 157.066 56.15C157.066 55.534 156.945 55.0113 156.702 54.582C156.459 54.1527 156.142 53.8353 155.75 53.63C155.358 53.4153 154.933 53.308 154.476 53.308C154.009 53.308 153.58 53.4153 153.188 53.63C152.805 53.8353 152.497 54.1527 152.264 54.582C152.031 55.0113 151.914 55.534 151.914 56.15C151.914 56.7753 152.026 57.3027 152.25 57.732C152.483 58.1613 152.791 58.4833 153.174 58.698C153.557 58.9033 153.977 59.006 154.434 59.006ZM159.287 56.15C159.287 55.3567 159.446 54.666 159.763 54.078C160.08 53.4807 160.519 53.0187 161.079 52.692C161.648 52.3653 162.297 52.202 163.025 52.202C163.968 52.202 164.742 52.4307 165.349 52.888C165.965 53.3453 166.371 53.98 166.567 54.792H165.195C165.064 54.3253 164.808 53.9567 164.425 53.686C164.052 53.4153 163.585 53.28 163.025 53.28C162.297 53.28 161.709 53.532 161.261 54.036C160.813 54.5307 160.589 55.2353 160.589 56.15C160.589 57.074 160.813 57.788 161.261 58.292C161.709 58.796 162.297 59.048 163.025 59.048C163.585 59.048 164.052 58.9173 164.425 58.656C164.798 58.3947 165.055 58.0213 165.195 57.536H166.567C166.362 58.32 165.951 58.95 165.335 59.426C164.719 59.8927 163.949 60.126 163.025 60.126C162.297 60.126 161.648 59.9627 161.079 59.636C160.519 59.3093 160.08 58.8473 159.763 58.25C159.446 57.6527 159.287 56.9527 159.287 56.15ZM167.511 56.136C167.511 55.352 167.67 54.666 167.987 54.078C168.304 53.4807 168.738 53.0187 169.289 52.692C169.849 52.3653 170.47 52.202 171.151 52.202C171.823 52.202 172.406 52.3467 172.901 52.636C173.396 52.9253 173.764 53.2893 174.007 53.728V52.328H175.295V60H174.007V58.572C173.755 59.02 173.377 59.3933 172.873 59.692C172.378 59.9813 171.8 60.126 171.137 60.126C170.456 60.126 169.84 59.958 169.289 59.622C168.738 59.286 168.304 58.8147 167.987 58.208C167.67 57.6013 167.511 56.9107 167.511 56.136ZM174.007 56.15C174.007 55.5713 173.89 55.0673 173.657 54.638C173.424 54.2087 173.106 53.882 172.705 53.658C172.313 53.4247 171.879 53.308 171.403 53.308C170.927 53.308 170.493 53.42 170.101 53.644C169.709 53.868 169.396 54.1947 169.163 54.624C168.93 55.0533 168.813 55.5573 168.813 56.136C168.813 56.724 168.93 57.2373 169.163 57.676C169.396 58.1053 169.709 58.4367 170.101 58.67C170.493 58.894 170.927 59.006 171.403 59.006C171.879 59.006 172.313 58.894 172.705 58.67C173.106 58.4367 173.424 58.1053 173.657 57.676C173.89 57.2373 174.007 56.7287 174.007 56.15ZM178.442 53.756C178.703 53.2987 179.086 52.9253 179.59 52.636C180.094 52.3467 180.668 52.202 181.312 52.202C182.003 52.202 182.623 52.3653 183.174 52.692C183.725 53.0187 184.159 53.4807 184.476 54.078C184.793 54.666 184.952 55.352 184.952 56.136C184.952 56.9107 184.793 57.6013 184.476 58.208C184.159 58.8147 183.72 59.286 183.16 59.622C182.609 59.958 181.993 60.126 181.312 60.126C180.649 60.126 180.066 59.9813 179.562 59.692C179.067 59.4027 178.694 59.034 178.442 58.586V60H177.168V49.64H178.442V53.756ZM183.65 56.136C183.65 55.5573 183.533 55.0533 183.3 54.624C183.067 54.1947 182.749 53.868 182.348 53.644C181.956 53.42 181.522 53.308 181.046 53.308C180.579 53.308 180.145 53.4247 179.744 53.658C179.352 53.882 179.035 54.2133 178.792 54.652C178.559 55.0813 178.442 55.5807 178.442 56.15C178.442 56.7287 178.559 57.2373 178.792 57.676C179.035 58.1053 179.352 58.4367 179.744 58.67C180.145 58.894 180.579 59.006 181.046 59.006C181.522 59.006 181.956 58.894 182.348 58.67C182.749 58.4367 183.067 58.1053 183.3 57.676C183.533 57.2373 183.65 56.724 183.65 56.136Z" fill="white"/>
<g clip-path="url(#clip0_3801_13032)">
<path d="M277 38.9951C277 38.751 276.902 38.5264 276.717 38.3506L268.982 30.7725C268.807 30.6064 268.592 30.5186 268.338 30.5186C267.84 30.5186 267.449 30.8994 267.449 31.4072C267.449 31.6514 267.547 31.876 267.703 32.042L274.812 38.9951L267.703 45.9483C267.547 46.1143 267.449 46.3291 267.449 46.5831C267.449 47.0909 267.84 47.4717 268.338 47.4717C268.592 47.4717 268.807 47.3838 268.982 47.2081L276.717 39.6396C276.902 39.4541 277 39.2393 277 38.9951Z" fill="white" fill-opacity="0.85"/>
</g>
<defs>
<clipPath id="clip0_3801_13032">
<rect width="11.6895" height="16.9629" fill="white" transform="translate(265.311 30.5186)"/>
</clipPath>
</defs>
</svg>
