<svg width="293" height="86" viewBox="0 0 293 86" fill="none" xmlns="http://www.w3.org/2000/svg">
<rect width="293" height="78" rx="30" fill="#3A6351"/>
<path d="M16.77 28.3C16.77 26.7893 17.1073 25.44 17.782 24.252C18.4713 23.0493 19.4027 22.118 20.576 21.458C21.764 20.7833 23.0913 20.446 24.558 20.446C26.274 20.446 27.7773 20.886 29.068 21.766C30.3587 22.646 31.2607 23.8633 31.774 25.418H28.232C27.88 24.6847 27.3813 24.1347 26.736 23.768C26.1053 23.4013 25.372 23.218 24.536 23.218C23.6413 23.218 22.842 23.4307 22.138 23.856C21.4487 24.2667 20.906 24.8533 20.51 25.616C20.1287 26.3787 19.938 27.2733 19.938 28.3C19.938 29.312 20.1287 30.2067 20.51 30.984C20.906 31.7467 21.4487 32.3407 22.138 32.766C22.842 33.1767 23.6413 33.382 24.536 33.382C25.372 33.382 26.1053 33.1987 26.736 32.832C27.3813 32.4507 27.88 31.8933 28.232 31.16H31.774C31.2607 32.7293 30.3587 33.954 29.068 34.834C27.792 35.6993 26.2887 36.132 24.558 36.132C23.0913 36.132 21.764 35.802 20.576 35.142C19.4027 34.4673 18.4713 33.536 17.782 32.348C17.1073 31.16 16.77 29.8107 16.77 28.3ZM33.1727 29.862C33.1727 28.63 33.4147 27.5373 33.8987 26.584C34.3974 25.6307 35.0647 24.8973 35.9007 24.384C36.7514 23.8707 37.6974 23.614 38.7387 23.614C39.6481 23.614 40.4401 23.7973 41.1147 24.164C41.8041 24.5307 42.3541 24.9927 42.7647 25.55V23.812H45.8667V36H42.7647V34.218C42.3687 34.79 41.8187 35.2667 41.1147 35.648C40.4254 36.0147 39.6261 36.198 38.7167 36.198C37.6901 36.198 36.7514 35.934 35.9007 35.406C35.0647 34.878 34.3974 34.1373 33.8987 33.184C33.4147 32.216 33.1727 31.1087 33.1727 29.862ZM42.7647 29.906C42.7647 29.158 42.6181 28.52 42.3247 27.992C42.0314 27.4493 41.6354 27.0387 41.1367 26.76C40.6381 26.4667 40.1027 26.32 39.5307 26.32C38.9587 26.32 38.4307 26.4593 37.9467 26.738C37.4627 27.0167 37.0667 27.4273 36.7587 27.97C36.4654 28.498 36.3187 29.1287 36.3187 29.862C36.3187 30.5953 36.4654 31.2407 36.7587 31.798C37.0667 32.3407 37.4627 32.7587 37.9467 33.052C38.4454 33.3453 38.9734 33.492 39.5307 33.492C40.1027 33.492 40.6381 33.3527 41.1367 33.074C41.6354 32.7807 42.0314 32.37 42.3247 31.842C42.6181 31.2993 42.7647 30.654 42.7647 29.906ZM51.5149 25.704C51.9109 25.0587 52.4242 24.5527 53.0549 24.186C53.7002 23.8193 54.4335 23.636 55.2549 23.636V26.87H54.4409C53.4729 26.87 52.7395 27.0973 52.2409 27.552C51.7569 28.0067 51.5149 28.7987 51.5149 29.928V36H48.4349V23.812H51.5149V25.704ZM56.0974 29.862C56.0974 28.63 56.3394 27.5373 56.8234 26.584C57.3221 25.6307 57.9967 24.8973 58.8474 24.384C59.6981 23.8707 60.6441 23.614 61.6854 23.614C62.4774 23.614 63.2327 23.79 63.9514 24.142C64.6701 24.4793 65.2421 24.934 65.6674 25.506V19.72H68.7914V36H65.6674V34.196C65.2861 34.7973 64.7507 35.2813 64.0614 35.648C63.3721 36.0147 62.5727 36.198 61.6634 36.198C60.6367 36.198 59.6981 35.934 58.8474 35.406C57.9967 34.878 57.3221 34.1373 56.8234 33.184C56.3394 32.216 56.0974 31.1087 56.0974 29.862ZM65.6894 29.906C65.6894 29.158 65.5427 28.52 65.2494 27.992C64.9561 27.4493 64.5601 27.0387 64.0614 26.76C63.5627 26.4667 63.0274 26.32 62.4554 26.32C61.8834 26.32 61.3554 26.4593 60.8714 26.738C60.3874 27.0167 59.9914 27.4273 59.6834 27.97C59.3901 28.498 59.2434 29.1287 59.2434 29.862C59.2434 30.5953 59.3901 31.2407 59.6834 31.798C59.9914 32.3407 60.3874 32.7587 60.8714 33.052C61.3701 33.3453 61.8981 33.492 62.4554 33.492C63.0274 33.492 63.5627 33.3527 64.0614 33.074C64.5601 32.7807 64.9561 32.37 65.2494 31.842C65.5427 31.2993 65.6894 30.654 65.6894 29.906ZM76.0236 36.198C75.0262 36.198 74.1316 36.022 73.3396 35.67C72.5476 35.3033 71.9169 34.812 71.4476 34.196C70.9929 33.58 70.7436 32.898 70.6996 32.15H73.8016C73.8602 32.6193 74.0876 33.008 74.4836 33.316C74.8942 33.624 75.4002 33.778 76.0016 33.778C76.5882 33.778 77.0429 33.6607 77.3656 33.426C77.7029 33.1913 77.8716 32.8907 77.8716 32.524C77.8716 32.128 77.6662 31.8347 77.2556 31.644C76.8596 31.4387 76.2216 31.2187 75.3416 30.984C74.4322 30.764 73.6842 30.5367 73.0976 30.302C72.5256 30.0673 72.0269 29.708 71.6016 29.224C71.1909 28.74 70.9856 28.0873 70.9856 27.266C70.9856 26.5913 71.1762 25.9753 71.5576 25.418C71.9536 24.8607 72.5109 24.4207 73.2296 24.098C73.9629 23.7753 74.8209 23.614 75.8036 23.614C77.2556 23.614 78.4142 23.9807 79.2796 24.714C80.1449 25.4327 80.6216 26.408 80.7096 27.64H77.7616C77.7176 27.156 77.5122 26.7747 77.1456 26.496C76.7936 26.2027 76.3169 26.056 75.7156 26.056C75.1582 26.056 74.7256 26.1587 74.4176 26.364C74.1242 26.5693 73.9776 26.8553 73.9776 27.222C73.9776 27.6327 74.1829 27.948 74.5936 28.168C75.0042 28.3733 75.6422 28.586 76.5076 28.806C77.3876 29.026 78.1136 29.2533 78.6856 29.488C79.2576 29.7227 79.7489 30.0893 80.1596 30.588C80.5849 31.072 80.8049 31.7173 80.8196 32.524C80.8196 33.228 80.6216 33.8587 80.2256 34.416C79.8442 34.9733 79.2869 35.4133 78.5536 35.736C77.8349 36.044 76.9916 36.198 76.0236 36.198ZM90.79 19.72V36H87.71V19.72H90.79ZM104.723 29.642C104.723 30.082 104.694 30.478 104.635 30.83H95.7251C95.7984 31.71 96.1064 32.3993 96.6491 32.898C97.1917 33.3967 97.8591 33.646 98.6511 33.646C99.7951 33.646 100.609 33.1547 101.093 32.172H104.415C104.063 33.3453 103.388 34.3133 102.391 35.076C101.394 35.824 100.169 36.198 98.7171 36.198C97.5437 36.198 96.4877 35.9413 95.5491 35.428C94.6251 34.9 93.8991 34.1593 93.3711 33.206C92.8577 32.2527 92.6011 31.1527 92.6011 29.906C92.6011 28.6447 92.8577 27.5373 93.3711 26.584C93.8844 25.6307 94.6031 24.8973 95.5271 24.384C96.4511 23.8707 97.5144 23.614 98.7171 23.614C99.8757 23.614 100.91 23.8633 101.819 24.362C102.743 24.8607 103.454 25.572 103.953 26.496C104.466 27.4053 104.723 28.454 104.723 29.642ZM101.533 28.762C101.518 27.97 101.232 27.3393 100.675 26.87C100.118 26.386 99.4357 26.144 98.6291 26.144C97.8664 26.144 97.2211 26.3787 96.6931 26.848C96.1797 27.3027 95.8644 27.9407 95.7471 28.762H101.533ZM105.739 29.862C105.739 28.63 105.981 27.5373 106.465 26.584C106.964 25.6307 107.631 24.8973 108.467 24.384C109.318 23.8707 110.264 23.614 111.305 23.614C112.215 23.614 113.007 23.7973 113.681 24.164C114.371 24.5307 114.921 24.9927 115.331 25.55V23.812H118.433V36H115.331V34.218C114.935 34.79 114.385 35.2667 113.681 35.648C112.992 36.0147 112.193 36.198 111.283 36.198C110.257 36.198 109.318 35.934 108.467 35.406C107.631 34.878 106.964 34.1373 106.465 33.184C105.981 32.216 105.739 31.1087 105.739 29.862ZM115.331 29.906C115.331 29.158 115.185 28.52 114.891 27.992C114.598 27.4493 114.202 27.0387 113.703 26.76C113.205 26.4667 112.669 26.32 112.097 26.32C111.525 26.32 110.997 26.4593 110.513 26.738C110.029 27.0167 109.633 27.4273 109.325 27.97C109.032 28.498 108.885 29.1287 108.885 29.862C108.885 30.5953 109.032 31.2407 109.325 31.798C109.633 32.3407 110.029 32.7587 110.513 33.052C111.012 33.3453 111.54 33.492 112.097 33.492C112.669 33.492 113.205 33.3527 113.703 33.074C114.202 32.7807 114.598 32.37 114.891 31.842C115.185 31.2993 115.331 30.654 115.331 29.906ZM124.081 25.704C124.477 25.0587 124.991 24.5527 125.621 24.186C126.267 23.8193 127 23.636 127.821 23.636V26.87H127.007C126.039 26.87 125.306 27.0973 124.807 27.552C124.323 28.0067 124.081 28.7987 124.081 29.928V36H121.001V23.812H124.081V25.704ZM136.21 23.636C137.662 23.636 138.835 24.098 139.73 25.022C140.625 25.9313 141.072 27.2073 141.072 28.85V36H137.992V29.268C137.992 28.3 137.75 27.5593 137.266 27.046C136.782 26.518 136.122 26.254 135.286 26.254C134.435 26.254 133.761 26.518 133.262 27.046C132.778 27.5593 132.536 28.3 132.536 29.268V36H129.456V23.812H132.536V25.33C132.947 24.802 133.467 24.3913 134.098 24.098C134.743 23.79 135.447 23.636 136.21 23.636ZM154.891 29.642C154.891 30.082 154.861 30.478 154.803 30.83H145.893C145.966 31.71 146.274 32.3993 146.817 32.898C147.359 33.3967 148.027 33.646 148.819 33.646C149.963 33.646 150.777 33.1547 151.261 32.172H154.583C154.231 33.3453 153.556 34.3133 152.559 35.076C151.561 35.824 150.337 36.198 148.885 36.198C147.711 36.198 146.655 35.9413 145.717 35.428C144.793 34.9 144.067 34.1593 143.539 33.206C143.025 32.2527 142.769 31.1527 142.769 29.906C142.769 28.6447 143.025 27.5373 143.539 26.584C144.052 25.6307 144.771 24.8973 145.695 24.384C146.619 23.8707 147.682 23.614 148.885 23.614C150.043 23.614 151.077 23.8633 151.987 24.362C152.911 24.8607 153.622 25.572 154.121 26.496C154.634 27.4053 154.891 28.454 154.891 29.642ZM151.701 28.762C151.686 27.97 151.4 27.3393 150.843 26.87C150.285 26.386 149.603 26.144 148.797 26.144C148.034 26.144 147.389 26.3787 146.861 26.848C146.347 27.3027 146.032 27.9407 145.915 28.762H151.701ZM155.907 29.862C155.907 28.63 156.149 27.5373 156.633 26.584C157.132 25.6307 157.806 24.8973 158.657 24.384C159.508 23.8707 160.454 23.614 161.495 23.614C162.287 23.614 163.042 23.79 163.761 24.142C164.48 24.4793 165.052 24.934 165.477 25.506V19.72H168.601V36H165.477V34.196C165.096 34.7973 164.56 35.2813 163.871 35.648C163.182 36.0147 162.382 36.198 161.473 36.198C160.446 36.198 159.508 35.934 158.657 35.406C157.806 34.878 157.132 34.1373 156.633 33.184C156.149 32.216 155.907 31.1087 155.907 29.862ZM165.499 29.906C165.499 29.158 165.352 28.52 165.059 27.992C164.766 27.4493 164.37 27.0387 163.871 26.76C163.372 26.4667 162.837 26.32 162.265 26.32C161.693 26.32 161.165 26.4593 160.681 26.738C160.197 27.0167 159.801 27.4273 159.493 27.97C159.2 28.498 159.053 29.1287 159.053 29.862C159.053 30.5953 159.2 31.2407 159.493 31.798C159.801 32.3407 160.197 32.7587 160.681 33.052C161.18 33.3453 161.708 33.492 162.265 33.492C162.837 33.492 163.372 33.3527 163.871 33.074C164.37 32.7807 164.766 32.37 165.059 31.842C165.352 31.2993 165.499 30.654 165.499 29.906Z" fill="white"/>
<path d="M23.084 50.242V51.278H20.424V60H19.15V51.278H16.476V50.242H23.084ZM28.1802 52.188C28.7589 52.188 29.2816 52.314 29.7482 52.566C30.2149 52.8087 30.5789 53.1773 30.8402 53.672C31.1109 54.1667 31.2462 54.7687 31.2462 55.478V60H29.9862V55.66C29.9862 54.8947 29.7949 54.3113 29.4122 53.91C29.0296 53.4993 28.5069 53.294 27.8442 53.294C27.1722 53.294 26.6356 53.504 26.2342 53.924C25.8422 54.344 25.6462 54.9553 25.6462 55.758V60H24.3722V49.64H25.6462V53.42C25.8982 53.028 26.2436 52.7247 26.6822 52.51C27.1302 52.2953 27.6296 52.188 28.1802 52.188ZM40.0473 55.87C40.0473 56.1127 40.0333 56.3693 40.0053 56.64H33.8733C33.92 57.396 34.1766 57.9887 34.6433 58.418C35.1193 58.838 35.6933 59.048 36.3653 59.048C36.916 59.048 37.3733 58.922 37.7373 58.67C38.1106 58.4087 38.372 58.0633 38.5213 57.634H39.8933C39.688 58.3713 39.2773 58.9733 38.6613 59.44C38.0453 59.8973 37.28 60.126 36.3653 60.126C35.6373 60.126 34.984 59.9627 34.4053 59.636C33.836 59.3093 33.388 58.8473 33.0613 58.25C32.7346 57.6433 32.5713 56.9433 32.5713 56.15C32.5713 55.3567 32.73 54.6613 33.0473 54.064C33.3646 53.4667 33.808 53.0093 34.3773 52.692C34.956 52.3653 35.6186 52.202 36.3653 52.202C37.0933 52.202 37.7373 52.3607 38.2973 52.678C38.8573 52.9953 39.2866 53.434 39.5853 53.994C39.8933 54.5447 40.0473 55.17 40.0473 55.87ZM38.7313 55.604C38.7313 55.1187 38.624 54.7033 38.4093 54.358C38.1946 54.0033 37.9006 53.7373 37.5273 53.56C37.1633 53.3733 36.7573 53.28 36.3093 53.28C35.6653 53.28 35.1146 53.4853 34.6573 53.896C34.2093 54.3067 33.9526 54.876 33.8873 55.604H38.7313ZM48.0654 52.202C48.728 52.202 49.3067 52.3467 49.8014 52.636C50.3054 52.9253 50.6787 53.2893 50.9214 53.728V52.328H52.2094V60.168C52.2094 60.868 52.06 61.4887 51.7614 62.03C51.4627 62.5807 51.0334 63.01 50.4734 63.318C49.9227 63.626 49.2787 63.78 48.5414 63.78C47.5334 63.78 46.6934 63.542 46.0214 63.066C45.3494 62.59 44.9527 61.9413 44.8314 61.12H46.0914C46.2314 61.5867 46.5207 61.96 46.9594 62.24C47.398 62.5293 47.9254 62.674 48.5414 62.674C49.2414 62.674 49.8107 62.4547 50.2494 62.016C50.6974 61.5773 50.9214 60.9613 50.9214 60.168V58.558C50.6694 59.006 50.296 59.3793 49.8014 59.678C49.3067 59.9767 48.728 60.126 48.0654 60.126C47.384 60.126 46.7634 59.958 46.2034 59.622C45.6527 59.286 45.2187 58.8147 44.9014 58.208C44.584 57.6013 44.4254 56.9107 44.4254 56.136C44.4254 55.352 44.584 54.666 44.9014 54.078C45.2187 53.4807 45.6527 53.0187 46.2034 52.692C46.7634 52.3653 47.384 52.202 48.0654 52.202ZM50.9214 56.15C50.9214 55.5713 50.8047 55.0673 50.5714 54.638C50.338 54.2087 50.0207 53.882 49.6194 53.658C49.2274 53.4247 48.7934 53.308 48.3174 53.308C47.8414 53.308 47.4074 53.42 47.0154 53.644C46.6234 53.868 46.3107 54.1947 46.0774 54.624C45.844 55.0533 45.7274 55.5573 45.7274 56.136C45.7274 56.724 45.844 57.2373 46.0774 57.676C46.3107 58.1053 46.6234 58.4367 47.0154 58.67C47.4074 58.894 47.8414 59.006 48.3174 59.006C48.7934 59.006 49.2274 58.894 49.6194 58.67C50.0207 58.4367 50.338 58.1053 50.5714 57.676C50.8047 57.2373 50.9214 56.7287 50.9214 56.15ZM60.8863 52.328V60H59.6123V58.866C59.3696 59.258 59.029 59.566 58.5903 59.79C58.161 60.0047 57.685 60.112 57.1623 60.112C56.565 60.112 56.0283 59.9907 55.5523 59.748C55.0763 59.496 54.6983 59.1227 54.4183 58.628C54.1476 58.1333 54.0123 57.5313 54.0123 56.822V52.328H55.2723V56.654C55.2723 57.41 55.4636 57.9933 55.8463 58.404C56.229 58.8053 56.7516 59.006 57.4143 59.006C58.0956 59.006 58.6323 58.796 59.0243 58.376C59.4163 57.956 59.6123 57.3447 59.6123 56.542V52.328H60.8863ZM63.4154 51.082C63.1727 51.082 62.9674 50.998 62.7994 50.83C62.6314 50.662 62.5474 50.4567 62.5474 50.214C62.5474 49.9713 62.6314 49.766 62.7994 49.598C62.9674 49.43 63.1727 49.346 63.4154 49.346C63.6487 49.346 63.8447 49.43 64.0034 49.598C64.1714 49.766 64.2554 49.9713 64.2554 50.214C64.2554 50.4567 64.1714 50.662 64.0034 50.83C63.8447 50.998 63.6487 51.082 63.4154 51.082ZM64.0314 52.328V60H62.7574V52.328H64.0314ZM65.4467 56.136C65.4467 55.352 65.6054 54.666 65.9227 54.078C66.24 53.4807 66.674 53.0187 67.2247 52.692C67.7847 52.3653 68.41 52.202 69.1007 52.202C69.698 52.202 70.2534 52.342 70.7667 52.622C71.28 52.8927 71.672 53.252 71.9427 53.7V49.64H73.2307V60H71.9427V58.558C71.6907 59.0153 71.3174 59.3933 70.8227 59.692C70.328 59.9813 69.7494 60.126 69.0867 60.126C68.4054 60.126 67.7847 59.958 67.2247 59.622C66.674 59.286 66.24 58.8147 65.9227 58.208C65.6054 57.6013 65.4467 56.9107 65.4467 56.136ZM71.9427 56.15C71.9427 55.5713 71.826 55.0673 71.5927 54.638C71.3594 54.2087 71.042 53.882 70.6407 53.658C70.2487 53.4247 69.8147 53.308 69.3387 53.308C68.8627 53.308 68.4287 53.42 68.0367 53.644C67.6447 53.868 67.332 54.1947 67.0987 54.624C66.8654 55.0533 66.7487 55.5573 66.7487 56.136C66.7487 56.724 66.8654 57.2373 67.0987 57.676C67.332 58.1053 67.6447 58.4367 68.0367 58.67C68.4287 58.894 68.8627 59.006 69.3387 59.006C69.8147 59.006 70.2487 58.894 70.6407 58.67C71.042 58.4367 71.3594 58.1053 71.5927 57.676C71.826 57.2373 71.9427 56.7287 71.9427 56.15ZM82.1036 55.87C82.1036 56.1127 82.0896 56.3693 82.0616 56.64H75.9296C75.9763 57.396 76.233 57.9887 76.6996 58.418C77.1756 58.838 77.7496 59.048 78.4216 59.048C78.9723 59.048 79.4296 58.922 79.7936 58.67C80.167 58.4087 80.4283 58.0633 80.5776 57.634H81.9496C81.7443 58.3713 81.3336 58.9733 80.7176 59.44C80.1016 59.8973 79.3363 60.126 78.4216 60.126C77.6936 60.126 77.0403 59.9627 76.4616 59.636C75.8923 59.3093 75.4443 58.8473 75.1176 58.25C74.791 57.6433 74.6276 56.9433 74.6276 56.15C74.6276 55.3567 74.7863 54.6613 75.1036 54.064C75.421 53.4667 75.8643 53.0093 76.4336 52.692C77.0123 52.3653 77.675 52.202 78.4216 52.202C79.1496 52.202 79.7936 52.3607 80.3536 52.678C80.9136 52.9953 81.343 53.434 81.6416 53.994C81.9496 54.5447 82.1036 55.17 82.1036 55.87ZM80.7876 55.604C80.7876 55.1187 80.6803 54.7033 80.4656 54.358C80.251 54.0033 79.957 53.7373 79.5836 53.56C79.2196 53.3733 78.8136 53.28 78.3656 53.28C77.7216 53.28 77.171 53.4853 76.7136 53.896C76.2656 54.3067 76.009 54.876 75.9436 55.604H80.7876ZM90.0797 53.378H88.4697V60H87.1957V53.378H86.2017V52.328H87.1957V51.782C87.1957 50.9233 87.415 50.298 87.8537 49.906C88.3017 49.5047 89.0157 49.304 89.9957 49.304V50.368C89.4357 50.368 89.039 50.48 88.8057 50.704C88.5817 50.9187 88.4697 51.278 88.4697 51.782V52.328H90.0797V53.378ZM94.6311 60.126C93.9124 60.126 93.2591 59.9627 92.6711 59.636C92.0924 59.3093 91.6351 58.8473 91.2991 58.25C90.9724 57.6433 90.8091 56.9433 90.8091 56.15C90.8091 55.366 90.9771 54.6753 91.3131 54.078C91.6584 53.4713 92.1251 53.0093 92.7131 52.692C93.3011 52.3653 93.9591 52.202 94.6871 52.202C95.4151 52.202 96.0731 52.3653 96.6611 52.692C97.2491 53.0093 97.7111 53.4667 98.0471 54.064C98.3924 54.6613 98.5651 55.3567 98.5651 56.15C98.5651 56.9433 98.3878 57.6433 98.0331 58.25C97.6878 58.8473 97.2164 59.3093 96.6191 59.636C96.0218 59.9627 95.3591 60.126 94.6311 60.126ZM94.6311 59.006C95.0884 59.006 95.5178 58.8987 95.9191 58.684C96.3204 58.4693 96.6424 58.1473 96.8851 57.718C97.1371 57.2887 97.2631 56.766 97.2631 56.15C97.2631 55.534 97.1418 55.0113 96.8991 54.582C96.6564 54.1527 96.3391 53.8353 95.9471 53.63C95.5551 53.4153 95.1304 53.308 94.6731 53.308C94.2064 53.308 93.7771 53.4153 93.3851 53.63C93.0024 53.8353 92.6944 54.1527 92.4611 54.582C92.2278 55.0113 92.1111 55.534 92.1111 56.15C92.1111 56.7753 92.2231 57.3027 92.4471 57.732C92.6804 58.1613 92.9884 58.4833 93.3711 58.698C93.7538 58.9033 94.1738 59.006 94.6311 59.006ZM101.234 53.574C101.458 53.1353 101.776 52.7947 102.186 52.552C102.606 52.3093 103.115 52.188 103.712 52.188V53.504H103.376C101.948 53.504 101.234 54.2787 101.234 55.828V60H99.9602V52.328H101.234V53.574ZM114.963 52.328L110.343 63.612H109.027L110.539 59.916L107.445 52.328H108.859L111.267 58.544L113.647 52.328H114.963ZM119.31 60.126C118.591 60.126 117.938 59.9627 117.35 59.636C116.771 59.3093 116.314 58.8473 115.978 58.25C115.651 57.6433 115.488 56.9433 115.488 56.15C115.488 55.366 115.656 54.6753 115.992 54.078C116.337 53.4713 116.804 53.0093 117.392 52.692C117.98 52.3653 118.638 52.202 119.366 52.202C120.094 52.202 120.752 52.3653 121.34 52.692C121.928 53.0093 122.39 53.4667 122.726 54.064C123.071 54.6613 123.244 55.3567 123.244 56.15C123.244 56.9433 123.067 57.6433 122.712 58.25C122.367 58.8473 121.895 59.3093 121.298 59.636C120.701 59.9627 120.038 60.126 119.31 60.126ZM119.31 59.006C119.767 59.006 120.197 58.8987 120.598 58.684C120.999 58.4693 121.321 58.1473 121.564 57.718C121.816 57.2887 121.942 56.766 121.942 56.15C121.942 55.534 121.821 55.0113 121.578 54.582C121.335 54.1527 121.018 53.8353 120.626 53.63C120.234 53.4153 119.809 53.308 119.352 53.308C118.885 53.308 118.456 53.4153 118.064 53.63C117.681 53.8353 117.373 54.1527 117.14 54.582C116.907 55.0113 116.79 55.534 116.79 56.15C116.79 56.7753 116.902 57.3027 117.126 57.732C117.359 58.1613 117.667 58.4833 118.05 58.698C118.433 58.9033 118.853 59.006 119.31 59.006ZM131.443 52.328V60H130.169V58.866C129.926 59.258 129.586 59.566 129.147 59.79C128.718 60.0047 128.242 60.112 127.719 60.112C127.122 60.112 126.585 59.9907 126.109 59.748C125.633 59.496 125.255 59.1227 124.975 58.628C124.704 58.1333 124.569 57.5313 124.569 56.822V52.328H125.829V56.654C125.829 57.41 126.02 57.9933 126.403 58.404C126.786 58.8053 127.308 59.006 127.971 59.006C128.652 59.006 129.189 58.796 129.581 58.376C129.973 57.956 130.169 57.3447 130.169 56.542V52.328H131.443ZM134.588 53.574C134.812 53.1353 135.129 52.7947 135.54 52.552C135.96 52.3093 136.469 52.188 137.066 52.188V53.504H136.73C135.302 53.504 134.588 54.2787 134.588 55.828V60H133.314V52.328H134.588V53.574ZM141.233 56.136C141.233 55.352 141.392 54.666 141.709 54.078C142.027 53.4807 142.461 53.0187 143.011 52.692C143.571 52.3653 144.192 52.202 144.873 52.202C145.545 52.202 146.129 52.3467 146.623 52.636C147.118 52.9253 147.487 53.2893 147.729 53.728V52.328H149.017V60H147.729V58.572C147.477 59.02 147.099 59.3933 146.595 59.692C146.101 59.9813 145.522 60.126 144.859 60.126C144.178 60.126 143.562 59.958 143.011 59.622C142.461 59.286 142.027 58.8147 141.709 58.208C141.392 57.6013 141.233 56.9107 141.233 56.136ZM147.729 56.15C147.729 55.5713 147.613 55.0673 147.379 54.638C147.146 54.2087 146.829 53.882 146.427 53.658C146.035 53.4247 145.601 53.308 145.125 53.308C144.649 53.308 144.215 53.42 143.823 53.644C143.431 53.868 143.119 54.1947 142.885 54.624C142.652 55.0533 142.535 55.5573 142.535 56.136C142.535 56.724 142.652 57.2373 142.885 57.676C143.119 58.1053 143.431 58.4367 143.823 58.67C144.215 58.894 144.649 59.006 145.125 59.006C145.601 59.006 146.035 58.894 146.427 58.67C146.829 58.4367 147.146 58.1053 147.379 57.676C147.613 57.2373 147.729 56.7287 147.729 56.15ZM150.414 56.136C150.414 55.352 150.573 54.666 150.89 54.078C151.207 53.4807 151.641 53.0187 152.192 52.692C152.752 52.3653 153.377 52.202 154.068 52.202C154.665 52.202 155.221 52.342 155.734 52.622C156.247 52.8927 156.639 53.252 156.91 53.7V49.64H158.198V60H156.91V58.558C156.658 59.0153 156.285 59.3933 155.79 59.692C155.295 59.9813 154.717 60.126 154.054 60.126C153.373 60.126 152.752 59.958 152.192 59.622C151.641 59.286 151.207 58.8147 150.89 58.208C150.573 57.6013 150.414 56.9107 150.414 56.136ZM156.91 56.15C156.91 55.5713 156.793 55.0673 156.56 54.638C156.327 54.2087 156.009 53.882 155.608 53.658C155.216 53.4247 154.782 53.308 154.306 53.308C153.83 53.308 153.396 53.42 153.004 53.644C152.612 53.868 152.299 54.1947 152.066 54.624C151.833 55.0533 151.716 55.5573 151.716 56.136C151.716 56.724 151.833 57.2373 152.066 57.676C152.299 58.1053 152.612 58.4367 153.004 58.67C153.396 58.894 153.83 59.006 154.306 59.006C154.782 59.006 155.216 58.894 155.608 58.67C156.009 58.4367 156.327 58.1053 156.56 57.676C156.793 57.2373 156.91 56.7287 156.91 56.15ZM162.927 58.824L165.307 52.328H166.665L163.655 60H162.171L159.161 52.328H160.533L162.927 58.824ZM174.639 55.87C174.639 56.1127 174.625 56.3693 174.597 56.64H168.465C168.511 57.396 168.768 57.9887 169.235 58.418C169.711 58.838 170.285 59.048 170.957 59.048C171.507 59.048 171.965 58.922 172.329 58.67C172.702 58.4087 172.963 58.0633 173.113 57.634H174.485C174.279 58.3713 173.869 58.9733 173.253 59.44C172.637 59.8973 171.871 60.126 170.957 60.126C170.229 60.126 169.575 59.9627 168.997 59.636C168.427 59.3093 167.979 58.8473 167.653 58.25C167.326 57.6433 167.163 56.9433 167.163 56.15C167.163 55.3567 167.321 54.6613 167.639 54.064C167.956 53.4667 168.399 53.0093 168.969 52.692C169.547 52.3653 170.21 52.202 170.957 52.202C171.685 52.202 172.329 52.3607 172.889 52.678C173.449 52.9953 173.878 53.434 174.177 53.994C174.485 54.5447 174.639 55.17 174.639 55.87ZM173.323 55.604C173.323 55.1187 173.215 54.7033 173.001 54.358C172.786 54.0033 172.492 53.7373 172.119 53.56C171.755 53.3733 171.349 53.28 170.901 53.28C170.257 53.28 169.706 53.4853 169.249 53.896C168.801 54.3067 168.544 54.876 168.479 55.604H173.323ZM179.778 52.188C180.712 52.188 181.468 52.4727 182.046 53.042C182.625 53.602 182.914 54.414 182.914 55.478V60H181.654V55.66C181.654 54.8947 181.463 54.3113 181.08 53.91C180.698 53.4993 180.175 53.294 179.512 53.294C178.84 53.294 178.304 53.504 177.902 53.924C177.51 54.344 177.314 54.9553 177.314 55.758V60H176.04V52.328H177.314V53.42C177.566 53.028 177.907 52.7247 178.336 52.51C178.775 52.2953 179.256 52.188 179.778 52.188ZM186.269 53.378V57.9C186.269 58.2733 186.349 58.5393 186.507 58.698C186.666 58.8473 186.941 58.922 187.333 58.922H188.271V60H187.123C186.414 60 185.882 59.8367 185.527 59.51C185.173 59.1833 184.995 58.6467 184.995 57.9V53.378H184.001V52.328H184.995V50.396H186.269V52.328H188.271V53.378H186.269ZM196.339 52.328V60H195.065V58.866C194.822 59.258 194.482 59.566 194.043 59.79C193.614 60.0047 193.138 60.112 192.615 60.112C192.018 60.112 191.481 59.9907 191.005 59.748C190.529 59.496 190.151 59.1227 189.871 58.628C189.6 58.1333 189.465 57.5313 189.465 56.822V52.328H190.725V56.654C190.725 57.41 190.916 57.9933 191.299 58.404C191.682 58.8053 192.204 59.006 192.867 59.006C193.548 59.006 194.085 58.796 194.477 58.376C194.869 57.956 195.065 57.3447 195.065 56.542V52.328H196.339ZM199.484 53.574C199.708 53.1353 200.025 52.7947 200.436 52.552C200.856 52.3093 201.365 52.188 201.962 52.188V53.504H201.626C200.198 53.504 199.484 54.2787 199.484 55.828V60H198.21V52.328H199.484V53.574ZM210.153 55.87C210.153 56.1127 210.139 56.3693 210.111 56.64H203.979C204.025 57.396 204.282 57.9887 204.749 58.418C205.225 58.838 205.799 59.048 206.471 59.048C207.021 59.048 207.479 58.922 207.843 58.67C208.216 58.4087 208.477 58.0633 208.627 57.634H209.999C209.793 58.3713 209.383 58.9733 208.767 59.44C208.151 59.8973 207.385 60.126 206.471 60.126C205.743 60.126 205.089 59.9627 204.511 59.636C203.941 59.3093 203.493 58.8473 203.167 58.25C202.84 57.6433 202.677 56.9433 202.677 56.15C202.677 55.3567 202.835 54.6613 203.153 54.064C203.47 53.4667 203.913 53.0093 204.483 52.692C205.061 52.3653 205.724 52.202 206.471 52.202C207.199 52.202 207.843 52.3607 208.403 52.678C208.963 52.9953 209.392 53.434 209.691 53.994C209.999 54.5447 210.153 55.17 210.153 55.87ZM208.837 55.604C208.837 55.1187 208.729 54.7033 208.515 54.358C208.3 54.0033 208.006 53.7373 207.633 53.56C207.269 53.3733 206.863 53.28 206.415 53.28C205.771 53.28 205.22 53.4853 204.763 53.896C204.315 54.3067 204.058 54.876 203.993 55.604H208.837Z" fill="white"/>
<g clip-path="url(#clip0_3813_1383)">
<path d="M277 38.9951C277 38.751 276.902 38.5264 276.717 38.3506L268.982 30.7725C268.807 30.6064 268.592 30.5186 268.338 30.5186C267.84 30.5186 267.449 30.8994 267.449 31.4072C267.449 31.6514 267.547 31.876 267.703 32.042L274.812 38.9951L267.703 45.9483C267.547 46.1143 267.449 46.3291 267.449 46.5831C267.449 47.0909 267.84 47.4717 268.338 47.4717C268.592 47.4717 268.807 47.3838 268.982 47.2081L276.717 39.6396C276.902 39.4541 277 39.2393 277 38.9951Z" fill="white" fill-opacity="0.85"/>
</g>
<path d="M20 68.5C20 64.3579 23.3579 61 27.5 61V61C31.6421 61 35 64.3579 35 68.5V79.75C35 83.2018 32.2018 86 28.75 86H26.25C22.7982 86 20 83.2018 20 79.75V68.5Z" fill="#3A6351"/>
<path d="M258 68.5C258 64.3579 261.358 61 265.5 61V61C269.642 61 273 64.3579 273 68.5V79.75C273 83.2018 270.202 86 266.75 86H264.25C260.798 86 258 83.2018 258 79.75V68.5Z" fill="#3A6351"/>
<defs>
<clipPath id="clip0_3813_1383">
<rect width="11.6895" height="16.9629" fill="white" transform="translate(265.311 30.5186)"/>
</clipPath>
</defs>
</svg>
