<svg width="503" height="595" viewBox="0 0 503 595" fill="none" xmlns="http://www.w3.org/2000/svg">
<path d="M147.565 367.426C136.778 387.09 112.093 394.287 92.4283 383.5L35.9508 352.518C16.2865 341.731 9.09003 317.046 19.8771 297.381C30.6641 277.717 55.3498 270.521 75.0141 281.308L131.492 312.289C151.156 323.076 158.352 347.762 147.565 367.426Z" fill="#846047"/>
<path d="M50.8899 360.968L36.1657 352.891C16.5014 342.104 9.30496 317.418 20.092 297.754C30.879 278.089 55.5648 270.893 75.2291 281.68L89.9533 289.757L50.8899 360.968Z" fill="#4B3E35"/>
<path d="M280.781 2.19707C259.725 -9.05397 240.425 25.6367 233.406 44.3885L280.781 69C289.554 51.4203 301.836 13.4481 280.781 2.19707Z" fill="#A37556"/>
<rect x="333.406" y="537" width="104" height="58" rx="29" fill="#846047"/>
<path d="M333.406 572H437.406C437.406 584.703 427.109 595 414.406 595H356.406C343.704 595 333.406 584.703 333.406 572Z" fill="#4B3E35"/>
<rect x="133.406" y="537" width="104" height="58" rx="29" fill="#846047"/>
<path d="M133.406 572H237.406C237.406 584.703 227.109 595 214.406 595H156.406C143.704 595 133.406 584.703 133.406 572Z" fill="#4B3E35"/>
<path d="M137.089 145C137.089 89.7715 181.86 45 237.089 45H341.025C389.353 45 430.766 79.5608 439.412 127.109L495.967 438.109C507.13 499.494 459.972 556 397.58 556H175.981C88.9312 556 43.4466 452.488 102.32 388.367L110.749 379.187C127.689 360.737 137.089 336.602 137.089 311.555L137.089 145Z" fill="#A37556"/>
<path d="M91.5416 142.579C98.3215 100.187 134.892 69 177.823 69C220.048 69 256.231 99.1943 263.79 140.737L276.965 213.149C288.129 274.511 240.99 331 178.621 331C117.119 331 70.2051 275.987 79.918 215.256L91.5416 142.579Z" fill="#604F44"/>
<path d="M160.29 132.789C155.872 156.391 141.013 218.496 160.29 225.579M160.29 225.579C171.406 235 209.325 252.521 227.215 255M160.29 225.579C134.906 241 127.406 248.5 123.406 255" stroke="#3A2E2B" stroke-width="10" stroke-linecap="round"/>
<ellipse cx="158.906" cy="133" rx="25.5" ry="17" fill="#3A2E2B"/>
<path d="M311.406 90C321.573 90.5 344.606 96.2 355.406 115" stroke="#3A2E2B" stroke-width="15" stroke-linecap="round"/>
<path d="M416.781 12.1971C395.725 0.946033 376.425 35.6367 369.406 54.3885L416.781 79C425.554 61.4203 437.836 23.4481 416.781 12.1971Z" fill="#A37556"/>
<path d="M308.576 325.577C347.673 300.975 432.977 283.668 465.312 274C504.25 361.345 546.147 539.33 402.232 552.506L187.535 556C172.178 511.221 178.807 470.687 197.573 435.209C224.899 381.291 276.933 342.346 308.576 325.577Z" fill="#F5F5F5"/>
<path d="M159.273 555.501H283.074C298.375 410.301 172.991 339.167 134.574 322C126.574 348.5 116.774 358.043 105.273 382C47.7734 427 62.6328 537.563 159.273 555.501Z" fill="#F5F5F5"/>
<g clip-path="url(#clip0_4053_733)">
<path d="M132.634 145C132.634 89.7715 177.955 45 233.86 45H339.072C387.992 45 429.913 79.5608 438.665 127.109L497.488 439C508.788 500.385 459.477 556 396.32 556H172.002C83.8855 556 37.843 452.488 97.4387 388.367L105.971 379.187C123.119 360.737 132.634 336.602 132.634 311.555L132.634 145Z" fill="#636363"/>
</g>
<path d="M335.076 358.5L228.576 390C255.776 351.6 315.393 317.5 344.984 308.5L316.576 338.5L335.076 358.5Z" fill="#636363"/>
<path d="M146.039 363.878L228.576 390C207.496 358.156 157.793 331.398 135.576 322L160.376 347.293L146.039 363.878Z" fill="#636363"/>
<path d="M463.927 340.554C453.14 320.889 428.454 313.693 408.79 324.48L352.312 355.461C332.648 366.248 325.451 390.934 336.238 410.598C347.025 430.263 371.711 437.459 391.375 426.672L447.853 395.691C467.517 384.904 474.714 360.218 463.927 340.554Z" fill="#846047"/>
<path d="M367.036 347.384L352.312 355.461C332.648 366.248 325.451 390.934 336.238 410.598C347.025 430.263 371.711 437.459 391.375 426.672L406.099 418.595L367.036 347.384Z" fill="#4B3E35"/>
<defs>
<clipPath id="clip0_4053_733">
<rect width="422" height="77" fill="white" transform="translate(75.5762 479)"/>
</clipPath>
</defs>
</svg>
