<svg width="40" height="47" viewBox="0 0 40 47" fill="none" xmlns="http://www.w3.org/2000/svg">
<path d="M11.9577 29.0242C11.1056 30.5776 9.15564 31.146 7.60232 30.2939L3.14107 27.8467C1.58775 26.9946 1.01929 25.0446 1.87138 23.4913C2.72347 21.938 4.67343 21.3695 6.22675 22.2216L10.688 24.6689C12.2413 25.521 12.8098 27.4709 11.9577 29.0242Z" fill="#846047"/>
<path d="M4.32114 28.5141L3.15805 27.8761C1.60473 27.024 1.03627 25.074 1.88836 23.5207C2.74044 21.9674 4.69041 21.3989 6.24373 22.251L7.40682 22.889L4.32114 28.5141Z" fill="#4B3E35"/>
<path d="M22.4795 0.174038C20.8163 -0.714699 19.2917 2.02557 18.7373 3.5068L22.4795 5.45091C23.1725 4.06226 24.1427 1.06278 22.4795 0.174038Z" fill="#A37556"/>
<rect x="26.6372" y="42.4185" width="8.21513" height="4.58151" rx="2.29076" fill="#846047"/>
<path d="M26.6372 45.1831H34.8523C34.8523 46.1865 34.0389 46.9999 33.0355 46.9999H28.454C27.4506 46.9999 26.6372 46.1865 26.6372 45.1831Z" fill="#4B3E35"/>
<rect x="10.8394" y="42.4185" width="8.21513" height="4.58151" rx="2.29076" fill="#846047"/>
<path d="M10.8394 45.1831H19.0545C19.0545 46.1865 18.2411 46.9999 17.2377 46.9999H12.6562C11.6528 46.9999 10.8394 46.1865 10.8394 45.1831Z" fill="#4B3E35"/>
<path d="M11.1293 11.4543C11.1293 7.09175 14.6658 3.55518 19.0284 3.55518H27.2386C31.056 3.55518 34.3273 6.28519 35.0103 10.0411L39.4776 34.6075C40.3594 39.4563 36.6343 43.9199 31.7059 43.9199H14.2014C7.32521 43.9199 3.7323 35.7433 8.38283 30.6783L9.04864 29.9532C10.3868 28.4958 11.1293 26.5893 11.1293 24.6108L11.1293 11.4543Z" fill="#A37556"/>
<path d="M7.53128 11.263C8.06683 7.91442 10.9556 5.45093 14.3468 5.45093C17.6822 5.45093 20.5404 7.83603 21.1374 11.1175L22.1781 16.8375C23.06 21.6846 19.3365 26.1467 14.4099 26.1467C9.55166 26.1467 5.84587 21.8012 6.61311 17.0039L7.53128 11.263Z" fill="#604F44"/>
<path d="M12.9619 10.4897C12.6128 12.3541 11.4391 17.2599 12.9619 17.8193M12.9619 17.8193C13.8399 18.5635 16.8352 19.9476 18.2484 20.1434M12.9619 17.8193C10.9567 19.0375 10.3643 19.6299 10.0483 20.1434" stroke="#3A2E2B" stroke-width="0.789916" stroke-linecap="round"/>
<ellipse cx="12.8527" cy="10.5064" rx="2.01429" ry="1.34286" fill="#3A2E2B"/>
<path d="M24.8989 7.10962C25.702 7.14911 27.5214 7.59937 28.3746 9.08441" stroke="#3A2E2B" stroke-width="1.18487" stroke-linecap="round"/>
<path d="M33.2226 0.963833C31.5595 0.0750958 30.0349 2.81537 29.4805 4.2966L33.2226 6.2407C33.9156 4.85205 34.8858 1.85257 33.2226 0.963833Z" fill="#A37556"/>
<path d="M24.6755 25.7184C27.7637 23.7751 34.502 22.408 37.0563 21.6443C40.132 28.5438 43.4415 42.6031 32.0735 43.6439L15.1142 43.9199C13.9011 40.3827 14.4247 37.1809 15.9071 34.3785C18.0657 30.1194 22.1759 27.0431 24.6755 25.7184Z" fill="#F5F5F5"/>
<path d="M12.8818 43.8804H22.661C23.8696 32.4108 13.9654 26.7918 10.9308 25.4358C10.2988 27.5291 9.52472 28.2829 8.61624 30.1753C4.07422 33.7299 5.24799 42.4635 12.8818 43.8804Z" fill="#F5F5F5"/>
<g clip-path="url(#clip0_4053_9766)">
<path d="M10.7766 11.4543C10.7766 7.09175 14.3565 3.55518 18.7726 3.55518H27.0834C30.9477 3.55518 34.2591 6.28519 34.9505 10.0411L39.597 34.6779C40.4896 39.5268 36.5945 43.9199 31.6056 43.9199H13.8863C6.92584 43.9199 3.28886 35.7433 7.99643 30.6783L8.67041 29.9532C10.025 28.4958 10.7766 26.5893 10.7766 24.6108L10.7766 11.4543Z" fill="#636363"/>
</g>
<path d="M26.7686 28.319L18.356 30.8072C20.5045 27.7739 25.2137 25.0803 27.5512 24.3694L25.3072 26.7391L26.7686 28.319Z" fill="#636363"/>
<path d="M11.8362 28.7438L18.356 30.8072C16.6908 28.2918 12.7647 26.1782 11.0097 25.4358L12.9687 27.4337L11.8362 28.7438Z" fill="#636363"/>
<path d="M36.9484 26.9015C36.0963 25.3482 34.1463 24.7798 32.593 25.6318L28.1317 28.0791C26.5784 28.9312 26.01 30.8811 26.862 32.4345C27.7141 33.9878 29.6641 34.5562 31.2174 33.7042L35.6787 31.2569C37.232 30.4048 37.8004 28.4548 36.9484 26.9015Z" fill="#846047"/>
<path d="M29.2948 27.4411L28.1317 28.0791C26.5784 28.9312 26.01 30.8811 26.862 32.4345C27.7141 33.9878 29.6641 34.5562 31.2174 33.7042L32.3805 33.0661L29.2948 27.4411Z" fill="#4B3E35"/>
<defs>
<clipPath id="clip0_4053_9766">
<rect width="33.3345" height="6.08235" fill="white" transform="translate(6.27051 37.8374)"/>
</clipPath>
</defs>
</svg>
