<svg width="503" height="595" viewBox="0 0 503 595" fill="none" xmlns="http://www.w3.org/2000/svg">
<path d="M147.566 367.426C136.779 387.09 112.094 394.287 92.4293 383.5L35.9517 352.518C16.2874 341.731 9.091 317.046 19.878 297.381C30.6651 277.717 55.3508 270.521 75.0151 281.308L131.493 312.289C151.157 323.076 158.353 347.762 147.566 367.426Z" fill="#846047"/>
<path d="M50.8909 360.968L36.1667 352.891C16.5024 342.104 9.30594 317.418 20.093 297.754C30.88 278.089 55.5657 270.893 75.23 281.68L89.9542 289.757L50.8909 360.968Z" fill="#4B3E35"/>
<path d="M280.782 2.19707C259.726 -9.05397 240.426 25.6367 233.407 44.3885L280.782 69C289.555 51.4203 301.837 13.4481 280.782 2.19707Z" fill="#A37556"/>
<rect x="333.407" y="537" width="104" height="58" rx="29" fill="#846047"/>
<path d="M333.407 572H437.407C437.407 584.703 427.11 595 414.407 595H356.407C343.705 595 333.407 584.703 333.407 572Z" fill="#4B3E35"/>
<rect x="133.407" y="537" width="104" height="58" rx="29" fill="#846047"/>
<path d="M133.407 572H237.407C237.407 584.703 227.11 595 214.407 595H156.407C143.705 595 133.407 584.703 133.407 572Z" fill="#4B3E35"/>
<path d="M137.09 145C137.09 89.7715 181.861 45 237.09 45H341.026C389.354 45 430.766 79.5608 439.413 127.109L495.968 438.109C507.131 499.494 459.973 556 397.581 556H175.981C88.9322 556 43.4476 452.488 102.321 388.367L110.75 379.187C127.69 360.737 137.09 336.602 137.09 311.555L137.09 145Z" fill="#A37556"/>
<path d="M91.5426 142.579C98.3225 100.187 134.893 69 177.824 69C220.049 69 256.232 99.1943 263.791 140.737L276.966 213.149C288.13 274.511 240.991 331 178.622 331C117.12 331 70.2061 275.987 79.919 215.256L91.5426 142.579Z" fill="#604F44"/>
<path d="M160.291 132.789C155.873 156.391 141.014 218.496 160.291 225.579M160.291 225.579C171.407 235 209.326 252.521 227.216 255M160.291 225.579C134.907 241 127.407 248.5 123.407 255" stroke="#3A2E2B" stroke-width="10" stroke-linecap="round"/>
<ellipse cx="158.907" cy="133" rx="25.5" ry="17" fill="#3A2E2B"/>
<path d="M311.407 90C321.574 90.5 344.607 96.2 355.407 115" stroke="#3A2E2B" stroke-width="15" stroke-linecap="round"/>
<path d="M416.782 12.1971C395.726 0.946033 376.426 35.6367 369.407 54.3885L416.782 79C425.555 61.4203 437.837 23.4481 416.782 12.1971Z" fill="#A37556"/>
<path d="M308.578 325.577C347.675 300.975 432.979 283.668 465.314 274C504.252 361.345 546.149 539.33 402.234 552.506L187.537 556C172.18 511.221 178.809 470.687 197.575 435.209C224.901 381.291 276.935 342.346 308.578 325.577Z" fill="#F5F5F5"/>
<path d="M159.275 555.501H283.076C298.377 410.301 172.993 339.167 134.576 322C126.576 348.5 116.776 358.043 105.275 382C47.7754 427 62.6348 537.563 159.275 555.501Z" fill="#F5F5F5"/>
<g clip-path="url(#clip0_5022_11358)">
<path d="M132.635 145C132.635 89.7715 177.956 45 233.861 45H339.073C387.993 45 429.914 79.5608 438.666 127.109L497.489 439C508.789 500.385 459.478 556 396.321 556H172.003C83.8864 556 37.8439 452.488 97.4397 388.367L105.972 379.187C123.12 360.737 132.635 336.602 132.635 311.555L132.635 145Z" fill="#636363"/>
</g>
<path d="M335.077 358.5L228.577 390C255.777 351.6 315.394 317.5 344.985 308.5L316.577 338.5L335.077 358.5Z" fill="#636363"/>
<path d="M146.04 363.878L228.577 390C207.497 358.156 157.794 331.398 135.577 322L160.377 347.293L146.04 363.878Z" fill="#636363"/>
<path d="M463.927 340.554C453.14 320.889 428.454 313.693 408.79 324.48L352.312 355.461C332.648 366.248 325.451 390.934 336.238 410.598C347.025 430.263 371.711 437.459 391.375 426.672L447.853 395.691C467.517 384.904 474.714 360.218 463.927 340.554Z" fill="#846047"/>
<path d="M367.036 347.384L352.312 355.461C332.648 366.248 325.451 390.934 336.238 410.598C347.025 430.263 371.711 437.459 391.375 426.672L406.099 418.595L367.036 347.384Z" fill="#4B3E35"/>
<defs>
<clipPath id="clip0_5022_11358">
<rect width="422" height="77" fill="white" transform="translate(75.5771 479)"/>
</clipPath>
</defs>
</svg>
