<svg width="172" height="78" viewBox="0 0 172 78" fill="none" xmlns="http://www.w3.org/2000/svg">
<ellipse cx="40.9953" cy="20.8168" rx="40.9953" ry="20.8168" transform="matrix(0.990529 0.137304 -0.343856 0.939022 31.6929 23.9717)" fill="#F5F5F5"/>
<ellipse cx="46.8994" cy="20.5344" rx="46.8994" ry="20.5344" transform="matrix(0.991834 0.127539 -0.29642 0.955058 63.3074 21.6177)" fill="#F5F5F5"/>
<ellipse cx="34.2059" cy="15.9363" rx="34.2059" ry="15.9363" transform="matrix(0.999444 0.0333481 0.0460081 0.998941 97.1654 21.6177)" fill="#F5F5F5"/>
<ellipse cx="34.3382" cy="15.8271" rx="34.3382" ry="15.8271" transform="matrix(0.99979 -0.0205111 0.0369635 0.999317 44.8401 3.48608)" fill="#F5F5F5"/>
<ellipse cx="33.8321" cy="16.2388" rx="33.8321" ry="16.2388" transform="matrix(1 0 0.147301 0.989092 77.2874 12.3457)" fill="#F5F5F5"/>
<ellipse cx="32.5966" cy="15.2324" rx="32.5966" ry="15.2324" transform="matrix(0.999964 0.0084872 0.0760202 0.997106 6.00195 31.5522)" fill="#F5F5F5"/>
<ellipse cx="32.5966" cy="15.2324" rx="32.5966" ry="15.2324" transform="matrix(0.999972 -0.00750183 0.0919527 0.995763 19.999 17.1389)" fill="#F5F5F5"/>
</svg>
