<svg width="459" height="232" viewBox="0 0 459 232" fill="none" xmlns="http://www.w3.org/2000/svg">
<ellipse cx="138.594" cy="70.3216" rx="138.594" ry="70.3216" transform="matrix(-0.952725 0.303836 0.499347 0.866402 388.75 8.84399)" fill="#F4C363"/>
<ellipse cx="140.606" cy="68.7679" rx="140.606" ry="68.7679" transform="matrix(-0.972368 0.233455 0.398041 0.917368 373.985 40.1804)" fill="#F4C363"/>
<ellipse cx="115.652" cy="53.8209" rx="115.652" ry="53.8209" transform="matrix(-0.994962 -0.100255 -0.179154 0.983821 249.423 89.083)" fill="#F4C363"/>
<ellipse cx="116.101" cy="53.4501" rx="116.101" ry="53.4501" transform="matrix(-0.99979 -0.020487 -0.0370069 0.999315 356.36 4.75854)" fill="#F4C363"/>
<ellipse cx="114.385" cy="54.8477" rx="114.385" ry="54.8477" transform="matrix(-0.980876 -0.194635 -0.337558 0.941305 286.153 55.7825)" fill="#F4C363"/>
<ellipse cx="110.211" cy="51.4441" rx="110.211" ry="51.4441" transform="matrix(-0.994253 -0.107053 -0.191004 0.981589 448.179 99.9336)" fill="#F4C363"/>
<ellipse cx="123.802" cy="62.865" rx="123.802" ry="62.865" transform="matrix(-0.952621 0.30416 0.498907 0.866656 378.556 7.90332)" fill="#A7D8A1"/>
<ellipse cx="125.593" cy="61.4826" rx="125.593" ry="61.4826" transform="matrix(-0.972305 0.233715 0.397648 0.917538 365.379 35.9282)" fill="#A7D8A1"/>
<ellipse cx="103.299" cy="48.1263" rx="103.299" ry="48.1263" transform="matrix(-0.99495 -0.100372 -0.17895 0.983858 254.112 79.6582)" fill="#A7D8A1"/>
<ellipse cx="103.698" cy="47.7964" rx="103.698" ry="47.7964" transform="matrix(-0.99979 -0.0205111 -0.0369635 0.999317 349.635 4.25391)" fill="#A7D8A1"/>
<ellipse cx="102.17" cy="49.0397" rx="102.17" ry="49.0397" transform="matrix(-0.980832 -0.194855 -0.337207 0.941431 286.923 49.8794)" fill="#A7D8A1"/>
<ellipse cx="98.4389" cy="46.0007" rx="98.4389" ry="46.0007" transform="matrix(-0.99424 -0.107177 -0.190787 0.981631 431.637 89.3623)" fill="#A7D8A1"/>
<path d="M290.335 90.093C287.872 88.7767 285.614 92.8352 284.793 95.029L290.335 97.9084C291.362 95.8517 292.799 91.4093 290.335 90.093Z" fill="#A37556"/>
<path d="M275.388 133.457C276.921 131.328 276.437 128.359 274.307 126.826L268.191 122.423C266.061 120.891 263.092 121.375 261.559 123.504C260.026 125.634 260.51 128.603 262.64 130.136L268.757 134.538C270.886 136.071 273.856 135.587 275.388 133.457Z" fill="#636363"/>
<path d="M269.836 123.575L268.241 122.427C266.111 120.895 263.142 121.379 261.609 123.508C260.076 125.638 260.56 128.607 262.69 130.14L264.285 131.288L269.836 123.575Z" fill="#4B3E35"/>
<rect x="296.488" y="152.661" width="12.1672" height="6.78554" rx="3.39277" fill="#846047"/>
<path d="M296.488 156.757H308.655V156.757C308.655 158.243 307.45 159.448 305.964 159.448H299.178C297.692 159.448 296.488 158.243 296.488 156.757V156.757Z" fill="#4B3E35"/>
<rect x="273.095" y="152.661" width="12.1672" height="6.78554" rx="3.39277" fill="#846047"/>
<path d="M273.095 156.757H285.262V156.757C285.262 158.243 284.057 159.448 282.571 159.448H275.786C274.299 159.448 273.095 158.243 273.095 156.757V156.757Z" fill="#4B3E35"/>
<path d="M273.523 106.797C273.523 100.336 278.761 95.0981 285.222 95.0981H297.382C303.036 95.0981 307.881 99.1415 308.892 104.704L315.509 141.089C316.815 148.27 311.298 154.881 303.998 154.881H278.073C267.889 154.881 262.567 142.771 269.455 135.269L270.441 134.195C272.423 132.037 273.523 129.213 273.523 126.283L273.523 106.797Z" fill="#A37556"/>
<path d="M268.195 106.516C268.989 101.557 273.267 97.908 278.29 97.908C283.23 97.908 287.463 101.44 288.347 106.301L289.888 114.772C291.195 121.951 285.68 128.56 278.383 128.56C271.188 128.56 265.699 122.124 266.835 115.019L268.195 106.516Z" fill="#604F44"/>
<path d="M276.065 118.961C275.119 118.864 274.094 117.873 273.699 117.39C275.795 115.796 277.614 116.726 278.262 117.39C277.924 117.954 277.011 119.057 276.065 118.961Z" fill="#A2766B"/>
<path d="M276.238 105.371C275.721 108.132 273.983 115.398 276.238 116.226M276.238 116.226C277.538 117.328 281.975 119.378 284.068 119.668M276.238 116.226C273.268 118.03 272.391 118.908 271.923 119.668" stroke="#3A2E2B" stroke-width="1.45355" stroke-linecap="round"/>
<ellipse cx="276.077" cy="105.394" rx="2.9833" ry="1.98887" fill="#3A2E2B"/>
<path d="M293.918 100.366C295.107 100.424 297.802 101.091 299.066 103.291" stroke="#3A2E2B" stroke-width="2.18033" stroke-linecap="round"/>
<path d="M306.245 91.2639C303.782 89.9476 301.524 94.0061 300.703 96.1999L306.245 99.0793C307.272 97.0226 308.709 92.5802 306.245 91.2639Z" fill="#A37556"/>
<path d="M293.587 127.927C298.16 125.049 308.14 123.024 311.923 121.893C316.479 132.112 321.38 152.935 304.544 154.476L279.426 154.885C277.629 149.646 278.404 144.904 280.6 140.753C283.797 134.445 289.884 129.889 293.587 127.927Z" fill="#2E2A24"/>
<path d="M276.119 154.825H290.602C292.392 137.838 277.724 129.516 273.229 127.507C272.293 130.608 271.147 131.724 269.801 134.527C263.074 139.791 264.812 152.727 276.119 154.825Z" fill="#2E2A24"/>
<path d="M284.216 135.523L290.768 129.731L284.216 131.252L277.548 129.731L284.216 135.523Z" fill="#D9D9D9"/>
<g clip-path="url(#clip0_4298_10103)">
<path d="M274.621 97.3297C274.621 89.302 281.208 82.7942 289.335 82.7942H304.628C311.738 82.7942 317.832 87.8178 319.104 94.7291L327.425 139.935C329.068 148.857 322.129 157.071 312.949 157.071H280.343C267.535 157.071 260.842 142.025 269.505 132.705L270.745 131.37C273.238 128.688 274.621 125.18 274.621 121.539L274.621 97.3297Z" fill="#2E2A24"/>
</g>
<path d="M307.782 135.885C305.886 134.071 305.82 131.063 307.635 129.168L312.846 123.724C314.661 121.828 317.668 121.762 319.564 123.577C321.459 125.391 321.525 128.399 319.71 130.294L314.499 135.738C312.685 137.634 309.677 137.7 307.782 135.885Z" fill="#636363"/>
<path d="M311.488 125.143L312.846 123.724C314.661 121.828 317.668 121.762 319.564 123.577C321.459 125.391 321.525 128.399 319.71 130.294L318.352 131.714L311.488 125.143Z" fill="#4B3E35"/>
<rect x="300.723" y="102.354" width="9.59336" height="1.16992" rx="0.584961" fill="#313131"/>
<path d="M296.687 131.777L284.217 135.521C287.399 131.029 294.503 127.312 297.857 125.986L294.523 129.438L296.687 131.777Z" fill="#636363"/>
<path d="M274.571 132.407L284.217 135.521C281.75 131.796 275.946 128.607 273.347 127.507L276.248 130.466L274.571 132.407Z" fill="#636363"/>
<circle cx="294.991" cy="103.29" r="5.84961" fill="#D9D9D9" fill-opacity="0.42"/>
<line x1="309.049" y1="127.713" x2="315.951" y2="134.264" stroke="#D7C398" stroke-width="0.726777"/>
<line x1="309.984" y1="126.659" x2="316.886" y2="133.211" stroke="#D7C398" stroke-width="0.726777"/>
<line x1="266.967" y1="133.277" x2="271.647" y2="126.483" stroke="#D7C398" stroke-width="0.726777"/>
<line x1="265.914" y1="132.458" x2="270.593" y2="125.664" stroke="#D7C398" stroke-width="0.726777"/>
<path d="M305.361 89.1182L305.413 89.1572L305.67 88.9854C305.642 88.9563 305.606 88.9228 305.559 88.8863C305.361 88.7316 305.053 88.5841 304.716 88.5045C304.374 88.424 304.036 88.4195 303.794 88.4694C303.698 88.4891 303.639 88.5113 303.603 88.5288C303.626 88.5617 303.67 88.6106 303.75 88.6747C303.943 88.8292 304.245 88.977 304.586 89.0573C304.787 89.1048 304.998 89.1246 305.188 89.1212L305.361 89.1182ZM313.824 92.3626L311.893 92.6877L311.727 93.3916L311.17 95.7508C311 96.4749 310.409 97.1732 309.616 97.6806L309.385 98.6631C309.434 98.7151 309.479 98.7711 309.519 98.8312C309.74 99.1577 309.795 99.5519 309.703 99.9439L309.278 101.748C309.185 102.139 308.96 102.467 308.616 102.661C308.278 102.852 307.88 102.882 307.489 102.79L307.288 102.742C306.897 102.65 306.554 102.445 306.336 102.123C306.116 101.797 306.06 101.403 306.153 101.011L306.578 99.2071C306.636 98.9596 306.748 98.7376 306.908 98.5589C305.617 98.708 304.105 98.6039 302.458 98.2157C300.205 97.6846 298.418 96.7943 297.245 95.7359C296.08 94.6845 295.455 93.395 295.756 92.1172L296.313 89.758L296.478 89.0578L294.895 87.9L294.895 87.9L294.892 87.8976C294.346 87.4918 294.064 86.904 294.205 86.3076C294.345 85.7155 294.857 85.3034 295.535 85.1908C295.535 85.1908 295.535 85.1907 295.536 85.1907L303.54 83.8353L303.54 83.8352L303.543 83.8348C304.411 83.6926 305.138 83.6784 305.842 83.8589C306.546 84.0103 307.191 84.3482 307.909 84.8633L307.909 84.8633L307.913 84.866L314.462 89.6522C314.462 89.6525 314.462 89.6527 314.463 89.6529C315.019 90.0562 315.293 90.6538 315.153 91.2459C315.013 91.8422 314.499 92.2425 313.829 92.3618L313.829 92.3618L313.824 92.3626Z" fill="#2E2A24" stroke="#636363" stroke-width="1.01749"/>
<defs>
<clipPath id="clip0_4298_10103">
<rect width="49.3707" height="9.00839" fill="white" transform="translate(266.327 145.875)"/>
</clipPath>
</defs>
</svg>
