<svg width="52" height="47" viewBox="0 0 52 47" fill="none" xmlns="http://www.w3.org/2000/svg">
<path d="M14.9192 27.2602C14.4982 25.5393 12.7618 24.4855 11.0409 24.9066L6.09827 26.1158C4.37734 26.5368 3.32357 28.2732 3.74459 29.9941C4.16561 31.715 5.90201 32.7688 7.62293 32.3478L12.5656 31.1386C14.2865 30.7176 15.3403 28.9812 14.9192 27.2602Z" fill="#846047"/>
<path d="M7.41087 25.7765L6.12228 26.0918C4.40136 26.5128 3.34758 28.2492 3.7686 29.9701C4.18963 31.691 5.92602 32.7448 7.64694 32.3238L8.93553 32.0085L7.41087 25.7765Z" fill="#4B3E35"/>
<path d="M23.3188 0.174038C21.6556 -0.714699 20.1311 2.02557 19.5767 3.5068L23.3188 5.45091C24.0118 4.06226 24.982 1.06278 23.3188 0.174038Z" fill="#A37556"/>
<rect x="27.4771" y="42.4194" width="8.21513" height="4.58151" rx="2.29076" fill="#846047"/>
<path d="M27.4771 45.1841H35.6922C35.6922 46.1875 34.8788 47.0009 33.8754 47.0009H29.2939C28.2905 47.0009 27.4771 46.1875 27.4771 45.1841Z" fill="#4B3E35"/>
<rect x="11.6772" y="42.4194" width="8.21513" height="4.58151" rx="2.29076" fill="#846047"/>
<path d="M11.6772 45.1841H19.8924C19.8924 46.1875 19.079 47.0009 18.0756 47.0009H13.4941C12.4907 47.0009 11.6772 46.1875 11.6772 45.1841Z" fill="#4B3E35"/>
<path d="M11.9686 11.4542C11.9686 7.09163 15.5052 3.55505 19.8678 3.55505H28.0779C31.8954 3.55505 35.1666 6.28507 35.8496 10.0409L40.317 34.6073C41.1987 39.4562 37.4737 43.9198 32.5452 43.9198H15.0407C8.16456 43.9198 4.57166 35.7432 9.22218 30.6782L9.888 29.953C11.2261 28.4956 11.9686 26.5892 11.9686 24.6106L11.9686 11.4542Z" fill="#A37556"/>
<path d="M8.37063 11.263C8.90619 7.91442 11.795 5.45093 15.1861 5.45093C18.5215 5.45093 21.3797 7.83603 21.9768 11.1175L23.0175 16.8375C23.8994 21.6846 20.1758 26.1467 15.2492 26.1467C10.391 26.1467 6.68523 21.8012 7.45246 17.0039L8.37063 11.263Z" fill="#604F44"/>
<path d="M13.6843 19.6654C13.0453 19.6002 12.3531 18.9313 12.0869 18.6051C13.5017 17.5284 14.7302 18.1565 15.1676 18.6051C14.9394 18.9857 14.3233 19.7307 13.6843 19.6654Z" fill="#A2766B"/>
<path d="M13.8017 10.4906C13.4527 12.3549 12.2789 17.2607 13.8017 17.8202M13.8017 17.8202C14.6798 18.5644 17.6751 19.9484 19.0882 20.1442M13.8017 17.8202C11.7966 19.0383 11.2041 19.6308 10.8882 20.1442" stroke="#3A2E2B" stroke-width="0.789916" stroke-linecap="round"/>
<ellipse cx="13.6925" cy="10.5073" rx="2.01429" ry="1.34286" fill="#3A2E2B"/>
<path d="M25.7383 7.10974C26.5414 7.14924 28.3608 7.59949 29.2139 9.08453" stroke="#3A2E2B" stroke-width="1.18487" stroke-linecap="round"/>
<path d="M34.062 0.963955C32.3988 0.0752179 30.8742 2.81549 30.3198 4.29672L34.062 6.24083C34.755 4.85218 35.7252 1.85269 34.062 0.963955Z" fill="#A37556"/>
<path d="M25.5148 25.7183C28.6031 23.775 35.3414 22.4079 37.8956 21.6442C40.9714 28.5437 44.2809 42.603 32.9128 43.6438L15.9535 43.9198C14.7405 40.3826 15.2641 37.1807 16.7464 34.3783C18.905 30.1192 23.0152 27.0429 25.5148 25.7183Z" fill="#E5DECF"/>
<path d="M13.7212 43.8804H23.5004C24.709 32.4108 14.8048 26.7918 11.7701 25.4358C11.1382 27.5291 10.3641 28.2829 9.45561 30.1753C4.9136 33.7299 6.08736 42.4635 13.7212 43.8804Z" fill="#E5DECF"/>
<g clip-path="url(#clip0_4053_10085)">
<path d="M11.6169 11.4532C11.6169 7.09065 15.1968 3.55408 19.6129 3.55408H27.9237C31.788 3.55408 35.0994 6.28409 35.7908 10.04L40.3129 34.6064C41.2055 39.4552 37.4348 43.9188 32.4459 43.9188H14.7267C7.76617 43.9188 4.12919 35.7422 8.83676 30.6772L9.51074 29.9521C10.8653 28.4947 11.6169 26.5882 11.6169 24.6097L11.6169 11.4532Z" fill="#636363"/>
</g>
<path d="M27.5289 28.319L19.188 30.8073C21.3366 27.774 27.0082 24.6854 28.3188 24.4089L26.0675 26.7392L27.5289 28.319Z" fill="#636363"/>
<path d="M12.5965 28.7438L19.188 30.8072C17.5228 28.2918 13.525 26.1782 11.77 25.4358L13.729 27.4337L12.5965 28.7438Z" fill="#636363"/>
<path d="M34.4977 24.7505C36.0123 23.8314 37.9852 24.314 38.9044 25.8286L41.5443 30.1786C42.4635 31.6932 41.9808 33.6662 40.4662 34.5853C38.9516 35.5045 36.9787 35.0218 36.0595 33.5072L33.4196 29.1572C32.5004 27.6426 32.9831 25.6697 34.4977 24.7505Z" fill="#846047"/>
<path d="M40.8561 29.0446L41.5443 30.1786C42.4635 31.6932 41.9808 33.6662 40.4662 34.5853C38.9516 35.5045 36.9787 35.0218 36.0595 33.5072L35.3713 32.3732L40.8561 29.0446Z" fill="#4B3E35"/>
<path d="M37.1223 33.785C37.1211 33.4672 37.3427 33.192 37.6534 33.1252L44.7689 31.5957C45.077 31.5294 45.3897 31.686 45.5212 31.9723L47.4766 36.2287C47.6562 36.6196 47.4275 37.0763 47.0069 37.1667L37.953 39.113C37.5353 39.2028 37.1408 38.8853 37.1393 38.458L37.1223 33.785Z" stroke="#3A6351" stroke-width="1.34477"/>
<path d="M37.8128 44.4205C37.9424 44.7107 38.2574 44.8705 38.5681 44.8037L48.7076 42.6241C49.0157 42.5579 49.2364 42.2867 49.2387 41.9716L49.29 34.8539C49.2931 34.4237 48.8969 34.1012 48.4763 34.1917L35.3906 37.0046C34.9729 37.0944 34.7438 37.5459 34.9179 37.9361L37.8128 44.4205Z" fill="#3A6351" stroke="#3A6351" stroke-width="1.34477"/>
<rect x="36.2173" y="37.6528" width="1.34477" height="1.34477" rx="0.224128" transform="rotate(-12.1318 36.2173 37.6528)" fill="#F5F5F5"/>
<rect x="37.9702" y="37.276" width="1.34477" height="1.34477" rx="0.224128" transform="rotate(-12.1318 37.9702 37.276)" fill="#F5F5F5"/>
<rect x="39.7231" y="36.8992" width="1.34477" height="1.34477" rx="0.224128" transform="rotate(-12.1318 39.7231 36.8992)" fill="#F5F5F5"/>
<rect x="41.4761" y="36.5223" width="1.34477" height="1.34477" rx="0.224128" transform="rotate(-12.1318 41.4761 36.5223)" fill="#F5F5F5"/>
<rect x="43.2295" y="36.1456" width="1.34477" height="1.34477" rx="0.224128" transform="rotate(-12.1318 43.2295 36.1456)" fill="#F5F5F5"/>
<rect x="44.9824" y="35.7687" width="1.34477" height="1.34477" rx="0.224128" transform="rotate(-12.1318 44.9824 35.7687)" fill="#F5F5F5"/>
<rect x="46.7354" y="35.392" width="1.34477" height="1.34477" rx="0.224128" transform="rotate(-12.1318 46.7354 35.392)" fill="#F5F5F5"/>
<rect x="36.5942" y="39.4059" width="1.34477" height="1.34477" rx="0.224128" transform="rotate(-12.1318 36.5942 39.4059)" fill="#F5F5F5"/>
<rect x="38.3472" y="39.0289" width="1.34477" height="1.34477" rx="0.224128" transform="rotate(-12.1318 38.3472 39.0289)" fill="#F5F5F5"/>
<rect x="40.1001" y="38.6522" width="1.34477" height="1.34477" rx="0.224128" transform="rotate(-12.1318 40.1001 38.6522)" fill="#F5F5F5"/>
<rect x="41.853" y="38.2753" width="1.34477" height="1.34477" rx="0.224128" transform="rotate(-12.1318 41.853 38.2753)" fill="#F5F5F5"/>
<rect x="43.606" y="37.8986" width="1.34477" height="1.34477" rx="0.224128" transform="rotate(-12.1318 43.606 37.8986)" fill="#F5F5F5"/>
<rect x="45.3594" y="37.5216" width="1.34477" height="1.34477" rx="0.224128" transform="rotate(-12.1318 45.3594 37.5216)" fill="#F5F5F5"/>
<rect x="47.1123" y="37.1449" width="1.34477" height="1.34477" rx="0.224128" transform="rotate(-12.1318 47.1123 37.1449)" fill="#F5F5F5"/>
<rect x="38.7241" y="40.7821" width="1.34477" height="1.34477" rx="0.224128" transform="rotate(-12.1318 38.7241 40.7821)" fill="#F5F5F5"/>
<rect x="40.4771" y="40.4052" width="1.34477" height="1.34477" rx="0.224128" transform="rotate(-12.1318 40.4771 40.4052)" fill="#F5F5F5"/>
<rect x="42.23" y="40.0284" width="1.34477" height="1.34477" rx="0.224128" transform="rotate(-12.1318 42.23 40.0284)" fill="#F5F5F5"/>
<rect x="43.9829" y="39.6515" width="1.34477" height="1.34477" rx="0.224128" transform="rotate(-12.1318 43.9829 39.6515)" fill="#F5F5F5"/>
<rect x="45.7358" y="39.2748" width="1.34477" height="1.34477" rx="0.224128" transform="rotate(-12.1318 45.7358 39.2748)" fill="#F5F5F5"/>
<rect x="40.8638" y="42.2012" width="1.34477" height="1.34477" rx="0.224128" transform="rotate(-12.1318 40.8638 42.2012)" fill="#F5F5F5"/>
<rect x="42.6167" y="41.8245" width="1.34477" height="1.34477" rx="0.224128" transform="rotate(-12.1318 42.6167 41.8245)" fill="#F5F5F5"/>
<rect x="44.3696" y="41.4475" width="1.34477" height="1.34477" rx="0.224128" transform="rotate(-12.1318 44.3696 41.4475)" fill="#F5F5F5"/>
<rect width="5.67787" height="3.95442" rx="0.595213" transform="matrix(-0.609938 -0.792449 -0.792449 0.609938 7.57568 27.4866)" fill="#F5F5F5"/>
<line x1="2.11368" y1="25.367" x2="3.81172" y2="24.0601" stroke="black" stroke-width="0.0595213"/>
<line x1="2.17228" y1="26.2236" x2="4.62499" y2="24.3358" stroke="black" stroke-width="0.0595213"/>
<line x1="2.60782" y1="26.7896" x2="4.54169" y2="25.3012" stroke="black" stroke-width="0.0595213"/>
<line x1="3.04337" y1="27.3557" x2="5.21308" y2="25.6857" stroke="black" stroke-width="0.0595213"/>
<line x1="3.47892" y1="27.9216" x2="5.93163" y2="26.0338" stroke="black" stroke-width="0.0595213"/>
<line x1="3.91495" y1="28.4875" x2="5.99033" y2="26.8901" stroke="black" stroke-width="0.0595213"/>
<line x1="4.3505" y1="29.0536" x2="6.28437" y2="27.5651" stroke="black" stroke-width="0.0595213"/>
<defs>
<clipPath id="clip0_4053_10085">
<rect width="33.3345" height="6.08235" fill="white" transform="translate(7.10986 37.8374)"/>
</clipPath>
</defs>
</svg>
