<svg width="646" height="595" viewBox="0 0 646 595" fill="none" xmlns="http://www.w3.org/2000/svg">
<path d="M176.462 345.097C171.132 323.311 149.15 309.971 127.364 315.301L64.7921 330.609C43.0059 335.939 29.6656 357.921 34.9956 379.707C40.3256 401.493 62.3075 414.834 84.0937 409.504L146.665 394.195C168.452 388.866 181.792 366.884 176.462 345.097Z" fill="#846047"/>
<path d="M81.4091 326.314L65.0961 330.305C43.31 335.635 29.9696 357.617 35.2996 379.403C40.6295 401.189 62.6115 414.53 84.3977 409.2L100.711 405.209L81.4091 326.314Z" fill="#4B3E35"/>
<path d="M282.798 2.19707C261.743 -9.05397 242.442 25.6367 235.424 44.3885L282.798 69C291.571 51.4203 303.853 13.4481 282.798 2.19707Z" fill="#A37556"/>
<rect x="335.424" y="537" width="104" height="58" rx="29" fill="#846047"/>
<path d="M335.424 572H439.424C439.424 584.703 429.126 595 416.424 595H358.424C345.721 595 335.424 584.703 335.424 572Z" fill="#4B3E35"/>
<rect x="135.424" y="537" width="104" height="58" rx="29" fill="#846047"/>
<path d="M135.424 572H239.424C239.424 584.703 229.126 595 216.424 595H158.424C145.721 595 135.424 584.703 135.424 572Z" fill="#4B3E35"/>
<path d="M139.107 145C139.107 89.7715 183.878 45 239.107 45H343.043C391.371 45 432.783 79.5608 441.43 127.109L497.984 438.109C509.147 499.494 461.99 556 399.598 556H177.998C90.9488 556 45.4642 452.488 104.338 388.367L112.767 379.187C129.707 360.737 139.107 336.602 139.107 311.555L139.107 145Z" fill="#A37556"/>
<path d="M93.5592 142.579C100.339 100.187 136.91 69 179.841 69C222.065 69 258.249 99.1943 265.807 140.737L278.982 213.149C290.146 274.511 243.008 331 180.639 331C119.136 331 72.2227 275.987 81.9356 215.256L93.5592 142.579Z" fill="#604F44"/>
<path d="M160.826 248.949C152.737 248.123 143.974 239.656 140.604 235.526C158.515 221.896 174.066 229.847 179.604 235.526C176.715 240.344 168.915 249.775 160.826 248.949Z" fill="#A2766B"/>
<path d="M162.308 132.789C157.889 156.391 143.03 218.496 162.308 225.579M162.308 225.579C173.424 235 211.343 252.521 229.233 255M162.308 225.579C136.924 241 129.424 248.5 125.424 255" stroke="#3A2E2B" stroke-width="10" stroke-linecap="round"/>
<ellipse cx="160.924" cy="133" rx="25.5" ry="17" fill="#3A2E2B"/>
<path d="M313.424 90C323.59 90.5 346.624 96.2 357.424 115" stroke="#3A2E2B" stroke-width="15" stroke-linecap="round"/>
<path d="M418.798 12.1971C397.743 0.946033 378.442 35.6367 371.424 54.3885L418.798 79C427.571 61.4203 439.853 23.4481 418.798 12.1971Z" fill="#A37556"/>
<path d="M310.594 325.577C349.69 300.975 434.994 283.668 467.33 274C506.268 361.345 548.165 539.33 404.25 552.506L189.552 556C174.196 511.221 180.824 470.687 199.59 435.209C226.917 381.291 278.951 342.346 310.594 325.577Z" fill="#E5DECF"/>
<path d="M161.291 555.501H285.092C300.392 410.301 175.009 339.167 136.592 322C128.592 348.5 118.792 358.043 107.291 382C49.791 427 64.6504 537.563 161.291 555.501Z" fill="#E5DECF"/>
<g clip-path="url(#clip0_4026_517)">
<path d="M134.651 145C134.651 89.7715 179.972 45 235.878 45H341.089C390.01 45 431.93 79.5608 440.683 127.109L497.931 438.109C509.231 499.494 461.495 556 398.338 556H174.02C85.903 556 39.8605 452.488 99.4563 388.367L107.989 379.187C125.137 360.737 134.651 336.602 134.651 311.555L134.651 145Z" fill="#636363"/>
</g>
<path d="M336.094 358.5L230.502 390C257.702 351.6 329.502 312.5 346.094 309L317.594 338.5L336.094 358.5Z" fill="#636363"/>
<path d="M147.056 363.878L230.502 390C209.422 358.156 158.81 331.398 136.594 322L161.394 347.293L147.056 363.878Z" fill="#636363"/>
<path d="M424.319 313.325C443.493 301.689 468.469 307.799 480.106 326.973L513.526 382.042C525.162 401.216 519.052 426.193 499.878 437.829C480.704 449.466 455.727 443.355 444.091 424.181L410.671 369.112C399.034 349.938 405.145 324.961 424.319 313.325Z" fill="#846047"/>
<path d="M504.813 367.686L513.526 382.042C525.162 401.216 519.052 426.193 499.878 437.829C480.704 449.466 455.727 443.355 444.091 424.181L435.378 409.824L504.813 367.686Z" fill="#4B3E35"/>
<path d="M457.555 427.692C457.54 423.669 460.345 420.185 464.278 419.339L554.358 399.975C558.258 399.137 562.216 401.119 563.882 404.744L588.636 458.627C590.91 463.576 588.015 469.358 582.69 470.503L468.071 495.142C462.783 496.278 457.789 492.259 457.77 486.85L457.555 427.692Z" stroke="#3A6351" stroke-width="17.0242"/>
<path d="M466.297 562.332C467.937 566.005 471.925 568.029 475.859 567.184L604.221 539.591C608.12 538.753 610.915 535.319 610.944 531.33L611.594 441.223C611.633 435.776 606.618 431.695 601.293 432.839L435.633 468.45C430.345 469.586 427.445 475.303 429.649 480.242L466.297 562.332Z" fill="#3A6351" stroke="#3A6351" stroke-width="17.0242"/>
<rect x="446.105" y="476.646" width="17.0242" height="17.0242" rx="2.83737" transform="rotate(-12.1318 446.105 476.646)" fill="#F5F5F5"/>
<rect x="468.297" y="471.877" width="17.0242" height="17.0242" rx="2.83737" transform="rotate(-12.1318 468.297 471.877)" fill="#F5F5F5"/>
<rect x="490.488" y="467.105" width="17.0242" height="17.0242" rx="2.83737" transform="rotate(-12.1318 490.488 467.105)" fill="#F5F5F5"/>
<rect x="512.68" y="462.336" width="17.0242" height="17.0242" rx="2.83737" transform="rotate(-12.1318 512.68 462.336)" fill="#F5F5F5"/>
<rect x="534.873" y="457.566" width="17.0242" height="17.0242" rx="2.83737" transform="rotate(-12.1318 534.873 457.566)" fill="#F5F5F5"/>
<rect x="557.064" y="452.795" width="17.0242" height="17.0242" rx="2.83737" transform="rotate(-12.1318 557.064 452.795)" fill="#F5F5F5"/>
<rect x="579.256" y="448.025" width="17.0242" height="17.0242" rx="2.83737" transform="rotate(-12.1318 579.256 448.025)" fill="#F5F5F5"/>
<rect x="450.875" y="498.84" width="17.0242" height="17.0242" rx="2.83737" transform="rotate(-12.1318 450.875 498.84)" fill="#F5F5F5"/>
<rect x="473.066" y="494.068" width="17.0242" height="17.0242" rx="2.83737" transform="rotate(-12.1318 473.066 494.068)" fill="#F5F5F5"/>
<rect x="495.26" y="489.299" width="17.0242" height="17.0242" rx="2.83737" transform="rotate(-12.1318 495.26 489.299)" fill="#F5F5F5"/>
<rect x="517.451" y="484.527" width="17.0242" height="17.0242" rx="2.83737" transform="rotate(-12.1318 517.451 484.527)" fill="#F5F5F5"/>
<rect x="539.643" y="479.758" width="17.0242" height="17.0242" rx="2.83737" transform="rotate(-12.1318 539.643 479.758)" fill="#F5F5F5"/>
<rect x="561.836" y="474.986" width="17.0242" height="17.0242" rx="2.83737" transform="rotate(-12.1318 561.836 474.986)" fill="#F5F5F5"/>
<rect x="584.027" y="470.217" width="17.0242" height="17.0242" rx="2.83737" transform="rotate(-12.1318 584.027 470.217)" fill="#F5F5F5"/>
<rect x="477.838" y="516.262" width="17.0242" height="17.0242" rx="2.83737" transform="rotate(-12.1318 477.838 516.262)" fill="#F5F5F5"/>
<rect x="500.029" y="511.49" width="17.0242" height="17.0242" rx="2.83737" transform="rotate(-12.1318 500.029 511.49)" fill="#F5F5F5"/>
<rect x="522.221" y="506.721" width="17.0242" height="17.0242" rx="2.83737" transform="rotate(-12.1318 522.221 506.721)" fill="#F5F5F5"/>
<rect x="544.414" y="501.949" width="17.0242" height="17.0242" rx="2.83737" transform="rotate(-12.1318 544.414 501.949)" fill="#F5F5F5"/>
<rect x="566.605" y="497.18" width="17.0242" height="17.0242" rx="2.83737" transform="rotate(-12.1318 566.605 497.18)" fill="#F5F5F5"/>
<rect x="504.918" y="534.236" width="17.0242" height="17.0242" rx="2.83737" transform="rotate(-12.1318 504.918 534.236)" fill="#F5F5F5"/>
<rect x="527.109" y="529.467" width="17.0242" height="17.0242" rx="2.83737" transform="rotate(-12.1318 527.109 529.467)" fill="#F5F5F5"/>
<rect x="549.301" y="524.695" width="17.0242" height="17.0242" rx="2.83737" transform="rotate(-12.1318 549.301 524.695)" fill="#F5F5F5"/>
<rect width="71.8794" height="50.0613" rx="7.53514" transform="matrix(-0.609938 -0.792449 -0.792449 0.609938 83.5137 347.961)" fill="#F5F5F5"/>
<line x1="14.3679" y1="321.123" x2="35.8642" y2="304.578" stroke="black" stroke-width="0.753514"/>
<line x1="15.1061" y1="331.967" x2="46.1564" y2="308.068" stroke="black" stroke-width="0.753514"/>
<line x1="20.6198" y1="339.133" x2="45.1018" y2="320.29" stroke="black" stroke-width="0.753514"/>
<line x1="26.1354" y1="346.299" x2="53.603" y2="325.158" stroke="black" stroke-width="0.753514"/>
<line x1="31.6511" y1="353.463" x2="62.7014" y2="329.564" stroke="black" stroke-width="0.753514"/>
<line x1="37.1667" y1="360.627" x2="63.44" y2="340.405" stroke="black" stroke-width="0.753514"/>
<line x1="42.6804" y1="367.793" x2="67.1623" y2="348.95" stroke="black" stroke-width="0.753514"/>
<defs>
<clipPath id="clip0_4026_517">
<rect width="422" height="77" fill="white" transform="translate(77.5938 479)"/>
</clipPath>
</defs>
</svg>
