<svg width="646" height="595" viewBox="0 0 646 595" fill="none" xmlns="http://www.w3.org/2000/svg">
<path d="M176.461 345.097C171.131 323.311 149.149 309.971 127.363 315.301L64.7911 330.609C43.005 335.939 29.6646 357.921 34.9946 379.707C40.3246 401.493 62.3066 414.834 84.0927 409.504L146.664 394.195C168.451 388.866 181.791 366.884 176.461 345.097Z" fill="#846047"/>
<path d="M81.4081 326.314L65.0951 330.305C43.309 335.635 29.9686 357.617 35.2986 379.403C40.6286 401.189 62.6105 414.53 84.3967 409.2L100.71 405.209L81.4081 326.314Z" fill="#4B3E35"/>
<path d="M282.797 2.19707C261.742 -9.05397 242.441 25.6367 235.423 44.3885L282.797 69C291.57 51.4203 303.852 13.4481 282.797 2.19707Z" fill="#A37556"/>
<rect x="335.423" y="537" width="104" height="58" rx="29" fill="#846047"/>
<path d="M335.423 572H439.423C439.423 584.703 429.125 595 416.423 595H358.423C345.72 595 335.423 584.703 335.423 572Z" fill="#4B3E35"/>
<rect x="135.423" y="537" width="104" height="58" rx="29" fill="#846047"/>
<path d="M135.423 572H239.423C239.423 584.703 229.125 595 216.423 595H158.423C145.72 595 135.423 584.703 135.423 572Z" fill="#4B3E35"/>
<path d="M139.106 145C139.106 89.7715 183.877 45 239.106 45H343.042C391.37 45 432.782 79.5608 441.429 127.109L497.983 438.109C509.146 499.494 461.989 556 399.597 556H177.997C90.9478 556 45.4632 452.488 104.337 388.367L112.766 379.187C129.706 360.737 139.106 336.602 139.106 311.555L139.106 145Z" fill="#A37556"/>
<path d="M93.5582 142.579C100.338 100.187 136.909 69 179.84 69C222.064 69 258.248 99.1943 265.806 140.737L278.981 213.149C290.145 274.511 243.007 331 180.638 331C119.135 331 72.2217 275.987 81.9346 215.256L93.5582 142.579Z" fill="#604F44"/>
<path d="M160.825 248.949C152.736 248.123 143.973 239.656 140.603 235.526C158.514 221.896 174.066 229.847 179.603 235.526C176.714 240.344 168.914 249.775 160.825 248.949Z" fill="#A2766B"/>
<path d="M162.307 132.789C157.888 156.391 143.029 218.496 162.307 225.579M162.307 225.579C173.423 235 211.342 252.521 229.232 255M162.307 225.579C136.923 241 129.423 248.5 125.423 255" stroke="#3A2E2B" stroke-width="10" stroke-linecap="round"/>
<ellipse cx="160.923" cy="133" rx="25.5" ry="17" fill="#3A2E2B"/>
<path d="M313.423 90C323.59 90.5 346.623 96.2 357.423 115" stroke="#3A2E2B" stroke-width="15" stroke-linecap="round"/>
<path d="M418.797 12.1971C397.742 0.946033 378.441 35.6367 371.423 54.3885L418.797 79C427.57 61.4203 439.852 23.4481 418.797 12.1971Z" fill="#A37556"/>
<path d="M310.594 325.577C349.69 300.975 434.994 283.668 467.33 274C506.268 361.345 548.165 539.33 404.25 552.506L189.552 556C174.196 511.221 180.824 470.687 199.59 435.209C226.917 381.291 278.951 342.346 310.594 325.577Z" fill="#E5DECF"/>
<path d="M161.291 555.501H285.092C300.392 410.301 175.009 339.167 136.592 322C128.592 348.5 118.792 358.043 107.291 382C49.791 427 64.6504 537.563 161.291 555.501Z" fill="#E5DECF"/>
<g clip-path="url(#clip0_5022_11211)">
<path d="M134.65 145C134.65 89.7715 179.971 45 235.877 45H341.088C390.009 45 431.929 79.5608 440.682 127.109L497.93 438.109C509.23 499.494 461.494 556 398.337 556H174.019C85.9021 556 39.8596 452.488 99.4553 388.367L107.988 379.187C125.136 360.737 134.65 336.602 134.65 311.555L134.65 145Z" fill="#636363"/>
</g>
<path d="M336.093 358.5L230.501 390C257.701 351.6 329.501 312.5 346.093 309L317.593 338.5L336.093 358.5Z" fill="#636363"/>
<path d="M147.055 363.878L230.501 390C209.421 358.156 158.809 331.398 136.593 322L161.393 347.293L147.055 363.878Z" fill="#636363"/>
<path d="M424.318 313.325C443.492 301.689 468.469 307.799 480.105 326.973L513.525 382.042C525.161 401.216 519.051 426.193 499.877 437.829C480.703 449.466 455.726 443.355 444.09 424.181L410.67 369.112C399.033 349.938 405.144 324.961 424.318 313.325Z" fill="#846047"/>
<path d="M504.812 367.686L513.525 382.042C525.161 401.216 519.051 426.193 499.877 437.829C480.703 449.466 455.726 443.355 444.09 424.181L435.377 409.824L504.812 367.686Z" fill="#4B3E35"/>
<path d="M457.553 427.693C457.538 423.669 460.343 420.185 464.276 419.34L554.356 399.976C558.256 399.138 562.214 401.12 563.88 404.744L588.634 458.628C590.908 463.577 588.013 469.359 582.688 470.503L468.069 495.142C462.781 496.279 457.787 492.26 457.768 486.851L457.553 427.693Z" stroke="#3A6351" stroke-width="17.0242"/>
<path d="M466.296 562.331C467.936 566.005 471.924 568.029 475.858 567.183L604.22 539.59C608.119 538.752 610.914 535.318 610.943 531.33L611.593 441.222C611.632 435.776 606.617 431.694 601.292 432.839L435.632 468.449C430.344 469.586 427.444 475.302 429.649 480.241L466.296 562.331Z" fill="#3A6351" stroke="#3A6351" stroke-width="17.0242"/>
<rect x="446.103" y="476.647" width="17.0242" height="17.0242" rx="2.83737" transform="rotate(-12.1318 446.103 476.647)" fill="#F5F5F5"/>
<rect x="468.295" y="471.877" width="17.0242" height="17.0242" rx="2.83737" transform="rotate(-12.1318 468.295 471.877)" fill="#F5F5F5"/>
<rect x="490.486" y="467.106" width="17.0242" height="17.0242" rx="2.83737" transform="rotate(-12.1318 490.486 467.106)" fill="#F5F5F5"/>
<rect x="512.679" y="462.336" width="17.0242" height="17.0242" rx="2.83737" transform="rotate(-12.1318 512.679 462.336)" fill="#F5F5F5"/>
<rect x="534.871" y="457.565" width="17.0242" height="17.0242" rx="2.83737" transform="rotate(-12.1318 534.871 457.565)" fill="#F5F5F5"/>
<rect x="557.062" y="452.795" width="17.0242" height="17.0242" rx="2.83737" transform="rotate(-12.1318 557.062 452.795)" fill="#F5F5F5"/>
<rect x="579.255" y="448.025" width="17.0242" height="17.0242" rx="2.83737" transform="rotate(-12.1318 579.255 448.025)" fill="#F5F5F5"/>
<rect x="450.873" y="498.839" width="17.0242" height="17.0242" rx="2.83737" transform="rotate(-12.1318 450.873 498.839)" fill="#F5F5F5"/>
<rect x="473.065" y="494.069" width="17.0242" height="17.0242" rx="2.83737" transform="rotate(-12.1318 473.065 494.069)" fill="#F5F5F5"/>
<rect x="495.257" y="489.298" width="17.0242" height="17.0242" rx="2.83737" transform="rotate(-12.1318 495.257 489.298)" fill="#F5F5F5"/>
<rect x="517.449" y="484.528" width="17.0242" height="17.0242" rx="2.83737" transform="rotate(-12.1318 517.449 484.528)" fill="#F5F5F5"/>
<rect x="539.641" y="479.757" width="17.0242" height="17.0242" rx="2.83737" transform="rotate(-12.1318 539.641 479.757)" fill="#F5F5F5"/>
<rect x="561.833" y="474.987" width="17.0242" height="17.0242" rx="2.83737" transform="rotate(-12.1318 561.833 474.987)" fill="#F5F5F5"/>
<rect x="584.025" y="470.217" width="17.0242" height="17.0242" rx="2.83737" transform="rotate(-12.1318 584.025 470.217)" fill="#F5F5F5"/>
<rect x="477.836" y="516.261" width="17.0242" height="17.0242" rx="2.83737" transform="rotate(-12.1318 477.836 516.261)" fill="#F5F5F5"/>
<rect x="500.027" y="511.49" width="17.0242" height="17.0242" rx="2.83737" transform="rotate(-12.1318 500.027 511.49)" fill="#F5F5F5"/>
<rect x="522.22" y="506.72" width="17.0242" height="17.0242" rx="2.83737" transform="rotate(-12.1318 522.22 506.72)" fill="#F5F5F5"/>
<rect x="544.411" y="501.95" width="17.0242" height="17.0242" rx="2.83737" transform="rotate(-12.1318 544.411 501.95)" fill="#F5F5F5"/>
<rect x="566.604" y="497.179" width="17.0242" height="17.0242" rx="2.83737" transform="rotate(-12.1318 566.604 497.179)" fill="#F5F5F5"/>
<rect x="504.916" y="534.236" width="17.0242" height="17.0242" rx="2.83737" transform="rotate(-12.1318 504.916 534.236)" fill="#F5F5F5"/>
<rect x="527.108" y="529.466" width="17.0242" height="17.0242" rx="2.83737" transform="rotate(-12.1318 527.108 529.466)" fill="#F5F5F5"/>
<rect x="549.301" y="524.696" width="17.0242" height="17.0242" rx="2.83737" transform="rotate(-12.1318 549.301 524.696)" fill="#F5F5F5"/>
<rect width="71.8794" height="50.0613" rx="7.53514" transform="matrix(-0.609938 -0.792449 -0.792449 0.609938 83.5127 347.96)" fill="#F5F5F5"/>
<line x1="14.3669" y1="321.123" x2="35.8632" y2="304.577" stroke="black" stroke-width="0.753514"/>
<line x1="15.1052" y1="331.966" x2="46.1555" y2="308.067" stroke="black" stroke-width="0.753514"/>
<line x1="20.6208" y1="339.132" x2="45.1028" y2="320.288" stroke="black" stroke-width="0.753514"/>
<line x1="26.1354" y1="346.297" x2="53.603" y2="325.156" stroke="black" stroke-width="0.753514"/>
<line x1="31.6501" y1="353.462" x2="62.7004" y2="329.563" stroke="black" stroke-width="0.753514"/>
<line x1="37.1657" y1="360.627" x2="63.439" y2="340.405" stroke="black" stroke-width="0.753514"/>
<line x1="42.6813" y1="367.793" x2="67.1633" y2="348.949" stroke="black" stroke-width="0.753514"/>
<defs>
<clipPath id="clip0_5022_11211">
<rect width="422" height="77" fill="white" transform="translate(77.5928 479)"/>
</clipPath>
</defs>
</svg>
