<svg width="184" height="74" viewBox="0 0 184 74" fill="none" xmlns="http://www.w3.org/2000/svg">
<rect width="184" height="60" rx="15" transform="matrix(-1 0 0 1 184 0)" fill="#846047"/>
<path d="M22.7551 22.586H17.8081L16.9581 25H14.9351L19.1681 13.168H21.4121L25.6451 25H23.6051L22.7551 22.586ZM22.2111 21.005L20.2901 15.514L18.3521 21.005H22.2111ZM26.4097 20.274C26.4097 19.3333 26.6023 18.5003 26.9877 17.775C27.3843 17.0497 27.917 16.4887 28.5857 16.092C29.2657 15.684 30.0193 15.48 30.8467 15.48C31.4587 15.48 32.0593 15.616 32.6487 15.888C33.2493 16.1487 33.7253 16.5 34.0767 16.942V12.42H36.0317V25H34.0767V23.589C33.7593 24.0423 33.3173 24.4163 32.7507 24.711C32.1953 25.0057 31.555 25.153 30.8297 25.153C30.0137 25.153 29.2657 24.949 28.5857 24.541C27.917 24.1217 27.3843 23.5437 26.9877 22.807C26.6023 22.059 26.4097 21.2147 26.4097 20.274ZM34.0767 20.308C34.0767 19.662 33.9407 19.101 33.6687 18.625C33.408 18.149 33.0623 17.7863 32.6317 17.537C32.201 17.2877 31.7363 17.163 31.2377 17.163C30.739 17.163 30.2743 17.2877 29.8437 17.537C29.413 17.775 29.0617 18.132 28.7897 18.608C28.529 19.0727 28.3987 19.628 28.3987 20.274C28.3987 20.92 28.529 21.4867 28.7897 21.974C29.0617 22.4613 29.413 22.8353 29.8437 23.096C30.2857 23.3453 30.7503 23.47 31.2377 23.47C31.7363 23.47 32.201 23.3453 32.6317 23.096C33.0623 22.8467 33.408 22.484 33.6687 22.008C33.9407 21.5207 34.0767 20.954 34.0767 20.308ZM37.5011 20.274C37.5011 19.3333 37.6938 18.5003 38.0791 17.775C38.4758 17.0497 39.0085 16.4887 39.6771 16.092C40.3571 15.684 41.1108 15.48 41.9381 15.48C42.5501 15.48 43.1508 15.616 43.7401 15.888C44.3408 16.1487 44.8168 16.5 45.1681 16.942V12.42H47.1231V25H45.1681V23.589C44.8508 24.0423 44.4088 24.4163 43.8421 24.711C43.2868 25.0057 42.6465 25.153 41.9211 25.153C41.1051 25.153 40.3571 24.949 39.6771 24.541C39.0085 24.1217 38.4758 23.5437 38.0791 22.807C37.6938 22.059 37.5011 21.2147 37.5011 20.274ZM45.1681 20.308C45.1681 19.662 45.0321 19.101 44.7601 18.625C44.4995 18.149 44.1538 17.7863 43.7231 17.537C43.2925 17.2877 42.8278 17.163 42.3291 17.163C41.8305 17.163 41.3658 17.2877 40.9351 17.537C40.5045 17.775 40.1531 18.132 39.8811 18.608C39.6205 19.0727 39.4901 19.628 39.4901 20.274C39.4901 20.92 39.6205 21.4867 39.8811 21.974C40.1531 22.4613 40.5045 22.8353 40.9351 23.096C41.3771 23.3453 41.8418 23.47 42.3291 23.47C42.8278 23.47 43.2925 23.3453 43.7231 23.096C44.1538 22.8467 44.4995 22.484 44.7601 22.008C45.0321 21.5207 45.1681 20.954 45.1681 20.308ZM52.5786 20.308C52.5786 19.3447 52.7713 18.5003 53.1566 17.775C53.5533 17.0383 54.0973 16.4717 54.7886 16.075C55.48 15.6783 56.2733 15.48 57.1686 15.48C58.302 15.48 59.237 15.752 59.9736 16.296C60.7216 16.8287 61.226 17.5937 61.4866 18.591H59.3956C59.2256 18.1263 58.9536 17.7637 58.5796 17.503C58.2056 17.2423 57.7353 17.112 57.1686 17.112C56.3753 17.112 55.7406 17.3953 55.2646 17.962C54.8 18.5173 54.5676 19.2993 54.5676 20.308C54.5676 21.3167 54.8 22.1043 55.2646 22.671C55.7406 23.2377 56.3753 23.521 57.1686 23.521C58.2906 23.521 59.033 23.028 59.3956 22.042H61.4866C61.2146 22.994 60.7046 23.7533 59.9566 24.32C59.2086 24.8753 58.2793 25.153 57.1686 25.153C56.2733 25.153 55.48 24.9547 54.7886 24.558C54.0973 24.15 53.5533 23.5833 53.1566 22.858C52.7713 22.1213 52.5786 21.2713 52.5786 20.308ZM62.342 20.274C62.342 19.3333 62.5347 18.5003 62.92 17.775C63.3167 17.0497 63.8493 16.4887 64.518 16.092C65.198 15.684 65.946 15.48 66.762 15.48C67.4987 15.48 68.139 15.6273 68.683 15.922C69.2383 16.2053 69.6803 16.5623 70.009 16.993V15.633H71.964V25H70.009V23.606C69.6803 24.048 69.2327 24.4163 68.666 24.711C68.0993 25.0057 67.4533 25.153 66.728 25.153C65.9233 25.153 65.1867 24.949 64.518 24.541C63.8493 24.1217 63.3167 23.5437 62.92 22.807C62.5347 22.059 62.342 21.2147 62.342 20.274ZM70.009 20.308C70.009 19.662 69.873 19.101 69.601 18.625C69.3403 18.149 68.9947 17.7863 68.564 17.537C68.1333 17.2877 67.6687 17.163 67.17 17.163C66.6713 17.163 66.2067 17.2877 65.776 17.537C65.3453 17.775 64.994 18.132 64.722 18.608C64.4613 19.0727 64.331 19.628 64.331 20.274C64.331 20.92 64.4613 21.4867 64.722 21.974C64.994 22.4613 65.3453 22.8353 65.776 23.096C66.218 23.3453 66.6827 23.47 67.17 23.47C67.6687 23.47 68.1333 23.3453 68.564 23.096C68.9947 22.8467 69.3403 22.484 69.601 22.008C69.873 21.5207 70.009 20.954 70.009 20.308ZM76.0175 16.993C76.3008 16.517 76.6748 16.1487 77.1395 15.888C77.6155 15.616 78.1765 15.48 78.8225 15.48V17.486H78.3295C77.5702 17.486 76.9922 17.6787 76.5955 18.064C76.2102 18.4493 76.0175 19.118 76.0175 20.07V25H74.0795V15.633H76.0175V16.993ZM79.5279 20.274C79.5279 19.3333 79.7206 18.5003 80.1059 17.775C80.5026 17.0497 81.0352 16.4887 81.7039 16.092C82.3839 15.684 83.1376 15.48 83.9649 15.48C84.5769 15.48 85.1776 15.616 85.7669 15.888C86.3676 16.1487 86.8436 16.5 87.1949 16.942V12.42H89.1499V25H87.1949V23.589C86.8776 24.0423 86.4356 24.4163 85.8689 24.711C85.3136 25.0057 84.6732 25.153 83.9479 25.153C83.1319 25.153 82.3839 24.949 81.7039 24.541C81.0352 24.1217 80.5026 23.5437 80.1059 22.807C79.7206 22.059 79.5279 21.2147 79.5279 20.274ZM87.1949 20.308C87.1949 19.662 87.0589 19.101 86.7869 18.625C86.5262 18.149 86.1806 17.7863 85.7499 17.537C85.3192 17.2877 84.8546 17.163 84.3559 17.163C83.8572 17.163 83.3926 17.2877 82.9619 17.537C82.5312 17.775 82.1799 18.132 81.9079 18.608C81.6472 19.0727 81.5169 19.628 81.5169 20.274C81.5169 20.92 81.6472 21.4867 81.9079 21.974C82.1799 22.4613 82.5312 22.8353 82.9619 23.096C83.4039 23.3453 83.8686 23.47 84.3559 23.47C84.8546 23.47 85.3192 23.3453 85.7499 23.096C86.1806 22.8467 86.5262 22.484 86.7869 22.008C87.0589 21.5207 87.1949 20.954 87.1949 20.308ZM103.683 15.633L97.9374 29.403H95.9314L97.8354 24.847L94.1464 15.633H96.3054L98.9404 22.773L101.677 15.633H103.683ZM108.779 25.153C107.895 25.153 107.096 24.9547 106.382 24.558C105.668 24.15 105.107 23.5833 104.699 22.858C104.291 22.1213 104.087 21.2713 104.087 20.308C104.087 19.356 104.297 18.5117 104.716 17.775C105.135 17.0383 105.708 16.4717 106.433 16.075C107.158 15.6783 107.969 15.48 108.864 15.48C109.759 15.48 110.57 15.6783 111.295 16.075C112.02 16.4717 112.593 17.0383 113.012 17.775C113.431 18.5117 113.641 19.356 113.641 20.308C113.641 21.26 113.426 22.1043 112.995 22.841C112.564 23.5777 111.975 24.15 111.227 24.558C110.49 24.9547 109.674 25.153 108.779 25.153ZM108.779 23.47C109.278 23.47 109.742 23.351 110.173 23.113C110.615 22.875 110.972 22.518 111.244 22.042C111.516 21.566 111.652 20.988 111.652 20.308C111.652 19.628 111.522 19.0557 111.261 18.591C111 18.115 110.655 17.758 110.224 17.52C109.793 17.282 109.329 17.163 108.83 17.163C108.331 17.163 107.867 17.282 107.436 17.52C107.017 17.758 106.682 18.115 106.433 18.591C106.184 19.0557 106.059 19.628 106.059 20.308C106.059 21.3167 106.314 22.0987 106.824 22.654C107.345 23.198 107.997 23.47 108.779 23.47ZM123.61 15.633V25H121.672V23.895C121.366 24.2803 120.963 24.5863 120.465 24.813C119.977 25.0283 119.456 25.136 118.901 25.136C118.164 25.136 117.501 24.983 116.912 24.677C116.334 24.371 115.875 23.9177 115.535 23.317C115.206 22.7163 115.042 21.991 115.042 21.141V15.633H116.963V20.852C116.963 21.6907 117.172 22.3367 117.592 22.79C118.011 23.232 118.583 23.453 119.309 23.453C120.034 23.453 120.606 23.232 121.026 22.79C121.456 22.3367 121.672 21.6907 121.672 20.852V15.633H123.61ZM142.303 15.633L139.396 25H137.356L135.469 18.081L133.582 25H131.542L128.618 15.633H130.59L132.545 23.164L134.534 15.633H136.557L138.461 23.13L140.399 15.633H142.303ZM142.675 20.274C142.675 19.3333 142.868 18.5003 143.253 17.775C143.65 17.0497 144.182 16.4887 144.851 16.092C145.531 15.684 146.279 15.48 147.095 15.48C147.832 15.48 148.472 15.6273 149.016 15.922C149.571 16.2053 150.013 16.5623 150.342 16.993V15.633H152.297V25H150.342V23.606C150.013 24.048 149.566 24.4163 148.999 24.711C148.432 25.0057 147.786 25.153 147.061 25.153C146.256 25.153 145.52 24.949 144.851 24.541C144.182 24.1217 143.65 23.5437 143.253 22.807C142.868 22.059 142.675 21.2147 142.675 20.274ZM150.342 20.308C150.342 19.662 150.206 19.101 149.934 18.625C149.673 18.149 149.328 17.7863 148.897 17.537C148.466 17.2877 148.002 17.163 147.503 17.163C147.004 17.163 146.54 17.2877 146.109 17.537C145.678 17.775 145.327 18.132 145.055 18.608C144.794 19.0727 144.664 19.628 144.664 20.274C144.664 20.92 144.794 21.4867 145.055 21.974C145.327 22.4613 145.678 22.8353 146.109 23.096C146.551 23.3453 147.016 23.47 147.503 23.47C148.002 23.47 148.466 23.3453 148.897 23.096C149.328 22.8467 149.673 22.484 149.934 22.008C150.206 21.5207 150.342 20.954 150.342 20.308ZM159.139 15.48C159.875 15.48 160.533 15.633 161.111 15.939C161.7 16.245 162.159 16.6983 162.488 17.299C162.816 17.8997 162.981 18.625 162.981 19.475V25H161.06V19.764C161.06 18.9253 160.85 18.285 160.431 17.843C160.011 17.3897 159.439 17.163 158.714 17.163C157.988 17.163 157.41 17.3897 156.98 17.843C156.56 18.285 156.351 18.9253 156.351 19.764V25H154.413V15.633H156.351V16.704C156.668 16.3187 157.07 16.0183 157.558 15.803C158.056 15.5877 158.583 15.48 159.139 15.48ZM167.284 17.214V22.399C167.284 22.7503 167.363 23.0053 167.522 23.164C167.692 23.3113 167.975 23.385 168.372 23.385H169.562V25H168.032C167.159 25 166.49 24.796 166.026 24.388C165.561 23.98 165.329 23.317 165.329 22.399V17.214H164.224V15.633H165.329V13.304H167.284V15.633H169.562V17.214H167.284ZM35.4509 39.214V44.399C35.4509 44.7503 35.5303 45.0053 35.6889 45.164C35.8589 45.3113 36.1423 45.385 36.5389 45.385H37.7289V47H36.1989C35.3263 47 34.6576 46.796 34.1929 46.388C33.7283 45.98 33.4959 45.317 33.4959 44.399V39.214H32.3909V37.633H33.4959V35.304H35.4509V37.633H37.7289V39.214H35.4509ZM43.1481 47.153C42.2641 47.153 41.4651 46.9547 40.7511 46.558C40.0371 46.15 39.4761 45.5833 39.0681 44.858C38.6601 44.1213 38.4561 43.2713 38.4561 42.308C38.4561 41.356 38.6658 40.5117 39.0851 39.775C39.5045 39.0383 40.0768 38.4717 40.8021 38.075C41.5275 37.6783 42.3378 37.48 43.2331 37.48C44.1285 37.48 44.9388 37.6783 45.6641 38.075C46.3895 38.4717 46.9618 39.0383 47.3811 39.775C47.8005 40.5117 48.0101 41.356 48.0101 42.308C48.0101 43.26 47.7948 44.1043 47.3641 44.841C46.9335 45.5777 46.3441 46.15 45.5961 46.558C44.8595 46.9547 44.0435 47.153 43.1481 47.153ZM43.1481 45.47C43.6468 45.47 44.1115 45.351 44.5421 45.113C44.9841 44.875 45.3411 44.518 45.6131 44.042C45.8851 43.566 46.0211 42.988 46.0211 42.308C46.0211 41.628 45.8908 41.0557 45.6301 40.591C45.3695 40.115 45.0238 39.758 44.5931 39.52C44.1625 39.282 43.6978 39.163 43.1991 39.163C42.7005 39.163 42.2358 39.282 41.8051 39.52C41.3858 39.758 41.0515 40.115 40.8021 40.591C40.5528 41.0557 40.4281 41.628 40.4281 42.308C40.4281 43.3167 40.6831 44.0987 41.1931 44.654C41.7145 45.198 42.3661 45.47 43.1481 45.47ZM55.42 38.993C55.7033 38.517 56.0773 38.1487 56.542 37.888C57.018 37.616 57.579 37.48 58.225 37.48V39.486H57.732C56.9726 39.486 56.3946 39.6787 55.998 40.064C55.6126 40.4493 55.42 41.118 55.42 42.07V47H53.482V37.633H55.42V38.993ZM68.1614 42.087C68.1614 42.4383 68.1387 42.7557 68.0934 43.039H60.9364C60.9931 43.787 61.2707 44.3877 61.7694 44.841C62.2681 45.2943 62.8801 45.521 63.6054 45.521C64.6481 45.521 65.3847 45.0847 65.8154 44.212H67.9064C67.6231 45.0733 67.1074 45.7817 66.3594 46.337C65.6227 46.881 64.7047 47.153 63.6054 47.153C62.7101 47.153 61.9054 46.9547 61.1914 46.558C60.4887 46.15 59.9334 45.5833 59.5254 44.858C59.1287 44.1213 58.9304 43.2713 58.9304 42.308C58.9304 41.3447 59.1231 40.5003 59.5084 39.775C59.9051 39.0383 60.4547 38.4717 61.1574 38.075C61.8714 37.6783 62.6874 37.48 63.6054 37.48C64.4894 37.48 65.2771 37.6727 65.9684 38.058C66.6597 38.4433 67.1981 38.9873 67.5834 39.69C67.9687 40.3813 68.1614 41.1803 68.1614 42.087ZM66.1384 41.475C66.1271 40.761 65.8721 40.1887 65.3734 39.758C64.8747 39.3273 64.2571 39.112 63.5204 39.112C62.8517 39.112 62.2794 39.3273 61.8034 39.758C61.3274 40.1773 61.0441 40.7497 60.9534 41.475H66.1384ZM73.2596 45.266L75.9116 37.633H77.9686L74.3986 47H72.0866L68.5336 37.633H70.6076L73.2596 45.266ZM79.9895 36.392C79.6382 36.392 79.3435 36.273 79.1055 36.035C78.8675 35.797 78.7485 35.5023 78.7485 35.151C78.7485 34.7997 78.8675 34.505 79.1055 34.267C79.3435 34.029 79.6382 33.91 79.9895 33.91C80.3295 33.91 80.6185 34.029 80.8565 34.267C81.0945 34.505 81.2135 34.7997 81.2135 35.151C81.2135 35.5023 81.0945 35.797 80.8565 36.035C80.6185 36.273 80.3295 36.392 79.9895 36.392ZM80.9415 37.633V47H79.0035V37.633H80.9415ZM91.6409 42.087C91.6409 42.4383 91.6182 42.7557 91.5729 43.039H84.4159C84.4726 43.787 84.7502 44.3877 85.2489 44.841C85.7476 45.2943 86.3596 45.521 87.0849 45.521C88.1276 45.521 88.8642 45.0847 89.2949 44.212H91.3859C91.1026 45.0733 90.5869 45.7817 89.8389 46.337C89.1022 46.881 88.1842 47.153 87.0849 47.153C86.1896 47.153 85.3849 46.9547 84.6709 46.558C83.9682 46.15 83.4129 45.5833 83.0049 44.858C82.6082 44.1213 82.4099 43.2713 82.4099 42.308C82.4099 41.3447 82.6026 40.5003 82.9879 39.775C83.3846 39.0383 83.9342 38.4717 84.6369 38.075C85.3509 37.6783 86.1669 37.48 87.0849 37.48C87.9689 37.48 88.7566 37.6727 89.4479 38.058C90.1392 38.4433 90.6776 38.9873 91.0629 39.69C91.4482 40.3813 91.6409 41.1803 91.6409 42.087ZM89.6179 41.475C89.6066 40.761 89.3516 40.1887 88.8529 39.758C88.3542 39.3273 87.7366 39.112 86.9999 39.112C86.3312 39.112 85.7589 39.3273 85.2829 39.758C84.8069 40.1773 84.5236 40.7497 84.4329 41.475H89.6179ZM105.698 37.633L102.791 47H100.751L98.8641 40.081L96.9771 47H94.9371L92.0131 37.633H93.9851L95.9401 45.164L97.9291 37.633H99.9521L101.856 45.13L103.794 37.633H105.698ZM112.64 34.42V47H110.702V34.42H112.64ZM114.109 42.274C114.109 41.3333 114.302 40.5003 114.687 39.775C115.084 39.0497 115.616 38.4887 116.285 38.092C116.965 37.684 117.713 37.48 118.529 37.48C119.266 37.48 119.906 37.6273 120.45 37.922C121.005 38.2053 121.447 38.5623 121.776 38.993V37.633H123.731V47H121.776V45.606C121.447 46.048 121 46.4163 120.433 46.711C119.866 47.0057 119.22 47.153 118.495 47.153C117.69 47.153 116.954 46.949 116.285 46.541C115.616 46.1217 115.084 45.5437 114.687 44.807C114.302 44.059 114.109 43.2147 114.109 42.274ZM121.776 42.308C121.776 41.662 121.64 41.101 121.368 40.625C121.107 40.149 120.762 39.7863 120.331 39.537C119.9 39.2877 119.436 39.163 118.937 39.163C118.438 39.163 117.974 39.2877 117.543 39.537C117.112 39.775 116.761 40.132 116.489 40.608C116.228 41.0727 116.098 41.628 116.098 42.274C116.098 42.92 116.228 43.4867 116.489 43.974C116.761 44.4613 117.112 44.8353 117.543 45.096C117.985 45.3453 118.45 45.47 118.937 45.47C119.436 45.47 119.9 45.3453 120.331 45.096C120.762 44.8467 121.107 44.484 121.368 44.008C121.64 43.5207 121.776 42.954 121.776 42.308ZM128.107 39.214V44.399C128.107 44.7503 128.187 45.0053 128.345 45.164C128.515 45.3113 128.799 45.385 129.195 45.385H130.385V47H128.855C127.983 47 127.314 46.796 126.849 46.388C126.385 45.98 126.152 45.317 126.152 44.399V39.214H125.047V37.633H126.152V35.304H128.107V37.633H130.385V39.214H128.107ZM140.327 42.087C140.327 42.4383 140.304 42.7557 140.259 43.039H133.102C133.158 43.787 133.436 44.3877 133.935 44.841C134.433 45.2943 135.045 45.521 135.771 45.521C136.813 45.521 137.55 45.0847 137.981 44.212H140.072C139.788 45.0733 139.273 45.7817 138.525 46.337C137.788 46.881 136.87 47.153 135.771 47.153C134.875 47.153 134.071 46.9547 133.357 46.558C132.654 46.15 132.099 45.5833 131.691 44.858C131.294 44.1213 131.096 43.2713 131.096 42.308C131.096 41.3447 131.288 40.5003 131.674 39.775C132.07 39.0383 132.62 38.4717 133.323 38.075C134.037 37.6783 134.853 37.48 135.771 37.48C136.655 37.48 137.442 37.6727 138.134 38.058C138.825 38.4433 139.363 38.9873 139.749 39.69C140.134 40.3813 140.327 41.1803 140.327 42.087ZM138.304 41.475C138.292 40.761 138.037 40.1887 137.539 39.758C137.04 39.3273 136.422 39.112 135.686 39.112C135.017 39.112 134.445 39.3273 133.969 39.758C133.493 40.1773 133.209 40.7497 133.119 41.475H138.304ZM143.742 38.993C144.025 38.517 144.399 38.1487 144.864 37.888C145.34 37.616 145.901 37.48 146.547 37.48V39.486H146.054C145.294 39.486 144.716 39.6787 144.32 40.064C143.934 40.4493 143.742 41.118 143.742 42.07V47H141.804V37.633H143.742V38.993ZM150.329 35.185L150.108 43.43H148.493L148.272 35.185H150.329ZM149.36 47.119C149.009 47.119 148.714 47 148.476 46.762C148.238 46.524 148.119 46.2293 148.119 45.878C148.119 45.5267 148.238 45.232 148.476 44.994C148.714 44.756 149.009 44.637 149.36 44.637C149.7 44.637 149.989 44.756 150.227 44.994C150.465 45.232 150.584 45.5267 150.584 45.878C150.584 46.2293 150.465 46.524 150.227 46.762C149.989 47 149.7 47.119 149.36 47.119Z" fill="#ECEAE8"/>
<path d="M162.221 68.3882C163.296 69.6915 165.403 69.157 165.726 67.4987L167.807 56.8422C168.088 55.4021 166.774 54.1595 165.352 54.5204L156.362 56.8016C154.94 57.1625 154.377 58.8811 155.311 60.0129L162.221 68.3882Z" fill="#846047"/>
</svg>
