<svg width="459" height="232" viewBox="0 0 459 232" fill="none" xmlns="http://www.w3.org/2000/svg">
<ellipse cx="138.594" cy="70.3216" rx="138.594" ry="70.3216" transform="matrix(0.952725 0.303836 -0.499347 0.866402 70.2299 8.84399)" fill="#F4C363"/>
<ellipse cx="140.606" cy="68.7679" rx="140.606" ry="68.7679" transform="matrix(0.972368 0.233455 -0.398041 0.917368 84.9943 40.1804)" fill="#F4C363"/>
<ellipse cx="115.652" cy="53.8209" rx="115.652" ry="53.8209" transform="matrix(0.994962 -0.100255 0.179154 0.983821 209.556 89.083)" fill="#F4C363"/>
<ellipse cx="116.101" cy="53.4501" rx="116.101" ry="53.4501" transform="matrix(0.99979 -0.020487 0.0370069 0.999315 102.619 4.75854)" fill="#F4C363"/>
<ellipse cx="114.385" cy="54.8477" rx="114.385" ry="54.8477" transform="matrix(0.980876 -0.194635 0.337558 0.941305 172.826 55.7825)" fill="#F4C363"/>
<ellipse cx="110.211" cy="51.4441" rx="110.211" ry="51.4441" transform="matrix(0.994253 -0.107053 0.191004 0.981589 10.8 99.9336)" fill="#F4C363"/>
<ellipse cx="123.802" cy="62.865" rx="123.802" ry="62.865" transform="matrix(0.952621 0.30416 -0.498907 0.866656 80.4232 7.90332)" fill="#A7D8A1"/>
<ellipse cx="125.593" cy="61.4826" rx="125.593" ry="61.4826" transform="matrix(0.972305 0.233715 -0.397648 0.917538 93.6005 35.9282)" fill="#A7D8A1"/>
<ellipse cx="103.299" cy="48.1263" rx="103.299" ry="48.1263" transform="matrix(0.99495 -0.100372 0.17895 0.983858 204.867 79.6582)" fill="#A7D8A1"/>
<ellipse cx="103.698" cy="47.7964" rx="103.698" ry="47.7964" transform="matrix(0.99979 -0.0205111 0.0369635 0.999317 109.345 4.25391)" fill="#A7D8A1"/>
<ellipse cx="102.17" cy="49.0397" rx="102.17" ry="49.0397" transform="matrix(0.980832 -0.194855 0.337207 0.941431 172.056 49.8794)" fill="#A7D8A1"/>
<ellipse cx="98.4389" cy="46.0007" rx="98.4389" ry="46.0007" transform="matrix(0.99424 -0.107177 0.190787 0.981631 27.3419 89.3623)" fill="#A7D8A1"/>
<path d="M172.931 83.2732C175.55 81.874 177.95 86.1884 178.823 88.5206L172.931 91.5815C171.84 89.3951 170.312 84.6725 172.931 83.2732Z" fill="#A37556"/>
<path d="M187.742 123.056C190.126 121.609 193.233 122.369 194.68 124.754L198.836 131.603C200.284 133.987 199.524 137.094 197.139 138.541C194.754 139.988 191.648 139.228 190.201 136.843L186.044 129.994C184.597 127.61 185.357 124.503 187.742 123.056Z" fill="#846047"/>
<path d="M197.753 129.764L198.836 131.549C200.284 133.934 199.524 137.04 197.139 138.487C194.754 139.935 191.648 139.175 190.201 136.79L189.117 135.004L197.753 129.764Z" fill="#4B3E35"/>
<rect width="12.9345" height="7.21346" rx="3.60673" transform="matrix(-1 0 0 1 166.381 149.783)" fill="#846047"/>
<path d="M166.381 154.136H153.447V154.136C153.447 155.716 154.728 156.996 156.307 156.996H163.521C165.101 156.996 166.381 155.716 166.381 154.136V154.136Z" fill="#4B3E35"/>
<rect width="12.9345" height="7.21346" rx="3.60673" transform="matrix(-1 0 0 1 191.261 149.783)" fill="#846047"/>
<path d="M191.261 154.136H178.327V154.136C178.327 155.716 179.607 156.996 181.187 156.996H188.401C189.981 156.996 191.261 155.716 191.261 154.136V154.136Z" fill="#4B3E35"/>
<path d="M190.805 101.035C190.805 94.1661 185.237 88.5979 178.368 88.5979H165.442C159.431 88.5979 154.281 92.8962 153.205 98.8097L146.171 137.489C144.783 145.123 150.648 152.151 158.408 152.151H185.968C196.794 152.151 202.451 139.277 195.129 131.302L194.081 130.161C191.974 127.866 190.805 124.864 190.805 121.749L190.805 101.035Z" fill="#A37556"/>
<path d="M196.464 100.733C195.621 95.4607 191.072 91.582 185.733 91.582C180.482 91.582 175.981 95.3373 175.041 100.504L173.403 109.51C172.014 117.141 177.877 124.167 185.634 124.167C193.283 124.167 199.117 117.325 197.909 109.772L196.464 100.733Z" fill="#604F44"/>
<path d="M187.922 99.5144C188.471 102.45 190.319 110.174 187.922 111.055M187.922 111.055C186.539 112.226 181.823 114.405 179.598 114.714M187.922 111.055C191.079 112.973 192.012 113.905 192.509 114.714" stroke="#3A2E2B" stroke-width="0.873949" stroke-linecap="round"/>
<ellipse cx="3.17143" cy="2.11429" rx="3.17143" ry="2.11429" transform="matrix(-1 0 0 1 191.264 97.4282)" fill="#3A2E2B"/>
<path d="M169.119 94.1956C167.855 94.2577 164.99 94.9667 163.647 97.3048" stroke="#3A2E2B" stroke-width="1.31092" stroke-linecap="round"/>
<path d="M155.825 123.056C153.441 121.609 150.334 122.369 148.887 124.754L144.731 131.603C143.283 133.987 144.043 137.094 146.428 138.541C148.813 139.988 151.919 139.228 153.366 136.843L157.523 129.994C158.97 127.61 158.21 124.503 155.825 123.056Z" fill="#846047"/>
<path d="M145.814 129.817L144.731 131.603C143.283 133.987 144.043 137.094 146.428 138.541C148.813 139.988 151.919 139.228 153.366 136.843L154.45 135.058L145.814 129.817Z" fill="#4B3E35"/>
<path d="M156.014 84.5184C158.633 83.1191 161.033 87.4336 161.906 89.7657L156.014 92.8266C154.923 90.6403 153.395 85.9177 156.014 84.5184Z" fill="#A37556"/>
</svg>
