<svg width="459" height="232" viewBox="0 0 459 232" fill="none" xmlns="http://www.w3.org/2000/svg">
<ellipse cx="138.594" cy="70.3216" rx="138.594" ry="70.3216" transform="matrix(0.952725 0.303836 -0.499347 0.866402 70.2299 8.84399)" fill="#F4C363"/>
<ellipse cx="140.606" cy="68.7679" rx="140.606" ry="68.7679" transform="matrix(0.972368 0.233455 -0.398041 0.917368 84.9943 40.1804)" fill="#F4C363"/>
<ellipse cx="115.652" cy="53.8209" rx="115.652" ry="53.8209" transform="matrix(0.994962 -0.100255 0.179154 0.983821 209.556 89.083)" fill="#F4C363"/>
<ellipse cx="116.101" cy="53.4501" rx="116.101" ry="53.4501" transform="matrix(0.99979 -0.020487 0.0370069 0.999315 102.619 4.75854)" fill="#F4C363"/>
<ellipse cx="114.385" cy="54.8477" rx="114.385" ry="54.8477" transform="matrix(0.980876 -0.194635 0.337558 0.941305 172.826 55.7825)" fill="#F4C363"/>
<ellipse cx="110.211" cy="51.4441" rx="110.211" ry="51.4441" transform="matrix(0.994253 -0.107053 0.191004 0.981589 10.8 99.9336)" fill="#F4C363"/>
<ellipse cx="123.802" cy="62.865" rx="123.802" ry="62.865" transform="matrix(0.952621 0.30416 -0.498907 0.866656 80.4232 7.90332)" fill="#A7D8A1"/>
<ellipse cx="125.593" cy="61.4826" rx="125.593" ry="61.4826" transform="matrix(0.972305 0.233715 -0.397648 0.917538 93.6005 35.9282)" fill="#A7D8A1"/>
<ellipse cx="103.299" cy="48.1263" rx="103.299" ry="48.1263" transform="matrix(0.99495 -0.100372 0.17895 0.983858 204.867 79.6582)" fill="#A7D8A1"/>
<ellipse cx="103.698" cy="47.7964" rx="103.698" ry="47.7964" transform="matrix(0.99979 -0.0205111 0.0369635 0.999317 109.345 4.25391)" fill="#A7D8A1"/>
<ellipse cx="102.17" cy="49.0397" rx="102.17" ry="49.0397" transform="matrix(0.980832 -0.194855 0.337207 0.941431 172.056 49.8794)" fill="#A7D8A1"/>
<ellipse cx="98.4389" cy="46.0007" rx="98.4389" ry="46.0007" transform="matrix(0.99424 -0.107177 0.190787 0.981631 27.3419 89.3623)" fill="#A7D8A1"/>
<rect x="201.062" y="84.8696" width="34.3211" height="37.3056" rx="1.24352" fill="#846047"/>
<rect x="203.052" y="87.1052" width="30.2175" height="16.4145" rx="1.24352" fill="#E5DECF"/>
<rect x="203.667" y="89.2251" width="5.22278" height="14.3005" rx="1.24352" fill="#3A6351"/>
<rect x="209.636" y="87.9817" width="5.22278" height="15.544" rx="1.24352" fill="#A7D8A1"/>
<rect x="215.605" y="92.707" width="5.22278" height="10.8186" rx="1.24352" fill="#67B7D1"/>
<rect x="221.573" y="88.479" width="5.22278" height="15.0466" rx="1.24352" fill="#E9B44C"/>
<rect x="227.542" y="88.479" width="5.22278" height="15.0466" rx="1.24352" fill="#3A6351"/>
<rect x="203.052" y="104.765" width="30.2175" height="14.9222" rx="1.24352" fill="#E5DECF"/>
<rect x="203.667" y="106.752" width="5.22278" height="12.9326" rx="1.24352" fill="#A7D8A1"/>
<rect x="209.636" y="107.499" width="5.22278" height="12.1865" rx="1.24352" fill="#E9B44C"/>
<rect x="215.605" y="106.379" width="5.22278" height="13.3057" rx="1.24352" fill="#3A6351"/>
<rect x="221.573" y="110.483" width="5.22278" height="9.20205" rx="1.24352" fill="#67B7D1"/>
<rect x="227.542" y="106.752" width="5.22278" height="12.9326" rx="1.24352" fill="#E9B44C"/>
<rect width="34.3211" height="37.3056" rx="1.24352" transform="matrix(-1 0 0 1 235.389 119.679)" fill="#846047"/>
<rect width="30.2175" height="16.4145" rx="1.24352" transform="matrix(-1 0 0 1 233.399 121.914)" fill="#E5DECF"/>
<rect width="5.22278" height="14.3005" rx="1.24352" transform="matrix(-1 0 0 1 232.784 124.034)" fill="#3A6351"/>
<rect width="5.22278" height="15.544" rx="1.24352" transform="matrix(-1 0 0 1 226.815 122.791)" fill="#A7D8A1"/>
<rect width="5.22278" height="10.8186" rx="1.24352" transform="matrix(-1 0 0 1 220.846 127.516)" fill="#67B7D1"/>
<rect width="5.22278" height="15.0466" rx="1.24352" transform="matrix(-1 0 0 1 214.877 123.288)" fill="#E9B44C"/>
<rect width="5.22278" height="15.0466" rx="1.24352" transform="matrix(-1 0 0 1 208.908 123.288)" fill="#3A6351"/>
<rect width="30.2175" height="14.9222" rx="1.24352" transform="matrix(-1 0 0 1 233.399 139.574)" fill="#E5DECF"/>
<rect width="5.22278" height="12.9326" rx="1.24352" transform="matrix(-1 0 0 1 232.784 141.562)" fill="#A7D8A1"/>
<rect width="5.22278" height="12.1865" rx="1.24352" transform="matrix(-1 0 0 1 226.815 142.308)" fill="#E9B44C"/>
<rect width="5.22278" height="13.3057" rx="1.24352" transform="matrix(-1 0 0 1 220.846 141.189)" fill="#3A6351"/>
<rect width="5.22278" height="9.20205" rx="1.24352" transform="matrix(-1 0 0 1 214.877 145.292)" fill="#67B7D1"/>
<rect width="5.22278" height="12.9326" rx="1.24352" transform="matrix(-1 0 0 1 208.908 141.562)" fill="#E9B44C"/>
<path d="M172.583 83.2732C175.201 81.8741 177.601 86.188 178.474 88.5198L172.583 91.5803C171.492 89.3942 169.965 84.6723 172.583 83.2732Z" fill="#A37556"/>
<path d="M187.124 129.592C186.343 126.914 187.881 124.111 190.559 123.33L198.249 121.089C200.927 120.308 203.73 121.846 204.511 124.523C205.291 127.201 203.753 130.004 201.076 130.785L193.385 133.027C190.708 133.807 187.904 132.27 187.124 129.592Z" fill="#3A6351"/>
<path d="M196.192 121.659L198.197 121.075C200.875 120.294 203.678 121.832 204.459 124.51C205.24 127.187 203.702 129.991 201.024 130.771L199.019 131.356L196.192 121.659Z" fill="#4B3E35"/>
<rect width="12.9326" height="7.21241" rx="3.60621" transform="matrix(-1 0 0 1 166.035 149.782)" fill="#846047"/>
<path d="M166.035 154.14H153.103V154.14C153.103 155.719 154.383 157 155.963 157H163.175C164.755 157 166.035 155.719 166.035 154.14V154.14Z" fill="#4B3E35"/>
<rect width="12.9326" height="7.21241" rx="3.60621" transform="matrix(-1 0 0 1 190.904 149.782)" fill="#846047"/>
<path d="M190.904 154.14H177.971V154.14C177.971 155.719 179.252 157 180.831 157H188.044C189.623 157 190.904 155.719 190.904 154.14V154.14Z" fill="#4B3E35"/>
<path d="M190.445 101.029C190.445 94.1609 184.877 88.5935 178.009 88.5935H165.085C159.075 88.5935 153.925 92.8912 152.85 98.8039L145.817 137.477C144.429 145.111 150.293 152.137 158.052 152.137H185.608C196.433 152.137 202.089 139.265 194.768 131.292L193.72 130.15C191.613 127.856 190.445 124.855 190.445 121.74L190.445 101.029Z" fill="#A37556"/>
<path d="M196.107 100.732C195.264 95.4607 190.716 91.5825 185.378 91.5825C180.127 91.5825 175.628 95.3372 174.688 100.503L173.049 109.508C171.661 117.138 177.523 124.163 185.279 124.163C192.926 124.163 198.76 117.322 197.552 109.77L196.107 100.732Z" fill="#604F44"/>
<path d="M187.743 113.954C188.749 113.851 189.838 112.798 190.257 112.284C188.03 110.59 186.096 111.578 185.408 112.284C185.767 112.884 186.737 114.056 187.743 113.954Z" fill="#A2766B"/>
<path d="M187.559 99.5068C188.109 102.442 189.957 110.165 187.559 111.045M187.559 111.045C186.177 112.217 181.462 114.396 179.237 114.704M187.559 111.045C190.716 112.963 191.649 113.896 192.146 114.704" stroke="#3A2E2B" stroke-width="1.24352" stroke-linecap="round"/>
<ellipse cx="3.17097" cy="2.11398" rx="3.17097" ry="2.11398" transform="matrix(-1 0 0 1 190.901 97.4248)" fill="#3A2E2B"/>
<path d="M168.769 94.187C167.505 94.2492 164.641 94.958 163.298 97.2958" stroke="#3A2E2B" stroke-width="1.86528" stroke-linecap="round"/>
<path d="M155.664 84.5186C158.282 83.1195 160.682 87.4333 161.555 89.7652L155.664 92.8256C154.573 90.6396 153.046 85.9177 155.664 84.5186Z" fill="#A37556"/>
<path d="M169.124 123.485C164.263 120.426 153.655 118.274 149.634 117.071C144.792 127.933 139.582 150.066 157.478 151.704L184.176 152.139C186.086 146.57 185.261 141.53 182.928 137.118C179.53 130.413 173.059 125.57 169.124 123.485Z" fill="#D7C398"/>
<path d="M187.688 152.076H172.293C170.391 134.02 185.982 125.175 190.76 123.04C191.754 126.335 192.973 127.522 194.403 130.501C201.553 136.097 199.706 149.845 187.688 152.076Z" fill="#D7C398"/>
<path d="M161.01 130.752C164.939 132.195 168.326 131.353 169.528 130.752C170.821 134.085 170.067 137.364 169.528 138.586C166.693 139.78 162.668 139.084 161.01 138.586C160.015 136.796 160.595 132.389 161.01 130.752Z" fill="#3A6351"/>
<path d="M185.675 130.752C188.422 132.188 190.79 131.351 191.631 130.752C192.535 134.07 192.008 137.334 191.631 138.552C189.648 139.74 186.834 139.047 185.675 138.552C184.979 136.769 185.385 132.382 185.675 130.752Z" fill="#3A6351"/>
<g clip-path="url(#clip0_4298_10104)">
<path d="M191 101.028C191 94.16 185.364 88.5925 178.412 88.5925H165.329C159.245 88.5925 154.032 92.8902 152.944 98.8029L145.825 137.476C144.42 145.11 150.356 152.136 158.21 152.136H186.104C197.062 152.136 202.787 139.264 195.376 131.291L194.315 130.149C192.183 127.855 191 124.854 191 121.739L191 101.028Z" fill="#3A6351"/>
</g>
<path d="M151.747 126.095C150.3 128.479 151.06 131.585 153.445 133.032L160.293 137.188C162.677 138.635 165.783 137.875 167.23 135.491C168.677 133.107 167.917 130.001 165.533 128.554L158.685 124.398C156.3 122.951 153.194 123.711 151.747 126.095Z" fill="#3A6351"/>
<path d="M158.507 136.105L160.293 137.188C162.677 138.635 165.783 137.875 167.23 135.491C168.677 133.107 167.917 130.001 165.533 128.554L163.747 127.47L158.507 136.105Z" fill="#4B3E35"/>
<rect width="10.1969" height="1.24352" rx="0.62176" transform="matrix(-1 0 0 1 161.537 96.2993)" fill="#2E2A24"/>
<path d="M165.95 127.581L179.193 131.498C175.811 126.723 168.271 122.835 164.706 121.426L168.251 125.094L165.95 127.581Z" fill="#3A6351"/>
<path d="M189.457 128.247L179.193 131.496C181.815 127.536 187.996 124.209 190.758 123.04L187.674 126.185L189.457 128.247Z" fill="#3A6351"/>
<circle cx="6.2176" cy="6.2176" r="6.2176" transform="matrix(-1 0 0 1 173.846 91.0874)" fill="#D9D9D9" fill-opacity="0.42"/>
<path d="M180.617 133.358L179.125 131.555L177.509 133.358L176.7 138.581L179.125 140.695L181.674 138.581L180.617 133.358Z" fill="#3A6351"/>
<defs>
<clipPath id="clip0_4298_10104">
<rect width="52.4765" height="9.5751" fill="white" transform="matrix(-1 0 0 1 198.099 142.566)"/>
</clipPath>
</defs>
</svg>
