<svg width="337" height="1200" viewBox="0 0 337 1200" fill="none" xmlns="http://www.w3.org/2000/svg">
<path d="M54 971V1027.33V1063C54 1090.61 76.3858 1113 104 1113H175" stroke="#A47551" stroke-width="40"/>
<path d="M177.5 1120.5C178.881 1120.5 180 1119.38 180 1118C180 1116.62 178.881 1115.5 177.5 1115.5V1120.5ZM51.5 985.083C51.5 986.464 52.6193 987.583 54 987.583C55.3807 987.583 56.5 986.464 56.5 985.083H51.5ZM56.5 1013.25C56.5 1011.87 55.3807 1010.75 54 1010.75C52.6193 1010.75 51.5 1011.87 51.5 1013.25H56.5ZM51.5 1037.5C51.5 1038.88 52.6193 1040 54 1040C55.3807 1040 56.5 1038.88 56.5 1037.5H51.5ZM56.5 1057.83C56.5 1056.45 55.3807 1055.33 54 1055.33C52.6193 1055.33 51.5 1056.45 51.5 1057.83H56.5ZM52.4992 1078.24C52.7672 1079.6 54.0824 1080.48 55.4369 1080.21C56.7913 1079.94 57.6721 1078.63 57.4042 1077.27L52.4992 1078.24ZM64.4991 1094.39C63.731 1093.24 62.1783 1092.94 61.0309 1093.7C59.8836 1094.47 59.5762 1096.02 60.3443 1097.17L64.4991 1094.39ZM74.8284 1111.66C75.9757 1112.42 77.5285 1112.12 78.2966 1110.97C79.0648 1109.82 78.7573 1108.27 77.61 1107.5L74.8284 1111.66ZM94.7271 1114.6C93.3726 1114.33 92.0574 1115.21 91.7894 1116.56C91.5215 1117.92 92.4023 1119.23 93.7567 1119.5L94.7271 1114.6ZM113.187 1120.5C114.568 1120.5 115.687 1119.38 115.687 1118C115.687 1116.62 114.568 1115.5 113.187 1115.5V1120.5ZM131.562 1115.5C130.182 1115.5 129.062 1116.62 129.062 1118C129.062 1119.38 130.182 1120.5 131.562 1120.5V1115.5ZM149.937 1120.5C151.318 1120.5 152.437 1119.38 152.437 1118C152.437 1116.62 151.318 1115.5 149.937 1115.5V1120.5ZM168.312 1115.5C166.932 1115.5 165.812 1116.62 165.812 1118C165.812 1119.38 166.932 1120.5 168.312 1120.5V1115.5ZM51.5 971V985.083H56.5V971H51.5ZM51.5 1013.25V1027.33H56.5V1013.25H51.5ZM51.5 1027.33V1037.5H56.5V1027.33H51.5ZM51.5 1057.83V1068H56.5V1057.83H51.5ZM51.5 1068C51.5 1071.5 51.8434 1074.93 52.4992 1078.24L57.4042 1077.27C56.8113 1074.28 56.5 1071.18 56.5 1068H51.5ZM60.3443 1097.17C64.1765 1102.9 69.1043 1107.82 74.8284 1111.66L77.61 1107.5C72.429 1104.03 67.9678 1099.57 64.4991 1094.39L60.3443 1097.17ZM93.7567 1119.5C97.0717 1120.16 100.497 1120.5 104 1120.5V1115.5C100.824 1115.5 97.7242 1115.19 94.7271 1114.6L93.7567 1119.5ZM104 1120.5H113.187V1115.5H104V1120.5ZM131.562 1120.5H149.937V1115.5H131.562V1120.5ZM168.312 1120.5H177.5V1115.5H168.312V1120.5Z" fill="#F3EDE0"/>
<path d="M54 530V536.355C54 563.969 76.3858 586.355 104 586.355H233C260.614 586.355 283 608.741 283 636.355V677.06V761.239C283 788.853 260.614 811.239 233 811.239H104C76.3858 811.239 54 833.625 54 861.239V932" stroke="#A47551" stroke-width="40"/>
<path d="M54 530V536.355C54 563.969 76.3858 586.355 104 586.355H233C260.614 586.355 283 608.741 283 636.355V677.06V761.239C283 788.853 260.614 811.239 233 811.239H104C76.3858 811.239 54 833.625 54 861.239V932" stroke="#F3EDE0" stroke-width="5" stroke-linejoin="round" stroke-dasharray="20 20"/>
<path d="M54 100V106.355C54 133.969 76.3858 156.355 104 156.355H233C260.614 156.355 283 178.741 283 206.355V247.06V331.239C283 358.853 260.614 381.239 233 381.239H104C76.3858 381.239 54 403.625 54 431.239V502" stroke="#A47551" stroke-width="40"/>
<path d="M54 100V106.355C54 133.969 76.3858 156.355 104 156.355H233C260.614 156.355 283 178.741 283 206.355V247.06V331.239C283 358.853 260.614 381.239 233 381.239H104C76.3858 381.239 54 403.625 54 431.239V502" stroke="#F3EDE0" stroke-width="5" stroke-linejoin="round" stroke-dasharray="20 20"/>
<path d="M39.6184 155.776C43.4356 161.717 44.1346 168.072 41.1796 169.971C38.2245 171.87 32.7344 168.592 28.9172 162.651C25.0999 156.71 24.4009 150.355 27.356 148.456C30.311 146.557 35.8011 149.834 39.6184 155.776Z" fill="#A7D8A1"/>
<path d="M52.6273 155.711C48.81 161.653 48.1111 168.008 51.0661 169.907C54.0212 171.805 59.5112 168.528 63.3285 162.587C67.1458 156.646 67.8448 150.29 64.8897 148.392C61.9347 146.493 56.4446 149.77 52.6273 155.711Z" fill="#A7D8A1"/>
<path d="M52.1423 152.787C52.1423 145.725 49.2949 140 45.7824 140C42.27 140 39.4226 145.725 39.4226 152.787C39.4226 159.848 42.27 165.573 45.7824 165.573C49.2949 165.573 52.1423 159.848 52.1423 152.787Z" fill="#A7D8A1"/>
<path d="M73.5649 165.64C73.5649 169.153 61.1262 172 45.7824 172C30.4386 172 18 169.153 18 165.64C18 162.128 30.4386 159.28 45.7824 159.28C61.1262 159.28 73.5649 162.128 73.5649 165.64Z" fill="#A7D8A1"/>
<path d="M283.657 376.804C287.482 382.756 288.182 389.123 285.221 391.025C282.261 392.927 276.761 389.644 272.937 383.692C269.113 377.74 268.412 371.373 271.373 369.471C274.333 367.569 279.833 370.852 283.657 376.804Z" fill="#A7D8A1"/>
<path d="M296.69 376.74C292.866 382.692 292.165 389.059 295.126 390.961C298.086 392.863 303.586 389.58 307.41 383.628C311.235 377.676 311.935 371.309 308.974 369.407C306.014 367.505 300.514 370.788 296.69 376.74Z" fill="#A7D8A1"/>
<path d="M296.204 373.81C296.204 366.735 293.351 361 289.833 361C286.314 361 283.461 366.735 283.461 373.81C283.461 380.884 286.314 386.619 289.833 386.619C293.351 386.619 296.204 380.884 296.204 373.81Z" fill="#A7D8A1"/>
<path d="M317.665 386.687C317.665 390.205 305.204 393.058 289.833 393.058C274.461 393.058 262 390.205 262 386.687C262 383.168 274.461 380.315 289.833 380.315C305.204 380.315 317.665 383.168 317.665 386.687Z" fill="#A7D8A1"/>
<path d="M53.6188 158.364L41.8416 173.789L64.7761 177.521L82.9998 173.789L79.0327 161.722L70.6027 156.124L53.6188 158.364Z" fill="#636363"/>
<path d="M67.8754 162.095L53.7427 158.737L70.7267 156L79.1567 162.095H67.8754Z" fill="#474747"/>
<path d="M43.6199 166.745L37 175.421L49.8913 177.52L60.1347 175.421L57.9049 168.634L53.1664 165.485L43.6199 166.745Z" fill="#636363"/>
<path d="M51.6334 168.844L43.6896 166.954L53.2361 165.415L57.9745 168.844H51.6334Z" fill="#474747"/>
<path d="M277.213 378.672L290.527 396.109L264.601 400.328L244 396.109L248.485 382.469L258.014 376.141L277.213 378.672Z" fill="#636363"/>
<path d="M261.097 382.89L277.073 379.094L257.874 376L248.345 382.89H261.097Z" fill="#474747"/>
<path d="M288.517 388.146L296 397.954L281.427 400.327L269.848 397.954L272.368 390.282L277.725 386.722L288.517 388.146Z" fill="#636363"/>
<path d="M279.458 390.519L288.438 388.383L277.646 386.643L272.29 390.519H279.458Z" fill="#474747"/>
<path d="M41.6184 594.776C45.4356 600.717 46.1346 607.072 43.1796 608.971C40.2245 610.87 34.7344 607.592 30.9172 601.651C27.0999 595.71 26.4009 589.355 29.356 587.456C32.311 585.557 37.8011 588.834 41.6184 594.776Z" fill="#A7D8A1"/>
<path d="M54.6273 594.711C50.81 600.653 50.1111 607.008 53.0661 608.907C56.0212 610.805 61.5112 607.528 65.3285 601.587C69.1458 595.646 69.8448 589.29 66.8897 587.392C63.9347 585.493 58.4446 588.77 54.6273 594.711Z" fill="#A7D8A1"/>
<path d="M54.1423 591.787C54.1423 584.725 51.2949 579 47.7824 579C44.27 579 41.4226 584.725 41.4226 591.787C41.4226 598.848 44.27 604.573 47.7824 604.573C51.2949 604.573 54.1423 598.848 54.1423 591.787Z" fill="#A7D8A1"/>
<path d="M75.5649 604.64C75.5649 608.153 63.1262 611 47.7824 611C32.4386 611 20 608.153 20 604.64C20 601.128 32.4386 598.28 47.7824 598.28C63.1262 598.28 75.5649 601.128 75.5649 604.64Z" fill="#A7D8A1"/>
<path d="M282.657 815.804C286.482 821.756 287.182 828.123 284.221 830.025C281.261 831.927 275.761 828.644 271.937 822.692C268.113 816.74 267.412 810.373 270.373 808.471C273.333 806.569 278.833 809.852 282.657 815.804Z" fill="#A7D8A1"/>
<path d="M295.69 815.74C291.866 821.692 291.165 828.059 294.126 829.961C297.086 831.863 302.586 828.58 306.41 822.628C310.235 816.676 310.935 810.309 307.974 808.407C305.014 806.505 299.514 809.788 295.69 815.74Z" fill="#A7D8A1"/>
<path d="M295.204 812.81C295.204 805.735 292.351 800 288.833 800C285.314 800 282.461 805.735 282.461 812.81C282.461 819.884 285.314 825.619 288.833 825.619C292.351 825.619 295.204 819.884 295.204 812.81Z" fill="#A7D8A1"/>
<path d="M316.665 825.687C316.665 829.205 304.204 832.058 288.833 832.058C273.461 832.058 261 829.205 261 825.687C261 822.168 273.461 819.315 288.833 819.315C304.204 819.315 316.665 822.168 316.665 825.687Z" fill="#A7D8A1"/>
<path d="M53.6188 598.364L41.8416 613.789L64.7761 617.521L82.9998 613.789L79.0327 601.722L70.6027 596.124L53.6188 598.364Z" fill="#636363"/>
<path d="M67.8754 602.095L53.7427 598.737L70.7267 596L79.1567 602.095H67.8754Z" fill="#474747"/>
<path d="M43.6199 606.745L37 615.421L49.8913 617.52L60.1347 615.421L57.9049 608.634L53.1664 605.485L43.6199 606.745Z" fill="#636363"/>
<path d="M51.6334 608.844L43.6896 606.954L53.2361 605.415L57.9745 608.844H51.6334Z" fill="#474747"/>
<path d="M277.213 818.672L290.527 836.109L264.601 840.328L244 836.109L248.485 822.469L258.014 816.141L277.213 818.672Z" fill="#636363"/>
<path d="M261.097 822.89L277.073 819.094L257.874 816L248.345 822.89H261.097Z" fill="#474747"/>
<path d="M288.517 828.146L296 837.954L281.427 840.327L269.848 837.954L272.368 830.282L277.725 826.722L288.517 828.146Z" fill="#636363"/>
<path d="M279.458 830.519L288.438 828.383L277.646 826.643L272.29 830.519H279.458Z" fill="#474747"/>
<ellipse cx="198.5" cy="1115" rx="93.5" ry="26" fill="#D7C398"/>
<ellipse cx="238.5" cy="1092" rx="51.5" ry="14" fill="#D7C398"/>
<path d="M194.726 1021.35C191.387 1019.56 188.326 1025.07 187.213 1028.04L194.726 1031.94C196.118 1029.15 198.065 1023.13 194.726 1021.35Z" fill="#A37556"/>
<path d="M176.681 1081.69C178.526 1078.65 177.557 1074.69 174.516 1072.85L165.783 1067.55C162.742 1065.7 158.781 1066.67 156.936 1069.71C155.09 1072.75 156.06 1076.71 159.1 1078.56L167.834 1083.86C170.874 1085.7 174.835 1084.73 176.681 1081.69Z" fill="#846047"/>
<path d="M168.128 1068.93L165.851 1067.55C162.81 1065.7 158.849 1066.67 157.004 1069.71C155.159 1072.75 156.128 1076.71 159.168 1078.56L161.445 1079.94L168.128 1068.93Z" fill="#4B3E35"/>
<rect x="203.074" y="1106.16" width="16.4931" height="9.19805" rx="4.59903" fill="#846047"/>
<path d="M203.074 1111.71H219.567V1111.71C219.567 1113.73 217.934 1115.36 215.919 1115.36H206.721C204.707 1115.36 203.074 1113.73 203.074 1111.71V1111.71Z" fill="#4B3E35"/>
<rect x="171.357" y="1106.16" width="16.4931" height="9.19805" rx="4.59903" fill="#846047"/>
<path d="M171.358 1111.71H187.851V1111.71C187.851 1113.73 186.218 1115.36 184.203 1115.36H175.005C172.991 1115.36 171.358 1113.73 171.358 1111.71V1111.71Z" fill="#4B3E35"/>
<path d="M171.941 1044C171.941 1035.24 179.041 1028.14 187.799 1028.14H204.282C211.946 1028.14 218.514 1033.62 219.885 1041.16L228.854 1090.48C230.624 1100.21 223.146 1109.17 213.251 1109.17H178.108C164.303 1109.17 157.09 1092.76 166.427 1082.59L167.763 1081.13C170.45 1078.21 171.941 1074.38 171.941 1070.41L171.941 1044Z" fill="#A37556"/>
<path d="M164.716 1043.61C165.791 1036.89 171.591 1031.94 178.399 1031.94C185.095 1031.94 190.833 1036.73 192.032 1043.32L194.121 1054.8C195.892 1064.53 188.416 1073.49 178.525 1073.49C168.772 1073.49 161.332 1064.77 162.872 1055.14L164.716 1043.61Z" fill="#604F44"/>
<path d="M175.544 1060.64C174.261 1060.51 172.872 1059.17 172.337 1058.51C175.178 1056.35 177.644 1057.61 178.522 1058.51C178.064 1059.27 176.827 1060.77 175.544 1060.64Z" fill="#A2766B"/>
<path d="M175.619 1042.06C174.918 1045.8 172.561 1055.65 175.619 1056.77M175.619 1056.77C177.381 1058.27 183.395 1061.05 186.232 1061.44M175.619 1056.77C171.593 1059.22 170.404 1060.41 169.769 1061.44" stroke="#3A2E2B" stroke-width="0.947355" stroke-linecap="round"/>
<ellipse cx="175.398" cy="1042.09" rx="4.04398" ry="2.69598" fill="#3A2E2B"/>
<path d="M199.585 1035.27C201.198 1035.35 204.85 1036.26 206.563 1039.24" stroke="#3A2E2B" stroke-width="1.42103" stroke-linecap="round"/>
<path d="M220.54 1083.05C217.422 1081.34 216.281 1077.43 217.991 1074.31L222.905 1065.35C224.615 1062.23 228.53 1061.09 231.649 1062.8C234.767 1064.51 235.908 1068.43 234.198 1071.55L229.285 1080.5C227.574 1083.62 223.659 1084.76 220.54 1083.05Z" fill="#846047"/>
<path d="M221.624 1067.69L222.905 1065.35C224.615 1062.23 228.53 1061.09 231.649 1062.8C234.767 1064.51 235.908 1068.43 234.198 1071.55L232.917 1073.88L221.624 1067.69Z" fill="#4B3E35"/>
<path d="M216.296 1022.93C212.957 1021.15 209.896 1026.65 208.783 1029.63L216.296 1033.53C217.688 1030.74 219.636 1024.72 216.296 1022.93Z" fill="#A37556"/>
<path d="M272.658 1121.8C276.482 1127.76 277.182 1134.12 274.222 1136.03C271.261 1137.93 265.761 1134.64 261.937 1128.69C258.113 1122.74 257.413 1116.37 260.373 1114.47C263.334 1112.57 268.834 1115.85 272.658 1121.8Z" fill="#A7D8A1"/>
<path d="M285.69 1121.74C281.866 1127.69 281.166 1134.06 284.126 1135.96C287.087 1137.86 292.587 1134.58 296.411 1128.63C300.235 1122.68 300.935 1116.31 297.975 1114.41C295.014 1112.5 289.514 1115.79 285.69 1121.74Z" fill="#A7D8A1"/>
<path d="M285.204 1118.81C285.204 1111.74 282.352 1106 278.833 1106C275.314 1106 272.462 1111.74 272.462 1118.81C272.462 1125.88 275.314 1131.62 278.833 1131.62C282.352 1131.62 285.204 1125.88 285.204 1118.81Z" fill="#A7D8A1"/>
<path d="M306.666 1131.69C306.666 1135.21 294.204 1138.06 278.833 1138.06C263.461 1138.06 251 1135.21 251 1131.69C251 1128.17 263.461 1125.32 278.833 1125.32C294.204 1125.32 306.666 1128.17 306.666 1131.69Z" fill="#A7D8A1"/>
<path d="M267.214 1124.67L280.527 1142.11L254.601 1146.33L234 1142.11L238.485 1128.47L248.014 1122.14L267.214 1124.67Z" fill="#636363"/>
<path d="M251.098 1128.89L267.074 1125.09L247.874 1122L238.345 1128.89H251.098Z" fill="#474747"/>
<path d="M278.517 1134.15L286 1143.95L271.427 1146.33L259.848 1143.95L262.369 1136.28L267.725 1132.72L278.517 1134.15Z" fill="#636363"/>
<path d="M269.458 1136.52L278.438 1134.38L267.646 1132.64L262.29 1136.52H269.458Z" fill="#474747"/>
<path d="M111.008 1087.8C107.184 1093.76 106.483 1100.12 109.444 1102.03C112.404 1103.93 117.904 1100.64 121.728 1094.69C125.553 1088.74 126.253 1082.37 123.292 1080.47C120.332 1078.57 114.832 1081.85 111.008 1087.8Z" fill="#A7D8A1"/>
<path d="M97.9754 1087.74C101.8 1093.69 102.5 1100.06 99.5394 1101.96C96.579 1103.86 91.079 1100.58 87.2548 1094.63C83.4307 1088.68 82.7304 1082.31 85.6908 1080.41C88.6512 1078.5 94.1512 1081.79 97.9754 1087.74Z" fill="#A7D8A1"/>
<path d="M98.4613 1084.81C98.4613 1077.74 101.314 1072 104.833 1072C108.351 1072 111.204 1077.74 111.204 1084.81C111.204 1091.88 108.351 1097.62 104.833 1097.62C101.314 1097.62 98.4613 1091.88 98.4613 1084.81Z" fill="#A7D8A1"/>
<path d="M77 1097.69C77 1101.21 89.4611 1104.06 104.833 1104.06C120.204 1104.06 132.665 1101.21 132.665 1097.69C132.665 1094.17 120.204 1091.32 104.833 1091.32C89.4611 1091.32 77 1094.17 77 1097.69Z" fill="#A7D8A1"/>
<path d="M116.452 1090.67L103.138 1108.11L129.064 1112.33L149.665 1108.11L145.181 1094.47L135.651 1088.14L116.452 1090.67Z" fill="#636363"/>
<path d="M132.568 1094.89L116.592 1091.09L135.791 1088L145.321 1094.89H132.568Z" fill="#474747"/>
<path d="M105.149 1100.15L97.6653 1109.95L112.238 1112.33L123.818 1109.95L121.297 1102.28L115.94 1098.72L105.149 1100.15Z" fill="#636363"/>
<path d="M114.207 1102.52L105.227 1100.38L116.019 1098.64L121.376 1102.52H114.207Z" fill="#474747"/>
</svg>
