<svg width="283" height="89" viewBox="0 0 283 89" fill="none" xmlns="http://www.w3.org/2000/svg">
<rect width="282" height="46" rx="15" transform="matrix(1 0 0 -1 0.5 46)" fill="#F6AC31"/>
<path d="M15.7127 31.333C14.4809 31.333 13.4067 31.1504 12.49 30.7852C11.5805 30.4199 10.8644 29.8971 10.3416 29.2168C9.82594 28.5365 9.5359 27.7308 9.47145 26.7998L9.46071 26.6279H12.5545L12.5759 26.7354C12.6332 27.1292 12.8015 27.473 13.0808 27.7666C13.3673 28.0602 13.7397 28.2894 14.198 28.4541C14.6635 28.6117 15.1935 28.6904 15.7879 28.6904C16.3823 28.6904 16.8979 28.6081 17.3347 28.4434C17.7716 28.2715 18.1082 28.0352 18.3445 27.7344C18.588 27.4336 18.7097 27.0863 18.7097 26.6924V26.6816C18.7097 26.166 18.502 25.7578 18.0867 25.457C17.6785 25.1562 16.9946 24.9056 16.0349 24.7051L14.3914 24.3828C12.8302 24.0605 11.67 23.5306 10.9109 22.793C10.159 22.0482 9.78297 21.0921 9.78297 19.9248V19.9141C9.79014 18.9616 10.0444 18.1309 10.5457 17.4219C11.0541 16.7129 11.7524 16.1615 12.6404 15.7676C13.5356 15.3665 14.5525 15.166 15.6912 15.166C16.8943 15.166 17.9291 15.3594 18.7957 15.7461C19.6622 16.1257 20.339 16.6556 20.8259 17.3359C21.3129 18.0091 21.5851 18.7897 21.6423 19.6777L21.6531 19.8496H18.6023L18.5808 19.7207C18.5235 19.3268 18.3696 18.9902 18.1189 18.7109C17.8683 18.4245 17.5353 18.2025 17.1199 18.0449C16.7117 17.8874 16.2354 17.8086 15.6912 17.8086C15.1541 17.8086 14.685 17.8874 14.284 18.0449C13.8829 18.2025 13.5714 18.4245 13.3494 18.7109C13.1345 18.9902 13.0271 19.3197 13.0271 19.6992V19.71C13.0271 20.2041 13.2312 20.6051 13.6394 20.9131C14.0548 21.221 14.7136 21.4645 15.616 21.6436L17.2488 21.9766C18.3445 22.1986 19.2361 22.4993 19.9236 22.8789C20.6183 23.2585 21.1303 23.7347 21.4597 24.3076C21.7892 24.8805 21.9539 25.5716 21.9539 26.3809V26.3916C21.9539 27.4014 21.7032 28.2751 21.2019 29.0127C20.7078 29.7503 19.9916 30.3232 19.0535 30.7314C18.1225 31.1325 17.0089 31.333 15.7127 31.333ZM29.1275 31.2471C27.9458 31.2471 26.9253 31.0036 26.0659 30.5166C25.2137 30.0225 24.5585 29.3242 24.1001 28.4219C23.6418 27.5124 23.4126 26.4346 23.4126 25.1885V25.1777C23.4126 23.9388 23.6418 22.8646 24.1001 21.9551C24.5585 21.0456 25.2066 20.3438 26.0445 19.8496C26.8823 19.3483 27.867 19.0977 28.9986 19.0977C30.1372 19.0977 31.1184 19.3411 31.9419 19.8281C32.7726 20.3079 33.4136 20.9883 33.8648 21.8691C34.3159 22.7428 34.5415 23.7669 34.5415 24.9414V25.9189H24.9595V23.9424H33.0484L31.5659 25.8008V24.5654C31.5659 23.8779 31.4585 23.3014 31.2437 22.8359C31.036 22.3704 30.7424 22.0231 30.3628 21.7939C29.9904 21.5576 29.5536 21.4395 29.0523 21.4395C28.5581 21.4395 28.1177 21.5612 27.731 21.8047C27.3514 22.041 27.0506 22.3955 26.8286 22.8682C26.6138 23.3337 26.5064 23.8994 26.5064 24.5654V25.8115C26.5064 26.4561 26.6138 27.0111 26.8286 27.4766C27.0506 27.9349 27.3622 28.2858 27.7632 28.5293C28.1643 28.7728 28.6405 28.8945 29.1919 28.8945C29.6359 28.8945 30.0155 28.8301 30.3306 28.7012C30.6529 28.5651 30.9107 28.4004 31.104 28.207C31.3045 28.0065 31.4406 27.8132 31.5122 27.627L31.5445 27.5625H34.4448L34.4126 27.6807C34.3267 28.0817 34.1584 28.4899 33.9077 28.9053C33.6643 29.3206 33.3277 29.7074 32.898 30.0654C32.4754 30.4163 31.9527 30.7028 31.3296 30.9248C30.7066 31.1396 29.9725 31.2471 29.1275 31.2471ZM36.4407 31V15.1016H39.5774V31H36.4407ZM45.3008 31.1826C44.5417 31.1826 43.8721 31.0358 43.292 30.7422C42.712 30.4486 42.2572 30.0368 41.9278 29.5068C41.5984 28.9769 41.4336 28.3646 41.4336 27.6699V27.6484C41.4336 26.9466 41.6091 26.3451 41.96 25.8438C42.3181 25.3424 42.8337 24.9486 43.5069 24.6621C44.1801 24.3685 45 24.193 45.9668 24.1357L50.4141 23.8564V25.79L46.4395 26.0479C45.8021 26.0837 45.3223 26.2269 45 26.4775C44.6778 26.7282 44.5166 27.0612 44.5166 27.4766V27.498C44.5166 27.9349 44.6849 28.2786 45.0215 28.5293C45.3581 28.7728 45.795 28.8945 46.3321 28.8945C46.8119 28.8945 47.238 28.8014 47.6104 28.6152C47.9828 28.429 48.2764 28.1748 48.4913 27.8525C48.7133 27.5231 48.8243 27.1543 48.8243 26.7461V23.126C48.8243 22.6104 48.656 22.2093 48.3194 21.9229C47.99 21.6364 47.5101 21.4932 46.8799 21.4932C46.307 21.4932 45.8451 21.6042 45.4942 21.8262C45.1433 22.041 44.9177 22.3311 44.8174 22.6963L44.7959 22.7607H41.917L41.9278 22.6533C41.9994 21.9443 42.2465 21.3249 42.669 20.7949C43.0987 20.265 43.6823 19.8496 44.42 19.5488C45.1576 19.248 46.0277 19.0977 47.0303 19.0977C48.0472 19.0977 48.9209 19.2588 49.6514 19.5811C50.389 19.8962 50.9548 20.3473 51.3487 20.9346C51.7426 21.5218 51.9395 22.2165 51.9395 23.0186V31H48.8243V29.3564H48.6954C48.4877 29.736 48.2155 30.0618 47.879 30.334C47.5424 30.6061 47.1556 30.8174 46.7188 30.9678C46.2819 31.111 45.8093 31.1826 45.3008 31.1826ZM54.1932 31V19.334H57.3299V21.2354H57.4588C57.6951 20.5693 58.0997 20.0465 58.6727 19.667C59.2527 19.2874 59.9295 19.0977 60.7029 19.0977C61.24 19.0977 61.7234 19.1872 62.1531 19.3662C62.59 19.5452 62.9588 19.8066 63.2596 20.1504C63.5604 20.487 63.7824 20.8952 63.9256 21.375H64.0545C64.2264 20.9095 64.4842 20.5085 64.8279 20.1719C65.1788 19.8281 65.5906 19.5632 66.0633 19.377C66.5431 19.1908 67.0623 19.0977 67.6209 19.0977C68.3943 19.0977 69.0639 19.2588 69.6297 19.5811C70.1954 19.9033 70.6359 20.3581 70.951 20.9453C71.2661 21.5254 71.4236 22.2129 71.4236 23.0078V31H68.2869V23.8027C68.2869 23.3372 68.2117 22.9505 68.0613 22.6426C67.9181 22.3275 67.7033 22.0911 67.4168 21.9336C67.1375 21.776 66.7866 21.6973 66.3641 21.6973C65.9559 21.6973 65.5978 21.7904 65.2898 21.9766C64.9891 22.1556 64.7563 22.4098 64.5916 22.7393C64.4269 23.0687 64.3445 23.4482 64.3445 23.8779V31H61.2615V23.6738C61.2615 23.2585 61.1863 22.904 61.0359 22.6104C60.8856 22.3096 60.6671 22.084 60.3807 21.9336C60.1014 21.776 59.7612 21.6973 59.3602 21.6973C58.9663 21.6973 58.6154 21.7939 58.3074 21.9873C57.9995 22.1807 57.7596 22.4492 57.5877 22.793C57.4158 23.1296 57.3299 23.5199 57.3299 23.9639V31H54.1932ZM76.9859 31.1826C76.2268 31.1826 75.5572 31.0358 74.9771 30.7422C74.397 30.4486 73.9423 30.0368 73.6129 29.5068C73.2834 28.9769 73.1187 28.3646 73.1187 27.6699V27.6484C73.1187 26.9466 73.2942 26.3451 73.6451 25.8438C74.0032 25.3424 74.5188 24.9486 75.192 24.6621C75.8651 24.3685 76.6851 24.193 77.6519 24.1357L82.0992 23.8564V25.79L78.1246 26.0479C77.4872 26.0837 77.0074 26.2269 76.6851 26.4775C76.3629 26.7282 76.2017 27.0612 76.2017 27.4766V27.498C76.2017 27.9349 76.37 28.2786 76.7066 28.5293C77.0432 28.7728 77.48 28.8945 78.0172 28.8945C78.497 28.8945 78.9231 28.8014 79.2955 28.6152C79.6679 28.429 79.9615 28.1748 80.1763 27.8525C80.3983 27.5231 80.5093 27.1543 80.5093 26.7461V23.126C80.5093 22.6104 80.341 22.2093 80.0045 21.9229C79.675 21.6364 79.1952 21.4932 78.565 21.4932C77.9921 21.4932 77.5302 21.6042 77.1793 21.8262C76.8284 22.041 76.6028 22.3311 76.5025 22.6963L76.481 22.7607H73.6021L73.6129 22.6533C73.6845 21.9443 73.9315 21.3249 74.3541 20.7949C74.7838 20.265 75.3674 19.8496 76.105 19.5488C76.8427 19.248 77.7128 19.0977 78.7154 19.0977C79.7323 19.0977 80.606 19.2588 81.3365 19.5811C82.0741 19.8962 82.6399 20.3473 83.0338 20.9346C83.4276 21.5218 83.6246 22.2165 83.6246 23.0186V31H80.5093V29.3564H80.3804C80.1728 29.736 79.9006 30.0618 79.564 30.334C79.2274 30.6061 78.8407 30.8174 78.4039 30.9678C77.967 31.111 77.4944 31.1826 76.9859 31.1826ZM90.6156 31.1396C89.262 31.1396 88.2738 30.8818 87.6507 30.3662C87.0277 29.8434 86.7161 28.9876 86.7161 27.7988V21.6973H85.0189V19.334H86.7161V16.5195H89.8851V19.334H92.1517V21.6973H89.8851V27.2725C89.8851 27.8096 90.0033 28.1927 90.2396 28.4219C90.4831 28.6439 90.8555 28.7549 91.3568 28.7549C91.5286 28.7549 91.6719 28.7513 91.7865 28.7441C91.9082 28.7298 92.0299 28.7191 92.1517 28.7119V31.0215C91.9655 31.0501 91.7399 31.0752 91.4749 31.0967C91.2171 31.1253 90.9307 31.1396 90.6156 31.1396ZM103.008 31.2148C102.034 31.2148 101.192 30.9714 100.483 30.4844C99.7743 29.9974 99.2264 29.3027 98.8397 28.4004C98.4601 27.498 98.2704 26.4238 98.2704 25.1777V25.1562C98.2704 23.8958 98.4601 22.818 98.8397 21.9229C99.2192 21.0205 99.7635 20.3294 100.473 19.8496C101.181 19.3626 102.027 19.1191 103.008 19.1191C103.552 19.1191 104.053 19.2087 104.512 19.3877C104.97 19.5596 105.371 19.8066 105.715 20.1289C106.066 20.4512 106.345 20.8379 106.553 21.2891H106.671V15.1016H109.807V31H106.671V29.0986H106.553C106.345 29.5426 106.069 29.9222 105.725 30.2373C105.389 30.5452 104.991 30.7852 104.533 30.957C104.075 31.1289 103.566 31.2148 103.008 31.2148ZM104.06 28.6152C104.598 28.6152 105.063 28.4756 105.457 28.1963C105.851 27.917 106.155 27.5231 106.37 27.0146C106.585 26.499 106.692 25.8867 106.692 25.1777V25.167C106.692 24.458 106.581 23.8457 106.359 23.3301C106.144 22.8145 105.84 22.417 105.446 22.1377C105.052 21.8584 104.59 21.7188 104.06 21.7188C103.53 21.7188 103.069 21.8584 102.675 22.1377C102.288 22.417 101.987 22.8145 101.772 23.3301C101.565 23.8385 101.461 24.4473 101.461 25.1562V25.1777C101.461 25.8867 101.565 26.499 101.772 27.0146C101.98 27.5303 102.281 27.9277 102.675 28.207C103.069 28.4792 103.53 28.6152 104.06 28.6152ZM115.52 31.1826C114.761 31.1826 114.091 31.0358 113.511 30.7422C112.931 30.4486 112.477 30.0368 112.147 29.5068C111.818 28.9769 111.653 28.3646 111.653 27.6699V27.6484C111.653 26.9466 111.828 26.3451 112.179 25.8438C112.537 25.3424 113.053 24.9486 113.726 24.6621C114.399 24.3685 115.219 24.193 116.186 24.1357L120.633 23.8564V25.79L116.659 26.0479C116.021 26.0837 115.542 26.2269 115.219 26.4775C114.897 26.7282 114.736 27.0612 114.736 27.4766V27.498C114.736 27.9349 114.904 28.2786 115.241 28.5293C115.577 28.7728 116.014 28.8945 116.551 28.8945C117.031 28.8945 117.457 28.8014 117.83 28.6152C118.202 28.429 118.496 28.1748 118.711 27.8525C118.933 27.5231 119.044 27.1543 119.044 26.7461V23.126C119.044 22.6104 118.875 22.2093 118.539 21.9229C118.209 21.6364 117.729 21.4932 117.099 21.4932C116.526 21.4932 116.064 21.6042 115.713 21.8262C115.363 22.041 115.137 22.3311 115.037 22.6963L115.015 22.7607H112.136L112.147 22.6533C112.219 21.9443 112.466 21.3249 112.888 20.7949C113.318 20.265 113.902 19.8496 114.639 19.5488C115.377 19.248 116.247 19.0977 117.25 19.0977C118.267 19.0977 119.14 19.2588 119.871 19.5811C120.608 19.8962 121.174 20.3473 121.568 20.9346C121.962 21.5218 122.159 22.2165 122.159 23.0186V31H119.044V29.3564H118.915C118.707 29.736 118.435 30.0618 118.098 30.334C117.762 30.6061 117.375 30.8174 116.938 30.9678C116.501 31.111 116.029 31.1826 115.52 31.1826ZM129.15 31.1396C127.796 31.1396 126.808 30.8818 126.185 30.3662C125.562 29.8434 125.25 28.9876 125.25 27.7988V21.6973H123.553V19.334H125.25V16.5195H128.419V19.334H130.686V21.6973H128.419V27.2725C128.419 27.8096 128.537 28.1927 128.774 28.4219C129.017 28.6439 129.39 28.7549 129.891 28.7549C130.063 28.7549 130.206 28.7513 130.321 28.7441C130.442 28.7298 130.564 28.7191 130.686 28.7119V31.0215C130.5 31.0501 130.274 31.0752 130.009 31.0967C129.751 31.1253 129.465 31.1396 129.15 31.1396ZM135.84 31.1826C135.081 31.1826 134.411 31.0358 133.831 30.7422C133.251 30.4486 132.796 30.0368 132.467 29.5068C132.137 28.9769 131.973 28.3646 131.973 27.6699V27.6484C131.973 26.9466 132.148 26.3451 132.499 25.8438C132.857 25.3424 133.373 24.9486 134.046 24.6621C134.719 24.3685 135.539 24.193 136.506 24.1357L140.953 23.8564V25.79L136.979 26.0479C136.341 26.0837 135.861 26.2269 135.539 26.4775C135.217 26.7282 135.056 27.0612 135.056 27.4766V27.498C135.056 27.9349 135.224 28.2786 135.561 28.5293C135.897 28.7728 136.334 28.8945 136.871 28.8945C137.351 28.8945 137.777 28.8014 138.15 28.6152C138.522 28.429 138.816 28.1748 139.03 27.8525C139.252 27.5231 139.363 27.1543 139.363 26.7461V23.126C139.363 22.6104 139.195 22.2093 138.859 21.9229C138.529 21.6364 138.049 21.4932 137.419 21.4932C136.846 21.4932 136.384 21.6042 136.033 21.8262C135.682 22.041 135.457 22.3311 135.357 22.6963L135.335 22.7607H132.456L132.467 22.6533C132.539 21.9443 132.786 21.3249 133.208 20.7949C133.638 20.265 134.221 19.8496 134.959 19.5488C135.697 19.248 136.567 19.0977 137.569 19.0977C138.586 19.0977 139.46 19.2588 140.191 19.5811C140.928 19.8962 141.494 20.3473 141.888 20.9346C142.282 21.5218 142.479 22.2165 142.479 23.0186V31H139.363V29.3564H139.234C139.027 29.736 138.755 30.0618 138.418 30.334C138.082 30.6061 137.695 30.8174 137.258 30.9678C136.821 31.111 136.348 31.1826 135.84 31.1826ZM144.732 31V19.334H147.869V21.2031H147.998C148.284 20.5514 148.718 20.0394 149.298 19.667C149.878 19.2874 150.598 19.0977 151.457 19.0977C152.746 19.0977 153.734 19.4808 154.422 20.2471C155.109 21.0133 155.453 22.0876 155.453 23.4697V31H152.316V24.1465C152.316 23.3516 152.141 22.7464 151.79 22.3311C151.439 21.9085 150.902 21.6973 150.179 21.6973C149.706 21.6973 149.298 21.8047 148.954 22.0195C148.61 22.2344 148.342 22.5352 148.148 22.9219C147.962 23.3086 147.869 23.7598 147.869 24.2754V31H144.732ZM162.992 35.0713C161.918 35.0713 160.99 34.9281 160.21 34.6416C159.429 34.3551 158.81 33.9613 158.351 33.46C157.9 32.9587 157.628 32.3893 157.535 31.752V31.666H160.607L160.629 31.7305C160.736 32.0384 160.994 32.2998 161.402 32.5146C161.81 32.7295 162.351 32.8369 163.024 32.8369C163.848 32.8369 164.478 32.6471 164.915 32.2676C165.359 31.888 165.581 31.3652 165.581 30.6992V28.7227H165.463C165.255 29.138 164.976 29.4925 164.625 29.7861C164.281 30.0726 163.88 30.291 163.422 30.4414C162.963 30.5918 162.458 30.667 161.907 30.667C160.933 30.667 160.091 30.4342 159.382 29.9688C158.673 29.5033 158.126 28.8444 157.739 27.9922C157.359 27.14 157.17 26.1374 157.17 24.9844V24.9629C157.17 23.7669 157.363 22.7357 157.75 21.8691C158.136 20.9954 158.688 20.3187 159.404 19.8389C160.12 19.359 160.972 19.1191 161.961 19.1191C162.505 19.1191 163.003 19.2087 163.454 19.3877C163.905 19.5667 164.302 19.8174 164.646 20.1396C164.99 20.4619 165.266 20.8451 165.473 21.2891H165.581V19.334H168.717V30.6562C168.717 31.5443 168.485 32.3177 168.019 32.9766C167.554 33.6426 166.891 34.1582 166.032 34.5234C165.173 34.8887 164.159 35.0713 162.992 35.0713ZM162.981 28.3252C163.518 28.3252 163.98 28.1891 164.367 27.917C164.761 27.6377 165.065 27.251 165.28 26.7568C165.495 26.2627 165.602 25.6826 165.602 25.0166V24.9951C165.602 24.3291 165.495 23.749 165.28 23.2549C165.065 22.7607 164.761 22.3776 164.367 22.1055C163.98 21.8333 163.518 21.6973 162.981 21.6973C162.444 21.6973 161.978 21.8333 161.585 22.1055C161.198 22.3776 160.897 22.7607 160.682 23.2549C160.475 23.7419 160.371 24.3219 160.371 24.9951V25.0059C160.371 25.679 160.475 26.2663 160.682 26.7676C160.897 27.2617 161.198 27.6449 161.585 27.917C161.978 28.1891 162.444 28.3252 162.981 28.3252ZM179.992 31.2148C179.018 31.2148 178.177 30.9714 177.468 30.4844C176.759 29.9974 176.211 29.3027 175.824 28.4004C175.445 27.498 175.255 26.4238 175.255 25.1777V25.1562C175.255 23.8958 175.445 22.818 175.824 21.9229C176.204 21.0205 176.748 20.3294 177.457 19.8496C178.166 19.3626 179.011 19.1191 179.992 19.1191C180.537 19.1191 181.038 19.2087 181.496 19.3877C181.955 19.5596 182.356 19.8066 182.699 20.1289C183.05 20.4512 183.33 20.8379 183.537 21.2891H183.655V15.1016H186.792V31H183.655V29.0986H183.537C183.33 29.5426 183.054 29.9222 182.71 30.2373C182.374 30.5452 181.976 30.7852 181.518 30.957C181.059 31.1289 180.551 31.2148 179.992 31.2148ZM181.045 28.6152C181.582 28.6152 182.048 28.4756 182.442 28.1963C182.835 27.917 183.14 27.5231 183.355 27.0146C183.57 26.499 183.677 25.8867 183.677 25.1777V25.167C183.677 24.458 183.566 23.8457 183.344 23.3301C183.129 22.8145 182.825 22.417 182.431 22.1377C182.037 21.8584 181.575 21.7188 181.045 21.7188C180.515 21.7188 180.053 21.8584 179.659 22.1377C179.273 22.417 178.972 22.8145 178.757 23.3301C178.549 23.8385 178.445 24.4473 178.445 25.1562V25.1777C178.445 25.8867 178.549 26.499 178.757 27.0146C178.965 27.5303 179.265 27.9277 179.659 28.207C180.053 28.4792 180.515 28.6152 181.045 28.6152ZM189.218 31V19.334H192.354V31H189.218ZM190.786 17.7012C190.313 17.7012 189.909 17.5365 189.572 17.207C189.236 16.8776 189.067 16.4801 189.067 16.0146C189.067 15.5492 189.236 15.1517 189.572 14.8223C189.909 14.4928 190.313 14.3281 190.786 14.3281C191.266 14.3281 191.67 14.4928 192 14.8223C192.337 15.1517 192.505 15.5492 192.505 16.0146C192.505 16.4801 192.337 16.8776 192 17.207C191.67 17.5365 191.266 17.7012 190.786 17.7012ZM203.833 31L198.656 15.499H202.276L205.756 27.541H205.885L209.366 15.499H212.986L207.808 31H203.833ZM218.408 31.2471C217.227 31.2471 216.203 31.0036 215.336 30.5166C214.477 30.0296 213.814 29.335 213.349 28.4326C212.883 27.5231 212.651 26.4382 212.651 25.1777V25.1562C212.651 23.903 212.887 22.8252 213.36 21.9229C213.832 21.0133 214.498 20.3151 215.358 19.8281C216.217 19.3411 217.234 19.0977 218.408 19.0977C219.583 19.0977 220.6 19.3411 221.459 19.8281C222.326 20.3079 222.995 21.0026 223.468 21.9121C223.941 22.8145 224.177 23.8958 224.177 25.1562V25.1777C224.177 26.4453 223.944 27.5339 223.479 28.4434C223.013 29.3457 222.347 30.0404 221.481 30.5273C220.621 31.0072 219.597 31.2471 218.408 31.2471ZM218.419 28.7871C218.949 28.7871 219.404 28.6439 219.783 28.3574C220.17 28.071 220.464 27.6592 220.664 27.1221C220.872 26.585 220.976 25.9368 220.976 25.1777V25.1562C220.976 24.3971 220.872 23.749 220.664 23.2119C220.457 22.6748 220.159 22.2666 219.773 21.9873C219.393 21.7008 218.938 21.5576 218.408 21.5576C217.886 21.5576 217.431 21.7008 217.044 21.9873C216.657 22.2666 216.36 22.6748 216.153 23.2119C215.945 23.749 215.841 24.3971 215.841 25.1562V25.1777C215.841 25.9368 215.945 26.5885 216.153 27.1328C216.36 27.6699 216.654 28.0817 217.033 28.3682C217.42 28.6475 217.882 28.7871 218.419 28.7871ZM231.2 31.2471C230.004 31.2471 228.977 31.0036 228.117 30.5166C227.265 30.0296 226.61 29.3314 226.151 28.4219C225.7 27.5124 225.475 26.4238 225.475 25.1562V25.1348C225.475 23.8743 225.7 22.793 226.151 21.8906C226.61 20.9883 227.265 20.2972 228.117 19.8174C228.977 19.3376 230.001 19.0977 231.189 19.0977C232.235 19.0977 233.137 19.2839 233.896 19.6562C234.656 20.0286 235.254 20.5443 235.69 21.2031C236.127 21.862 236.378 22.6211 236.442 23.4805V23.5342H233.531L233.51 23.4697C233.417 22.9111 233.177 22.4528 232.79 22.0947C232.403 21.7367 231.881 21.5576 231.222 21.5576C230.685 21.5576 230.223 21.7008 229.836 21.9873C229.456 22.2666 229.166 22.6748 228.966 23.2119C228.765 23.7419 228.665 24.3864 228.665 25.1455V25.167C228.665 25.9404 228.765 26.5957 228.966 27.1328C229.173 27.6699 229.467 28.0817 229.847 28.3682C230.226 28.6475 230.685 28.7871 231.222 28.7871C231.859 28.7871 232.367 28.6224 232.747 28.293C233.134 27.9635 233.388 27.5016 233.51 26.9072L233.531 26.8428H236.442V26.9072C236.364 27.7523 236.102 28.5007 235.658 29.1523C235.221 29.804 234.627 30.3161 233.875 30.6885C233.123 31.0609 232.231 31.2471 231.2 31.2471ZM241.478 31.1826C240.719 31.1826 240.05 31.0358 239.469 30.7422C238.889 30.4486 238.435 30.0368 238.105 29.5068C237.776 28.9769 237.611 28.3646 237.611 27.6699V27.6484C237.611 26.9466 237.787 26.3451 238.137 25.8438C238.495 25.3424 239.011 24.9486 239.684 24.6621C240.357 24.3685 241.177 24.193 242.144 24.1357L246.592 23.8564V25.79L242.617 26.0479C241.98 26.0837 241.5 26.2269 241.177 26.4775C240.855 26.7282 240.694 27.0612 240.694 27.4766V27.498C240.694 27.9349 240.862 28.2786 241.199 28.5293C241.536 28.7728 241.972 28.8945 242.509 28.8945C242.989 28.8945 243.415 28.8014 243.788 28.6152C244.16 28.429 244.454 28.1748 244.669 27.8525C244.891 27.5231 245.002 27.1543 245.002 26.7461V23.126C245.002 22.6104 244.833 22.2093 244.497 21.9229C244.167 21.6364 243.688 21.4932 243.057 21.4932C242.484 21.4932 242.023 21.6042 241.672 21.8262C241.321 22.041 241.095 22.3311 240.995 22.6963L240.973 22.7607H238.094L238.105 22.6533C238.177 21.9443 238.424 21.3249 238.846 20.7949C239.276 20.265 239.86 19.8496 240.597 19.5488C241.335 19.248 242.205 19.0977 243.208 19.0977C244.225 19.0977 245.098 19.2588 245.829 19.5811C246.566 19.8962 247.132 20.3473 247.526 20.9346C247.92 21.5218 248.117 22.2165 248.117 23.0186V31H245.002V29.3564H244.873C244.665 29.736 244.393 30.0618 244.056 30.334C243.72 30.6061 243.333 30.8174 242.896 30.9678C242.459 31.111 241.987 31.1826 241.478 31.1826ZM250.371 34.835V19.334H253.507V21.2676H253.636C253.844 20.8164 254.116 20.4333 254.453 20.1182C254.796 19.7959 255.197 19.5488 255.656 19.377C256.114 19.2051 256.615 19.1191 257.16 19.1191C258.141 19.1191 258.986 19.3626 259.695 19.8496C260.404 20.3366 260.948 21.0312 261.328 21.9336C261.714 22.8288 261.908 23.903 261.908 25.1562V25.1777C261.908 26.431 261.718 27.5088 261.338 28.4111C260.959 29.3135 260.415 30.0081 259.706 30.4951C259.004 30.9749 258.166 31.2148 257.192 31.2148C256.648 31.2148 256.143 31.1289 255.677 30.957C255.212 30.7852 254.807 30.5381 254.463 30.2158C254.12 29.8936 253.844 29.514 253.636 29.0771H253.507V34.835H250.371ZM256.118 28.6152C256.655 28.6152 257.117 28.4756 257.503 28.1963C257.897 27.917 258.198 27.5231 258.406 27.0146C258.613 26.499 258.717 25.8867 258.717 25.1777V25.1562C258.717 24.4401 258.61 23.8278 258.395 23.3193C258.187 22.8037 257.887 22.4098 257.493 22.1377C257.106 21.8584 256.648 21.7188 256.118 21.7188C255.588 21.7188 255.126 21.8584 254.732 22.1377C254.338 22.417 254.03 22.8145 253.808 23.3301C253.593 23.8385 253.486 24.4473 253.486 25.1562V25.1777C253.486 25.8796 253.593 26.4883 253.808 27.0039C254.03 27.5195 254.338 27.917 254.732 28.1963C255.126 28.4756 255.588 28.6152 256.118 28.6152ZM264.892 34.9746C264.648 34.9746 264.405 34.9639 264.161 34.9424C263.918 34.9281 263.703 34.9102 263.517 34.8887V32.5361C263.631 32.5576 263.767 32.5755 263.925 32.5898C264.09 32.6042 264.269 32.6113 264.462 32.6113C264.971 32.6113 265.375 32.5182 265.676 32.332C265.977 32.1458 266.188 31.8415 266.31 31.4189L266.428 31L262.324 19.334H265.773L268.48 29.2383L267.921 28.3252H268.673L268.125 29.2383L270.832 19.334H274.141L270.156 31.1074C269.833 32.0742 269.436 32.8405 268.963 33.4062C268.49 33.972 267.921 34.373 267.255 34.6094C266.596 34.8529 265.809 34.9746 264.892 34.9746Z" fill="white"/>
<path d="M83.02 75.0914C83.3461 77.3822 86.6539 77.3822 86.98 75.0914L92.4694 36.5319C92.6409 35.3273 91.706 34.25 90.4893 34.25H79.5107C78.2939 34.25 77.3591 35.3273 77.5306 36.5319L83.02 75.0914Z" fill="#F6AC31"/>
</svg>
