<svg width="300" height="843" viewBox="0 0 300 843" fill="none" xmlns="http://www.w3.org/2000/svg">
<path d="M35 0V6.35513C35 33.9694 57.3858 56.3551 85 56.3551H214C241.614 56.3551 264 78.7409 264 106.355V147.06V231.239C264 258.853 241.614 281.239 214 281.239H85C57.3858 281.239 35 303.625 35 331.239V402" stroke="#A47551" stroke-width="40"/>
<path d="M35 0V6.35513C35 33.9694 57.3858 56.3551 85 56.3551H214C241.614 56.3551 264 78.7409 264 106.355V147.06V231.239C264 258.853 241.614 281.239 214 281.239H85C57.3858 281.239 35 303.625 35 331.239V402" stroke="#F3EDE0" stroke-width="5" stroke-linejoin="round" stroke-dasharray="20 20"/>
<path d="M36 441V447.355C36 474.969 58.3858 497.355 86 497.355H215C242.614 497.355 265 519.741 265 547.355V588.06V672.239C265 699.853 242.614 722.239 215 722.239H86C58.3858 722.239 36 744.625 36 772.239V843" stroke="#A47551" stroke-width="40"/>
<path d="M36 441V447.355C36 474.969 58.3858 497.355 86 497.355H215C242.614 497.355 265 519.741 265 547.355V588.06V672.239C265 699.853 242.614 722.239 215 722.239H86C58.3858 722.239 36 744.625 36 772.239V843" stroke="#F3EDE0" stroke-width="5" stroke-linejoin="round" stroke-dasharray="20 20"/>
<path d="M21.6184 56.7756C25.4356 62.7168 26.1346 69.0723 23.1796 70.9709C20.2245 72.8696 14.7344 69.5924 10.9172 63.6512C7.09988 57.71 6.40091 51.3545 9.35596 49.4559C12.311 47.5572 17.8011 50.8344 21.6184 56.7756Z" fill="#A7D8A1"/>
<path d="M34.6273 56.7115C30.81 62.6527 30.1111 69.0082 33.0661 70.9068C36.0212 72.8055 41.5112 69.5283 45.3285 63.5871C49.1458 57.6459 49.8448 51.2904 46.8897 49.3918C43.9347 47.4931 38.4446 50.7703 34.6273 56.7115Z" fill="#A7D8A1"/>
<path d="M34.1423 53.7866C34.1423 46.7248 31.2949 41 27.7824 41C24.27 41 21.4226 46.7248 21.4226 53.7866C21.4226 60.8485 24.27 66.5732 27.7824 66.5732C31.2949 66.5732 34.1423 60.8485 34.1423 53.7866Z" fill="#A7D8A1"/>
<path d="M55.5649 66.6402C55.5649 70.1526 43.1262 73 27.7824 73C12.4386 73 0 70.1526 0 66.6402C0 63.1277 12.4386 60.2803 27.7824 60.2803C43.1262 60.2803 55.5649 63.1277 55.5649 66.6402Z" fill="#A7D8A1"/>
<path d="M265.657 277.804C269.482 283.756 270.182 290.123 267.221 292.025C264.261 293.927 258.761 290.644 254.937 284.692C251.113 278.74 250.412 272.373 253.373 270.471C256.333 268.569 261.833 271.852 265.657 277.804Z" fill="#A7D8A1"/>
<path d="M278.69 277.74C274.866 283.692 274.165 290.059 277.126 291.961C280.086 293.863 285.586 290.58 289.41 284.628C293.235 278.676 293.935 272.309 290.974 270.407C288.014 268.505 282.514 271.788 278.69 277.74Z" fill="#A7D8A1"/>
<path d="M278.204 274.81C278.204 267.735 275.351 262 271.833 262C268.314 262 265.461 267.735 265.461 274.81C265.461 281.884 268.314 287.619 271.833 287.619C275.351 287.619 278.204 281.884 278.204 274.81Z" fill="#A7D8A1"/>
<path d="M299.665 287.687C299.665 291.205 287.204 294.058 271.833 294.058C256.461 294.058 244 291.205 244 287.687C244 284.168 256.461 281.315 271.833 281.315C287.204 281.315 299.665 284.168 299.665 287.687Z" fill="#A7D8A1"/>
<path d="M35.619 59.3635L23.8418 74.7888L46.7764 78.5207L65.0001 74.7888L61.033 62.7223L52.603 57.1244L35.619 59.3635Z" fill="#636363"/>
<path d="M49.8756 63.0954L35.743 59.7367L52.727 57L61.157 63.0954H49.8756Z" fill="#474747"/>
<path d="M25.6199 67.7445L19 76.4212L31.8913 78.5204L42.1347 76.4212L39.9049 69.6338L35.1664 66.485L25.6199 67.7445Z" fill="#636363"/>
<path d="M33.6334 69.8437L25.6896 67.9545L35.2361 66.415L39.9745 69.8437H33.6334Z" fill="#474747"/>
<path d="M259.214 279.672L272.527 297.109L246.601 301.328L226.001 297.109L230.485 283.469L240.015 277.141L259.214 279.672Z" fill="#636363"/>
<path d="M243.098 283.89L259.074 280.094L239.875 277L230.345 283.89H243.098Z" fill="#474747"/>
<path d="M270.517 289.146L278 298.954L263.427 301.327L251.848 298.954L254.368 291.282L259.725 287.722L270.517 289.146Z" fill="#636363"/>
<path d="M261.458 291.519L270.438 289.383L259.646 287.643L254.29 291.519H261.458Z" fill="#474747"/>
<path d="M23.6184 495.776C27.4356 501.717 28.1346 508.072 25.1796 509.971C22.2245 511.87 16.7344 508.592 12.9172 502.651C9.09988 496.71 8.40091 490.355 11.356 488.456C14.311 486.557 19.8011 489.834 23.6184 495.776Z" fill="#A7D8A1"/>
<path d="M36.6273 495.711C32.81 501.653 32.1111 508.008 35.0661 509.907C38.0212 511.805 43.5112 508.528 47.3285 502.587C51.1458 496.646 51.8448 490.29 48.8897 488.392C45.9347 486.493 40.4446 489.77 36.6273 495.711Z" fill="#A7D8A1"/>
<path d="M36.1423 492.787C36.1423 485.725 33.2949 480 29.7824 480C26.27 480 23.4226 485.725 23.4226 492.787C23.4226 499.848 26.27 505.573 29.7824 505.573C33.2949 505.573 36.1423 499.848 36.1423 492.787Z" fill="#A7D8A1"/>
<path d="M57.5649 505.64C57.5649 509.153 45.1262 512 29.7824 512C14.4386 512 2 509.153 2 505.64C2 502.128 14.4386 499.28 29.7824 499.28C45.1262 499.28 57.5649 502.128 57.5649 505.64Z" fill="#A7D8A1"/>
<path d="M264.657 716.804C268.482 722.756 269.182 729.123 266.221 731.025C263.261 732.927 257.761 729.644 253.937 723.692C250.113 717.74 249.412 711.373 252.373 709.471C255.333 707.569 260.833 710.852 264.657 716.804Z" fill="#A7D8A1"/>
<path d="M277.69 716.74C273.866 722.692 273.165 729.059 276.126 730.961C279.086 732.863 284.586 729.58 288.41 723.628C292.235 717.676 292.935 711.309 289.974 709.407C287.014 707.505 281.514 710.788 277.69 716.74Z" fill="#A7D8A1"/>
<path d="M277.204 713.81C277.204 706.735 274.351 701 270.833 701C267.314 701 264.461 706.735 264.461 713.81C264.461 720.884 267.314 726.619 270.833 726.619C274.351 726.619 277.204 720.884 277.204 713.81Z" fill="#A7D8A1"/>
<path d="M298.665 726.687C298.665 730.205 286.204 733.058 270.833 733.058C255.461 733.058 243 730.205 243 726.687C243 723.168 255.461 720.315 270.833 720.315C286.204 720.315 298.665 723.168 298.665 726.687Z" fill="#A7D8A1"/>
<path d="M35.619 499.364L23.8418 514.789L46.7764 518.521L65.0001 514.789L61.033 502.722L52.603 497.124L35.619 499.364Z" fill="#636363"/>
<path d="M49.8756 503.095L35.743 499.737L52.727 497L61.157 503.095H49.8756Z" fill="#474747"/>
<path d="M25.6199 507.745L19 516.421L31.8913 518.52L42.1347 516.421L39.9049 509.634L35.1664 506.485L25.6199 507.745Z" fill="#636363"/>
<path d="M33.6334 509.844L25.6896 507.954L35.2361 506.415L39.9745 509.844H33.6334Z" fill="#474747"/>
<path d="M259.214 719.672L272.527 737.109L246.601 741.328L226.001 737.109L230.485 723.469L240.015 717.141L259.214 719.672Z" fill="#636363"/>
<path d="M243.098 723.89L259.074 720.094L239.875 717L230.345 723.89H243.098Z" fill="#474747"/>
<path d="M270.517 729.146L278 738.954L263.427 741.327L251.848 738.954L254.368 731.282L259.725 727.722L270.517 729.146Z" fill="#636363"/>
<path d="M261.458 731.519L270.438 729.383L259.646 727.643L254.29 731.519H261.458Z" fill="#474747"/>
</svg>
