<svg width="51" height="57" viewBox="0 0 51 57" fill="none" xmlns="http://www.w3.org/2000/svg">
<path d="M23.1993 0.208721C21.199 -0.860126 19.3655 2.43549 18.6987 4.2169L23.1993 6.555C24.0327 4.88492 25.1995 1.27757 23.1993 0.208721Z" fill="#A37556"/>
<path d="M12.3883 36.3569C13.4938 34.5353 12.9133 32.1626 11.0917 31.0571L5.86015 27.8822C4.03862 26.7767 1.66584 27.3572 0.560393 29.1788C-0.545053 31.0003 0.03545 33.3731 1.85698 34.4785L7.08857 37.6535C8.9101 38.7589 11.2829 38.1784 12.3883 36.3569Z" fill="#846047"/>
<path d="M7.26491 28.7099L5.90099 27.8822C4.07946 26.7767 1.70668 27.3572 0.601233 29.1788C-0.504213 31.0003 0.0762892 33.3731 1.89782 34.4785L3.26174 35.3063L7.26491 28.7099Z" fill="#4B3E35"/>
<rect x="28.1958" y="51.0142" width="9.87999" height="5.51" rx="2.755" fill="#846047"/>
<path d="M28.1958 54.3389H38.0758C38.0758 55.5456 37.0975 56.5239 35.8908 56.5239H30.3808C29.1741 56.5239 28.1958 55.5456 28.1958 54.3389Z" fill="#4B3E35"/>
<rect x="9.19629" y="51.0142" width="9.87999" height="5.51" rx="2.755" fill="#846047"/>
<path d="M9.19629 54.3389H19.0763C19.0763 55.5456 18.098 56.5239 16.8913 56.5239H11.3813C10.1745 56.5239 9.19629 55.5456 9.19629 54.3389Z" fill="#4B3E35"/>
<path d="M9.54704 13.7747C9.54704 8.52809 13.8002 4.2749 19.0468 4.2749H28.9205C33.5115 4.2749 37.4456 7.5581 38.267 12.075L43.6396 41.6193C44.7 47.4507 40.2201 52.8187 34.2931 52.8187H13.2416C4.97218 52.8187 0.651248 42.9853 6.2441 36.894L7.04483 36.0219C8.6541 34.2692 9.54704 31.9764 9.54704 29.5969L9.54704 13.7747Z" fill="#A37556"/>
<path d="M5.21873 13.545C5.8628 9.51784 9.33695 6.55518 13.4152 6.55518C17.4265 6.55518 20.8638 9.42356 21.5819 13.37L22.8335 20.249C23.894 26.0782 19.416 31.4445 13.4911 31.4445C7.64849 31.4445 3.19181 26.2184 4.11451 20.4492L5.21873 13.545Z" fill="#604F44"/>
<path d="M11.7053 23.7455C10.9368 23.6671 10.1044 22.8627 9.78418 22.4703C11.4857 21.1755 12.9632 21.9308 13.4892 22.4703C13.2147 22.9281 12.4737 23.824 11.7053 23.7455Z" fill="#A2766B"/>
<path d="M11.7515 12.6123C11.3318 14.8544 9.92016 20.7545 11.7515 21.4273M11.7515 21.4273C12.8076 22.3223 16.4099 23.9868 18.1094 24.2223M11.7515 21.4273C9.34006 22.8923 8.62756 23.6048 8.24756 24.2223" stroke="#3A2E2B" stroke-width="0.949976" stroke-linecap="round"/>
<ellipse cx="11.6193" cy="12.6336" rx="2.4225" ry="1.615" fill="#3A2E2B"/>
<path d="M26.1084 8.54834C27.0742 8.59584 29.2624 9.13734 30.2884 10.9233" stroke="#3A2E2B" stroke-width="1.42496" stroke-linecap="round"/>
<path d="M38.6608 37.1712C36.7927 36.1464 36.1091 33.8013 37.1338 31.9331L40.0771 26.5678C41.1018 24.6997 43.447 24.016 45.3151 25.0408C47.1832 26.0655 47.8668 28.4107 46.8421 30.2788L43.8989 35.6442C42.8741 37.5123 40.5289 38.1959 38.6608 37.1712Z" fill="#846047"/>
<path d="M39.3097 27.9666L40.0771 26.5678C41.1018 24.6997 43.447 24.016 45.3151 25.0408C47.1832 26.0655 47.8668 28.4107 46.8421 30.2788L46.0748 31.6776L39.3097 27.9666Z" fill="#4B3E35"/>
<path d="M36.1182 1.15794C34.118 0.0890923 32.2844 3.38471 31.6177 5.16612L36.1182 7.50422C36.9517 5.83414 38.1185 2.22679 36.1182 1.15794Z" fill="#A37556"/>
</svg>
