<svg width="173" height="170" viewBox="0 0 173 170" fill="none" xmlns="http://www.w3.org/2000/svg">
<ellipse cx="86.5" cy="152" rx="86" ry="18" fill="#E5D9BD"/>
<path d="M86.5744 0.553882C81.2664 -2.28251 76.4007 6.46304 74.6313 11.1904L86.5744 17.395C88.7861 12.9631 91.8825 3.39028 86.5744 0.553882Z" fill="#A37556"/>
<rect x="99.8423" y="135.378" width="26.2185" height="14.6218" rx="7.31092" fill="#846047"/>
<path d="M99.8423 144.202H126.061C126.061 147.404 123.465 150 120.262 150H105.641C102.438 150 99.8423 147.404 99.8423 144.202Z" fill="#4B3E35"/>
<rect x="49.4219" y="135.378" width="26.2185" height="14.6218" rx="7.31092" fill="#846047"/>
<path d="M49.4219 144.202H75.6404C75.6404 147.404 73.0444 150 69.842 150H55.2202C52.0179 150 49.4219 147.404 49.4219 144.202Z" fill="#4B3E35"/>
<path d="M50.3498 36.5546C50.3498 22.6314 61.6367 11.3445 75.5598 11.3445H101.762C113.946 11.3445 124.386 20.0573 126.566 32.0441L140.823 110.447C143.637 125.923 131.749 140.168 116.02 140.168H60.1544C38.2092 140.168 26.7425 114.073 41.5845 97.9077L43.7095 95.5933C47.9801 90.9421 50.3498 84.8576 50.3498 78.5431L50.3498 36.5546Z" fill="#A37556"/>
<path d="M38.8676 35.9442C40.5768 25.2572 49.7964 17.395 60.6192 17.395C71.264 17.395 80.386 25.007 82.2914 35.4799L85.6129 53.7352C88.4274 69.2045 76.5437 83.4454 60.8204 83.4454C45.3156 83.4454 33.4886 69.5766 35.9373 54.2663L38.8676 35.9442Z" fill="#604F44"/>
<path d="M55.8251 62.7603C53.7859 62.552 51.5767 60.4175 50.7271 59.3763C55.2425 55.9402 59.1631 57.9445 60.559 59.3763C59.8307 60.591 57.8643 62.9685 55.8251 62.7603Z" fill="#A2766B"/>
<path d="M56.1994 33.4763C55.0855 39.4263 51.3395 55.0831 56.1994 56.8686M56.1994 56.8686C59.0017 59.2436 68.5612 63.6608 73.0712 64.2857M56.1994 56.8686C49.8 60.7562 47.9093 62.647 46.9009 64.2857" stroke="#3A2E2B" stroke-width="2.52101" stroke-linecap="round"/>
<ellipse cx="55.8504" cy="33.5296" rx="6.42857" ry="4.28571" fill="#3A2E2B"/>
<path d="M94.2944 22.6892C96.8575 22.8153 102.664 24.2522 105.387 28.9917" stroke="#3A2E2B" stroke-width="3.78151" stroke-linecap="round"/>
<path d="M120.86 3.07488C115.552 0.238484 110.686 8.98403 108.917 13.7114L120.86 19.9159C123.071 15.4841 126.168 5.91127 120.86 3.07488Z" fill="#A37556"/>
<path d="M122.252 78.9896C127.086 76.0561 133.383 77.5966 136.316 82.4303L144.741 96.3134C147.675 101.147 146.134 107.444 141.301 110.377C136.467 113.311 130.17 111.77 127.237 106.937L118.811 93.0535C115.878 88.2197 117.418 81.9231 122.252 78.9896Z" fill="#846047"/>
<path d="M142.545 92.694L144.741 96.3134C147.675 101.147 146.134 107.444 141.301 110.377C136.467 113.311 130.17 111.77 127.237 106.937L125.04 103.317L142.545 92.694Z" fill="#4B3E35"/>
<path d="M31.507 98.9059C36.16 102.119 42.5363 100.951 45.7489 96.2979L54.9758 82.9342C58.1884 78.2813 57.0208 71.905 52.3678 68.6924C47.7148 65.4797 41.3385 66.6474 38.1259 71.3003L28.899 84.664C25.6864 89.317 26.854 95.6933 31.507 98.9059Z" fill="#846047"/>
<path d="M52.5639 86.5265L54.9694 83.0424C58.182 78.3895 57.0144 72.0132 52.3614 68.8005C47.7085 65.5879 41.3322 66.7556 38.1195 71.4085L35.714 74.8926L52.5639 86.5265Z" fill="#4B3E35"/>
</svg>
