<svg width="314" height="92" viewBox="0 0 314 92" fill="none" xmlns="http://www.w3.org/2000/svg">
<rect width="314" height="49" rx="15" transform="matrix(1 0 0 -1 0 49)" fill="#3A6351"/>
<path d="M15.1967 32.154C14.126 32.154 13.158 31.9707 12.2927 31.604C11.442 31.2373 10.7673 30.7093 10.2687 30.02C9.77001 29.3307 9.51335 28.5167 9.49868 27.578H12.7987C12.8427 28.2087 13.0627 28.7073 13.4587 29.074C13.8693 29.4407 14.4267 29.624 15.1307 29.624C15.8493 29.624 16.414 29.4553 16.8247 29.118C17.2353 28.766 17.4407 28.3113 17.4407 27.754C17.4407 27.2993 17.3013 26.9253 17.0227 26.632C16.744 26.3387 16.392 26.1113 15.9667 25.95C15.556 25.774 14.984 25.5833 14.2507 25.378C13.2533 25.0847 12.4393 24.7987 11.8087 24.52C11.1927 24.2267 10.6573 23.794 10.2027 23.222C9.76268 22.6353 9.54268 21.858 9.54268 20.89C9.54268 19.9807 9.77001 19.1887 10.2247 18.514C10.6793 17.8393 11.3173 17.326 12.1387 16.974C12.96 16.6073 13.8987 16.424 14.9547 16.424C16.5387 16.424 17.822 16.8127 18.8047 17.59C19.802 18.3527 20.352 19.4233 20.4547 20.802H17.0667C17.0373 20.274 16.81 19.8413 16.3847 19.504C15.974 19.152 15.424 18.976 14.7347 18.976C14.1333 18.976 13.6493 19.13 13.2827 19.438C12.9307 19.746 12.7547 20.1933 12.7547 20.78C12.7547 21.1907 12.8867 21.5353 13.1507 21.814C13.4293 22.078 13.7667 22.298 14.1627 22.474C14.5733 22.6353 15.1453 22.826 15.8787 23.046C16.876 23.3393 17.69 23.6327 18.3207 23.926C18.9513 24.2193 19.494 24.6593 19.9487 25.246C20.4033 25.8327 20.6307 26.6027 20.6307 27.556C20.6307 28.3773 20.418 29.14 19.9927 29.844C19.5673 30.548 18.944 31.1127 18.1227 31.538C17.3013 31.9487 16.326 32.154 15.1967 32.154ZM34.1909 25.642C34.1909 26.082 34.1616 26.478 34.1029 26.83H25.1929C25.2663 27.71 25.5743 28.3993 26.1169 28.898C26.6596 29.3967 27.3269 29.646 28.1189 29.646C29.2629 29.646 30.0769 29.1547 30.5609 28.172H33.8829C33.5309 29.3453 32.8563 30.3133 31.8589 31.076C30.8616 31.824 29.6369 32.198 28.1849 32.198C27.0116 32.198 25.9556 31.9413 25.0169 31.428C24.0929 30.9 23.3669 30.1593 22.8389 29.206C22.3256 28.2527 22.0689 27.1527 22.0689 25.906C22.0689 24.6447 22.3256 23.5373 22.8389 22.584C23.3523 21.6307 24.0709 20.8973 24.9949 20.384C25.9189 19.8707 26.9823 19.614 28.1849 19.614C29.3436 19.614 30.3776 19.8633 31.2869 20.362C32.2109 20.8607 32.9223 21.572 33.4209 22.496C33.9343 23.4053 34.1909 24.454 34.1909 25.642ZM31.0009 24.762C30.9863 23.97 30.7003 23.3393 30.1429 22.87C29.5856 22.386 28.9036 22.144 28.0969 22.144C27.3343 22.144 26.6889 22.3787 26.1609 22.848C25.6476 23.3027 25.3323 23.9407 25.2149 24.762H31.0009ZM39.0791 15.72V32H35.9991V15.72H39.0791ZM40.8901 25.862C40.8901 24.63 41.1321 23.5373 41.6161 22.584C42.1148 21.6307 42.7821 20.8973 43.6181 20.384C44.4688 19.8707 45.4148 19.614 46.4561 19.614C47.3654 19.614 48.1574 19.7973 48.8321 20.164C49.5214 20.5307 50.0714 20.9927 50.4821 21.55V19.812H53.5841V32H50.4821V30.218C50.0861 30.79 49.5361 31.2667 48.8321 31.648C48.1428 32.0147 47.3434 32.198 46.4341 32.198C45.4074 32.198 44.4688 31.934 43.6181 31.406C42.7821 30.878 42.1148 30.1373 41.6161 29.184C41.1321 28.216 40.8901 27.1087 40.8901 25.862ZM50.4821 25.906C50.4821 25.158 50.3354 24.52 50.0421 23.992C49.7488 23.4493 49.3528 23.0387 48.8541 22.76C48.3554 22.4667 47.8201 22.32 47.2481 22.32C46.6761 22.32 46.1481 22.4593 45.6641 22.738C45.1801 23.0167 44.7841 23.4273 44.4761 23.97C44.1828 24.498 44.0361 25.1287 44.0361 25.862C44.0361 26.5953 44.1828 27.2407 44.4761 27.798C44.7841 28.3407 45.1801 28.7587 45.6641 29.052C46.1628 29.3453 46.6908 29.492 47.2481 29.492C47.8201 29.492 48.3554 29.3527 48.8541 29.074C49.3528 28.7807 49.7488 28.37 50.0421 27.842C50.3354 27.2993 50.4821 26.654 50.4821 25.906ZM71.2883 19.636C72.7843 19.636 73.9869 20.098 74.8963 21.022C75.8203 21.9313 76.2823 23.2073 76.2823 24.85V32H73.2023V25.268C73.2023 24.3147 72.9603 23.5887 72.4763 23.09C71.9923 22.5767 71.3323 22.32 70.4963 22.32C69.6603 22.32 68.9929 22.5767 68.4943 23.09C68.0103 23.5887 67.7683 24.3147 67.7683 25.268V32H64.6883V25.268C64.6883 24.3147 64.4463 23.5887 63.9623 23.09C63.4783 22.5767 62.8183 22.32 61.9823 22.32C61.1316 22.32 60.4569 22.5767 59.9583 23.09C59.4743 23.5887 59.2323 24.3147 59.2323 25.268V32H56.1523V19.812H59.2323V21.286C59.6283 20.7727 60.1343 20.3693 60.7503 20.076C61.3809 19.7827 62.0703 19.636 62.8183 19.636C63.7716 19.636 64.6223 19.8413 65.3703 20.252C66.1183 20.648 66.6976 21.22 67.1083 21.968C67.5043 21.264 68.0763 20.6993 68.8243 20.274C69.5869 19.8487 70.4083 19.636 71.2883 19.636ZM77.973 25.862C77.973 24.63 78.215 23.5373 78.699 22.584C79.1977 21.6307 79.865 20.8973 80.701 20.384C81.5517 19.8707 82.4977 19.614 83.539 19.614C84.4483 19.614 85.2403 19.7973 85.915 20.164C86.6043 20.5307 87.1543 20.9927 87.565 21.55V19.812H90.667V32H87.565V30.218C87.169 30.79 86.619 31.2667 85.915 31.648C85.2257 32.0147 84.4263 32.198 83.517 32.198C82.4903 32.198 81.5517 31.934 80.701 31.406C79.865 30.878 79.1977 30.1373 78.699 29.184C78.215 28.216 77.973 27.1087 77.973 25.862ZM87.565 25.906C87.565 25.158 87.4183 24.52 87.125 23.992C86.8317 23.4493 86.4357 23.0387 85.937 22.76C85.4383 22.4667 84.903 22.32 84.331 22.32C83.759 22.32 83.231 22.4593 82.747 22.738C82.263 23.0167 81.867 23.4273 81.559 23.97C81.2657 24.498 81.119 25.1287 81.119 25.862C81.119 26.5953 81.2657 27.2407 81.559 27.798C81.867 28.3407 82.263 28.7587 82.747 29.052C83.2457 29.3453 83.7737 29.492 84.331 29.492C84.903 29.492 85.4383 29.3527 85.937 29.074C86.4357 28.7807 86.8317 28.37 87.125 27.842C87.4183 27.2993 87.565 26.654 87.565 25.906ZM96.8211 22.342V28.238C96.8211 28.6487 96.9165 28.9493 97.1071 29.14C97.3125 29.316 97.6498 29.404 98.1191 29.404H99.5491V32H97.6131C95.0171 32 93.7191 30.7387 93.7191 28.216V22.342H92.2671V19.812H93.7191V16.798H96.8211V19.812H99.5491V22.342H96.8211ZM105.335 25.862C105.335 24.63 105.577 23.5373 106.061 22.584C106.559 21.6307 107.234 20.8973 108.085 20.384C108.935 19.8707 109.881 19.614 110.923 19.614C111.715 19.614 112.47 19.79 113.189 20.142C113.907 20.4793 114.479 20.934 114.905 21.506V15.72H118.029V32H114.905V30.196C114.523 30.7973 113.988 31.2813 113.299 31.648C112.609 32.0147 111.81 32.198 110.901 32.198C109.874 32.198 108.935 31.934 108.085 31.406C107.234 30.878 106.559 30.1373 106.061 29.184C105.577 28.216 105.335 27.1087 105.335 25.862ZM114.927 25.906C114.927 25.158 114.78 24.52 114.487 23.992C114.193 23.4493 113.797 23.0387 113.299 22.76C112.8 22.4667 112.265 22.32 111.693 22.32C111.121 22.32 110.593 22.4593 110.109 22.738C109.625 23.0167 109.229 23.4273 108.921 23.97C108.627 24.498 108.481 25.1287 108.481 25.862C108.481 26.5953 108.627 27.2407 108.921 27.798C109.229 28.3407 109.625 28.7587 110.109 29.052C110.607 29.3453 111.135 29.492 111.693 29.492C112.265 29.492 112.8 29.3527 113.299 29.074C113.797 28.7807 114.193 28.37 114.487 27.842C114.78 27.2993 114.927 26.654 114.927 25.906ZM119.805 25.862C119.805 24.63 120.047 23.5373 120.531 22.584C121.029 21.6307 121.697 20.8973 122.533 20.384C123.383 19.8707 124.329 19.614 125.371 19.614C126.28 19.614 127.072 19.7973 127.747 20.164C128.436 20.5307 128.986 20.9927 129.397 21.55V19.812H132.499V32H129.397V30.218C129.001 30.79 128.451 31.2667 127.747 31.648C127.057 32.0147 126.258 32.198 125.349 32.198C124.322 32.198 123.383 31.934 122.533 31.406C121.697 30.878 121.029 30.1373 120.531 29.184C120.047 28.216 119.805 27.1087 119.805 25.862ZM129.397 25.906C129.397 25.158 129.25 24.52 128.957 23.992C128.663 23.4493 128.267 23.0387 127.769 22.76C127.27 22.4667 126.735 22.32 126.163 22.32C125.591 22.32 125.063 22.4593 124.579 22.738C124.095 23.0167 123.699 23.4273 123.391 23.97C123.097 24.498 122.951 25.1287 122.951 25.862C122.951 26.5953 123.097 27.2407 123.391 27.798C123.699 28.3407 124.095 28.7587 124.579 29.052C125.077 29.3453 125.605 29.492 126.163 29.492C126.735 29.492 127.27 29.3527 127.769 29.074C128.267 28.7807 128.663 28.37 128.957 27.842C129.25 27.2993 129.397 26.654 129.397 25.906ZM138.653 22.342V28.238C138.653 28.6487 138.748 28.9493 138.939 29.14C139.144 29.316 139.482 29.404 139.951 29.404H141.381V32H139.445C136.849 32 135.551 30.7387 135.551 28.216V22.342H134.099V19.812H135.551V16.798H138.653V19.812H141.381V22.342H138.653ZM142.364 25.862C142.364 24.63 142.606 23.5373 143.09 22.584C143.589 21.6307 144.256 20.8973 145.092 20.384C145.943 19.8707 146.889 19.614 147.93 19.614C148.84 19.614 149.632 19.7973 150.306 20.164C150.996 20.5307 151.546 20.9927 151.956 21.55V19.812H155.058V32H151.956V30.218C151.56 30.79 151.01 31.2667 150.306 31.648C149.617 32.0147 148.818 32.198 147.908 32.198C146.882 32.198 145.943 31.934 145.092 31.406C144.256 30.878 143.589 30.1373 143.09 29.184C142.606 28.216 142.364 27.1087 142.364 25.862ZM151.956 25.906C151.956 25.158 151.81 24.52 151.516 23.992C151.223 23.4493 150.827 23.0387 150.328 22.76C149.83 22.4667 149.294 22.32 148.722 22.32C148.15 22.32 147.622 22.4593 147.138 22.738C146.654 23.0167 146.258 23.4273 145.95 23.97C145.657 24.498 145.51 25.1287 145.51 25.862C145.51 26.5953 145.657 27.2407 145.95 27.798C146.258 28.3407 146.654 28.7587 147.138 29.052C147.637 29.3453 148.165 29.492 148.722 29.492C149.294 29.492 149.83 29.3527 150.328 29.074C150.827 28.7807 151.223 28.37 151.516 27.842C151.81 27.2993 151.956 26.654 151.956 25.906ZM164.38 19.636C165.832 19.636 167.006 20.098 167.9 21.022C168.795 21.9313 169.242 23.2073 169.242 24.85V32H166.162V25.268C166.162 24.3 165.92 23.5593 165.436 23.046C164.952 22.518 164.292 22.254 163.456 22.254C162.606 22.254 161.931 22.518 161.432 23.046C160.948 23.5593 160.706 24.3 160.706 25.268V32H157.626V19.812H160.706V21.33C161.117 20.802 161.638 20.3913 162.268 20.098C162.914 19.79 163.618 19.636 164.38 19.636ZM176.505 19.614C177.415 19.614 178.214 19.7973 178.903 20.164C179.593 20.516 180.135 20.978 180.531 21.55V19.812H183.633V32.088C183.633 33.2173 183.406 34.222 182.951 35.102C182.497 35.9967 181.815 36.7007 180.905 37.214C179.996 37.742 178.896 38.006 177.605 38.006C175.875 38.006 174.452 37.6027 173.337 36.796C172.237 35.9893 171.614 34.8893 171.467 33.496H174.525C174.687 34.0533 175.031 34.4933 175.559 34.816C176.102 35.1533 176.755 35.322 177.517 35.322C178.412 35.322 179.138 35.0507 179.695 34.508C180.253 33.98 180.531 33.1733 180.531 32.088V30.196C180.135 30.768 179.585 31.2447 178.881 31.626C178.192 32.0073 177.4 32.198 176.505 32.198C175.479 32.198 174.54 31.934 173.689 31.406C172.839 30.878 172.164 30.1373 171.665 29.184C171.181 28.216 170.939 27.1087 170.939 25.862C170.939 24.63 171.181 23.5373 171.665 22.584C172.164 21.6307 172.831 20.8973 173.667 20.384C174.518 19.8707 175.464 19.614 176.505 19.614ZM180.531 25.906C180.531 25.158 180.385 24.52 180.091 23.992C179.798 23.4493 179.402 23.0387 178.903 22.76C178.405 22.4667 177.869 22.32 177.297 22.32C176.725 22.32 176.197 22.4593 175.713 22.738C175.229 23.0167 174.833 23.4273 174.525 23.97C174.232 24.498 174.085 25.1287 174.085 25.862C174.085 26.5953 174.232 27.2407 174.525 27.798C174.833 28.3407 175.229 28.7587 175.713 29.052C176.212 29.3453 176.74 29.492 177.297 29.492C177.869 29.492 178.405 29.3527 178.903 29.074C179.402 28.7807 179.798 28.37 180.091 27.842C180.385 27.2993 180.531 26.654 180.531 25.906ZM190.212 25.862C190.212 24.63 190.454 23.5373 190.938 22.584C191.436 21.6307 192.111 20.8973 192.962 20.384C193.812 19.8707 194.758 19.614 195.8 19.614C196.592 19.614 197.347 19.79 198.066 20.142C198.784 20.4793 199.356 20.934 199.782 21.506V15.72H202.906V32H199.782V30.196C199.4 30.7973 198.865 31.2813 198.176 31.648C197.486 32.0147 196.687 32.198 195.778 32.198C194.751 32.198 193.812 31.934 192.962 31.406C192.111 30.878 191.436 30.1373 190.938 29.184C190.454 28.216 190.212 27.1087 190.212 25.862ZM199.804 25.906C199.804 25.158 199.657 24.52 199.364 23.992C199.07 23.4493 198.674 23.0387 198.176 22.76C197.677 22.4667 197.142 22.32 196.57 22.32C195.998 22.32 195.47 22.4593 194.986 22.738C194.502 23.0167 194.106 23.4273 193.798 23.97C193.504 24.498 193.358 25.1287 193.358 25.862C193.358 26.5953 193.504 27.2407 193.798 27.798C194.106 28.3407 194.502 28.7587 194.986 29.052C195.484 29.3453 196.012 29.492 196.57 29.492C197.142 29.492 197.677 29.3527 198.176 29.074C198.674 28.7807 199.07 28.37 199.364 27.842C199.657 27.2993 199.804 26.654 199.804 25.906ZM207.036 18.36C206.493 18.36 206.038 18.1913 205.672 17.854C205.32 17.502 205.144 17.0693 205.144 16.556C205.144 16.0427 205.32 15.6173 205.672 15.28C206.038 14.928 206.493 14.752 207.036 14.752C207.578 14.752 208.026 14.928 208.378 15.28C208.744 15.6173 208.928 16.0427 208.928 16.556C208.928 17.0693 208.744 17.502 208.378 17.854C208.026 18.1913 207.578 18.36 207.036 18.36ZM208.554 19.812V32H205.474V19.812H208.554ZM229.753 16.644L224.121 32H220.381L214.749 16.644H218.049L222.273 28.854L226.475 16.644H229.753ZM236.572 32.198C235.398 32.198 234.342 31.9413 233.404 31.428C232.465 30.9 231.724 30.1593 231.182 29.206C230.654 28.2527 230.39 27.1527 230.39 25.906C230.39 24.6593 230.661 23.5593 231.204 22.606C231.761 21.6527 232.516 20.9193 233.47 20.406C234.423 19.878 235.486 19.614 236.66 19.614C237.833 19.614 238.896 19.878 239.85 20.406C240.803 20.9193 241.551 21.6527 242.094 22.606C242.651 23.5593 242.93 24.6593 242.93 25.906C242.93 27.1527 242.644 28.2527 242.072 29.206C241.514 30.1593 240.752 30.9 239.784 31.428C238.83 31.9413 237.76 32.198 236.572 32.198ZM236.572 29.514C237.129 29.514 237.65 29.382 238.134 29.118C238.632 28.8393 239.028 28.4287 239.322 27.886C239.615 27.3433 239.762 26.6833 239.762 25.906C239.762 24.7473 239.454 23.86 238.838 23.244C238.236 22.6133 237.496 22.298 236.616 22.298C235.736 22.298 234.995 22.6133 234.394 23.244C233.807 23.86 233.514 24.7473 233.514 25.906C233.514 27.0647 233.8 27.9593 234.372 28.59C234.958 29.206 235.692 29.514 236.572 29.514ZM243.957 25.906C243.957 24.6447 244.214 23.5447 244.727 22.606C245.24 21.6527 245.952 20.9193 246.861 20.406C247.77 19.878 248.812 19.614 249.985 19.614C251.496 19.614 252.742 19.9953 253.725 20.758C254.722 21.506 255.39 22.562 255.727 23.926H252.405C252.229 23.398 251.928 22.9873 251.503 22.694C251.092 22.386 250.579 22.232 249.963 22.232C249.083 22.232 248.386 22.5547 247.873 23.2C247.36 23.8307 247.103 24.7327 247.103 25.906C247.103 27.0647 247.36 27.9667 247.873 28.612C248.386 29.2427 249.083 29.558 249.963 29.558C251.21 29.558 252.024 29.0007 252.405 27.886H255.727C255.39 29.206 254.722 30.2547 253.725 31.032C252.728 31.8093 251.481 32.198 249.985 32.198C248.812 32.198 247.77 31.9413 246.861 31.428C245.952 30.9 245.24 30.1667 244.727 29.228C244.214 28.2747 243.957 27.1673 243.957 25.906ZM256.751 25.862C256.751 24.63 256.993 23.5373 257.477 22.584C257.976 21.6307 258.643 20.8973 259.479 20.384C260.33 19.8707 261.276 19.614 262.317 19.614C263.227 19.614 264.019 19.7973 264.693 20.164C265.383 20.5307 265.933 20.9927 266.343 21.55V19.812H269.445V32H266.343V30.218C265.947 30.79 265.397 31.2667 264.693 31.648C264.004 32.0147 263.205 32.198 262.295 32.198C261.269 32.198 260.33 31.934 259.479 31.406C258.643 30.878 257.976 30.1373 257.477 29.184C256.993 28.216 256.751 27.1087 256.751 25.862ZM266.343 25.906C266.343 25.158 266.197 24.52 265.903 23.992C265.61 23.4493 265.214 23.0387 264.715 22.76C264.217 22.4667 263.681 22.32 263.109 22.32C262.537 22.32 262.009 22.4593 261.525 22.738C261.041 23.0167 260.645 23.4273 260.337 23.97C260.044 24.498 259.897 25.1287 259.897 25.862C259.897 26.5953 260.044 27.2407 260.337 27.798C260.645 28.3407 261.041 28.7587 261.525 29.052C262.024 29.3453 262.552 29.492 263.109 29.492C263.681 29.492 264.217 29.3527 264.715 29.074C265.214 28.7807 265.61 28.37 265.903 27.842C266.197 27.2993 266.343 26.654 266.343 25.906ZM275.094 21.572C275.49 21.0147 276.032 20.5527 276.722 20.186C277.426 19.8047 278.225 19.614 279.12 19.614C280.161 19.614 281.1 19.8707 281.936 20.384C282.786 20.8973 283.454 21.6307 283.938 22.584C284.436 23.5227 284.686 24.6153 284.686 25.862C284.686 27.1087 284.436 28.216 283.938 29.184C283.454 30.1373 282.786 30.878 281.936 31.406C281.1 31.934 280.161 32.198 279.12 32.198C278.225 32.198 277.433 32.0147 276.744 31.648C276.069 31.2813 275.519 30.8193 275.094 30.262V37.808H272.014V19.812H275.094V21.572ZM281.54 25.862C281.54 25.1287 281.386 24.498 281.078 23.97C280.784 23.4273 280.388 23.0167 279.89 22.738C279.406 22.4593 278.878 22.32 278.306 22.32C277.748 22.32 277.22 22.4667 276.722 22.76C276.238 23.0387 275.842 23.4493 275.534 23.992C275.24 24.5347 275.094 25.1727 275.094 25.906C275.094 26.6393 275.24 27.2773 275.534 27.82C275.842 28.3627 276.238 28.7807 276.722 29.074C277.22 29.3527 277.748 29.492 278.306 29.492C278.878 29.492 279.406 29.3453 279.89 29.052C280.388 28.7587 280.784 28.3407 281.078 27.798C281.386 27.2553 281.54 26.61 281.54 25.862ZM298.144 19.812L290.598 37.764H287.32L289.96 31.692L285.076 19.812H288.53L291.676 28.326L294.866 19.812H298.144ZM303.346 16.38L302.994 27.006H300.398L300.024 16.38H303.346ZM301.762 32.154C301.205 32.154 300.743 31.9853 300.376 31.648C300.024 31.296 299.848 30.8633 299.848 30.35C299.848 29.8367 300.024 29.4113 300.376 29.074C300.743 28.722 301.205 28.546 301.762 28.546C302.305 28.546 302.752 28.722 303.104 29.074C303.456 29.4113 303.632 29.8367 303.632 30.35C303.632 30.8633 303.456 31.296 303.104 31.648C302.752 31.9853 302.305 32.154 301.762 32.154Z" fill="#E6E6E6"/>
<path d="M98.02 78.0914C98.3461 80.3822 101.654 80.3822 101.98 78.0914L107.469 39.5319C107.641 38.3273 106.706 37.25 105.489 37.25H94.5107C93.2939 37.25 92.3591 38.3273 92.5306 39.5319L98.02 78.0914Z" fill="#3A6351"/>
</svg>
