<svg width="125" height="62" viewBox="0 0 125 62" fill="none" xmlns="http://www.w3.org/2000/svg">
<rect x="125" y="49" width="125" height="49" rx="15" transform="rotate(180 125 49)" fill="#8D562C"/>
<path d="M30.5413 16.644L26.2513 32H22.6213L19.7393 21.066L16.7253 32L13.1173 32.022L8.9813 16.644H12.2813L14.9873 28.568L18.1113 16.644H21.5433L24.4913 28.502L27.2193 16.644H30.5413ZM43.4424 25.642C43.4424 26.082 43.4131 26.478 43.3544 26.83H34.4444C34.5177 27.71 34.8257 28.3993 35.3684 28.898C35.9111 29.3967 36.5784 29.646 37.3704 29.646C38.5144 29.646 39.3284 29.1547 39.8124 28.172H43.1344C42.7824 29.3453 42.1077 30.3133 41.1104 31.076C40.1131 31.824 38.8884 32.198 37.4364 32.198C36.2631 32.198 35.2071 31.9413 34.2684 31.428C33.3444 30.9 32.6184 30.1593 32.0904 29.206C31.5771 28.2527 31.3204 27.1527 31.3204 25.906C31.3204 24.6447 31.5771 23.5373 32.0904 22.584C32.6037 21.6307 33.3224 20.8973 34.2464 20.384C35.1704 19.8707 36.2337 19.614 37.4364 19.614C38.5951 19.614 39.6291 19.8633 40.5384 20.362C41.4624 20.8607 42.1737 21.572 42.6724 22.496C43.1857 23.4053 43.4424 24.454 43.4424 25.642ZM40.2524 24.762C40.2377 23.97 39.9517 23.3393 39.3944 22.87C38.8371 22.386 38.1551 22.144 37.3484 22.144C36.5857 22.144 35.9404 22.3787 35.4124 22.848C34.8991 23.3027 34.5837 23.9407 34.4664 24.762H40.2524ZM48.3305 15.72V32H45.2505V15.72H48.3305ZM54.0136 15.72V32H50.9336V15.72H54.0136ZM66.7868 16.644C68.4002 16.644 69.8155 16.9593 71.0328 17.59C72.2648 18.2207 73.2108 19.1227 73.8708 20.296C74.5455 21.4547 74.8828 22.804 74.8828 24.344C74.8828 25.884 74.5455 27.2333 73.8708 28.392C73.2108 29.536 72.2648 30.4233 71.0328 31.054C69.8155 31.6847 68.4002 32 66.7868 32H61.4188V16.644H66.7868ZM66.6768 29.382C68.2902 29.382 69.5368 28.942 70.4168 28.062C71.2968 27.182 71.7368 25.9427 71.7368 24.344C71.7368 22.7453 71.2968 21.4987 70.4168 20.604C69.5368 19.6947 68.2902 19.24 66.6768 19.24H64.4988V29.382H66.6768ZM82.1603 32.198C80.987 32.198 79.931 31.9413 78.9923 31.428C78.0537 30.9 77.313 30.1593 76.7703 29.206C76.2423 28.2527 75.9783 27.1527 75.9783 25.906C75.9783 24.6593 76.2497 23.5593 76.7923 22.606C77.3497 21.6527 78.105 20.9193 79.0583 20.406C80.0117 19.878 81.075 19.614 82.2483 19.614C83.4217 19.614 84.485 19.878 85.4383 20.406C86.3917 20.9193 87.1397 21.6527 87.6823 22.606C88.2397 23.5593 88.5183 24.6593 88.5183 25.906C88.5183 27.1527 88.2323 28.2527 87.6603 29.206C87.103 30.1593 86.3403 30.9 85.3723 31.428C84.419 31.9413 83.3483 32.198 82.1603 32.198ZM82.1603 29.514C82.7177 29.514 83.2383 29.382 83.7223 29.118C84.221 28.8393 84.617 28.4287 84.9103 27.886C85.2037 27.3433 85.3503 26.6833 85.3503 25.906C85.3503 24.7473 85.0423 23.86 84.4263 23.244C83.825 22.6133 83.0843 22.298 82.2043 22.298C81.3243 22.298 80.5837 22.6133 79.9823 23.244C79.3957 23.86 79.1023 24.7473 79.1023 25.906C79.1023 27.0647 79.3883 27.9593 79.9603 28.59C80.547 29.206 81.2803 29.514 82.1603 29.514ZM97.0916 19.636C98.5436 19.636 99.717 20.098 100.612 21.022C101.506 21.9313 101.954 23.2073 101.954 24.85V32H98.8736V25.268C98.8736 24.3 98.6316 23.5593 98.1476 23.046C97.6636 22.518 97.0036 22.254 96.1676 22.254C95.317 22.254 94.6423 22.518 94.1436 23.046C93.6596 23.5593 93.4176 24.3 93.4176 25.268V32H90.3376V19.812H93.4176V21.33C93.8283 20.802 94.349 20.3913 94.9796 20.098C95.625 19.79 96.329 19.636 97.0916 19.636ZM115.773 25.642C115.773 26.082 115.743 26.478 115.685 26.83H106.775C106.848 27.71 107.156 28.3993 107.699 28.898C108.241 29.3967 108.909 29.646 109.701 29.646C110.845 29.646 111.659 29.1547 112.143 28.172H115.465C115.113 29.3453 114.438 30.3133 113.441 31.076C112.443 31.824 111.219 32.198 109.767 32.198C108.593 32.198 107.537 31.9413 106.599 31.428C105.675 30.9 104.949 30.1593 104.421 29.206C103.907 28.2527 103.651 27.1527 103.651 25.906C103.651 24.6447 103.907 23.5373 104.421 22.584C104.934 21.6307 105.653 20.8973 106.577 20.384C107.501 19.8707 108.564 19.614 109.767 19.614C110.925 19.614 111.959 19.8633 112.869 20.362C113.793 20.8607 114.504 21.572 115.003 22.496C115.516 23.4053 115.773 24.454 115.773 25.642ZM112.583 24.762C112.568 23.97 112.282 23.3393 111.725 22.87C111.167 22.386 110.485 22.144 109.679 22.144C108.916 22.144 108.271 22.3787 107.743 22.848C107.229 23.3027 106.914 23.9407 106.797 24.762H112.583Z" fill="#E6E6E6"/>
<path d="M116.884 52.9034C117.11 54.5777 115.288 55.7615 113.85 54.8733L104.614 49.1654C103.366 48.3941 103.345 46.5859 104.576 45.7867L112.355 40.7352C113.585 39.936 115.229 40.69 115.426 42.144L116.884 52.9034Z" fill="#8D562C"/>
</svg>
