<svg width="40" height="56" viewBox="0 0 40 56" fill="none" xmlns="http://www.w3.org/2000/svg">
<g clip-path="url(#clip0_3211_9274)">
<path d="M0 53.1249C0 54.2524 0.922487 55.175 2.04997 55.175C3.20308 55.175 4.12558 54.2524 4.12558 53.1249V6.28299C4.12558 5.463 4.66368 4.9249 5.43242 4.9249H33.6196C34.3884 4.9249 34.9263 5.463 34.9263 6.28299V53.1249C34.9263 54.2524 35.8489 55.175 37.0021 55.175C38.1294 55.175 39.052 54.2524 39.052 53.1249V6.02676C39.052 2.90054 36.9252 0.799316 33.6964 0.799316H5.35557C2.15247 0.799316 0 2.90054 0 6.02676V53.1249Z" fill="#F3EDE0"/>
<path d="M7.12402 53.7143C7.12402 54.2013 7.53402 54.4574 8.02089 54.2525L16.0671 50.6907C16.7077 50.4086 16.9639 50.2037 16.9639 49.5375V12.6124C16.9639 11.9717 16.7077 11.7411 16.0927 11.4849L8.02089 7.89743C7.53402 7.69242 7.12402 7.94868 7.12402 8.46117V53.7143Z" fill="#F3EDE0"/>
<ellipse cx="15" cy="30" rx="1" ry="3" fill="#6B6B6B"/>
</g>
<defs>
<clipPath id="clip0_3211_9274">
<rect width="40" height="54.4011" fill="white" transform="translate(0 0.799316)"/>
</clipPath>
</defs>
</svg>
