<svg width="40" height="47" viewBox="0 0 40 47" fill="none" xmlns="http://www.w3.org/2000/svg">
<path d="M10.6179 26.2297C9.39286 24.9499 7.36222 24.9055 6.08237 26.1305L2.40653 29.6491C1.12668 30.8741 1.08228 32.9048 2.30736 34.1846C3.53243 35.4645 5.56308 35.5089 6.84293 34.2838L10.5188 30.7653C11.7986 29.5402 11.843 27.5096 10.6179 26.2297Z" fill="#846047"/>
<path d="M3.37364 28.6989L2.41532 29.6163C1.13547 30.8413 1.09107 32.872 2.31614 34.1518C3.54122 35.4317 5.57187 35.4761 6.85172 34.251L7.81004 33.3337L3.37364 28.6989Z" fill="#4B3E35"/>
<path d="M19.6626 0.174038C17.9994 -0.714699 16.4748 2.02557 15.9204 3.5068L19.6626 5.45091C20.3556 4.06226 21.3258 1.06278 19.6626 0.174038Z" fill="#A37556"/>
<rect x="23.8193" y="42.4194" width="8.21512" height="4.58151" rx="2.29076" fill="#846047"/>
<path d="M23.8193 45.1841H32.0345C32.0345 46.1875 31.221 47.0009 30.2176 47.0009H25.6361C24.6327 47.0009 23.8193 46.1875 23.8193 45.1841Z" fill="#4B3E35"/>
<rect x="8.02197" y="42.4194" width="8.21512" height="4.58151" rx="2.29076" fill="#846047"/>
<path d="M8.02197 45.1841H16.2371C16.2371 46.1875 15.4237 47.0009 14.4203 47.0009H9.83878C8.83538 47.0009 8.02197 46.1875 8.02197 45.1841Z" fill="#4B3E35"/>
<path d="M8.31236 11.4543C8.31236 7.09175 11.8489 3.55518 16.2115 3.55518H24.4216C28.2391 3.55518 31.5103 6.28519 32.1933 10.0411L36.6607 34.6075C37.5424 39.4563 33.8174 43.9199 28.889 43.9199H11.3845C4.50831 43.9199 0.91541 35.7433 5.56593 30.6783L6.23174 29.9532C7.56987 28.4958 8.31236 26.5893 8.31236 24.6108L8.31236 11.4543Z" fill="#A37556"/>
<path d="M4.71438 11.263C5.24994 7.91442 8.13873 5.45093 11.5299 5.45093C14.8653 5.45093 17.7235 7.83603 18.3205 11.1175L19.3612 16.8375C20.2431 21.6846 16.5196 26.1467 11.5929 26.1467C6.73476 26.1467 3.02898 21.8012 3.79621 17.0039L4.71438 11.263Z" fill="#604F44"/>
<path d="M10.1445 10.4907C9.79546 12.355 8.62171 17.2608 10.1445 17.8203M10.1445 17.8203C11.0226 18.5645 14.0178 19.9485 15.431 20.1443M10.1445 17.8203C8.13936 19.0384 7.54692 19.6309 7.23096 20.1443" stroke="#3A2E2B" stroke-width="0.789916" stroke-linecap="round"/>
<ellipse cx="10.0353" cy="10.5074" rx="2.01428" ry="1.34286" fill="#3A2E2B"/>
<path d="M22.082 7.10962C22.8851 7.14911 24.7046 7.59937 25.5577 9.08441" stroke="#3A2E2B" stroke-width="1.18487" stroke-linecap="round"/>
<path d="M30.4057 0.963833C28.7426 0.0750958 27.218 2.81537 26.6636 4.2966L30.4057 6.2407C31.0987 4.85205 32.0689 1.85257 30.4057 0.963833Z" fill="#A37556"/>
<path d="M21.8585 25.7184C24.9468 23.7751 31.6851 22.408 34.2393 21.6443C37.3151 28.5438 40.6246 42.6031 29.2565 43.6439L12.2973 43.9199C11.0843 40.3827 11.6078 37.1809 13.0902 34.3785C15.2488 30.1194 19.359 27.0431 21.8585 25.7184Z" fill="#F3EDE0"/>
<path d="M10.0649 43.8804H19.8441C21.0527 32.4108 11.1485 26.7918 8.11389 25.4358C7.48196 27.5291 6.70785 28.2829 5.79937 30.1753C1.25736 33.7299 2.43113 42.4635 10.0649 43.8804Z" fill="#F3EDE0"/>
<g clip-path="url(#clip0_4053_9800)">
<path d="M7.96111 11.4534C7.96111 7.09077 11.5411 3.5542 15.9572 3.5542H24.268C28.1323 3.5542 31.4436 6.28422 32.135 10.0401L36.6571 34.6065C37.5497 39.4554 33.779 43.9189 28.7901 43.9189H11.0709C4.1104 43.9189 0.473435 35.7423 5.181 30.6773L5.85498 29.9522C7.20952 28.4948 7.96111 26.5883 7.96111 24.6098L7.96111 11.4534Z" fill="#2E2A24"/>
</g>
<path d="M23.8726 28.319L15.5317 30.8073C17.6803 27.774 23.3519 24.6854 24.6625 24.4089L22.4113 26.7392L23.8726 28.319Z" fill="#2E2A24"/>
<path d="M8.94023 28.7438L15.5317 30.8072C13.8666 28.2918 9.86871 26.1782 8.11379 25.4358L10.0728 27.4337L8.94023 28.7438Z" fill="#2E2A24"/>
<path d="M34.5339 16.5691C32.5041 19.6819 29.8006 22.3212 27.2507 22.8533C26.1047 23.0925 25.0169 22.9007 24.0224 22.1778C23.4417 21.7499 23.0201 21.1959 22.8936 20.5895C22.8005 20.1436 22.8801 19.6804 23.2344 19.2901L25.5562 16.777C25.9053 16.4064 26.231 16.1896 26.5508 16.1228C26.9506 16.0394 27.3633 16.1952 27.8557 16.5112L28.6167 17.0037C28.735 17.0814 28.8686 17.1 28.9841 17.0759C29.1174 17.0481 29.2395 16.9668 29.3191 16.9037C29.8085 16.4945 30.5809 15.4865 31.2781 14.4291C31.9664 13.3735 32.5777 12.2596 32.7466 11.6474C32.7705 11.5401 32.7978 11.4041 32.7699 11.2704C32.7457 11.1544 32.686 11.0459 32.5678 10.9683L31.8011 10.449C31.3246 10.1204 31.0103 9.81375 30.9247 9.40358C30.8577 9.08257 30.9273 8.70515 31.1419 8.22302L32.4882 5.12257C32.701 4.63153 33.1061 4.35157 33.5859 4.25145C34.1723 4.12908 34.8322 4.2705 35.4625 4.66937C36.4974 5.3188 37.0934 6.26451 37.3297 7.39695C37.8638 9.95609 36.5656 13.4652 34.5339 16.5691Z" fill="#2E2A24"/>
<path d="M34.8669 29.4703C33.6419 30.7501 31.6112 30.7945 30.3314 29.5695L26.6555 26.0509C25.3757 24.8259 25.3313 22.7952 26.5564 21.5154C27.7814 20.2355 29.8121 20.1911 31.0919 21.4162L34.7678 24.9347C36.0476 26.1598 36.092 28.1904 34.8669 29.4703Z" fill="#846047"/>
<path d="M27.6138 26.9682L26.6555 26.0509C25.3757 24.8259 25.3313 22.7952 26.5564 21.5154C27.7814 20.2355 29.8121 20.1911 31.0919 21.4162L32.0502 22.3335L27.6138 26.9682Z" fill="#4B3E35"/>
<defs>
<clipPath id="clip0_4053_9800">
<rect width="33.3344" height="6.08235" fill="white" transform="translate(3.45361 37.8374)"/>
</clipPath>
</defs>
</svg>
