<svg width="499" height="595" viewBox="0 0 499 595" fill="none" xmlns="http://www.w3.org/2000/svg">
<path d="M126.331 332.05C110.822 315.847 85.115 315.285 68.9126 330.794L22.378 375.337C6.17563 390.846 5.61354 416.553 21.1225 432.756C36.6315 448.958 62.3386 449.52 78.541 434.011L125.076 389.468C141.278 373.959 141.84 348.252 126.331 332.05Z" fill="#846047"/>
<path d="M34.6212 363.309L22.4893 374.922C6.28691 390.431 5.72479 416.138 21.2338 432.341C36.7428 448.543 62.4499 449.105 78.6523 433.596L90.7842 421.983L34.6212 363.309Z" fill="#4B3E35"/>
<path d="M240.802 2.19707C219.747 -9.05397 200.446 25.6367 193.428 44.3885L240.802 69C249.575 51.4203 261.857 13.4481 240.802 2.19707Z" fill="#A37556"/>
<rect x="293.428" y="537" width="104" height="58" rx="29" fill="#846047"/>
<path d="M293.428 572H397.428C397.428 584.703 387.13 595 374.428 595H316.428C303.725 595 293.428 584.703 293.428 572Z" fill="#4B3E35"/>
<rect x="93.4277" y="537" width="104" height="58" rx="29" fill="#846047"/>
<path d="M93.4277 572H197.428C197.428 584.703 187.13 595 174.428 595H116.428C103.725 595 93.4277 584.703 93.4277 572Z" fill="#4B3E35"/>
<path d="M97.1104 145C97.1104 89.7715 141.882 45 197.11 45H301.047C349.374 45 390.787 79.5608 399.433 127.109L455.988 438.109C467.151 499.494 419.993 556 357.602 556H136.002C48.9527 556 3.4681 452.488 62.3418 388.367L70.7707 379.187C87.7108 360.737 97.1104 336.602 97.1104 311.555L97.1104 145Z" fill="#A37556"/>
<path d="M51.5631 142.579C58.343 100.187 94.9139 69 137.844 69C180.069 69 216.253 99.1943 223.811 140.737L236.986 213.149C248.15 274.511 201.012 331 138.643 331C77.1402 331 30.2266 275.987 39.9395 215.256L51.5631 142.579Z" fill="#604F44"/>
<path d="M120.312 132.789C115.893 156.391 101.034 218.496 120.312 225.579M120.312 225.579C131.428 235 169.347 252.521 187.237 255M120.312 225.579C94.9277 241 87.4277 248.5 83.4277 255" stroke="#3A2E2B" stroke-width="10" stroke-linecap="round"/>
<ellipse cx="118.928" cy="133" rx="25.5" ry="17" fill="#3A2E2B"/>
<path d="M271.428 90C281.594 90.5 304.628 96.2 315.428 115" stroke="#3A2E2B" stroke-width="15" stroke-linecap="round"/>
<path d="M376.802 12.1971C355.747 0.946033 336.446 35.6367 329.428 54.3885L376.802 79C385.575 61.4203 397.857 23.4481 376.802 12.1971Z" fill="#A37556"/>
<path d="M268.598 325.577C307.694 300.975 392.998 283.668 425.334 274C464.272 361.345 506.168 539.33 362.254 552.506L147.556 556C132.2 511.221 138.828 470.687 157.594 435.209C184.921 381.291 236.954 342.346 268.598 325.577Z" fill="#F3EDE0"/>
<path d="M119.295 555.501H243.095C258.396 410.301 133.013 339.167 94.5957 322C86.5958 348.5 76.7958 358.043 65.2949 382C7.79492 427 22.6543 537.563 119.295 555.501Z" fill="#F3EDE0"/>
<g clip-path="url(#clip0_4053_702)">
<path d="M92.6553 145C92.6553 89.7715 137.976 45 193.882 45H299.093C348.014 45 389.934 79.5608 398.687 127.109L455.935 438.109C467.235 499.494 419.499 556 356.342 556H132.024C43.907 556 -2.13556 452.488 57.4602 388.367L65.9925 379.187C83.1405 360.737 92.6553 336.602 92.6553 311.555L92.6553 145Z" fill="#2E2A24"/>
</g>
<path d="M294.098 358.5L188.506 390C215.706 351.6 287.506 312.5 304.098 309L275.598 338.5L294.098 358.5Z" fill="#2E2A24"/>
<path d="M105.06 363.878L188.506 390C167.426 358.156 116.814 331.398 94.5977 322L119.398 347.293L105.06 363.878Z" fill="#2E2A24"/>
<path d="M429.075 209.753C403.379 249.16 369.154 282.571 336.873 289.308C322.364 292.335 308.594 289.908 296.004 280.756C288.652 275.339 283.315 268.325 281.713 260.649C280.535 255.004 281.542 249.141 286.028 244.2L315.421 212.384C319.841 207.692 323.964 204.948 328.012 204.103C333.074 203.046 338.298 205.019 344.532 209.019L354.166 215.254C355.663 216.238 357.355 216.474 358.817 216.169C360.504 215.817 362.05 214.787 363.057 213.988C369.253 208.807 379.031 196.047 387.858 182.661C396.572 169.298 404.31 155.196 406.448 147.446C406.751 146.087 407.096 144.366 406.743 142.673C406.437 141.205 405.681 139.832 404.184 138.848L394.479 132.274C388.446 128.114 384.467 124.233 383.384 119.04C382.536 114.976 383.416 110.198 386.133 104.095L403.177 64.8443C405.871 58.6279 411 55.0837 417.073 53.8162C424.497 52.267 432.852 54.0575 440.83 59.1069C453.931 67.3284 461.477 79.3007 464.469 93.637C471.23 126.035 454.796 170.459 429.075 209.753Z" fill="#2E2A24"/>
<path d="M433.287 373.074C417.778 389.276 392.071 389.839 375.869 374.33L329.334 329.786C313.132 314.278 312.57 288.57 328.079 272.368C343.588 256.166 369.295 255.604 385.497 271.113L432.032 315.656C448.234 331.165 448.796 356.872 433.287 373.074Z" fill="#846047"/>
<path d="M341.466 341.399L329.334 329.786C313.132 314.278 312.57 288.57 328.079 272.368C343.588 256.166 369.295 255.604 385.497 271.113L397.629 282.725L341.466 341.399Z" fill="#4B3E35"/>
<defs>
<clipPath id="clip0_4053_702">
<rect width="422" height="77" fill="white" transform="translate(35.5977 479)"/>
</clipPath>
</defs>
</svg>
