<svg width="537" height="595" viewBox="0 0 537 595" fill="none" xmlns="http://www.w3.org/2000/svg">
<path d="M240.197 2.19707C219.141 -9.05397 199.841 25.6367 192.822 44.3885L240.197 69C248.97 51.4203 261.252 13.4481 240.197 2.19707Z" fill="#A37556"/>
<path d="M118.021 324.753C101.39 309.705 75.7086 310.989 60.6607 327.621L17.4422 375.388C2.39437 392.02 3.67827 417.701 20.3098 432.749C36.9414 447.796 62.6226 446.513 77.6704 429.881L120.889 382.114C135.937 365.482 134.653 339.801 118.021 324.753Z" fill="#846047"/>
<path d="M28.7908 362.513L17.5234 374.966C2.47557 391.597 3.75945 417.279 20.391 432.327C37.0226 447.374 62.7038 446.09 77.7516 429.459L89.0191 417.006L28.7908 362.513Z" fill="#4B3E35"/>
<rect x="292.822" y="537" width="104" height="58" rx="29" fill="#846047"/>
<path d="M292.822 572H396.822C396.822 584.703 386.525 595 373.822 595H315.822C303.12 595 292.822 584.703 292.822 572Z" fill="#4B3E35"/>
<rect x="92.8223" y="537" width="104" height="58" rx="29" fill="#846047"/>
<path d="M92.8223 572H196.822C196.822 584.703 186.525 595 173.822 595H115.822C103.12 595 92.8223 584.703 92.8223 572Z" fill="#4B3E35"/>
<path d="M96.5049 145C96.5049 89.7715 141.276 45 196.505 45H300.441C348.769 45 390.182 79.5608 398.828 127.109L455.383 438.109C466.546 499.494 419.388 556 356.996 556H135.397C48.3473 556 2.86263 452.488 61.7363 388.367L70.1652 379.187C87.1054 360.737 96.505 336.602 96.505 311.555L96.5049 145Z" fill="#A37556"/>
<path d="M50.9576 142.579C57.7375 100.187 94.3085 69 137.239 69C179.464 69 215.647 99.1943 223.206 140.737L236.381 213.149C247.545 274.511 200.406 331 138.037 331C76.5348 331 29.6211 275.987 39.334 215.256L50.9576 142.579Z" fill="#604F44"/>
<path d="M119.222 249.949C111.133 249.123 102.37 240.656 99 236.526C116.911 222.896 132.463 230.847 138 236.526C135.111 241.344 127.311 250.775 119.222 249.949Z" fill="#A2766B"/>
<path d="M119.706 132.789C115.288 156.391 100.429 218.496 119.706 225.579M119.706 225.579C130.822 235 168.741 252.521 186.631 255M119.706 225.579C94.3223 241 86.8223 248.5 82.8223 255" stroke="#3A2E2B" stroke-width="10" stroke-linecap="round"/>
<ellipse cx="118.322" cy="133" rx="25.5" ry="17" fill="#3A2E2B"/>
<path d="M270.822 90C280.989 90.5 304.022 96.2 314.822 115" stroke="#3A2E2B" stroke-width="15" stroke-linecap="round"/>
<path d="M402.966 391.294C383.302 380.507 376.105 355.821 386.892 336.157L417.873 279.679C428.661 260.015 453.346 252.819 473.011 263.606C492.675 274.393 499.871 299.078 489.084 318.743L458.103 375.22C447.316 394.884 422.63 402.081 402.966 391.294Z" fill="#846047"/>
<path d="M409.797 294.403L417.873 279.679C428.661 260.015 453.346 252.819 473.011 263.606C492.675 274.393 499.871 299.078 489.084 318.743L481.007 333.467L409.797 294.403Z" fill="#4B3E35"/>
<path d="M376.197 12.1971C355.141 0.946033 335.841 35.6367 328.822 54.3885L376.197 79C384.97 61.4203 397.252 23.4481 376.197 12.1971Z" fill="#A37556"/>
<g clip-path="url(#clip0_3483_17230)">
<path d="M466.931 236.88C441.234 276.287 407.009 309.698 374.728 316.435C360.22 319.462 346.449 317.035 333.859 307.883C326.508 302.466 321.17 295.452 319.568 287.776C318.39 282.131 319.397 276.268 323.883 271.327L353.276 239.511C357.696 234.819 361.819 232.074 365.867 231.23C370.929 230.173 376.153 232.146 382.387 236.146L392.021 242.381C393.518 243.365 395.211 243.601 396.672 243.296C398.359 242.943 399.905 241.914 400.913 241.115C407.108 235.934 416.887 223.174 425.713 209.788C434.427 196.425 442.165 182.323 444.304 174.573C444.607 173.214 444.952 171.493 444.599 169.8C444.292 168.332 443.536 166.959 442.04 165.975L432.334 159.401C426.302 155.241 422.323 151.36 421.239 146.167C420.391 142.103 421.272 137.325 423.989 131.222L441.033 91.9712C443.726 85.7548 448.855 82.2107 454.929 80.9431C462.352 79.394 470.707 81.1844 478.686 86.2339C491.787 94.4554 499.332 106.428 502.324 120.764C509.085 153.161 492.651 197.586 466.931 236.88Z" fill="#290D0D"/>
</g>
<defs>
<clipPath id="clip0_3483_17230">
<rect width="217.271" height="222.444" fill="white" transform="matrix(-0.978911 0.204287 0.204287 0.978911 490.688 65)"/>
</clipPath>
</defs>
</svg>
