<svg width="499" height="595" viewBox="0 0 499 595" fill="none" xmlns="http://www.w3.org/2000/svg">
<path d="M126.331 332.05C110.822 315.847 85.115 315.285 68.9126 330.794L22.378 375.337C6.17563 390.846 5.61354 416.553 21.1225 432.756C36.6315 448.958 62.3386 449.52 78.541 434.011L125.076 389.468C141.278 373.959 141.84 348.252 126.331 332.05Z" fill="#846047"/>
<path d="M34.6212 363.309L22.4893 374.922C6.28691 390.431 5.72479 416.138 21.2338 432.341C36.7428 448.543 62.4499 449.105 78.6523 433.596L90.7842 421.983L34.6212 363.309Z" fill="#4B3E35"/>
<path d="M240.803 2.19707C219.748 -9.05397 200.447 25.6367 193.429 44.3885L240.803 69C249.576 51.4203 261.858 13.4481 240.803 2.19707Z" fill="#A37556"/>
<rect x="293.429" y="537" width="104" height="58" rx="29" fill="#846047"/>
<path d="M293.429 572H397.429C397.429 584.703 387.131 595 374.429 595H316.429C303.726 595 293.429 584.703 293.429 572Z" fill="#4B3E35"/>
<rect x="93.4287" y="537" width="104" height="58" rx="29" fill="#846047"/>
<path d="M93.4287 572H197.429C197.429 584.703 187.131 595 174.429 595H116.429C103.726 595 93.4287 584.703 93.4287 572Z" fill="#4B3E35"/>
<path d="M97.1114 145C97.1114 89.7715 141.883 45 197.111 45H301.048C349.375 45 390.788 79.5608 399.434 127.109L455.989 438.109C467.152 499.494 419.994 556 357.603 556H136.003C48.9537 556 3.46908 452.488 62.3427 388.367L70.7717 379.187C87.7118 360.737 97.1114 336.602 97.1114 311.555L97.1114 145Z" fill="#A37556"/>
<path d="M51.5641 142.579C58.344 100.187 94.9149 69 137.845 69C180.07 69 216.254 99.1943 223.812 140.737L236.987 213.149C248.151 274.511 201.013 331 138.644 331C77.1412 331 30.2276 275.987 39.9405 215.256L51.5641 142.579Z" fill="#604F44"/>
<path d="M120.313 132.789C115.894 156.391 101.035 218.496 120.313 225.579M120.313 225.579C131.429 235 169.348 252.521 187.238 255M120.313 225.579C94.9287 241 87.4287 248.5 83.4287 255" stroke="#3A2E2B" stroke-width="10" stroke-linecap="round"/>
<ellipse cx="118.929" cy="133" rx="25.5" ry="17" fill="#3A2E2B"/>
<path d="M271.429 90C281.595 90.5 304.629 96.2 315.429 115" stroke="#3A2E2B" stroke-width="15" stroke-linecap="round"/>
<path d="M376.803 12.1971C355.748 0.946033 336.447 35.6367 329.429 54.3885L376.803 79C385.576 61.4203 397.858 23.4481 376.803 12.1971Z" fill="#A37556"/>
<path d="M268.6 325.577C307.696 300.975 393 283.668 425.336 274C464.274 361.345 506.17 539.33 362.256 552.506L147.558 556C132.202 511.221 138.83 470.687 157.596 435.209C184.923 381.291 236.956 342.346 268.6 325.577Z" fill="#F3EDE0"/>
<path d="M119.297 555.501H243.097C258.398 410.301 133.015 339.167 94.5977 322C86.5977 348.5 76.7978 358.043 65.2968 382C7.79688 427 22.6563 537.563 119.297 555.501Z" fill="#F3EDE0"/>
<g clip-path="url(#clip0_5022_11519)">
<path d="M92.6563 145C92.6563 89.7715 137.977 45 193.883 45H299.094C348.015 45 389.935 79.5608 398.688 127.109L455.936 438.109C467.236 499.494 419.5 556 356.343 556H132.025C43.9079 556 -2.13458 452.488 57.4612 388.367L65.9935 379.187C83.1414 360.737 92.6563 336.602 92.6563 311.555L92.6563 145Z" fill="#2E2A24"/>
</g>
<path d="M294.099 358.5L188.507 390C215.707 351.6 287.507 312.5 304.099 309L275.599 338.5L294.099 358.5Z" fill="#2E2A24"/>
<path d="M105.061 363.878L188.507 390C167.427 358.156 116.815 331.398 94.5986 322L119.399 347.293L105.061 363.878Z" fill="#2E2A24"/>
<path d="M429.075 209.753C403.379 249.16 369.154 282.571 336.873 289.308C322.364 292.335 308.594 289.908 296.004 280.756C288.652 275.339 283.315 268.325 281.713 260.649C280.535 255.004 281.542 249.141 286.028 244.2L315.421 212.384C319.841 207.692 323.964 204.948 328.012 204.103C333.074 203.046 338.298 205.019 344.532 209.019L354.166 215.254C355.663 216.238 357.355 216.474 358.817 216.169C360.504 215.817 362.05 214.787 363.057 213.988C369.253 208.807 379.031 196.047 387.858 182.661C396.572 169.298 404.31 155.196 406.448 147.446C406.751 146.087 407.096 144.366 406.743 142.673C406.437 141.205 405.681 139.832 404.184 138.848L394.479 132.274C388.446 128.114 384.467 124.233 383.384 119.04C382.536 114.976 383.416 110.198 386.133 104.095L403.177 64.8443C405.871 58.6279 411 55.0837 417.073 53.8162C424.497 52.267 432.852 54.0575 440.83 59.1069C453.931 67.3284 461.477 79.3007 464.469 93.637C471.23 126.035 454.796 170.459 429.075 209.753Z" fill="#2E2A24"/>
<path d="M433.287 373.074C417.778 389.276 392.071 389.839 375.869 374.33L329.334 329.786C313.132 314.278 312.57 288.57 328.079 272.368C343.588 256.166 369.295 255.604 385.497 271.113L432.032 315.656C448.234 331.165 448.796 356.872 433.287 373.074Z" fill="#846047"/>
<path d="M341.466 341.399L329.334 329.786C313.132 314.278 312.57 288.57 328.079 272.368C343.588 256.166 369.295 255.604 385.497 271.113L397.629 282.725L341.466 341.399Z" fill="#4B3E35"/>
<defs>
<clipPath id="clip0_5022_11519">
<rect width="422" height="77" fill="white" transform="translate(35.5986 479)"/>
</clipPath>
</defs>
</svg>
