<svg width="447" height="595" viewBox="0 0 447 595" fill="none" xmlns="http://www.w3.org/2000/svg">
<path d="M214.204 2.19707C193.149 -9.05397 173.848 25.6367 166.83 44.3885L214.204 69C222.977 51.4203 235.26 13.4481 214.204 2.19707Z" fill="#A37556"/>
<path d="M95.1063 322.069C75.9323 310.433 50.9557 316.543 39.3194 335.717L5.89904 390.787C-5.73724 409.961 0.373318 434.937 19.5473 446.574C38.7213 458.21 63.698 452.099 75.3343 432.925L108.755 377.856C120.391 358.682 114.28 333.705 95.1063 322.069Z" fill="#3C3C3C"/>
<path d="M14.612 376L5.89905 390.357C-5.73723 409.531 0.373312 434.507 19.5473 446.144C38.7213 457.78 63.698 451.669 75.3343 432.495L84.0473 418.138L14.612 376Z" fill="#4B3E35"/>
<rect x="266.83" y="537" width="104" height="58" rx="29" fill="#846047"/>
<path d="M266.83 572H370.83C370.83 584.703 360.533 595 347.83 595H289.83C277.128 595 266.83 584.703 266.83 572Z" fill="#4B3E35"/>
<rect x="66.8301" y="537" width="104" height="58" rx="29" fill="#846047"/>
<path d="M66.8301 572H170.83C170.83 584.703 160.533 595 147.83 595H89.8301C77.1275 595 66.8301 584.703 66.8301 572Z" fill="#4B3E35"/>
<path d="M70.5128 145C70.5128 89.7715 115.284 45 170.513 45H274.449C322.777 45 364.189 79.5608 372.836 127.109L429.391 438.109C440.553 499.494 393.396 556 331.004 556H109.404C22.3551 556 -23.1296 452.488 35.7441 388.367L44.173 379.187C61.1132 360.737 70.5128 336.602 70.5128 311.555L70.5128 145Z" fill="#A37556"/>
<g clip-path="url(#clip0_3483_17169)">
<path d="M70.5128 145C70.5128 89.7715 115.284 45 170.513 45H274.449C322.777 45 364.189 79.5608 372.836 127.109L429.391 438.109C440.553 499.494 393.396 556 331.004 556H109.404C22.3551 556 -23.1296 452.488 35.7441 388.367L44.173 379.187C61.1132 360.737 70.5128 336.602 70.5128 311.555L70.5128 145Z" fill="#2C2C2C"/>
</g>
<path d="M301.984 503.016C297.078 503.016 292.75 502.297 289 500.859C285.25 499.391 282.266 497.281 280.047 494.531C277.859 491.75 276.625 488.422 276.344 484.547L276.297 483.844H288.812L288.906 484.359C289.219 485.953 289.875 487.375 290.875 488.625C291.906 489.844 293.359 490.797 295.234 491.484C297.109 492.172 299.484 492.516 302.359 492.516C305.203 492.516 307.516 492.188 309.297 491.531C311.078 490.844 312.391 489.922 313.234 488.766C314.078 487.578 314.5 486.219 314.5 484.688V484.594C314.5 482.562 313.766 480.938 312.297 479.719C310.859 478.469 308.125 477.406 304.094 476.531L296.172 474.844C292.016 473.969 288.531 472.734 285.719 471.141C282.906 469.516 280.797 467.5 279.391 465.094C277.984 462.656 277.281 459.781 277.281 456.469V456.375C277.281 452.531 278.312 449.188 280.375 446.344C282.438 443.469 285.312 441.25 289 439.688C292.688 438.125 296.938 437.344 301.75 437.344C306.562 437.344 310.766 438.078 314.359 439.547C317.984 440.984 320.844 443.078 322.938 445.828C325.062 448.547 326.281 451.844 326.594 455.719L326.688 456.516H314.172L314.078 456.094C313.828 454.312 313.172 452.812 312.109 451.594C311.047 450.344 309.641 449.406 307.891 448.781C306.172 448.156 304.125 447.844 301.75 447.844C299.25 447.844 297.156 448.188 295.469 448.875C293.781 449.531 292.5 450.438 291.625 451.594C290.781 452.719 290.359 453.969 290.359 455.344V455.438C290.359 456.688 290.672 457.812 291.297 458.812C291.922 459.812 292.938 460.688 294.344 461.438C295.781 462.188 297.672 462.812 300.016 463.312L308.078 465C314.609 466.375 319.484 468.5 322.703 471.375C325.953 474.25 327.578 478.219 327.578 483.281V483.375C327.578 487.531 326.469 491.078 324.25 494.016C322.062 496.922 319.047 499.156 315.203 500.719C311.359 502.25 306.953 503.016 301.984 503.016ZM299.688 510.797V429.562H304.375V510.797H299.688Z" fill="#F6B331"/>
<rect x="59.8786" y="325.41" width="43" height="52" rx="21.5" transform="rotate(-31.6011 59.8786 325.41)" stroke="#F6B331" stroke-width="10"/>
<rect x="79.8786" y="353.41" width="43" height="52" rx="21.5" transform="rotate(-31.6011 79.8786 353.41)" stroke="#F6B331" stroke-width="10"/>
<rect x="109.492" y="396.457" width="43" height="52" rx="21.5" transform="rotate(-68.3474 109.492 396.457)" stroke="#F6B331" stroke-width="10"/>
<rect x="154.762" y="416.534" width="43" height="52" rx="21.5" transform="rotate(-96.9377 154.762 416.534)" stroke="#F6B331" stroke-width="10"/>
<rect x="195.399" y="417.441" width="43" height="52" rx="21.5" transform="rotate(-105.511 195.399 417.441)" stroke="#F6B331" stroke-width="10"/>
<rect x="230.942" y="405.003" width="43" height="52" rx="21.5" transform="rotate(-105.511 230.942 405.003)" stroke="#F6B331" stroke-width="10"/>
<rect x="273.739" y="397.024" width="43" height="52" rx="21.5" transform="rotate(-128.41 273.739 397.024)" stroke="#F6B331" stroke-width="10"/>
<rect x="303.739" y="375.024" width="43" height="52" rx="21.5" transform="rotate(-128.41 303.739 375.024)" stroke="#F6B331" stroke-width="10"/>
<rect x="324.407" y="351.263" width="43" height="52" rx="21.5" transform="rotate(-105.196 324.407 351.263)" stroke="#F6B331" stroke-width="10"/>
<rect x="360.407" y="336.263" width="43" height="52" rx="21.5" transform="rotate(-105.196 360.407 336.263)" stroke="#F6B331" stroke-width="10"/>
<path d="M24.9655 142.579C31.7453 100.187 68.3163 69 111.247 69C153.471 69 189.655 99.1943 197.213 140.737L210.388 213.149C221.553 274.511 174.414 331 112.045 331C50.5426 331 3.62893 275.987 13.3418 215.256L24.9655 142.579Z" fill="#604F44"/>
<path d="M93.7141 132.789C89.2956 156.391 74.4364 218.496 93.7141 225.579M93.7141 225.579C104.83 235 142.749 252.521 160.639 255M93.7141 225.579C68.3301 241 60.8301 248.5 56.8301 255" stroke="#3A2E2B" stroke-width="10" stroke-linecap="round"/>
<ellipse cx="92.3301" cy="133" rx="25.5" ry="17" fill="#3A2E2B"/>
<path d="M244.83 90C254.997 90.5 278.03 96.2 288.83 115" stroke="#3A2E2B" stroke-width="15" stroke-linecap="round"/>
<path d="M351.696 322.069C370.87 310.433 395.846 316.543 407.483 335.717L440.903 390.787C452.539 409.961 446.429 434.937 427.255 446.574C408.081 458.21 383.104 452.099 371.468 432.925L338.047 377.856C326.411 358.682 332.522 333.705 351.696 322.069Z" fill="#3C3C3C"/>
<path d="M432.19 376.43L440.903 390.787C452.539 409.961 446.429 434.937 427.255 446.574C408.081 458.21 383.104 452.099 371.468 432.925L362.755 418.568L432.19 376.43Z" fill="#4B3E35"/>
<path d="M350.204 12.1971C329.149 0.946033 309.848 35.6367 302.83 54.3885L350.204 79C358.977 61.4203 371.26 23.4481 350.204 12.1971Z" fill="#A37556"/>
<circle cx="263.5" cy="111.5" r="46.5" fill="#313131"/>
<rect x="303" y="107" width="82" height="10" rx="5" fill="#313131"/>
<defs>
<clipPath id="clip0_3483_17169">
<rect width="422" height="240" fill="white" transform="translate(9 316)"/>
</clipPath>
</defs>
</svg>
