<svg width="36" height="47" viewBox="0 0 36 47" fill="none" xmlns="http://www.w3.org/2000/svg">
<path d="M17.6269 0.174038C15.9638 -0.714699 14.4392 2.02557 13.8848 3.5068L17.6269 5.45091C18.3199 4.06226 19.2901 1.06278 17.6269 0.174038Z" fill="#A37556"/>
<path d="M8.21963 25.4411C6.70505 24.5219 4.7321 25.0046 3.81293 26.5192L1.17301 30.8692C0.253837 32.3838 0.73652 34.3567 2.25111 35.2759C3.76569 36.1951 5.73864 35.7124 6.65781 34.1978L9.29773 29.8478C10.2169 28.3332 9.73422 26.3602 8.21963 25.4411Z" fill="#3C3C3C"/>
<path d="M1.86126 29.7011L1.17301 30.8352C0.253838 32.3498 0.73652 34.3228 2.25111 35.2419C3.76569 36.1611 5.73864 35.6784 6.65781 34.1638L7.34606 33.0297L1.86126 29.7011Z" fill="#4B3E35"/>
<rect x="21.7847" y="42.4189" width="8.21513" height="4.58151" rx="2.29076" fill="#846047"/>
<path d="M21.7842 45.1836H29.9993V45.1836C29.9993 46.187 29.1859 47.0004 28.1825 47.0004H23.601C22.5976 47.0004 21.7842 46.187 21.7842 45.1836V45.1836Z" fill="#4B3E35"/>
<rect x="5.98682" y="42.4189" width="8.21513" height="4.58151" rx="2.29076" fill="#846047"/>
<path d="M5.98633 45.1836H14.2015V45.1836C14.2015 46.187 13.388 47.0004 12.3846 47.0004H7.80314C6.79974 47.0004 5.98633 46.187 5.98633 45.1836V45.1836Z" fill="#4B3E35"/>
<path d="M6.27721 11.4538C6.27721 7.09126 9.81378 3.55469 14.1764 3.55469H22.3865C26.2039 3.55469 29.4752 6.2847 30.1582 10.0406L34.6256 34.607C35.5073 39.4559 31.7823 43.9194 26.8538 43.9194H9.34932C2.47315 43.9194 -1.11975 35.7428 3.53078 30.6778L4.19659 29.9527C5.53472 28.4953 6.27721 26.5888 6.27721 24.6103L6.27721 11.4538Z" fill="#A37556"/>
<g clip-path="url(#clip0_4818_8590)">
<path d="M6.2777 11.4538C6.2777 7.09126 9.81427 3.55469 14.1769 3.55469H22.387C26.2044 3.55469 29.4757 6.2847 30.1587 10.0406L34.626 34.607C35.5078 39.4559 31.7827 43.9194 26.8543 43.9194H9.3498C2.47364 43.9194 -1.11926 35.7428 3.53126 30.6778L4.19708 29.9527C5.53521 28.4953 6.2777 26.5888 6.2777 24.6103L6.2777 11.4538Z" fill="#2C2C2C"/>
</g>
<path d="M24.6645 39.3632C24.2843 39.3632 23.9437 39.3052 23.6425 39.1891C23.3438 39.0706 23.1056 38.8991 22.9279 38.6745C22.7526 38.4498 22.6588 38.1758 22.6465 37.8524L22.6502 37.8487H23.6388V37.8524C23.6635 37.9932 23.7166 38.1153 23.798 38.219C23.882 38.3202 23.9967 38.398 24.1424 38.4523C24.288 38.5066 24.467 38.5337 24.6793 38.5337C24.9014 38.5337 25.0853 38.5103 25.231 38.4634C25.3766 38.414 25.4852 38.3437 25.5568 38.2523C25.6309 38.161 25.6679 38.0536 25.6679 37.9302V37.9228C25.6679 37.75 25.6025 37.6155 25.4717 37.5192C25.3433 37.4205 25.1113 37.3341 24.7755 37.26L24.2238 37.1341C23.9029 37.0625 23.6314 36.9638 23.4092 36.8379C23.1871 36.712 23.018 36.5553 22.902 36.3677C22.7859 36.1776 22.7279 35.9505 22.7279 35.6863V35.6789C22.7279 35.3654 22.8119 35.0964 22.9797 34.8717C23.1476 34.6471 23.3771 34.4756 23.6684 34.3571C23.9597 34.2361 24.2905 34.1756 24.6608 34.1756C25.0483 34.1756 25.3865 34.2386 25.6753 34.3645C25.9666 34.4904 26.1949 34.6693 26.3603 34.9014C26.5282 35.1309 26.6183 35.4025 26.6306 35.716L26.6269 35.7197L25.6457 35.7234L25.642 35.716C25.6247 35.5605 25.5729 35.4309 25.4865 35.3272C25.4001 35.221 25.2878 35.1408 25.1495 35.0865C25.0113 35.0322 24.8533 35.005 24.6756 35.005C24.4756 35.005 24.3078 35.031 24.172 35.0828C24.0362 35.1346 23.9338 35.205 23.8647 35.2939C23.7956 35.3827 23.761 35.4839 23.761 35.5975V35.6049C23.761 35.7061 23.7906 35.7962 23.8499 35.8752C23.9091 35.9542 24.0004 36.0233 24.1239 36.0825C24.2473 36.1418 24.409 36.1949 24.6089 36.2418L25.1606 36.3639C25.6667 36.4775 26.0493 36.6454 26.3085 36.8675C26.5701 37.0897 26.701 37.4044 26.701 37.8117V37.8191C26.701 38.1474 26.6121 38.4276 26.4344 38.6596C26.2591 38.8892 26.0172 39.0645 25.7086 39.1854C25.4025 39.3039 25.0545 39.3632 24.6645 39.3632ZM24.4719 39.9667V33.561H24.8977V39.9667H24.4719Z" fill="#F6B331"/>
<rect x="5.43739" y="25.7051" width="3.39664" height="4.10756" rx="1.69832" transform="rotate(-31.6011 5.43739 25.7051)" stroke="#F6B331" stroke-width="0.789916"/>
<rect x="7.01747" y="27.917" width="3.39664" height="4.10756" rx="1.69832" transform="rotate(-31.6011 7.01747 27.917)" stroke="#F6B331" stroke-width="0.789916"/>
<rect x="9.35608" y="31.3172" width="3.39664" height="4.10756" rx="1.69832" transform="rotate(-68.3474 9.35608 31.3172)" stroke="#F6B331" stroke-width="0.789916"/>
<rect x="12.9327" y="32.903" width="3.39664" height="4.10756" rx="1.69832" transform="rotate(-96.9377 12.9327 32.903)" stroke="#F6B331" stroke-width="0.789916"/>
<rect x="16.1426" y="32.9747" width="3.39664" height="4.10756" rx="1.69832" transform="rotate(-105.511 16.1426 32.9747)" stroke="#F6B331" stroke-width="0.789916"/>
<rect x="18.9502" y="31.9923" width="3.39664" height="4.10756" rx="1.69832" transform="rotate(-105.511 18.9502 31.9923)" stroke="#F6B331" stroke-width="0.789916"/>
<rect x="22.3302" y="31.3621" width="3.39664" height="4.10756" rx="1.69832" transform="rotate(-128.41 22.3302 31.3621)" stroke="#F6B331" stroke-width="0.789916"/>
<rect x="24.7003" y="29.6243" width="3.39664" height="4.10756" rx="1.69832" transform="rotate(-128.41 24.7003 29.6243)" stroke="#F6B331" stroke-width="0.789916"/>
<rect x="26.3328" y="27.7473" width="3.39664" height="4.10756" rx="1.69832" transform="rotate(-105.196 26.3328 27.7473)" stroke="#F6B331" stroke-width="0.789916"/>
<rect x="29.1765" y="26.5622" width="3.39664" height="4.10756" rx="1.69832" transform="rotate(-105.196 29.1765 26.5622)" stroke="#F6B331" stroke-width="0.789916"/>
<path d="M2.67923 11.2628C3.21478 7.91418 6.10358 5.45068 9.49473 5.45068C12.8301 5.45068 15.6883 7.83578 16.2854 11.1173L17.3261 16.8373C18.208 21.6843 14.4844 26.1465 9.55779 26.1465C4.69961 26.1465 0.993821 21.8009 1.76106 17.0037L2.67923 11.2628Z" fill="#604F44"/>
<path d="M8.10982 10.4893C7.76079 12.3536 6.58704 17.2594 8.10982 17.8188M8.10982 17.8188C8.98789 18.563 11.9832 19.9471 13.3963 20.1429M8.10982 17.8188C6.10469 19.037 5.51226 19.6294 5.19629 20.1429" stroke="#3A2E2B" stroke-width="0.789916" stroke-linecap="round"/>
<ellipse cx="8.0011" cy="10.5059" rx="2.01429" ry="1.34286" fill="#3A2E2B"/>
<path d="M20.0469 7.10938C20.85 7.14887 22.6694 7.59912 23.5225 9.08416" stroke="#3A2E2B" stroke-width="1.18487" stroke-linecap="round"/>
<path d="M28.4874 25.4411C30.002 24.5219 31.975 25.0046 32.8941 26.5192L35.5341 30.8692C36.4532 32.3838 35.9705 34.3567 34.456 35.2759C32.9414 36.1951 30.9684 35.7124 30.0493 34.1978L27.4093 29.8478C26.4902 28.3332 26.9728 26.3602 28.4874 25.4411Z" fill="#3C3C3C"/>
<path d="M34.8458 29.7351L35.5341 30.8692C36.4532 32.3838 35.9705 34.3567 34.456 35.2759C32.9414 36.1951 30.9684 35.7124 30.0493 34.1978L29.361 33.0637L34.8458 29.7351Z" fill="#4B3E35"/>
<path d="M28.3701 0.963589C26.7069 0.0748517 25.1823 2.81513 24.6279 4.29635L28.3701 6.24046C29.0631 4.85181 30.0333 1.85233 28.3701 0.963589Z" fill="#A37556"/>
<circle cx="21.5208" cy="8.80787" r="3.67311" fill="#313131"/>
<rect x="24.6416" y="8.45215" width="6.47731" height="0.789916" rx="0.394958" fill="#313131"/>
<defs>
<clipPath id="clip0_4818_8590">
<rect width="33.3345" height="18.958" fill="white" transform="translate(1.41797 24.9614)"/>
</clipPath>
</defs>
</svg>
