<svg width="40" height="47" viewBox="0 0 40 47" fill="none" xmlns="http://www.w3.org/2000/svg">
<path d="M12.909 27.2604C12.488 25.5394 10.7516 24.4857 9.03065 24.9067L4.08801 26.1159C2.36709 26.5369 1.31331 28.2733 1.73433 29.9942C2.15536 31.7152 3.89175 32.7689 5.61267 32.3479L10.5553 31.1387C12.2762 30.7177 13.33 28.9813 12.909 27.2604Z" fill="#846047"/>
<path d="M5.40061 25.7766L4.11202 26.0919C2.3911 26.5129 1.33732 28.2493 1.75834 29.9702C2.17937 31.6911 3.91576 32.7449 5.63669 32.3239L6.92528 32.0086L5.40061 25.7766Z" fill="#4B3E35"/>
<path d="M21.3086 0.174038C19.6454 -0.714699 18.1208 2.02557 17.5664 3.5068L21.3086 5.45091C22.0016 4.06226 22.9718 1.06278 21.3086 0.174038Z" fill="#A37556"/>
<rect x="25.4668" y="42.4194" width="8.21513" height="4.58151" rx="2.29076" fill="#846047"/>
<path d="M25.4668 45.1841H33.6819C33.6819 46.1875 32.8685 47.0009 31.8651 47.0009H27.2836C26.2802 47.0009 25.4668 46.1875 25.4668 45.1841Z" fill="#4B3E35"/>
<rect x="9.66699" y="42.4194" width="8.21513" height="4.58151" rx="2.29076" fill="#846047"/>
<path d="M9.66699 45.1841H17.8821C17.8821 46.1875 17.0687 47.0009 16.0653 47.0009H11.4838C10.4804 47.0009 9.66699 46.1875 9.66699 45.1841Z" fill="#4B3E35"/>
<path d="M9.95836 11.4543C9.95836 7.09175 13.4949 3.55518 17.8575 3.55518H26.0676C29.8851 3.55518 33.1564 6.28519 33.8394 10.0411L38.3067 34.6075C39.1885 39.4563 35.4634 43.9199 30.535 43.9199H13.0305C6.15431 43.9199 2.5614 35.7433 7.21193 30.6783L7.87774 29.9532C9.21587 28.4958 9.95836 26.5893 9.95836 24.6108L9.95836 11.4543Z" fill="#A37556"/>
<path d="M6.36038 11.263C6.89593 7.91442 9.78473 5.45093 13.1759 5.45093C16.5113 5.45093 19.3695 7.83603 19.9665 11.1175L21.0072 16.8375C21.8891 21.6846 18.1656 26.1467 13.239 26.1467C8.38076 26.1467 4.67497 21.8012 5.44221 17.0039L6.36038 11.263Z" fill="#604F44"/>
<path d="M11.792 10.4907C11.4429 12.355 10.2692 17.2608 11.792 17.8203M11.792 17.8203C12.67 18.5645 15.6653 19.9485 17.0785 20.1443M11.792 17.8203C9.78682 19.0384 9.19438 19.6309 8.87842 20.1443" stroke="#3A2E2B" stroke-width="0.789916" stroke-linecap="round"/>
<ellipse cx="11.6827" cy="10.5074" rx="2.01429" ry="1.34286" fill="#3A2E2B"/>
<path d="M23.728 7.10962C24.5311 7.14911 26.3506 7.59937 27.2037 9.08441" stroke="#3A2E2B" stroke-width="1.18487" stroke-linecap="round"/>
<path d="M32.0517 0.963833C30.3886 0.0750958 28.864 2.81537 28.3096 4.2966L32.0517 6.2407C32.7447 4.85205 33.7149 1.85257 32.0517 0.963833Z" fill="#A37556"/>
<path d="M23.5046 25.7184C26.5928 23.7751 33.3311 22.408 35.8854 21.6443C38.9611 28.5438 42.2706 42.6031 30.9026 43.6439L13.9433 43.9199C12.7302 40.3827 13.2538 37.1809 14.7362 34.3785C16.8948 30.1194 21.005 27.0431 23.5046 25.7184Z" fill="#2E2A24"/>
<path d="M11.7109 43.8804H21.4901C22.6987 32.4108 12.7945 26.7918 9.75987 25.4358C9.12794 27.5291 8.35382 28.2829 7.44535 30.1753C2.90333 33.7299 4.0771 42.4635 11.7109 43.8804Z" fill="#2E2A24"/>
<g clip-path="url(#clip0_4053_9915)">
<path d="M9.60663 11.4534C9.60663 7.09077 13.1866 3.5542 17.6027 3.5542H25.9135C29.7778 3.5542 33.0892 6.28422 33.7805 10.0401L38.3027 34.6065C39.1953 39.4554 35.4245 43.9189 30.4357 43.9189H12.7164C5.75591 43.9189 2.11894 35.7423 6.82651 30.6773L7.50049 29.9522C8.85503 28.4948 9.60663 26.5883 9.60663 24.6098L9.60663 11.4534Z" fill="#F3EDE0"/>
</g>
<path d="M25.5186 28.319L17.1777 30.8073C19.3263 27.774 24.9979 24.6854 26.3085 24.4089L24.0573 26.7392L25.5186 28.319Z" fill="#F3EDE0"/>
<path d="M10.5862 28.7438L17.1777 30.8072C15.5126 28.2918 11.5147 26.1782 9.75977 25.4358L11.7188 27.4337L10.5862 28.7438Z" fill="#F3EDE0"/>
<path d="M32.4874 24.7504C34.002 23.8312 35.975 24.3139 36.8941 25.8285L39.5341 30.1785C40.4532 31.6931 39.9706 33.666 38.456 34.5852C36.9414 35.5044 34.9684 35.0217 34.0493 33.5071L31.4093 29.1571C30.4902 27.6425 30.9728 25.6696 32.4874 24.7504Z" fill="#846047"/>
<path d="M38.8458 29.0444L39.5341 30.1785C40.4532 31.6931 39.9706 33.666 38.456 34.5852C36.9414 35.5044 34.9684 35.0217 34.0493 33.5071L33.361 32.373L38.8458 29.0444Z" fill="#4B3E35"/>
<path d="M3.00093 21.9549C3.02669 21.5684 3.40029 21.3025 3.77394 21.4048L9.01632 22.8401C9.38597 22.9414 9.57296 23.3533 9.40579 23.6982L6.00838 30.7072C5.87967 30.9728 5.57996 31.1088 5.29536 31.0309L2.9308 30.3835C2.64989 30.3065 2.46197 30.0425 2.48134 29.7519L3.00093 21.9549Z" fill="#DECEAA"/>
<ellipse cx="6.32157" cy="22.4834" rx="3.24674" ry="0.79637" transform="rotate(15.3123 6.32157 22.4834)" fill="#CFE5DB"/>
<path d="M6.32178 22.5366L7.60822 19.4124L11.6207 18.7998" stroke="white" stroke-width="0.673852" stroke-linecap="round"/>
<defs>
<clipPath id="clip0_4053_9915">
<rect width="33.3345" height="6.08235" fill="white" transform="translate(5.09961 37.8374)"/>
</clipPath>
</defs>
</svg>
