<svg width="534" height="595" viewBox="0 0 534 595" fill="none" xmlns="http://www.w3.org/2000/svg">
<path d="M301.011 2.19707C279.956 -9.05397 260.655 25.6367 253.637 44.3885L301.011 69C309.784 51.4203 322.066 13.4481 301.011 2.19707Z" fill="#A37556"/>
<path d="M171.087 378.463C169.254 356.11 149.647 339.474 127.293 341.307L63.0916 346.572C40.738 348.405 24.1027 368.012 25.9357 390.365C27.7686 412.719 47.3758 429.354 69.7294 427.521L133.931 422.257C156.285 420.424 172.92 400.817 171.087 378.463Z" fill="#846047"/>
<path d="M80.1776 344.947L63.4397 346.319C41.086 348.152 24.4507 367.759 26.2837 390.113C28.1167 412.467 47.7238 429.102 70.0775 427.269L86.8154 425.897L80.1776 344.947Z" fill="#4B3E35"/>
<rect x="353.637" y="537" width="104" height="58" rx="29" fill="#846047"/>
<path d="M353.637 572H457.637C457.637 584.703 447.339 595 434.637 595H376.637C363.934 595 353.637 584.703 353.637 572Z" fill="#4B3E35"/>
<rect x="153.637" y="537" width="104" height="58" rx="29" fill="#846047"/>
<path d="M153.637 572H257.637C257.637 584.703 247.339 595 234.637 595H176.637C163.934 595 153.637 584.703 153.637 572Z" fill="#4B3E35"/>
<path d="M157.319 145C157.319 89.7715 202.091 45 257.319 45H361.256C409.583 45 450.996 79.5608 459.642 127.109L516.197 438.109C527.36 499.494 480.202 556 417.811 556H196.211C109.162 556 63.6771 452.488 122.551 388.367L130.98 379.187C147.92 360.737 157.319 336.602 157.319 311.555L157.319 145Z" fill="#A37556"/>
<g clip-path="url(#clip0_3483_17314)">
<path d="M157.319 145C157.319 89.7715 202.091 45 257.319 45H361.256C409.583 45 450.996 79.5608 459.642 127.109L516.197 438.109C527.36 499.494 480.202 556 417.811 556H196.211C109.162 556 63.6771 452.488 122.551 388.367L130.98 379.187C147.92 360.737 157.319 336.602 157.319 311.555L157.319 145Z" fill="#855E8C"/>
</g>
<path d="M111.772 142.579C118.552 100.187 155.123 69 198.053 69C240.278 69 276.462 99.1943 284.02 140.737L297.195 213.149C308.359 274.511 261.221 331 198.852 331C137.349 331 90.4356 275.987 100.148 215.256L111.772 142.579Z" fill="#604F44"/>
<path d="M180.029 248.949C171.94 248.123 163.177 239.656 159.807 235.526C177.718 221.896 193.27 229.847 198.807 235.526C195.918 240.344 188.118 249.775 180.029 248.949Z" fill="#A2766B"/>
<path d="M180.521 132.789C176.102 156.391 161.243 218.496 180.521 225.579M180.521 225.579C191.637 235 229.556 252.521 247.446 255M180.521 225.579C155.137 241 147.637 248.5 143.637 255" stroke="#3A2E2B" stroke-width="10" stroke-linecap="round"/>
<ellipse cx="179.137" cy="133" rx="25.5" ry="17" fill="#3A2E2B"/>
<path d="M331.637 90C341.803 90.5 364.837 96.2 375.637 115" stroke="#3A2E2B" stroke-width="15" stroke-linecap="round"/>
<path d="M438.502 322.069C457.676 310.433 482.653 316.543 494.289 335.717L527.71 390.787C539.346 409.961 533.235 434.937 514.061 446.574C494.887 458.21 469.911 452.099 458.274 432.925L424.854 377.856C413.218 358.682 419.328 333.705 438.502 322.069Z" fill="#846047"/>
<path d="M518.997 376.43L527.71 390.787C539.346 409.961 533.235 434.937 514.061 446.574C494.887 458.21 469.911 452.099 458.274 432.925L449.562 418.568L518.997 376.43Z" fill="#4B3E35"/>
<path d="M437.011 12.1971C415.956 0.946033 396.655 35.6367 389.637 54.3885L437.011 79C445.784 61.4203 458.066 23.4481 437.011 12.1971Z" fill="#A37556"/>
<path d="M37.4772 291.503C37.8977 285.193 43.9964 280.853 50.0959 282.523L135.673 305.954C141.707 307.606 144.759 314.331 142.031 319.961L86.571 434.377C84.47 438.711 79.5775 440.932 74.9316 439.66L36.3325 429.092C31.7469 427.836 28.6793 423.526 28.9954 418.782L37.4772 291.503Z" fill="#F6AC31"/>
<ellipse cx="91.6835" cy="300.13" rx="53" ry="13" transform="rotate(15.3123 91.6835 300.13)" fill="#D94952"/>
<path d="M91.6855 301L112.686 250L178.186 240" stroke="white" stroke-width="11" stroke-linecap="round"/>
<defs>
<clipPath id="clip0_3483_17314">
<rect width="422" height="120" fill="white" transform="translate(95.8066 436)"/>
</clipPath>
</defs>
</svg>
