<svg width="503" height="595" viewBox="0 0 503 595" fill="none" xmlns="http://www.w3.org/2000/svg">
<path d="M159.462 345.097C154.132 323.311 132.15 309.971 110.364 315.301L47.7921 330.609C26.0059 335.939 12.6656 357.921 17.9956 379.707C23.3256 401.493 45.3075 414.834 67.0937 409.504L129.665 394.195C151.452 388.866 164.792 366.884 159.462 345.097Z" fill="#846047"/>
<path d="M64.4091 326.314L48.0961 330.305C26.31 335.635 12.9696 357.617 18.2996 379.403C23.6295 401.189 45.6115 414.53 67.3977 409.2L83.7107 405.209L64.4091 326.314Z" fill="#4B3E35"/>
<path d="M265.798 2.19707C244.743 -9.05397 225.442 25.6367 218.424 44.3885L265.798 69C274.571 51.4203 286.853 13.4481 265.798 2.19707Z" fill="#A37556"/>
<rect x="318.424" y="537" width="104" height="58" rx="29" fill="#846047"/>
<path d="M318.424 572H422.424C422.424 584.703 412.126 595 399.424 595H341.424C328.721 595 318.424 584.703 318.424 572Z" fill="#4B3E35"/>
<rect x="118.424" y="537" width="104" height="58" rx="29" fill="#846047"/>
<path d="M118.424 572H222.424C222.424 584.703 212.126 595 199.424 595H141.424C128.721 595 118.424 584.703 118.424 572Z" fill="#4B3E35"/>
<path d="M122.107 145C122.107 89.7715 166.878 45 222.107 45H326.043C374.371 45 415.783 79.5608 424.43 127.109L480.984 438.109C492.147 499.494 444.99 556 382.598 556H160.998C73.9488 556 28.4642 452.488 87.3379 388.367L95.7668 379.187C112.707 360.737 122.107 336.602 122.107 311.555L122.107 145Z" fill="#A37556"/>
<path d="M76.5592 142.579C83.3391 100.187 119.91 69 162.841 69C205.065 69 241.249 99.1943 248.807 140.737L261.982 213.149C273.146 274.511 226.008 331 163.639 331C102.136 331 55.2227 275.987 64.9356 215.256L76.5592 142.579Z" fill="#604F44"/>
<path d="M145.308 132.789C140.889 156.391 126.03 218.496 145.308 225.579M145.308 225.579C156.424 235 194.343 252.521 212.233 255M145.308 225.579C119.924 241 112.424 248.5 108.424 255" stroke="#3A2E2B" stroke-width="10" stroke-linecap="round"/>
<ellipse cx="143.924" cy="133" rx="25.5" ry="17" fill="#3A2E2B"/>
<path d="M296.424 90C306.59 90.5 329.624 96.2 340.424 115" stroke="#3A2E2B" stroke-width="15" stroke-linecap="round"/>
<path d="M401.798 12.1971C380.743 0.946033 361.442 35.6367 354.424 54.3885L401.798 79C410.571 61.4203 422.853 23.4481 401.798 12.1971Z" fill="#A37556"/>
<path d="M293.595 325.577C332.691 300.975 417.995 283.668 450.331 274C489.269 361.345 531.165 539.33 387.251 552.506L172.553 556C157.197 511.221 163.825 470.687 182.591 435.209C209.918 381.291 261.952 342.346 293.595 325.577Z" fill="#2E2A24"/>
<path d="M144.292 555.501H268.093C283.393 410.301 158.01 339.167 119.593 322C111.593 348.5 101.793 358.043 90.2919 382C32.792 427 47.6514 537.563 144.292 555.501Z" fill="#2E2A24"/>
<g clip-path="url(#clip0_5022_11147)">
<path d="M117.651 145C117.651 89.7715 162.972 45 218.878 45H324.089C373.01 45 414.93 79.5608 423.683 127.109L480.931 438.109C492.231 499.494 444.495 556 381.338 556H157.02C68.903 556 22.8605 452.488 82.4563 388.367L90.9886 379.187C108.137 360.737 117.651 336.602 117.651 311.555L117.651 145Z" fill="#F3EDE0"/>
</g>
<path d="M319.094 358.5L213.502 390C240.702 351.6 312.502 312.5 329.094 309L300.594 338.5L319.094 358.5Z" fill="#F3EDE0"/>
<path d="M130.056 363.878L213.502 390C192.422 358.156 141.81 331.398 119.594 322L144.394 347.293L130.056 363.878Z" fill="#F3EDE0"/>
<path d="M407.319 313.325C426.493 301.689 451.469 307.799 463.106 326.973L496.526 382.042C508.162 401.216 502.052 426.193 482.878 437.829C463.704 449.466 438.727 443.355 427.091 424.181L393.671 369.112C382.034 349.938 388.145 324.961 407.319 313.325Z" fill="#846047"/>
<path d="M487.813 367.686L496.526 382.042C508.162 401.216 502.052 426.193 482.878 437.829C463.704 449.466 438.727 443.355 427.091 424.181L418.378 409.824L487.813 367.686Z" fill="#4B3E35"/>
<path d="M34.0642 277.941C34.3903 273.048 39.1199 269.682 43.8502 270.977L110.216 289.148C114.896 290.43 117.263 295.645 115.147 300.011L72.1372 388.742C70.5078 392.104 66.7136 393.826 63.1107 392.839L33.1764 384.643C29.6203 383.67 27.2413 380.327 27.4864 376.648L34.0642 277.941Z" fill="#DECEAA"/>
<ellipse cx="76.1029" cy="284.632" rx="41.1023" ry="10.0817" transform="rotate(15.3123 76.1029 284.632)" fill="#CFE5DB"/>
<path d="M76.1045 285.306L92.3903 245.755L143.187 238" stroke="white" stroke-width="8.53067" stroke-linecap="round"/>
<defs>
<clipPath id="clip0_5022_11147">
<rect width="422" height="77" fill="white" transform="translate(60.5938 479)"/>
</clipPath>
</defs>
</svg>
