<svg width="459" height="232" viewBox="0 0 459 232" fill="none" xmlns="http://www.w3.org/2000/svg">
<ellipse cx="138.594" cy="70.3216" rx="138.594" ry="70.3216" transform="matrix(-0.952725 0.303836 0.499347 0.866402 388.75 8.84399)" fill="#F4C363"/>
<ellipse cx="140.606" cy="68.7679" rx="140.606" ry="68.7679" transform="matrix(-0.972368 0.233455 0.398041 0.917368 373.985 40.1804)" fill="#F4C363"/>
<ellipse cx="115.652" cy="53.8209" rx="115.652" ry="53.8209" transform="matrix(-0.994962 -0.100255 -0.179154 0.983821 249.423 89.083)" fill="#F4C363"/>
<ellipse cx="116.101" cy="53.4501" rx="116.101" ry="53.4501" transform="matrix(-0.99979 -0.020487 -0.0370069 0.999315 356.36 4.75854)" fill="#F4C363"/>
<ellipse cx="114.385" cy="54.8477" rx="114.385" ry="54.8477" transform="matrix(-0.980876 -0.194635 -0.337558 0.941305 286.153 55.7825)" fill="#F4C363"/>
<ellipse cx="110.211" cy="51.4441" rx="110.211" ry="51.4441" transform="matrix(-0.994253 -0.107053 -0.191004 0.981589 448.179 99.9336)" fill="#F4C363"/>
<ellipse cx="123.802" cy="62.865" rx="123.802" ry="62.865" transform="matrix(-0.952621 0.30416 0.498907 0.866656 378.556 7.90332)" fill="#A7D8A1"/>
<ellipse cx="125.593" cy="61.4826" rx="125.593" ry="61.4826" transform="matrix(-0.972305 0.233715 0.397648 0.917538 365.379 35.9282)" fill="#A7D8A1"/>
<ellipse cx="103.299" cy="48.1263" rx="103.299" ry="48.1263" transform="matrix(-0.99495 -0.100372 -0.17895 0.983858 254.112 79.6582)" fill="#A7D8A1"/>
<ellipse cx="103.698" cy="47.7964" rx="103.698" ry="47.7964" transform="matrix(-0.99979 -0.0205111 -0.0369635 0.999317 349.635 4.25391)" fill="#A7D8A1"/>
<ellipse cx="102.17" cy="49.0397" rx="102.17" ry="49.0397" transform="matrix(-0.980832 -0.194855 -0.337207 0.941431 286.923 49.8794)" fill="#A7D8A1"/>
<ellipse cx="98.4389" cy="46.0007" rx="98.4389" ry="46.0007" transform="matrix(-0.99424 -0.107177 -0.190787 0.981631 431.637 89.3623)" fill="#A7D8A1"/>
<path d="M295.743 76.2843C293.019 74.8283 290.521 79.3177 289.613 81.7444L295.743 84.9294C296.879 82.6544 298.468 77.7403 295.743 76.2843Z" fill="#A37556"/>
<path d="M280.332 117.68C277.851 116.174 274.619 116.965 273.113 119.446L268.788 126.573C267.282 129.054 268.073 132.287 270.554 133.793C273.035 135.298 276.268 134.508 277.774 132.026L282.099 124.9C283.604 122.418 282.814 119.186 280.332 117.68Z" fill="#846047"/>
<path d="M269.915 124.659L268.788 126.517C267.282 128.999 268.073 132.231 270.554 133.737C273.035 135.243 276.268 134.452 277.774 131.971L278.901 130.113L269.915 124.659Z" fill="#4B3E35"/>
<rect x="302.557" y="145.491" width="13.4588" height="7.5059" rx="3.75295" fill="#846047"/>
<path d="M302.557 150.02H316.016V150.02C316.016 151.664 314.684 152.997 313.04 152.997H305.534C303.89 152.997 302.557 151.664 302.557 150.02V150.02Z" fill="#4B3E35"/>
<rect x="276.668" y="145.491" width="13.4588" height="7.5059" rx="3.75295" fill="#846047"/>
<path d="M276.668 150.02H290.127V150.02C290.127 151.664 288.794 152.997 287.15 152.997H279.644C278.001 152.997 276.668 151.664 276.668 150.02V150.02Z" fill="#4B3E35"/>
<path d="M277.145 94.7659C277.145 87.6187 282.939 81.8247 290.086 81.8247H303.537C309.791 81.8247 315.15 86.2973 316.269 92.4505L323.588 132.698C325.033 140.642 318.93 147.954 310.856 147.954H282.178C270.913 147.954 265.026 134.559 272.645 126.261L273.736 125.073C275.928 122.685 277.145 119.561 277.145 116.32L277.145 94.7659Z" fill="#A37556"/>
<path d="M271.256 94.4519C272.134 88.9659 276.867 84.9299 282.422 84.9299C287.887 84.9299 292.569 88.8374 293.547 94.2135L295.252 103.585C296.697 111.526 290.597 118.836 282.526 118.836C274.566 118.836 268.495 111.717 269.752 103.857L271.256 94.4519Z" fill="#604F44"/>
<path d="M280.159 93.1826C279.587 96.2369 277.664 104.274 280.159 105.191M280.159 105.191C281.598 106.41 286.505 108.677 288.82 108.998M280.159 105.191C276.874 107.186 275.903 108.157 275.386 108.998" stroke="#3A2E2B" stroke-width="0.873949" stroke-linecap="round"/>
<ellipse cx="279.981" cy="93.212" rx="3.30001" ry="2.2" fill="#3A2E2B"/>
<path d="M299.709 87.6494C301.025 87.7141 304.006 88.4518 305.404 90.8847" stroke="#3A2E2B" stroke-width="1.31092" stroke-linecap="round"/>
<path d="M313.543 117.68C316.024 116.174 319.256 116.965 320.762 119.446L325.087 126.573C326.593 129.054 325.802 132.287 323.321 133.793C320.839 135.298 317.607 134.508 316.101 132.026L311.776 124.9C310.27 122.418 311.061 119.186 313.543 117.68Z" fill="#846047"/>
<path d="M323.96 124.715L325.087 126.573C326.593 129.054 325.802 132.287 323.321 133.793C320.839 135.298 317.607 134.508 316.101 132.026L314.974 130.168L323.96 124.715Z" fill="#4B3E35"/>
<path d="M313.346 77.5797C310.621 76.1237 308.124 80.6131 307.215 83.0398L313.346 86.2248C314.481 83.9498 316.071 79.0358 313.346 77.5797Z" fill="#A37556"/>
</svg>
