<svg width="470" height="259" viewBox="0 0 470 259" fill="none" xmlns="http://www.w3.org/2000/svg">
<ellipse cx="138.594" cy="70.3216" rx="138.594" ry="70.3216" transform="matrix(-0.952725 0.303836 0.499347 0.866402 399.729 26.844)" fill="#F4C363"/>
<ellipse cx="140.606" cy="68.7679" rx="140.606" ry="68.7679" transform="matrix(-0.972368 0.233455 0.398041 0.917368 384.964 58.1804)" fill="#F4C363"/>
<ellipse cx="115.652" cy="53.8209" rx="115.652" ry="53.8209" transform="matrix(-0.994962 -0.100255 -0.179154 0.983821 260.402 107.083)" fill="#F4C363"/>
<ellipse cx="116.101" cy="53.4501" rx="116.101" ry="53.4501" transform="matrix(-0.99979 -0.020487 -0.0370069 0.999315 367.339 22.7585)" fill="#F4C363"/>
<ellipse cx="114.385" cy="54.8477" rx="114.385" ry="54.8477" transform="matrix(-0.980876 -0.194635 -0.337558 0.941305 297.132 73.7825)" fill="#F4C363"/>
<ellipse cx="110.211" cy="51.4441" rx="110.211" ry="51.4441" transform="matrix(-0.994253 -0.107053 -0.191004 0.981589 459.158 117.934)" fill="#F4C363"/>
<ellipse cx="123.802" cy="62.865" rx="123.802" ry="62.865" transform="matrix(-0.952621 0.30416 0.498907 0.866656 389.535 25.9033)" fill="#A7D8A1"/>
<ellipse cx="125.593" cy="61.4826" rx="125.593" ry="61.4826" transform="matrix(-0.972305 0.233715 0.397648 0.917538 376.358 53.9282)" fill="#A7D8A1"/>
<ellipse cx="103.299" cy="48.1263" rx="103.299" ry="48.1263" transform="matrix(-0.99495 -0.100372 -0.17895 0.983858 265.091 97.6582)" fill="#A7D8A1"/>
<ellipse cx="103.698" cy="47.7964" rx="103.698" ry="47.7964" transform="matrix(-0.99979 -0.0205111 -0.0369635 0.999317 360.614 22.2539)" fill="#A7D8A1"/>
<ellipse cx="102.17" cy="49.0397" rx="102.17" ry="49.0397" transform="matrix(-0.980832 -0.194855 -0.337207 0.941431 297.902 67.8794)" fill="#A7D8A1"/>
<ellipse cx="98.4389" cy="46.0007" rx="98.4389" ry="46.0007" transform="matrix(-0.99424 -0.107177 -0.190787 0.981631 442.616 107.362)" fill="#A7D8A1"/>
<path d="M154 232C200.637 263.325 234.062 266.678 326.5 241.5" stroke="#B4DAE5" stroke-width="0.5"/>
<path d="M41 101C-42 125.5 10.5001 231.5 143.5 216" stroke="#B4DAE5" stroke-width="0.5"/>
<path d="M344 228.5C358.81 233.914 367.821 231.346 381 225" stroke="#B4DAE5" stroke-width="0.5"/>
<path d="M39.5001 85C36.5001 62.5 53 47.5 70.5 40" stroke="#B4DAE5" stroke-width="0.5"/>
<path d="M231.5 5.5C266.214 0.310797 285.603 -1.89227 319 5.5M369.5 37.9999C374.5 37.4999 377.5 38.4999 382.5 41.9999" stroke="#B4DAE5" stroke-width="0.5"/>
<path d="M306.964 94.2843C304.24 92.8283 301.742 97.3177 300.834 99.7443L306.964 102.929C308.1 100.654 309.689 95.7403 306.964 94.2843Z" fill="#A37556"/>
<path d="M291.831 142.49C292.643 139.703 291.043 136.786 288.257 135.973L280.253 133.64C277.467 132.828 274.55 134.428 273.737 137.215C272.925 140.002 274.525 142.919 277.312 143.731L285.315 146.064C288.101 146.877 291.019 145.276 291.831 142.49Z" fill="#3A6351"/>
<path d="M282.394 134.234L280.307 133.626C277.521 132.814 274.603 134.414 273.791 137.201C272.979 139.987 274.579 142.905 277.365 143.717L279.452 144.325L282.394 134.234Z" fill="#4B3E35"/>
<rect x="313.774" y="163.493" width="13.4587" height="7.50582" rx="3.75291" fill="#846047"/>
<path d="M313.774 168.023H327.233V168.023C327.233 169.667 325.9 170.999 324.256 170.999H316.75C315.107 170.999 313.774 169.667 313.774 168.023V168.023Z" fill="#4B3E35"/>
<rect x="287.893" y="163.493" width="13.4587" height="7.50582" rx="3.75291" fill="#846047"/>
<path d="M287.893 168.023H301.352V168.023C301.352 169.667 300.019 170.999 298.375 170.999H290.87C289.226 170.999 287.893 169.667 287.893 168.023V168.023Z" fill="#4B3E35"/>
<path d="M288.37 112.764C288.37 105.616 294.164 99.8225 301.311 99.8225H314.762C321.016 99.8225 326.375 104.295 327.494 110.448L334.813 150.695C336.258 158.639 330.155 165.951 322.081 165.951H293.403C282.138 165.951 276.252 152.556 283.871 144.258L284.962 143.07C287.154 140.682 288.37 137.559 288.37 134.318L288.37 112.764Z" fill="#A37556"/>
<path d="M282.475 112.451C283.353 106.965 288.086 102.929 293.641 102.929C299.105 102.929 303.788 106.836 304.766 112.212L306.471 121.583C307.916 129.524 301.816 136.834 293.744 136.834C285.785 136.834 279.714 129.715 280.971 121.856L282.475 112.451Z" fill="#604F44"/>
<path d="M291.181 126.217C290.135 126.11 289.001 125.014 288.564 124.48C290.882 122.716 292.895 123.745 293.611 124.48C293.238 125.103 292.228 126.324 291.181 126.217Z" fill="#A2766B"/>
<path d="M291.374 111.184C290.802 114.238 288.879 122.275 291.374 123.192M291.374 123.192C292.813 124.411 297.72 126.679 300.035 126.999M291.374 123.192C288.089 125.188 287.118 126.158 286.601 126.999" stroke="#3A2E2B" stroke-width="1.44513" stroke-linecap="round"/>
<ellipse cx="291.195" cy="111.212" rx="3.29997" ry="2.19998" fill="#3A2E2B"/>
<path d="M310.929 105.647C312.245 105.711 315.225 106.449 316.623 108.882" stroke="#3A2E2B" stroke-width="2.1677" stroke-linecap="round"/>
<path d="M324.565 95.5785C321.84 94.1225 319.342 98.6119 318.434 101.039L324.565 104.224C325.7 101.949 327.29 97.0345 324.565 95.5785Z" fill="#A37556"/>
<path d="M310.563 136.134C315.622 132.95 326.661 130.711 330.846 129.459C335.885 140.763 341.307 163.796 322.683 165.501L294.899 165.953C292.911 160.158 293.769 154.913 296.198 150.322C299.734 143.344 306.468 138.304 310.563 136.134Z" fill="#D7C398"/>
<path d="M291.241 165.888H307.263C309.243 147.097 293.017 137.892 288.045 135.67C287.01 139.1 285.742 140.335 284.253 143.435C276.812 149.258 278.735 163.566 291.241 165.888Z" fill="#D7C398"/>
<path d="M319.006 143.693C314.917 145.194 311.393 144.318 310.142 143.693C308.796 147.161 309.581 150.573 310.142 151.846C313.092 153.088 317.281 152.363 319.006 151.846C320.042 149.982 319.438 145.397 319.006 143.693Z" fill="#3A6351"/>
<path d="M293.339 143.693C290.48 145.187 288.016 144.316 287.141 143.693C286.2 147.146 286.749 150.543 287.141 151.81C289.204 153.047 292.133 152.325 293.339 151.81C294.063 149.955 293.641 145.389 293.339 143.693Z" fill="#3A6351"/>
<g clip-path="url(#clip0_4298_10105)">
<path d="M287.992 113.916C287.992 106.783 293.829 101 301.03 101H314.582C320.883 101 326.283 105.464 327.41 111.605L334.784 151.773C336.24 159.702 330.091 167 321.956 167H293.063C281.713 167 275.782 153.631 283.459 145.349L284.558 144.163C286.766 141.78 287.992 138.663 287.992 135.428L287.992 113.916Z" fill="#3A6351"/>
</g>
<path d="M324.759 135.68C327.24 134.174 330.472 134.965 331.978 137.446L336.303 144.572C337.809 147.054 337.018 150.286 334.537 151.792C332.056 153.298 328.823 152.507 327.318 150.026L322.993 142.899C321.487 140.418 322.278 137.186 324.759 135.68Z" fill="#3A6351"/>
<path d="M335.176 142.715L336.303 144.572C337.809 147.054 337.018 150.286 334.537 151.792C332.056 153.298 328.823 152.507 327.318 150.026L326.19 148.168L335.176 142.715Z" fill="#4B3E35"/>
<rect x="318.457" y="107.847" width="10.6117" height="1.29411" rx="0.647054" fill="#3A6351"/>
<path d="M313.862 140.393L300.08 144.47C303.6 139.5 311.446 135.454 315.156 133.988L311.468 137.805L313.862 140.393Z" fill="#3A6351"/>
<path d="M289.399 141.09L300.08 144.47C297.352 140.349 290.92 136.886 288.045 135.67L291.254 138.943L289.399 141.09Z" fill="#3A6351"/>
<circle cx="312.118" cy="108.881" r="6.47054" fill="#D9D9D9" fill-opacity="0.42"/>
<rect x="268.917" y="130.244" width="8.67192" height="13.8233" rx="2.89027" transform="rotate(-31.3944 268.917 130.244)" fill="#D7C398"/>
<rect width="8.70939" height="13.7702" rx="2.89027" transform="matrix(0.678307 -0.734779 0.713815 0.700334 266.532 132.658)" fill="#F3EDE0"/>
<rect width="8.94785" height="13.4218" rx="2.89027" transform="matrix(0.205604 -0.978635 0.964344 0.264652 264.395 138.478)" fill="#D7C398"/>
<path d="M298.595 146.412L300.148 144.536L301.83 146.412L302.671 151.848L300.148 154.048L297.495 151.848L298.595 146.412Z" fill="#3A6351"/>
<defs>
<clipPath id="clip0_4298_10105">
<rect width="54.6113" height="9.96463" fill="white" transform="translate(280.409 155.988)"/>
</clipPath>
</defs>
</svg>
