<svg width="314" height="48" viewBox="0 0 314 48" fill="none" xmlns="http://www.w3.org/2000/svg">
<rect width="314" height="36" rx="15" transform="matrix(1 0 0 -1 0 36)" fill="#846047"/>
<path d="M15.243 26.154C14.1137 26.154 13.1017 25.9707 12.207 25.604C11.3123 25.2373 10.5937 24.6947 10.051 23.976C9.52302 23.2573 9.24435 22.392 9.21502 21.38H13.219C13.2777 21.952 13.4757 22.392 13.813 22.7C14.1503 22.9933 14.5903 23.14 15.133 23.14C15.6903 23.14 16.1303 23.0153 16.453 22.766C16.7757 22.502 16.937 22.1427 16.937 21.688C16.937 21.3067 16.805 20.9913 16.541 20.742C16.2917 20.4927 15.9763 20.2873 15.595 20.126C15.2283 19.9647 14.7003 19.7813 14.011 19.576C13.0137 19.268 12.1997 18.96 11.569 18.652C10.9383 18.344 10.3957 17.8893 9.94102 17.288C9.48635 16.6867 9.25902 15.902 9.25902 14.934C9.25902 13.4967 9.77968 12.3747 10.821 11.568C11.8623 10.7467 13.219 10.336 14.891 10.336C16.5923 10.336 17.9637 10.7467 19.005 11.568C20.0463 12.3747 20.6037 13.504 20.677 14.956H16.607C16.5777 14.4573 16.3943 14.0687 16.057 13.79C15.7197 13.4967 15.287 13.35 14.759 13.35C14.3043 13.35 13.9377 13.4747 13.659 13.724C13.3803 13.9587 13.241 14.3033 13.241 14.758C13.241 15.2567 13.4757 15.6453 13.945 15.924C14.4143 16.2027 15.1477 16.5033 16.145 16.826C17.1423 17.1633 17.949 17.486 18.565 17.794C19.1957 18.102 19.7383 18.5493 20.193 19.136C20.6477 19.7227 20.875 20.478 20.875 21.402C20.875 22.282 20.6477 23.0813 20.193 23.8C19.753 24.5187 19.1077 25.0907 18.257 25.516C17.4063 25.9413 16.4017 26.154 15.243 26.154ZM34.5022 19.664C34.5022 20.016 34.4802 20.3827 34.4362 20.764H25.9222C25.9808 21.5267 26.2228 22.1133 26.6482 22.524C27.0882 22.92 27.6235 23.118 28.2542 23.118C29.1928 23.118 29.8455 22.722 30.2122 21.93H34.2162C34.0108 22.7367 33.6368 23.4627 33.0942 24.108C32.5662 24.7533 31.8988 25.2593 31.0922 25.626C30.2855 25.9927 29.3835 26.176 28.3862 26.176C27.1835 26.176 26.1128 25.9193 25.1742 25.406C24.2355 24.8927 23.5022 24.1593 22.9742 23.206C22.4462 22.2527 22.1822 21.138 22.1822 19.862C22.1822 18.586 22.4388 17.4713 22.9522 16.518C23.4802 15.5647 24.2135 14.8313 25.1522 14.318C26.0908 13.8047 27.1688 13.548 28.3862 13.548C29.5742 13.548 30.6302 13.7973 31.5542 14.296C32.4782 14.7947 33.1968 15.506 33.7102 16.43C34.2382 17.354 34.5022 18.432 34.5022 19.664ZM30.6522 18.674C30.6522 18.0287 30.4322 17.5153 29.9922 17.134C29.5522 16.7527 29.0022 16.562 28.3422 16.562C27.7115 16.562 27.1762 16.7453 26.7362 17.112C26.3108 17.4787 26.0468 17.9993 25.9442 18.674H30.6522ZM43.0688 22.81V26H41.1548C39.7908 26 38.7275 25.67 37.9648 25.01C37.2021 24.3353 36.8208 23.2427 36.8208 21.732V16.848H35.3248V13.724H36.8208V10.732H40.5828V13.724H43.0468V16.848H40.5828V21.776C40.5828 22.1427 40.6708 22.4067 40.8468 22.568C41.0228 22.7293 41.3161 22.81 41.7268 22.81H43.0688ZM61.8464 13.724L54.1464 31.83H50.0984L52.9144 25.582L47.9204 13.724H52.1224L54.9604 21.402L57.7764 13.724H61.8464ZM68.5348 26.176C67.3321 26.176 66.2468 25.9193 65.2788 25.406C64.3255 24.8927 63.5701 24.1593 63.0128 23.206C62.4701 22.2527 62.1988 21.138 62.1988 19.862C62.1988 18.6007 62.4775 17.4933 63.0348 16.54C63.5921 15.572 64.3548 14.8313 65.3228 14.318C66.2908 13.8047 67.3761 13.548 68.5788 13.548C69.7815 13.548 70.8668 13.8047 71.8348 14.318C72.8028 14.8313 73.5655 15.572 74.1228 16.54C74.6801 17.4933 74.9588 18.6007 74.9588 19.862C74.9588 21.1233 74.6728 22.238 74.1008 23.206C73.5435 24.1593 72.7735 24.8927 71.7908 25.406C70.8228 25.9193 69.7375 26.176 68.5348 26.176ZM68.5348 22.92C69.2535 22.92 69.8621 22.656 70.3608 22.128C70.8741 21.6 71.1308 20.8447 71.1308 19.862C71.1308 18.8793 70.8815 18.124 70.3828 17.596C69.8988 17.068 69.2975 16.804 68.5788 16.804C67.8455 16.804 67.2368 17.068 66.7528 17.596C66.2688 18.1093 66.0268 18.8647 66.0268 19.862C66.0268 20.8447 66.2615 21.6 66.7308 22.128C67.2148 22.656 67.8161 22.92 68.5348 22.92ZM88.8166 13.724V26H85.0546V24.328C84.6733 24.8707 84.1526 25.3107 83.4926 25.648C82.8473 25.9707 82.1286 26.132 81.3366 26.132C80.398 26.132 79.5693 25.9267 78.8506 25.516C78.132 25.0907 77.5746 24.482 77.1786 23.69C76.7826 22.898 76.5846 21.9667 76.5846 20.896V13.724H80.3246V20.39C80.3246 21.2113 80.5373 21.8493 80.9626 22.304C81.388 22.7587 81.96 22.986 82.6786 22.986C83.412 22.986 83.9913 22.7587 84.4166 22.304C84.842 21.8493 85.0546 21.2113 85.0546 20.39V13.724H88.8166ZM95.0208 15.77C95.4608 15.0953 96.0108 14.5673 96.6708 14.186C97.3308 13.79 98.0642 13.592 98.8708 13.592V17.574H97.8368C96.8982 17.574 96.1942 17.7793 95.7248 18.19C95.2555 18.586 95.0208 19.29 95.0208 20.302V26H91.2588V13.724H95.0208V15.77ZM110.333 22.48L112.995 13.724H116.999L112.643 26H108.001L103.645 13.724H107.671L110.333 22.48ZM123.911 26.176C122.708 26.176 121.623 25.9193 120.655 25.406C119.701 24.8927 118.946 24.1593 118.389 23.206C117.846 22.2527 117.575 21.138 117.575 19.862C117.575 18.6007 117.853 17.4933 118.411 16.54C118.968 15.572 119.731 14.8313 120.699 14.318C121.667 13.8047 122.752 13.548 123.955 13.548C125.157 13.548 126.243 13.8047 127.211 14.318C128.179 14.8313 128.941 15.572 129.499 16.54C130.056 17.4933 130.335 18.6007 130.335 19.862C130.335 21.1233 130.049 22.238 129.477 23.206C128.919 24.1593 128.149 24.8927 127.167 25.406C126.199 25.9193 125.113 26.176 123.911 26.176ZM123.911 22.92C124.629 22.92 125.238 22.656 125.737 22.128C126.25 21.6 126.507 20.8447 126.507 19.862C126.507 18.8793 126.257 18.124 125.759 17.596C125.275 17.068 124.673 16.804 123.955 16.804C123.221 16.804 122.613 17.068 122.129 17.596C121.645 18.1093 121.403 18.8647 121.403 19.862C121.403 20.8447 121.637 21.6 122.107 22.128C122.591 22.656 123.192 22.92 123.911 22.92ZM131.322 19.862C131.322 18.586 131.579 17.4713 132.092 16.518C132.62 15.5647 133.346 14.8313 134.27 14.318C135.209 13.8047 136.28 13.548 137.482 13.548C139.022 13.548 140.306 13.9513 141.332 14.758C142.374 15.5647 143.056 16.7013 143.378 18.168H139.374C139.037 17.2293 138.384 16.76 137.416 16.76C136.727 16.76 136.177 17.0313 135.766 17.574C135.356 18.102 135.15 18.8647 135.15 19.862C135.15 20.8593 135.356 21.6293 135.766 22.172C136.177 22.7 136.727 22.964 137.416 22.964C138.384 22.964 139.037 22.4947 139.374 21.556H143.378C143.056 22.9933 142.374 24.1227 141.332 24.944C140.291 25.7653 139.008 26.176 137.482 26.176C136.28 26.176 135.209 25.9193 134.27 25.406C133.346 24.8927 132.62 24.1593 132.092 23.206C131.579 22.2527 131.322 21.138 131.322 19.862ZM144.383 19.84C144.383 18.5787 144.617 17.4713 145.087 16.518C145.571 15.5647 146.223 14.8313 147.045 14.318C147.866 13.8047 148.783 13.548 149.795 13.548C150.66 13.548 151.415 13.724 152.061 14.076C152.721 14.428 153.227 14.89 153.579 15.462V13.724H157.341V26H153.579V24.262C153.212 24.834 152.699 25.296 152.039 25.648C151.393 26 150.638 26.176 149.773 26.176C148.775 26.176 147.866 25.9193 147.045 25.406C146.223 24.878 145.571 24.1373 145.087 23.184C144.617 22.216 144.383 21.1013 144.383 19.84ZM153.579 19.862C153.579 18.9233 153.315 18.1827 152.787 17.64C152.273 17.0973 151.643 16.826 150.895 16.826C150.147 16.826 149.509 17.0973 148.981 17.64C148.467 18.168 148.211 18.9013 148.211 19.84C148.211 20.7787 148.467 21.5267 148.981 22.084C149.509 22.6267 150.147 22.898 150.895 22.898C151.643 22.898 152.273 22.6267 152.787 22.084C153.315 21.5413 153.579 20.8007 153.579 19.862ZM163.564 15.462C163.916 14.89 164.422 14.428 165.082 14.076C165.742 13.724 166.498 13.548 167.348 13.548C168.36 13.548 169.277 13.8047 170.098 14.318C170.92 14.8313 171.565 15.5647 172.034 16.518C172.518 17.4713 172.76 18.5787 172.76 19.84C172.76 21.1013 172.518 22.216 172.034 23.184C171.565 24.1373 170.92 24.878 170.098 25.406C169.277 25.9193 168.36 26.176 167.348 26.176C166.483 26.176 165.728 26.0073 165.082 25.67C164.437 25.318 163.931 24.856 163.564 24.284V26H159.802V9.72H163.564V15.462ZM168.932 19.84C168.932 18.9013 168.668 18.168 168.14 17.64C167.627 17.0973 166.989 16.826 166.226 16.826C165.478 16.826 164.84 17.0973 164.312 17.64C163.799 18.1827 163.542 18.9233 163.542 19.862C163.542 20.8007 163.799 21.5413 164.312 22.084C164.84 22.6267 165.478 22.898 166.226 22.898C166.974 22.898 167.612 22.6267 168.14 22.084C168.668 21.5267 168.932 20.7787 168.932 19.84ZM186.596 13.724V26H182.834V24.328C182.453 24.8707 181.932 25.3107 181.272 25.648C180.627 25.9707 179.908 26.132 179.116 26.132C178.177 26.132 177.349 25.9267 176.63 25.516C175.911 25.0907 175.354 24.482 174.958 23.69C174.562 22.898 174.364 21.9667 174.364 20.896V13.724H178.104V20.39C178.104 21.2113 178.317 21.8493 178.742 22.304C179.167 22.7587 179.739 22.986 180.458 22.986C181.191 22.986 181.771 22.7587 182.196 22.304C182.621 21.8493 182.834 21.2113 182.834 20.39V13.724H186.596ZM192.8 9.72V26H189.038V9.72H192.8ZM194.518 19.84C194.518 18.5787 194.753 17.4713 195.222 16.518C195.706 15.5647 196.359 14.8313 197.18 14.318C198.002 13.8047 198.918 13.548 199.93 13.548C200.796 13.548 201.551 13.724 202.196 14.076C202.856 14.428 203.362 14.89 203.714 15.462V13.724H207.476V26H203.714V24.262C203.348 24.834 202.834 25.296 202.174 25.648C201.529 26 200.774 26.176 199.908 26.176C198.911 26.176 198.002 25.9193 197.18 25.406C196.359 24.878 195.706 24.1373 195.222 23.184C194.753 22.216 194.518 21.1013 194.518 19.84ZM203.714 19.862C203.714 18.9233 203.45 18.1827 202.922 17.64C202.409 17.0973 201.778 16.826 201.03 16.826C200.282 16.826 199.644 17.0973 199.116 17.64C198.603 18.168 198.346 18.9013 198.346 19.84C198.346 20.7787 198.603 21.5267 199.116 22.084C199.644 22.6267 200.282 22.898 201.03 22.898C201.778 22.898 202.409 22.6267 202.922 22.084C203.45 21.5413 203.714 20.8007 203.714 19.862ZM213.7 15.77C214.14 15.0953 214.69 14.5673 215.35 14.186C216.01 13.79 216.743 13.592 217.55 13.592V17.574H216.516C215.577 17.574 214.873 17.7793 214.404 18.19C213.935 18.586 213.7 19.29 213.7 20.302V26H209.938V13.724H213.7V15.77ZM231.628 13.724L223.928 31.83H219.88L222.696 25.582L217.702 13.724H221.904L224.742 21.402L227.558 13.724H231.628ZM241.795 13.548C242.66 13.548 243.415 13.724 244.061 14.076C244.721 14.428 245.227 14.89 245.579 15.462V13.724H249.341V25.978C249.341 27.1073 249.113 28.1267 248.659 29.036C248.219 29.96 247.537 30.6933 246.613 31.236C245.703 31.7787 244.567 32.05 243.203 32.05C241.384 32.05 239.91 31.6173 238.781 30.752C237.651 29.9013 237.006 28.7427 236.845 27.276H240.563C240.68 27.7453 240.959 28.112 241.399 28.376C241.839 28.6547 242.381 28.794 243.027 28.794C243.804 28.794 244.42 28.5667 244.875 28.112C245.344 27.672 245.579 26.9607 245.579 25.978V24.24C245.212 24.812 244.706 25.2813 244.061 25.648C243.415 26 242.66 26.176 241.795 26.176C240.783 26.176 239.866 25.9193 239.045 25.406C238.223 24.878 237.571 24.1373 237.087 23.184C236.617 22.216 236.383 21.1013 236.383 19.84C236.383 18.5787 236.617 17.4713 237.087 16.518C237.571 15.5647 238.223 14.8313 239.045 14.318C239.866 13.8047 240.783 13.548 241.795 13.548ZM245.579 19.862C245.579 18.9233 245.315 18.1827 244.787 17.64C244.273 17.0973 243.643 16.826 242.895 16.826C242.147 16.826 241.509 17.0973 240.981 17.64C240.467 18.168 240.211 18.9013 240.211 19.84C240.211 20.7787 240.467 21.5267 240.981 22.084C241.509 22.6267 242.147 22.898 242.895 22.898C243.643 22.898 244.273 22.6267 244.787 22.084C245.315 21.5413 245.579 20.8007 245.579 19.862ZM257.39 26.176C256.188 26.176 255.102 25.9193 254.134 25.406C253.181 24.8927 252.426 24.1593 251.868 23.206C251.326 22.2527 251.054 21.138 251.054 19.862C251.054 18.6007 251.333 17.4933 251.89 16.54C252.448 15.572 253.21 14.8313 254.178 14.318C255.146 13.8047 256.232 13.548 257.434 13.548C258.637 13.548 259.722 13.8047 260.69 14.318C261.658 14.8313 262.421 15.572 262.978 16.54C263.536 17.4933 263.814 18.6007 263.814 19.862C263.814 21.1233 263.528 22.238 262.956 23.206C262.399 24.1593 261.629 24.8927 260.646 25.406C259.678 25.9193 258.593 26.176 257.39 26.176ZM257.39 22.92C258.109 22.92 258.718 22.656 259.216 22.128C259.73 21.6 259.986 20.8447 259.986 19.862C259.986 18.8793 259.737 18.124 259.238 17.596C258.754 17.068 258.153 16.804 257.434 16.804C256.701 16.804 256.092 17.068 255.608 17.596C255.124 18.1093 254.882 18.8647 254.882 19.862C254.882 20.8447 255.117 21.6 255.586 22.128C256.07 22.656 256.672 22.92 257.39 22.92ZM264.802 19.84C264.802 18.5787 265.037 17.4713 265.506 16.518C265.99 15.5647 266.643 14.8313 267.464 14.318C268.286 13.8047 269.202 13.548 270.214 13.548C271.08 13.548 271.835 13.724 272.48 14.076C273.14 14.428 273.646 14.89 273.998 15.462V13.724H277.76V26H273.998V24.262C273.632 24.834 273.118 25.296 272.458 25.648C271.813 26 271.058 26.176 270.192 26.176C269.195 26.176 268.286 25.9193 267.464 25.406C266.643 24.878 265.99 24.1373 265.506 23.184C265.037 22.216 264.802 21.1013 264.802 19.84ZM273.998 19.862C273.998 18.9233 273.734 18.1827 273.206 17.64C272.693 17.0973 272.062 16.826 271.314 16.826C270.566 16.826 269.928 17.0973 269.4 17.64C268.887 18.168 268.63 18.9013 268.63 19.84C268.63 20.7787 268.887 21.5267 269.4 22.084C269.928 22.6267 270.566 22.898 271.314 22.898C272.062 22.898 272.693 22.6267 273.206 22.084C273.734 21.5413 273.998 20.8007 273.998 19.862ZM283.984 9.72V26H280.222V9.72H283.984ZM291.444 26.176C290.374 26.176 289.42 25.9927 288.584 25.626C287.748 25.2593 287.088 24.7607 286.604 24.13C286.12 23.4847 285.849 22.766 285.79 21.974H289.508C289.552 22.3993 289.75 22.744 290.102 23.008C290.454 23.272 290.887 23.404 291.4 23.404C291.87 23.404 292.229 23.316 292.478 23.14C292.742 22.9493 292.874 22.7073 292.874 22.414C292.874 22.062 292.691 21.8053 292.324 21.644C291.958 21.468 291.364 21.2773 290.542 21.072C289.662 20.8667 288.929 20.654 288.342 20.434C287.756 20.1993 287.25 19.84 286.824 19.356C286.399 18.8573 286.186 18.19 286.186 17.354C286.186 16.65 286.377 16.012 286.758 15.44C287.154 14.8533 287.726 14.3913 288.474 14.054C289.237 13.7167 290.139 13.548 291.18 13.548C292.72 13.548 293.93 13.9293 294.81 14.692C295.705 15.4547 296.218 16.4667 296.35 17.728H292.874C292.816 17.3027 292.625 16.9653 292.302 16.716C291.994 16.4667 291.584 16.342 291.07 16.342C290.63 16.342 290.293 16.43 290.058 16.606C289.824 16.7673 289.706 16.9947 289.706 17.288C289.706 17.64 289.89 17.904 290.256 18.08C290.638 18.256 291.224 18.432 292.016 18.608C292.926 18.8427 293.666 19.0773 294.238 19.312C294.81 19.532 295.309 19.8987 295.734 20.412C296.174 20.9107 296.402 21.5853 296.416 22.436C296.416 23.1547 296.211 23.8 295.8 24.372C295.404 24.9293 294.825 25.3693 294.062 25.692C293.314 26.0147 292.442 26.176 291.444 26.176ZM303.408 10.006L302.968 20.544H299.778L299.338 10.006H303.408ZM301.428 26.176C300.768 26.176 300.225 25.9853 299.8 25.604C299.389 25.208 299.184 24.724 299.184 24.152C299.184 23.5653 299.389 23.074 299.8 22.678C300.225 22.282 300.768 22.084 301.428 22.084C302.073 22.084 302.601 22.282 303.012 22.678C303.437 23.074 303.65 23.5653 303.65 24.152C303.65 24.724 303.437 25.208 303.012 25.604C302.601 25.9853 302.073 26.176 301.428 26.176Z" fill="#ECEAE8"/>
<path d="M47.1916 44.1717C47.9133 45.6994 50.0867 45.6994 50.8084 44.1717L55.4459 34.3542C56.0727 33.0275 55.1049 31.5 53.6376 31.5H44.3624C42.8951 31.5 41.9273 33.0275 42.5541 34.3542L47.1916 44.1717Z" fill="#846047"/>
</svg>
