<svg width="1747" height="895" viewBox="0 0 1747 895" fill="none" xmlns="http://www.w3.org/2000/svg">
<path d="M893.204 2.19707C872.149 -9.05397 852.848 25.6367 845.83 44.3885L893.204 69C901.977 51.4203 914.26 13.4481 893.204 2.19707Z" fill="#A37556"/>
<path d="M777.271 386.037C789.93 367.522 785.183 342.251 766.668 329.592L713.492 293.235C694.977 280.577 669.705 285.324 657.047 303.839C644.388 322.354 649.135 347.625 667.65 360.284L720.827 396.641C739.342 409.3 764.613 404.552 777.271 386.037Z" fill="#846047"/>
<path d="M727.784 302.737L713.921 293.259C695.406 280.6 670.135 285.347 657.476 303.862C644.817 322.377 649.565 347.648 668.08 360.307L681.943 369.786L727.784 302.737Z" fill="#4B3E35"/>
<rect x="945.83" y="537" width="104" height="58" rx="29" fill="#846047"/>
<path d="M945.83 572H1049.83C1049.83 584.703 1039.53 595 1026.83 595H968.83C956.128 595 945.83 584.703 945.83 572Z" fill="#4B3E35"/>
<rect x="745.83" y="537" width="104" height="58" rx="29" fill="#846047"/>
<path d="M745.83 572H849.83C849.83 584.703 839.533 595 826.83 595H768.83C756.128 595 745.83 584.703 745.83 572Z" fill="#4B3E35"/>
<path d="M749.513 145C749.513 89.7715 794.284 45 849.513 45H953.449C1001.78 45 1043.19 79.5608 1051.84 127.109L1108.39 438.109C1119.55 499.494 1072.4 556 1010 556H788.404C701.355 556 655.87 452.488 714.744 388.367L723.173 379.187C740.113 360.737 749.513 336.602 749.513 311.555L749.513 145Z" fill="#A37556"/>
<path d="M703.965 142.579C710.745 100.187 747.316 69 790.247 69C832.471 69 868.655 99.1943 876.213 140.737L889.388 213.149C900.553 274.511 853.414 331 791.045 331C729.543 331 682.629 275.987 692.342 215.256L703.965 142.579Z" fill="#604F44"/>
<path d="M772.222 248.949C764.133 248.123 755.37 239.656 752 235.526C769.911 221.896 785.463 229.847 791 235.526C788.111 240.344 780.311 249.775 772.222 248.949Z" fill="#A2766B"/>
<path d="M772.714 132.789C768.296 156.391 753.436 218.496 772.714 225.579M772.714 225.579C783.83 235 821.749 252.521 839.639 255M772.714 225.579C747.33 241 739.83 248.5 735.83 255" stroke="#3A2E2B" stroke-width="10" stroke-linecap="round"/>
<ellipse cx="771.33" cy="133" rx="25.5" ry="17" fill="#3A2E2B"/>
<path d="M923.83 90C933.997 90.5 957.03 96.2 967.83 115" stroke="#3A2E2B" stroke-width="15" stroke-linecap="round"/>
<path d="M1030.7 322.069C1049.87 310.433 1074.85 316.543 1086.48 335.717L1119.9 390.787C1131.54 409.961 1125.43 434.937 1106.25 446.574C1087.08 458.21 1062.1 452.099 1050.47 432.925L1017.05 377.856C1005.41 358.682 1011.52 333.705 1030.7 322.069Z" fill="#846047"/>
<path d="M1111.19 376.43L1119.9 390.787C1131.54 409.961 1125.43 434.937 1106.25 446.574C1087.08 458.21 1062.1 452.099 1050.47 432.925L1041.75 418.568L1111.19 376.43Z" fill="#4B3E35"/>
<path d="M1029.2 12.1971C1008.15 0.946033 988.848 35.6367 981.83 54.3885L1029.2 79C1037.98 61.4203 1050.26 23.4481 1029.2 12.1971Z" fill="#A37556"/>
<path d="M368 758C368 732.043 389.043 711 415 711H433C458.957 711 480 732.043 480 758V842.626C480 853.753 467.488 860.286 458.357 853.927C454.41 851.178 449.314 850.688 444.915 852.634L437.227 856.034C430.109 859.182 421.964 859.025 414.973 855.604L410.868 853.595C405.63 851.032 399.466 851.215 394.39 854.084C382.599 860.748 368 852.23 368 838.686V758Z" fill="#4C9C76"/>
<path d="M873 758C873 732.043 894.043 711 920 711H938C963.957 711 985 732.043 985 758V842.626C985 853.753 972.488 860.286 963.357 853.927C959.41 851.178 954.314 850.688 949.915 852.634L942.227 856.034C935.109 859.182 926.964 859.025 919.973 855.604L915.868 853.595C910.63 851.032 904.466 851.215 899.39 854.084C887.599 860.748 873 852.23 873 838.686V758Z" fill="#4C9C76"/>
<path d="M1279.64 589.27C1004.84 531.27 676.472 548.103 545.139 572.27C510.639 561.769 497.339 542.47 478.139 523.27C454.139 499.27 405.639 549.27 363.639 523.27C321.639 497.27 304.139 542.769 275.639 562.769C247.139 582.769 -138.361 395.269 53.1392 602.269C244.639 809.269 768.639 857.769 1279.64 782.769C1688.44 722.769 1759.64 611.103 1744.14 562.769C1703.81 595.77 1554.44 647.27 1279.64 589.27Z" fill="#54AF84"/>
<path d="M605 784C605 758.043 626.043 737 652 737H670C695.957 737 717 758.043 717 784V868.626C717 879.753 704.488 886.286 695.357 879.927C691.41 877.178 686.314 876.688 681.915 878.634L674.227 882.034C667.109 885.182 658.964 885.025 651.973 881.604L647.868 879.595C642.63 877.032 636.466 877.215 631.39 880.084C619.599 886.748 605 878.23 605 864.686V784Z" fill="#4C9C76"/>
<path d="M1110 784C1110 758.043 1131.04 737 1157 737H1175C1200.96 737 1222 758.043 1222 784V868.626C1222 879.753 1209.49 886.286 1200.36 879.927C1196.41 877.178 1191.31 876.688 1186.92 878.634L1179.23 882.034C1172.11 885.182 1163.96 885.025 1156.97 881.604L1152.87 879.595C1147.63 877.032 1141.47 877.215 1136.39 880.084C1124.6 886.748 1110 878.23 1110 864.686V784Z" fill="#4C9C76"/>
<ellipse cx="453" cy="575.5" rx="29" ry="30.5" fill="#396E55"/>
<path d="M112.5 557L115.054 552.701L112.5 557ZM352.627 665.728C355.238 664.829 356.626 661.984 355.728 659.373C354.829 656.762 351.984 655.374 349.373 656.272L352.627 665.728ZM1.87504 530.498C21.3573 530.985 70.5273 537.881 109.946 561.299L115.054 552.701C73.6727 528.119 22.6427 521.015 2.12496 520.502L1.87504 530.498ZM109.946 561.299C122.349 568.667 138.516 580.398 157.356 593.716C176.081 606.952 197.245 621.606 219.287 634.503C241.31 647.389 264.4 658.637 287.004 664.963C309.602 671.288 332.086 672.797 352.627 665.728L349.373 656.272C331.414 662.453 311.148 661.337 289.699 655.333C268.257 649.332 246.002 638.548 224.338 625.872C202.692 613.207 181.826 598.767 163.128 585.55C144.546 572.415 127.901 560.333 115.054 552.701L109.946 561.299Z" fill="#396E55"/>
<path d="M641.383 539.198C625.391 540.679 621.506 553.427 621.025 562.176L661.775 558.397C661.283 553.087 656.761 537.774 641.383 539.198Z" fill="#54AF84"/>
<path d="M718.297 535.712C702.305 537.193 698.42 549.941 697.939 558.69L738.689 554.911C738.197 549.6 733.675 534.287 718.297 535.712Z" fill="#54AF84"/>
<path d="M809.297 531.712C793.305 533.193 789.42 545.941 788.939 554.69L829.689 550.911C829.197 545.6 824.675 530.287 809.297 531.712Z" fill="#54AF84"/>
<path d="M879.297 531.712C863.305 533.193 859.42 545.941 858.939 554.69L899.689 550.911C899.197 545.6 894.675 530.287 879.297 531.712Z" fill="#54AF84"/>
<path d="M955.42 531.872C939.361 531.648 934.145 543.912 932.739 552.56L973.66 553.127C973.734 547.794 970.862 532.088 955.42 531.872Z" fill="#54AF84"/>
<path d="M1025.29 535.45C1009.27 534.29 1003.35 546.23 1001.44 554.781L1042.26 557.731C1042.64 552.412 1040.69 536.565 1025.29 535.45Z" fill="#54AF84"/>
<path d="M1093.4 542.259C1077.42 540.637 1071.15 552.4 1069 560.893L1109.72 565.021C1110.25 559.715 1108.76 543.818 1093.4 542.259Z" fill="#54AF84"/>
<path d="M1162.29 549.363C1146.41 546.949 1139.57 558.387 1137 566.762L1177.46 572.908C1178.26 567.635 1177.56 551.684 1162.29 549.363Z" fill="#54AF84"/>
<rect x="952" y="533" width="92.1143" height="51.3714" rx="25.6857" fill="#846047"/>
<path d="M952 564H1044.11C1044.11 575.251 1034.99 584.371 1023.74 584.371H972.371C961.121 584.371 952 575.251 952 564Z" fill="#4B3E35"/>
</svg>
