<svg width="92" height="47" viewBox="0 0 92 47" fill="none" xmlns="http://www.w3.org/2000/svg">
<path d="M47.2129 0.115865C46.1072 -0.474971 45.0937 1.34677 44.7251 2.3315L47.2129 3.62395C47.6736 2.70077 48.3186 0.706702 47.2129 0.115865Z" fill="#A37556"/>
<path d="M41.1245 20.2729C41.7892 19.3006 41.5399 17.9735 40.5676 17.3087L37.7751 15.3995C36.8028 14.7347 35.4758 14.984 34.811 15.9563C34.1462 16.9286 34.3955 18.2557 35.3678 18.9205L38.1603 20.8297C39.1326 21.4945 40.4597 21.2452 41.1245 20.2729Z" fill="#846047"/>
<path d="M38.5257 15.8985L37.7977 15.4007C36.8254 14.736 35.4983 14.9853 34.8335 15.9575C34.1688 16.9298 34.4181 18.2569 35.3904 18.9217L36.1184 19.4194L38.5257 15.8985Z" fill="#4B3E35"/>
<rect x="49.9761" y="28.2007" width="5.46145" height="3.04581" rx="1.5229" fill="#846047"/>
<path d="M49.9761 30.0385H55.4375C55.4375 30.7055 54.8968 31.2463 54.2297 31.2463H51.1839C50.5168 31.2463 49.9761 30.7055 49.9761 30.0385Z" fill="#4B3E35"/>
<rect x="39.4736" y="28.2007" width="5.46145" height="3.04581" rx="1.5229" fill="#846047"/>
<path d="M39.4736 30.0385H44.9351C44.9351 30.7055 44.3943 31.2463 43.7273 31.2463H40.6815C40.0144 31.2463 39.4736 30.7055 39.4736 30.0385Z" fill="#4B3E35"/>
<path d="M39.6672 7.61517C39.6672 4.7149 42.0183 2.36377 44.9186 2.36377H50.3767C52.9145 2.36377 55.0893 4.1787 55.5433 6.67562L58.5133 23.0075C59.0995 26.231 56.623 29.1984 53.3466 29.1984H41.7095C37.1382 29.1984 34.7496 23.7626 37.8413 20.3954L38.284 19.9133C39.1736 18.9444 39.6672 17.6769 39.6672 16.3616L39.6672 7.61517Z" fill="#A37556"/>
<path d="M37.2751 7.4878C37.6312 5.26164 39.5517 3.6239 41.8061 3.6239C44.0235 3.6239 45.9236 5.20953 46.3206 7.39109L47.0124 11.1938C47.5987 14.4161 45.1233 17.3826 41.848 17.3826C38.6183 17.3826 36.1547 14.4936 36.6647 11.3044L37.2751 7.4878Z" fill="#604F44"/>
<path d="M40.8593 13.0738C40.4345 13.0304 39.9744 12.5857 39.7974 12.3688C40.7379 11.6531 41.5546 12.0706 41.8454 12.3688C41.6937 12.6219 41.2841 13.1171 40.8593 13.0738Z" fill="#A2766B"/>
<path d="M40.8857 6.974C40.6536 8.21341 39.8733 11.4748 40.8857 11.8467M40.8857 11.8467C41.4694 12.3415 43.4607 13.2616 44.4001 13.3918M40.8857 11.8467C39.5526 12.6566 39.1588 13.0504 38.9487 13.3918" stroke="#3A2E2B" stroke-width="0.52514" stroke-linecap="round"/>
<ellipse cx="40.8132" cy="6.98502" rx="1.33911" ry="0.892737" fill="#3A2E2B"/>
<path d="M48.8208 4.72681C49.3547 4.75306 50.5643 5.05239 51.1314 6.03966" stroke="#3A2E2B" stroke-width="0.78771" stroke-linecap="round"/>
<path d="M54.4332 16.9138C55.4401 16.3027 56.7518 16.6236 57.3628 17.6305L59.1179 20.5224C59.7289 21.5293 59.4081 22.8409 58.4011 23.452C57.3942 24.0631 56.0826 23.7422 55.4716 22.7353L53.7165 19.8434C53.1055 18.8365 53.4263 17.5249 54.4332 16.9138Z" fill="#846047"/>
<path d="M58.6603 19.7685L59.1179 20.5224C59.7289 21.5293 59.4081 22.8409 58.4011 23.452C57.3942 24.0631 56.0826 23.7422 55.4716 22.7353L55.014 21.9814L58.6603 19.7685Z" fill="#4B3E35"/>
<path d="M54.3545 0.641012C53.2488 0.050175 52.2353 1.87192 51.8667 2.85665L54.3545 4.1491C54.8152 3.22592 55.4602 1.23185 54.3545 0.641012Z" fill="#A37556"/>
<path d="M19.6323 39.806C19.6323 38.4429 20.7374 37.3379 22.1005 37.3379H23.0457C24.4089 37.3379 25.5139 38.4429 25.5139 39.806V44.2501C25.5139 44.8344 24.8568 45.1775 24.3773 44.8436C24.17 44.6992 23.9025 44.6735 23.6715 44.7756L23.2677 44.9542C22.8939 45.1195 22.4662 45.1113 22.0991 44.9316L21.8835 44.8261C21.6084 44.6915 21.2847 44.7011 21.0182 44.8518C20.399 45.2018 19.6323 44.7544 19.6323 44.0432V39.806Z" fill="#4C9C76"/>
<path d="M46.1519 39.806C46.1519 38.4429 47.2569 37.3379 48.62 37.3379H49.5653C50.9284 37.3379 52.0334 38.4429 52.0334 39.806V44.2501C52.0334 44.8344 51.3764 45.1775 50.8969 44.8436C50.6896 44.6992 50.422 44.6735 50.191 44.7756L49.7872 44.9542C49.4135 45.1195 48.9857 45.1113 48.6186 44.9316L48.403 44.8261C48.128 44.6915 47.8043 44.7011 47.5377 44.8518C46.9185 45.2018 46.1519 44.7544 46.1519 44.0432V39.806Z" fill="#4C9C76"/>
<path d="M67.5061 30.9451C53.0752 27.8993 35.8314 28.7833 28.9345 30.0524C27.1228 29.501 26.4244 28.4875 25.4161 27.4792C24.1558 26.2189 21.6089 28.8446 19.4033 27.4792C17.1977 26.1138 16.2787 28.5032 14.782 29.5535C13.2854 30.6038 -6.95874 20.7574 3.09768 31.6278C13.1541 42.4982 40.6714 45.0451 67.5061 41.1066C88.9738 37.9557 92.7128 32.0917 91.8988 29.5535C89.7807 31.2865 81.9369 33.9909 67.5061 30.9451Z" fill="#54AF84"/>
<path d="M32.0776 41.1713C32.0776 39.8082 33.1827 38.7031 34.5458 38.7031H35.491C36.8542 38.7031 37.9592 39.8082 37.9592 41.1713V45.6153C37.9592 46.1996 37.3021 46.5427 36.8226 46.2088C36.6154 46.0644 36.3478 46.0387 36.1168 46.1409L35.713 46.3194C35.3392 46.4848 34.9115 46.4765 34.5444 46.2968L34.3288 46.1913C34.0537 46.0568 33.7301 46.0664 33.4635 46.217C32.8443 46.567 32.0776 46.1197 32.0776 45.4084V41.1713Z" fill="#4C9C76"/>
<path d="M58.5972 41.1713C58.5972 39.8082 59.7022 38.7031 61.0653 38.7031H62.0106C63.3737 38.7031 64.4787 39.8082 64.4787 41.1713V45.6153C64.4787 46.1996 63.8217 46.5427 63.3422 46.2088C63.1349 46.0644 62.8673 46.0387 62.6363 46.1409L62.2326 46.3194C61.8588 46.4848 61.431 46.4765 61.0639 46.2968L60.8483 46.1913C60.5733 46.0568 60.2496 46.0664 59.983 46.217C59.3638 46.567 58.5972 46.1197 58.5972 45.4084V41.1713Z" fill="#4C9C76"/>
<ellipse cx="24.0957" cy="30.2218" rx="1.5229" ry="1.60168" fill="#396E55"/>
<path d="M6.21539 29.2504L6.34949 29.0246L6.21539 29.2504ZM18.8254 34.9601C18.9625 34.9129 19.0354 34.7635 18.9882 34.6264C18.9411 34.4893 18.7916 34.4164 18.6545 34.4636L18.8254 34.9601ZM0.406035 27.8587C1.42913 27.8843 4.01124 28.2464 6.08129 29.4761L6.34949 29.0246C4.17642 27.7337 1.49663 27.3606 0.41916 27.3337L0.406035 27.8587ZM6.08129 29.4761C6.73261 29.863 7.5816 30.4791 8.57096 31.1785C9.55426 31.8736 10.6657 32.6431 11.8232 33.3204C12.9797 33.9971 14.1922 34.5877 15.3793 34.92C16.566 35.2521 17.7467 35.3313 18.8254 34.9601L18.6545 34.4636C17.7114 34.7881 16.6472 34.7295 15.5208 34.4143C14.3948 34.0991 13.2261 33.5328 12.0884 32.8671C10.9518 32.202 9.85596 31.4437 8.87409 30.7497C7.89827 30.0599 7.02415 29.4254 6.34949 29.0246L6.08129 29.4761Z" fill="#396E55"/>
<path d="M33.9888 28.3159C33.149 28.3936 32.945 29.0631 32.9197 29.5225L35.0597 29.3241C35.0338 29.0452 34.7963 28.2411 33.9888 28.3159Z" fill="#54AF84"/>
<path d="M38.0279 28.1329C37.188 28.2107 36.984 28.8801 36.9588 29.3395L39.0987 29.1411C39.0729 28.8622 38.8354 28.0581 38.0279 28.1329Z" fill="#54AF84"/>
<path d="M42.8062 27.9227C41.9663 28.0005 41.7624 28.6699 41.7371 29.1293L43.877 28.9309C43.8512 28.652 43.6137 27.8479 42.8062 27.9227Z" fill="#54AF84"/>
<path d="M46.4829 27.9227C45.6431 28.0005 45.4391 28.6699 45.4138 29.1293L47.5538 28.9309C47.5279 28.652 47.2905 27.8479 46.4829 27.9227Z" fill="#54AF84"/>
<path d="M50.48 27.9308C49.6367 27.9191 49.3628 28.5631 49.2889 29.0172L51.4379 29.047C51.4418 28.7669 51.291 27.9421 50.48 27.9308Z" fill="#54AF84"/>
<path d="M54.149 28.1191C53.3077 28.0582 52.9968 28.6852 52.8966 29.1342L55.0401 29.2891C55.0603 29.0098 54.9578 28.1776 54.149 28.1191Z" fill="#54AF84"/>
<path d="M57.7261 28.4765C56.887 28.3914 56.5581 29.0091 56.4449 29.4551L58.5831 29.6718C58.6114 29.3932 58.533 28.5584 57.7261 28.4765Z" fill="#54AF84"/>
<path d="M61.3438 28.8495C60.5099 28.7227 60.1507 29.3233 60.0155 29.7631L62.1403 30.0859C62.1824 29.809 62.1455 28.9714 61.3438 28.8495Z" fill="#54AF84"/>
<rect x="50.3008" y="27.9902" width="4.83729" height="2.69772" rx="1.34886" fill="#846047"/>
<path d="M50.3008 29.6182H55.1381C55.1381 30.209 54.6591 30.6879 54.0683 30.6879H51.3706C50.7797 30.6879 50.3008 30.209 50.3008 29.6182Z" fill="#4B3E35"/>
</svg>
