<svg width="293" height="86" viewBox="0 0 293 86" fill="none" xmlns="http://www.w3.org/2000/svg">
<rect width="293" height="78" rx="30" fill="#3A6351"/>
<path d="M25.438 36L22.05 30.016H20.598V36H17.518V20.644H23.282C24.47 20.644 25.482 20.8567 26.318 21.282C27.154 21.6927 27.7773 22.2573 28.188 22.976C28.6133 23.68 28.826 24.472 28.826 25.352C28.826 26.364 28.5327 27.2807 27.946 28.102C27.3593 28.9087 26.4867 29.466 25.328 29.774L29.002 36H25.438ZM20.598 27.706H23.172C24.008 27.706 24.6313 27.508 25.042 27.112C25.4527 26.7013 25.658 26.1367 25.658 25.418C25.658 24.714 25.4527 24.1713 25.042 23.79C24.6313 23.394 24.008 23.196 23.172 23.196H20.598V27.706ZM42.5018 29.642C42.5018 30.082 42.4724 30.478 42.4138 30.83H33.5038C33.5771 31.71 33.8851 32.3993 34.4278 32.898C34.9704 33.3967 35.6378 33.646 36.4298 33.646C37.5738 33.646 38.3878 33.1547 38.8718 32.172H42.1938C41.8418 33.3453 41.1671 34.3133 40.1698 35.076C39.1724 35.824 37.9478 36.198 36.4958 36.198C35.3224 36.198 34.2664 35.9413 33.3278 35.428C32.4038 34.9 31.6778 34.1593 31.1498 33.206C30.6364 32.2527 30.3798 31.1527 30.3798 29.906C30.3798 28.6447 30.6364 27.5373 31.1498 26.584C31.6631 25.6307 32.3818 24.8973 33.3058 24.384C34.2298 23.8707 35.2931 23.614 36.4958 23.614C37.6544 23.614 38.6884 23.8633 39.5978 24.362C40.5218 24.8607 41.2331 25.572 41.7318 26.496C42.2451 27.4053 42.5018 28.454 42.5018 29.642ZM39.3118 28.762C39.2971 27.97 39.0111 27.3393 38.4538 26.87C37.8964 26.386 37.2144 26.144 36.4078 26.144C35.6451 26.144 34.9998 26.3787 34.4718 26.848C33.9584 27.3027 33.6431 27.9407 33.5258 28.762H39.3118ZM49.3919 33.162L52.4719 23.812H55.7499L51.2399 36H47.4999L43.0119 23.812H46.3119L49.3919 33.162ZM58.6018 22.36C58.0591 22.36 57.6045 22.1913 57.2378 21.854C56.8858 21.502 56.7098 21.0693 56.7098 20.556C56.7098 20.0427 56.8858 19.6173 57.2378 19.28C57.6045 18.928 58.0591 18.752 58.6018 18.752C59.1445 18.752 59.5918 18.928 59.9438 19.28C60.3105 19.6173 60.4938 20.0427 60.4938 20.556C60.4938 21.0693 60.3105 21.502 59.9438 21.854C59.5918 22.1913 59.1445 22.36 58.6018 22.36ZM60.1198 23.812V36H57.0398V23.812H60.1198ZM74.0528 29.642C74.0528 30.082 74.0235 30.478 73.9648 30.83H65.0548C65.1282 31.71 65.4362 32.3993 65.9788 32.898C66.5215 33.3967 67.1888 33.646 67.9808 33.646C69.1248 33.646 69.9388 33.1547 70.4228 32.172H73.7448C73.3928 33.3453 72.7182 34.3133 71.7208 35.076C70.7235 35.824 69.4988 36.198 68.0468 36.198C66.8735 36.198 65.8175 35.9413 64.8788 35.428C63.9548 34.9 63.2288 34.1593 62.7008 33.206C62.1875 32.2527 61.9308 31.1527 61.9308 29.906C61.9308 28.6447 62.1875 27.5373 62.7008 26.584C63.2142 25.6307 63.9328 24.8973 64.8568 24.384C65.7808 23.8707 66.8442 23.614 68.0468 23.614C69.2055 23.614 70.2395 23.8633 71.1488 24.362C72.0728 24.8607 72.7842 25.572 73.2828 26.496C73.7962 27.4053 74.0528 28.454 74.0528 29.642ZM70.8628 28.762C70.8482 27.97 70.5622 27.3393 70.0048 26.87C69.4475 26.386 68.7655 26.144 67.9588 26.144C67.1962 26.144 66.5508 26.3787 66.0228 26.848C65.5095 27.3027 65.1942 27.9407 65.0768 28.762H70.8628ZM92.757 23.812L89.193 36H85.871L83.649 27.486L81.427 36H78.083L74.497 23.812H77.621L79.777 33.096L82.109 23.812H85.365L87.653 33.074L89.809 23.812H92.757ZM109.236 20.644V23.13H105.144V36H102.064V23.13H97.9717V20.644H109.236ZM112.605 22.36C112.062 22.36 111.608 22.1913 111.241 21.854C110.889 21.502 110.713 21.0693 110.713 20.556C110.713 20.0427 110.889 19.6173 111.241 19.28C111.608 18.928 112.062 18.752 112.605 18.752C113.148 18.752 113.595 18.928 113.947 19.28C114.314 19.6173 114.497 20.0427 114.497 20.556C114.497 21.0693 114.314 21.502 113.947 21.854C113.595 22.1913 113.148 22.36 112.605 22.36ZM114.123 23.812V36H111.043V23.812H114.123ZM131.862 23.636C133.358 23.636 134.561 24.098 135.47 25.022C136.394 25.9313 136.856 27.2073 136.856 28.85V36H133.776V29.268C133.776 28.3147 133.534 27.5887 133.05 27.09C132.566 26.5767 131.906 26.32 131.07 26.32C130.234 26.32 129.567 26.5767 129.068 27.09C128.584 27.5887 128.342 28.3147 128.342 29.268V36H125.262V29.268C125.262 28.3147 125.02 27.5887 124.536 27.09C124.052 26.5767 123.392 26.32 122.556 26.32C121.705 26.32 121.031 26.5767 120.532 27.09C120.048 27.5887 119.806 28.3147 119.806 29.268V36H116.726V23.812H119.806V25.286C120.202 24.7727 120.708 24.3693 121.324 24.076C121.955 23.7827 122.644 23.636 123.392 23.636C124.345 23.636 125.196 23.8413 125.944 24.252C126.692 24.648 127.271 25.22 127.682 25.968C128.078 25.264 128.65 24.6993 129.398 24.274C130.161 23.8487 130.982 23.636 131.862 23.636ZM150.669 29.642C150.669 30.082 150.639 30.478 150.581 30.83H141.671C141.744 31.71 142.052 32.3993 142.595 32.898C143.137 33.3967 143.805 33.646 144.597 33.646C145.741 33.646 146.555 33.1547 147.039 32.172H150.361C150.009 33.3453 149.334 34.3133 148.337 35.076C147.339 35.824 146.115 36.198 144.663 36.198C143.489 36.198 142.433 35.9413 141.495 35.428C140.571 34.9 139.845 34.1593 139.317 33.206C138.803 32.2527 138.547 31.1527 138.547 29.906C138.547 28.6447 138.803 27.5373 139.317 26.584C139.83 25.6307 140.549 24.8973 141.473 24.384C142.397 23.8707 143.46 23.614 144.663 23.614C145.821 23.614 146.855 23.8633 147.765 24.362C148.689 24.8607 149.4 25.572 149.899 26.496C150.412 27.4053 150.669 28.454 150.669 29.642ZM147.479 28.762C147.464 27.97 147.178 27.3393 146.621 26.87C146.063 26.386 145.381 26.144 144.575 26.144C143.812 26.144 143.167 26.3787 142.639 26.848C142.125 27.3027 141.81 27.9407 141.693 28.762H147.479ZM156.459 20.38L156.107 31.006H153.511L153.137 20.38H156.459ZM154.875 36.154C154.317 36.154 153.855 35.9853 153.489 35.648C153.137 35.296 152.961 34.8633 152.961 34.35C152.961 33.8367 153.137 33.4113 153.489 33.074C153.855 32.722 154.317 32.546 154.875 32.546C155.417 32.546 155.865 32.722 156.217 33.074C156.569 33.4113 156.745 33.8367 156.745 34.35C156.745 34.8633 156.569 35.296 156.217 35.648C155.865 35.9853 155.417 36.154 154.875 36.154Z" fill="white"/>
<path d="M21.964 54.974C22.3187 55.03 22.6407 55.1747 22.93 55.408C23.2287 55.6413 23.462 55.9307 23.63 56.276C23.8073 56.6213 23.896 56.99 23.896 57.382C23.896 57.8767 23.77 58.3247 23.518 58.726C23.266 59.118 22.8973 59.4307 22.412 59.664C21.936 59.888 21.3713 60 20.718 60H17.078V50.242H20.578C21.2407 50.242 21.8053 50.354 22.272 50.578C22.7387 50.7927 23.0887 51.0867 23.322 51.46C23.5553 51.8333 23.672 52.2533 23.672 52.72C23.672 53.2987 23.5133 53.7793 23.196 54.162C22.888 54.5353 22.4773 54.806 21.964 54.974ZM18.352 54.456H20.494C21.0913 54.456 21.5533 54.316 21.88 54.036C22.2067 53.756 22.37 53.3687 22.37 52.874C22.37 52.3793 22.2067 51.992 21.88 51.712C21.5533 51.432 21.082 51.292 20.466 51.292H18.352V54.456ZM20.606 58.95C21.2407 58.95 21.7353 58.8007 22.09 58.502C22.4447 58.2033 22.622 57.788 22.622 57.256C22.622 56.7147 22.4353 56.29 22.062 55.982C21.6887 55.6647 21.1893 55.506 20.564 55.506H18.352V58.95H20.606ZM28.7299 60.126C28.0113 60.126 27.3579 59.9627 26.7699 59.636C26.1913 59.3093 25.7339 58.8473 25.3979 58.25C25.0713 57.6433 24.9079 56.9433 24.9079 56.15C24.9079 55.366 25.0759 54.6753 25.4119 54.078C25.7573 53.4713 26.2239 53.0093 26.8119 52.692C27.3999 52.3653 28.0579 52.202 28.7859 52.202C29.5139 52.202 30.1719 52.3653 30.7599 52.692C31.3479 53.0093 31.8099 53.4667 32.1459 54.064C32.4913 54.6613 32.6639 55.3567 32.6639 56.15C32.6639 56.9433 32.4866 57.6433 32.1319 58.25C31.7866 58.8473 31.3153 59.3093 30.7179 59.636C30.1206 59.9627 29.4579 60.126 28.7299 60.126ZM28.7299 59.006C29.1873 59.006 29.6166 58.8987 30.0179 58.684C30.4193 58.4693 30.7413 58.1473 30.9839 57.718C31.2359 57.2887 31.3619 56.766 31.3619 56.15C31.3619 55.534 31.2406 55.0113 30.9979 54.582C30.7553 54.1527 30.4379 53.8353 30.0459 53.63C29.6539 53.4153 29.2293 53.308 28.7719 53.308C28.3053 53.308 27.8759 53.4153 27.4839 53.63C27.1013 53.8353 26.7933 54.1527 26.5599 54.582C26.3266 55.0113 26.2099 55.534 26.2099 56.15C26.2099 56.7753 26.3219 57.3027 26.5459 57.732C26.7793 58.1613 27.0873 58.4833 27.4699 58.698C27.8526 58.9033 28.2726 59.006 28.7299 59.006ZM37.405 60.126C36.6863 60.126 36.033 59.9627 35.445 59.636C34.8663 59.3093 34.409 58.8473 34.073 58.25C33.7463 57.6433 33.583 56.9433 33.583 56.15C33.583 55.366 33.751 54.6753 34.087 54.078C34.4323 53.4713 34.899 53.0093 35.487 52.692C36.075 52.3653 36.733 52.202 37.461 52.202C38.189 52.202 38.847 52.3653 39.435 52.692C40.023 53.0093 40.485 53.4667 40.821 54.064C41.1663 54.6613 41.339 55.3567 41.339 56.15C41.339 56.9433 41.1617 57.6433 40.807 58.25C40.4617 58.8473 39.9903 59.3093 39.393 59.636C38.7957 59.9627 38.133 60.126 37.405 60.126ZM37.405 59.006C37.8623 59.006 38.2917 58.8987 38.693 58.684C39.0943 58.4693 39.4163 58.1473 39.659 57.718C39.911 57.2887 40.037 56.766 40.037 56.15C40.037 55.534 39.9157 55.0113 39.673 54.582C39.4303 54.1527 39.113 53.8353 38.721 53.63C38.329 53.4153 37.9043 53.308 37.447 53.308C36.9803 53.308 36.551 53.4153 36.159 53.63C35.7763 53.8353 35.4683 54.1527 35.235 54.582C35.0017 55.0113 34.885 55.534 34.885 56.15C34.885 56.7753 34.997 57.3027 35.221 57.732C35.4543 58.1613 35.7623 58.4833 36.145 58.698C36.5277 58.9033 36.9477 59.006 37.405 59.006ZM45.4501 60.126C44.8621 60.126 44.3348 60.028 43.8681 59.832C43.4014 59.6267 43.0328 59.3467 42.7621 58.992C42.4914 58.628 42.3421 58.2127 42.3141 57.746H43.6301C43.6674 58.1287 43.8448 58.4413 44.1621 58.684C44.4888 58.9267 44.9134 59.048 45.4361 59.048C45.9214 59.048 46.3041 58.9407 46.5841 58.726C46.8641 58.5113 47.0041 58.2407 47.0041 57.914C47.0041 57.578 46.8548 57.3307 46.5561 57.172C46.2574 57.004 45.7954 56.8407 45.1701 56.682C44.6008 56.5327 44.1341 56.3833 43.7701 56.234C43.4154 56.0753 43.1074 55.8467 42.8461 55.548C42.5941 55.24 42.4681 54.8387 42.4681 54.344C42.4681 53.952 42.5848 53.5927 42.8181 53.266C43.0514 52.9393 43.3828 52.6827 43.8121 52.496C44.2414 52.3 44.7314 52.202 45.2821 52.202C46.1314 52.202 46.8174 52.4167 47.3401 52.846C47.8628 53.2753 48.1428 53.8633 48.1801 54.61H46.9061C46.8781 54.2087 46.7148 53.8867 46.4161 53.644C46.1268 53.4013 45.7348 53.28 45.2401 53.28C44.7828 53.28 44.4188 53.378 44.1481 53.574C43.8774 53.77 43.7421 54.0267 43.7421 54.344C43.7421 54.596 43.8214 54.806 43.9801 54.974C44.1481 55.1327 44.3534 55.2633 44.5961 55.366C44.8481 55.4593 45.1934 55.5667 45.6321 55.688C46.1828 55.8373 46.6308 55.9867 46.9761 56.136C47.3214 56.276 47.6154 56.4907 47.8581 56.78C48.1101 57.0693 48.2408 57.4473 48.2501 57.914C48.2501 58.334 48.1334 58.712 47.9001 59.048C47.6668 59.384 47.3354 59.65 46.9061 59.846C46.4861 60.0327 46.0008 60.126 45.4501 60.126ZM51.3225 53.378V57.9C51.3225 58.2733 51.4019 58.5393 51.5605 58.698C51.7192 58.8473 51.9945 58.922 52.3865 58.922H53.3245V60H52.1765C51.4672 60 50.9352 59.8367 50.5805 59.51C50.2259 59.1833 50.0485 58.6467 50.0485 57.9V53.378H49.0545V52.328H50.0485V50.396H51.3225V52.328H53.3245V53.378H51.3225ZM67.2666 52.188C67.8639 52.188 68.3959 52.314 68.8626 52.566C69.3292 52.8087 69.6979 53.1773 69.9686 53.672C70.2392 54.1667 70.3746 54.7687 70.3746 55.478V60H69.1146V55.66C69.1146 54.8947 68.9232 54.3113 68.5406 53.91C68.1672 53.4993 67.6586 53.294 67.0146 53.294C66.3519 53.294 65.8246 53.5087 65.4326 53.938C65.0406 54.358 64.8446 54.9693 64.8446 55.772V60H63.5846V55.66C63.5846 54.8947 63.3932 54.3113 63.0106 53.91C62.6372 53.4993 62.1286 53.294 61.4846 53.294C60.8219 53.294 60.2946 53.5087 59.9026 53.938C59.5106 54.358 59.3146 54.9693 59.3146 55.772V60H58.0406V52.328H59.3146V53.434C59.5666 53.0327 59.9026 52.7247 60.3226 52.51C60.7519 52.2953 61.2232 52.188 61.7366 52.188C62.3806 52.188 62.9499 52.3327 63.4446 52.622C63.9392 52.9113 64.3079 53.336 64.5506 53.896C64.7652 53.3547 65.1199 52.9347 65.6146 52.636C66.1092 52.3373 66.6599 52.188 67.2666 52.188ZM79.1844 55.87C79.1844 56.1127 79.1704 56.3693 79.1424 56.64H73.0104C73.0571 57.396 73.3137 57.9887 73.7804 58.418C74.2564 58.838 74.8304 59.048 75.5024 59.048C76.0531 59.048 76.5104 58.922 76.8744 58.67C77.2477 58.4087 77.5091 58.0633 77.6584 57.634H79.0304C78.8251 58.3713 78.4144 58.9733 77.7984 59.44C77.1824 59.8973 76.4171 60.126 75.5024 60.126C74.7744 60.126 74.1211 59.9627 73.5424 59.636C72.9731 59.3093 72.5251 58.8473 72.1984 58.25C71.8717 57.6433 71.7084 56.9433 71.7084 56.15C71.7084 55.3567 71.8671 54.6613 72.1844 54.064C72.5017 53.4667 72.9451 53.0093 73.5144 52.692C74.0931 52.3653 74.7557 52.202 75.5024 52.202C76.2304 52.202 76.8744 52.3607 77.4344 52.678C77.9944 52.9953 78.4237 53.434 78.7224 53.994C79.0304 54.5447 79.1844 55.17 79.1844 55.87ZM77.8684 55.604C77.8684 55.1187 77.7611 54.7033 77.5464 54.358C77.3317 54.0033 77.0377 53.7373 76.6644 53.56C76.3004 53.3733 75.8944 53.28 75.4464 53.28C74.8024 53.28 74.2517 53.4853 73.7944 53.896C73.3464 54.3067 73.0897 54.876 73.0244 55.604H77.8684ZM89.812 52.188C90.4094 52.188 90.9414 52.314 91.408 52.566C91.8747 52.8087 92.2434 53.1773 92.514 53.672C92.7847 54.1667 92.92 54.7687 92.92 55.478V60H91.66V55.66C91.66 54.8947 91.4687 54.3113 91.086 53.91C90.7127 53.4993 90.204 53.294 89.56 53.294C88.8974 53.294 88.37 53.5087 87.978 53.938C87.586 54.358 87.39 54.9693 87.39 55.772V60H86.13V55.66C86.13 54.8947 85.9387 54.3113 85.556 53.91C85.1827 53.4993 84.674 53.294 84.03 53.294C83.3674 53.294 82.84 53.5087 82.448 53.938C82.056 54.358 81.86 54.9693 81.86 55.772V60H80.586V52.328H81.86V53.434C82.112 53.0327 82.448 52.7247 82.868 52.51C83.2974 52.2953 83.7687 52.188 84.282 52.188C84.926 52.188 85.4954 52.3327 85.99 52.622C86.4847 52.9113 86.8534 53.336 87.096 53.896C87.3107 53.3547 87.6654 52.9347 88.16 52.636C88.6547 52.3373 89.2054 52.188 89.812 52.188ZM98.0759 60.126C97.3572 60.126 96.7039 59.9627 96.1159 59.636C95.5372 59.3093 95.0799 58.8473 94.7439 58.25C94.4172 57.6433 94.2539 56.9433 94.2539 56.15C94.2539 55.366 94.4219 54.6753 94.7579 54.078C95.1032 53.4713 95.5699 53.0093 96.1579 52.692C96.7459 52.3653 97.4039 52.202 98.1319 52.202C98.8599 52.202 99.5179 52.3653 100.106 52.692C100.694 53.0093 101.156 53.4667 101.492 54.064C101.837 54.6613 102.01 55.3567 102.01 56.15C102.01 56.9433 101.833 57.6433 101.478 58.25C101.133 58.8473 100.661 59.3093 100.064 59.636C99.4665 59.9627 98.8039 60.126 98.0759 60.126ZM98.0759 59.006C98.5332 59.006 98.9625 58.8987 99.3639 58.684C99.7652 58.4693 100.087 58.1473 100.33 57.718C100.582 57.2887 100.708 56.766 100.708 56.15C100.708 55.534 100.587 55.0113 100.344 54.582C100.101 54.1527 99.7839 53.8353 99.3919 53.63C98.9999 53.4153 98.5752 53.308 98.1179 53.308C97.6512 53.308 97.2219 53.4153 96.8299 53.63C96.4472 53.8353 96.1392 54.1527 95.9059 54.582C95.6725 55.0113 95.5559 55.534 95.5559 56.15C95.5559 56.7753 95.6679 57.3027 95.8919 57.732C96.1252 58.1613 96.4332 58.4833 96.8159 58.698C97.1985 58.9033 97.6185 59.006 98.0759 59.006ZM104.679 53.574C104.903 53.1353 105.22 52.7947 105.631 52.552C106.051 52.3093 106.56 52.188 107.157 52.188V53.504H106.821C105.393 53.504 104.679 54.2787 104.679 55.828V60H103.405V52.328H104.679V53.574ZM114.956 52.328L110.336 63.612H109.02L110.532 59.916L107.438 52.328H108.852L111.26 58.544L113.64 52.328H114.956ZM129.629 52.328L127.235 60H125.919L124.071 53.91L122.223 60H120.907L118.499 52.328H119.801L121.565 58.768L123.469 52.328H124.771L126.633 58.782L128.369 52.328H129.629ZM131.271 51.082C131.028 51.082 130.823 50.998 130.655 50.83C130.487 50.662 130.403 50.4567 130.403 50.214C130.403 49.9713 130.487 49.766 130.655 49.598C130.823 49.43 131.028 49.346 131.271 49.346C131.504 49.346 131.7 49.43 131.859 49.598C132.027 49.766 132.111 49.9713 132.111 50.214C132.111 50.4567 132.027 50.662 131.859 50.83C131.7 50.998 131.504 51.082 131.271 51.082ZM131.887 52.328V60H130.613V52.328H131.887ZM135.332 53.378V57.9C135.332 58.2733 135.412 58.5393 135.57 58.698C135.729 58.8473 136.004 58.922 136.396 58.922H137.334V60H136.186C135.477 60 134.945 59.8367 134.59 59.51C134.236 59.1833 134.058 58.6467 134.058 57.9V53.378H133.064V52.328H134.058V50.396H135.332V52.328H137.334V53.378H135.332ZM142.406 52.188C142.985 52.188 143.507 52.314 143.974 52.566C144.441 52.8087 144.805 53.1773 145.066 53.672C145.337 54.1667 145.472 54.7687 145.472 55.478V60H144.212V55.66C144.212 54.8947 144.021 54.3113 143.638 53.91C143.255 53.4993 142.733 53.294 142.07 53.294C141.398 53.294 140.861 53.504 140.46 53.924C140.068 54.344 139.872 54.9553 139.872 55.758V60H138.598V49.64H139.872V53.42C140.124 53.028 140.469 52.7247 140.908 52.51C141.356 52.2953 141.855 52.188 142.406 52.188ZM157.726 55.87C157.726 56.1127 157.712 56.3693 157.684 56.64H151.552C151.598 57.396 151.855 57.9887 152.322 58.418C152.798 58.838 153.372 59.048 154.044 59.048C154.594 59.048 155.052 58.922 155.416 58.67C155.789 58.4087 156.05 58.0633 156.2 57.634H157.572C157.366 58.3713 156.956 58.9733 156.34 59.44C155.724 59.8973 154.958 60.126 154.044 60.126C153.316 60.126 152.662 59.9627 152.084 59.636C151.514 59.3093 151.066 58.8473 150.74 58.25C150.413 57.6433 150.25 56.9433 150.25 56.15C150.25 55.3567 150.408 54.6613 150.726 54.064C151.043 53.4667 151.486 53.0093 152.056 52.692C152.634 52.3653 153.297 52.202 154.044 52.202C154.772 52.202 155.416 52.3607 155.976 52.678C156.536 52.9953 156.965 53.434 157.264 53.994C157.572 54.5447 157.726 55.17 157.726 55.87ZM156.41 55.604C156.41 55.1187 156.302 54.7033 156.088 54.358C155.873 54.0033 155.579 53.7373 155.206 53.56C154.842 53.3733 154.436 53.28 153.988 53.28C153.344 53.28 152.793 53.4853 152.336 53.896C151.888 54.3067 151.631 54.876 151.566 55.604H156.41ZM161.983 58.824L164.363 52.328H165.721L162.711 60H161.227L158.217 52.328H159.589L161.983 58.824ZM173.695 55.87C173.695 56.1127 173.681 56.3693 173.653 56.64H167.521C167.567 57.396 167.824 57.9887 168.291 58.418C168.767 58.838 169.341 59.048 170.013 59.048C170.563 59.048 171.021 58.922 171.385 58.67C171.758 58.4087 172.019 58.0633 172.169 57.634H173.541C173.335 58.3713 172.925 58.9733 172.309 59.44C171.693 59.8973 170.927 60.126 170.013 60.126C169.285 60.126 168.631 59.9627 168.053 59.636C167.483 59.3093 167.035 58.8473 166.709 58.25C166.382 57.6433 166.219 56.9433 166.219 56.15C166.219 55.3567 166.377 54.6613 166.695 54.064C167.012 53.4667 167.455 53.0093 168.025 52.692C168.603 52.3653 169.266 52.202 170.013 52.202C170.741 52.202 171.385 52.3607 171.945 52.678C172.505 52.9953 172.934 53.434 173.233 53.994C173.541 54.5447 173.695 55.17 173.695 55.87ZM172.379 55.604C172.379 55.1187 172.271 54.7033 172.057 54.358C171.842 54.0033 171.548 53.7373 171.175 53.56C170.811 53.3733 170.405 53.28 169.957 53.28C169.313 53.28 168.762 53.4853 168.305 53.896C167.857 54.3067 167.6 54.876 167.535 55.604H172.379ZM176.37 53.574C176.594 53.1353 176.912 52.7947 177.322 52.552C177.742 52.3093 178.251 52.188 178.848 52.188V53.504H178.512C177.084 53.504 176.37 54.2787 176.37 55.828V60H175.096V52.328H176.37V53.574ZM186.647 52.328L182.027 63.612H180.711L182.223 59.916L179.129 52.328H180.543L182.951 58.544L185.331 52.328H186.647ZM192.374 53.574C192.598 53.1353 192.916 52.7947 193.326 52.552C193.746 52.3093 194.255 52.188 194.852 52.188V53.504H194.516C193.088 53.504 192.374 54.2787 192.374 55.828V60H191.1V52.328H192.374V53.574ZM203.043 55.87C203.043 56.1127 203.029 56.3693 203.001 56.64H196.869C196.916 57.396 197.172 57.9887 197.639 58.418C198.115 58.838 198.689 59.048 199.361 59.048C199.912 59.048 200.369 58.922 200.733 58.67C201.106 58.4087 201.368 58.0633 201.517 57.634H202.889C202.684 58.3713 202.273 58.9733 201.657 59.44C201.041 59.8973 200.276 60.126 199.361 60.126C198.633 60.126 197.98 59.9627 197.401 59.636C196.832 59.3093 196.384 58.8473 196.057 58.25C195.73 57.6433 195.567 56.9433 195.567 56.15C195.567 55.3567 195.726 54.6613 196.043 54.064C196.36 53.4667 196.804 53.0093 197.373 52.692C197.952 52.3653 198.614 52.202 199.361 52.202C200.089 52.202 200.733 52.3607 201.293 52.678C201.853 52.9953 202.282 53.434 202.581 53.994C202.889 54.5447 203.043 55.17 203.043 55.87ZM201.727 55.604C201.727 55.1187 201.62 54.7033 201.405 54.358C201.19 54.0033 200.896 53.7373 200.523 53.56C200.159 53.3733 199.753 53.28 199.305 53.28C198.661 53.28 198.11 53.4853 197.653 53.896C197.205 54.3067 196.948 54.876 196.883 55.604H201.727ZM207.3 58.824L209.68 52.328H211.038L208.028 60H206.544L203.534 52.328H204.906L207.3 58.824ZM212.67 51.082C212.427 51.082 212.222 50.998 212.054 50.83C211.886 50.662 211.802 50.4567 211.802 50.214C211.802 49.9713 211.886 49.766 212.054 49.598C212.222 49.43 212.427 49.346 212.67 49.346C212.903 49.346 213.099 49.43 213.258 49.598C213.426 49.766 213.51 49.9713 213.51 50.214C213.51 50.4567 213.426 50.662 213.258 50.83C213.099 50.998 212.903 51.082 212.67 51.082ZM213.286 52.328V60H212.012V52.328H213.286ZM222.177 55.87C222.177 56.1127 222.163 56.3693 222.135 56.64H216.003C216.05 57.396 216.307 57.9887 216.773 58.418C217.249 58.838 217.823 59.048 218.495 59.048C219.046 59.048 219.503 58.922 219.867 58.67C220.241 58.4087 220.502 58.0633 220.651 57.634H222.023C221.818 58.3713 221.407 58.9733 220.791 59.44C220.175 59.8973 219.41 60.126 218.495 60.126C217.767 60.126 217.114 59.9627 216.535 59.636C215.966 59.3093 215.518 58.8473 215.191 58.25C214.865 57.6433 214.701 56.9433 214.701 56.15C214.701 55.3567 214.86 54.6613 215.177 54.064C215.495 53.4667 215.938 53.0093 216.507 52.692C217.086 52.3653 217.749 52.202 218.495 52.202C219.223 52.202 219.867 52.3607 220.427 52.678C220.987 52.9953 221.417 53.434 221.715 53.994C222.023 54.5447 222.177 55.17 222.177 55.87ZM220.861 55.604C220.861 55.1187 220.754 54.7033 220.539 54.358C220.325 54.0033 220.031 53.7373 219.657 53.56C219.293 53.3733 218.887 53.28 218.439 53.28C217.795 53.28 217.245 53.4853 216.787 53.896C216.339 54.3067 216.083 54.876 216.017 55.604H220.861ZM233.799 52.328L231.405 60H230.089L228.241 53.91L226.393 60H225.077L222.669 52.328H223.971L225.735 58.768L227.639 52.328H228.941L230.803 58.782L232.539 52.328H233.799Z" fill="white"/>
<g clip-path="url(#clip0_3835_6047)">
<path d="M277 38.9951C277 38.751 276.902 38.5264 276.717 38.3506L268.982 30.7725C268.807 30.6064 268.592 30.5186 268.338 30.5186C267.84 30.5186 267.449 30.8994 267.449 31.4072C267.449 31.6514 267.547 31.876 267.703 32.042L274.812 38.9951L267.703 45.9483C267.547 46.1143 267.449 46.3291 267.449 46.5831C267.449 47.0909 267.84 47.4717 268.338 47.4717C268.592 47.4717 268.807 47.3838 268.982 47.2081L276.717 39.6396C276.902 39.4541 277 39.2393 277 38.9951Z" fill="white" fill-opacity="0.85"/>
</g>
<path d="M20 68.5C20 64.3579 23.3579 61 27.5 61V61C31.6421 61 35 64.3579 35 68.5V79.75C35 83.2018 32.2018 86 28.75 86H26.25C22.7982 86 20 83.2018 20 79.75V68.5Z" fill="#3A6351"/>
<path d="M258 68.5C258 64.3579 261.358 61 265.5 61V61C269.642 61 273 64.3579 273 68.5V79.75C273 83.2018 270.202 86 266.75 86H264.25C260.798 86 258 83.2018 258 79.75V68.5Z" fill="#3A6351"/>
<defs>
<clipPath id="clip0_3835_6047">
<rect width="11.6895" height="16.9629" fill="white" transform="translate(265.311 30.5186)"/>
</clipPath>
</defs>
</svg>
