<svg width="50" height="47" viewBox="0 0 50 47" fill="none" xmlns="http://www.w3.org/2000/svg">
<path d="M18.5351 3.19386C16.9791 2.36241 15.5528 4.92603 15.0342 6.31177L18.5351 8.13055C19.1834 6.83142 20.0911 4.0253 18.5351 3.19386Z" fill="#A37556"/>
<path d="M9.50653 27.0305C8.27746 25.9185 6.37964 26.0133 5.26762 27.2424L2.07379 30.7724C0.961767 32.0014 1.05665 33.8993 2.28571 35.0113C3.51477 36.1233 5.4126 36.0284 6.52462 34.7994L9.71844 31.2694C10.8305 30.0403 10.7356 28.1425 9.50653 27.0305Z" fill="#89BBB9"/>
<path d="M2.91245 29.8209L2.07979 30.7412C0.967767 31.9702 1.06265 33.8681 2.29171 34.9801C3.52077 36.0921 5.4186 35.9972 6.53062 34.7682L7.36328 33.8479L2.91245 29.8209Z" fill="#4B3E35"/>
<rect x="22.4238" y="42.7163" width="7.68553" height="4.28616" rx="2.14308" fill="#C8DFDE"/>
<path d="M22.4238 45.3027H30.1094C30.1094 46.2414 29.3484 47.0024 28.4097 47.0024H24.1235C23.1848 47.0024 22.4238 46.2414 22.4238 45.3027Z" fill="#4B3E35"/>
<rect x="7.64307" y="42.7163" width="7.68553" height="4.28616" rx="2.14308" fill="#C8DFDE"/>
<path d="M7.64307 45.3027H15.3286C15.3286 46.2414 14.5676 47.0024 13.6289 47.0024H9.34275C8.40404 47.0024 7.64307 46.2414 7.64307 45.3027Z" fill="#4B3E35"/>
<path d="M7.9162 13.7469C7.9162 9.66552 11.2248 6.35693 15.3061 6.35693H22.987C26.5584 6.35693 29.6187 8.91096 30.2577 12.4247L34.4371 35.4074C35.262 39.9437 31.7771 44.1195 27.1664 44.1195H10.7903C4.35737 44.1195 0.996089 36.47 5.34681 31.7316L5.96971 31.0532C7.22157 29.6897 7.9162 27.9061 7.9162 26.0552L7.9162 13.7469Z" fill="#A37556"/>
<path d="M4.55054 13.568C5.05157 10.4353 7.75414 8.13062 10.9267 8.13062C14.0471 8.13062 16.721 10.362 17.2796 13.4319L18.2532 18.7832C19.0782 23.3177 15.5947 27.4923 10.9857 27.4923C6.44068 27.4923 2.97379 23.4268 3.69157 18.9389L4.55054 13.568Z" fill="#604F44"/>
<path d="M9.595 21.5025C8.99723 21.4414 8.34965 20.8157 8.10059 20.5105C9.42421 19.5033 10.5735 20.0908 10.9827 20.5105C10.7692 20.8666 10.1928 21.5635 9.595 21.5025Z" fill="#A2766B"/>
<path d="M9.63098 12.8452C9.30445 14.5894 8.20637 19.1789 9.63098 19.7023M9.63098 19.7023C10.4524 20.3985 13.2546 21.6933 14.5767 21.8765M9.63098 19.7023C7.75512 20.8419 7.20087 21.3961 6.90527 21.8765" stroke="#3A2E2B" stroke-width="0.738994" stroke-linecap="round"/>
<ellipse cx="9.52848" cy="12.8608" rx="1.88443" ry="1.25629" fill="#3A2E2B"/>
<path d="M20.7983 9.68237C21.5497 9.71932 23.2518 10.1405 24.0499 11.5299" stroke="#3A2E2B" stroke-width="1.10849" stroke-linecap="round"/>
<path d="M28.5854 3.93287C27.0294 3.10143 25.6031 5.66505 25.0845 7.05079L28.5854 8.86956C29.2337 7.57043 30.1414 4.76431 28.5854 3.93287Z" fill="#A37556"/>
<path d="M14.6021 29.4864C16.3778 25.7572 26.0056 25.2973 28.1142 12.8912C29.0938 7.12767 21.9983 7.68366 20.7894 7.31587C13.881 5.21401 13.2337 7.03099 8.91445 8.60818L8.90958 8.60996C8.66679 8.69861 8.38094 8.80299 8.09271 8.9187C7.65503 9.12437 7.24446 9.30777 6.97961 9.45945C6.86812 9.53143 6.7713 9.60479 6.69482 9.67894C6.73282 9.61637 6.83428 9.54268 6.97961 9.45945C7.2808 9.26502 7.68908 9.08075 8.09271 8.9187C8.97364 8.50475 9.96444 8.00056 10.0982 7.48307C10.3942 6.33846 9.98727 5.08291 15.4993 5.7106C21.0114 6.33829 21.5663 4.76826 27.4483 7.31594C32.1539 9.35408 36.4871 26.4665 37.7326 36.7803C36.9557 41.6542 35.9199 41.285 32.2945 42.1341C26.4283 43.508 22.2257 44.8956 16.5604 43.712C9.08233 42.1497 12.8264 33.2156 14.6021 29.4864Z" fill="#C8DFDE"/>
<path d="M32.2274 31.0524C30.5944 30.7682 29.501 29.2141 29.7852 27.5812L30.6012 22.8913C30.8854 21.2584 32.4395 20.165 34.0724 20.4491C35.7053 20.7332 36.7987 22.2873 36.5146 23.9203L35.6985 28.6102C35.4144 30.2431 33.8603 31.3365 32.2274 31.0524Z" fill="#89BBB9"/>
<path d="M30.3885 24.114L30.6012 22.8913C30.8854 21.2584 32.4395 20.165 34.0724 20.4491C35.7053 20.7332 36.7987 22.2873 36.5146 23.9203L36.3018 25.143L30.3885 24.114Z" fill="#4B3E35"/>
<g clip-path="url(#clip0_4053_9874)">
<path d="M41.7418 3.28573L43.397 3.99298L44.313 1.8493C44.509 1.39065 44.3019 0.854093 43.8433 0.658131C43.3846 0.462147 42.8538 0.683392 42.6578 1.14204L41.7418 3.28573ZM29.3234 9.41679C29.6126 9.54035 29.9727 9.47015 30.3326 9.23491C31.431 8.51326 32.3079 8.39278 33.2551 8.79753C34.1824 9.19376 34.6317 9.88088 34.7739 11.1208C34.8357 11.5835 34.9769 11.8325 35.2561 11.9518C35.5452 12.0754 35.8328 12.0095 36.1898 11.7258C37.1202 11.0386 38.3359 10.8978 39.2931 11.3068C40.2503 11.7158 40.9889 12.6917 41.1353 13.839C41.1771 14.2931 41.3183 14.5422 41.6175 14.67C41.8966 14.7893 42.1742 14.7192 42.5413 14.4398C43.5456 13.6898 44.3527 13.5395 45.2799 13.9357C46.2271 14.3404 46.7462 15.0574 46.974 16.3457C47.0527 16.7684 47.2509 17.0772 47.5501 17.205C48.0486 17.418 48.5524 17.1498 48.7825 16.6114C50.4738 12.6531 49.726 5.76586 42.906 2.85168C36.0859 -0.0625156 30.592 4.15759 28.9006 8.11589C28.6705 8.65436 28.8249 9.20377 29.3234 9.41679ZM31.65 22.709C33.4547 23.4802 35.4044 22.6979 36.1798 20.8833L40.3252 11.1818L38.67 10.4746L34.5246 20.176C34.154 21.0434 33.2574 21.4032 32.37 21.024C31.5026 20.6533 31.1528 19.761 31.5234 18.8936C31.7705 18.3153 31.5877 17.7773 31.0792 17.56C30.5806 17.347 30.0854 17.5953 29.8383 18.1736C29.063 19.9882 29.8552 21.9421 31.65 22.709Z" fill="#3A6351"/>
</g>
<path d="M10.87 28.8951C10.9587 27.9788 8.91164 27.1338 7.87705 26.8259C7.77852 27.7989 7.01982 30.277 4.77328 32.4053C2.52674 34.5336 2.4085 40.017 3.77564 41.5689C5.51228 43.1946 9.392 43.9336 9.98319 43.0099C13.3863 37.6925 10.7591 30.0406 10.87 28.8951Z" fill="#C8DFDE"/>
<circle cx="15.71" cy="30.8907" r="0.665094" fill="#89BBB9"/>
<circle cx="13.4932" cy="36.1375" r="0.665094" fill="#89BBB9"/>
<circle cx="15.71" cy="42.0494" r="0.665094" fill="#89BBB9"/>
<circle cx="9.50299" cy="30.8904" r="0.665094" fill="#89BBB9"/>
<circle cx="10.316" cy="36.1373" r="0.665094" fill="#89BBB9"/>
<circle cx="8.91168" cy="41.3841" r="0.665094" fill="#89BBB9"/>
<defs>
<clipPath id="clip0_4053_9874">
<rect width="22.022" height="25.6431" fill="white" transform="translate(27.978 0.000488281)"/>
</clipPath>
</defs>
</svg>
