<svg width="666" height="636" viewBox="0 0 666 636" fill="none" xmlns="http://www.w3.org/2000/svg">
<path d="M240.197 43.1971C219.141 31.946 199.841 66.6367 192.822 85.3885L240.197 110C248.97 92.4203 261.252 54.4481 240.197 43.1971Z" fill="#A37556"/>
<path d="M118.021 365.753C101.39 350.705 75.7086 351.989 60.6607 368.621L17.4422 416.388C2.39437 433.02 3.67827 458.701 20.3098 473.749C36.9414 488.796 62.6226 487.513 77.6704 470.881L120.889 423.114C135.937 406.482 134.653 380.801 118.021 365.753Z" fill="#89BBB9"/>
<path d="M28.7908 403.513L17.5234 415.966C2.47557 432.597 3.75945 458.279 20.391 473.327C37.0226 488.374 62.7038 487.09 77.7516 470.459L89.0191 458.006L28.7908 403.513Z" fill="#4B3E35"/>
<rect x="292.822" y="578" width="104" height="58" rx="29" fill="#C8DFDE"/>
<path d="M292.822 613H396.822C396.822 625.703 386.525 636 373.822 636H315.822C303.12 636 292.822 625.703 292.822 613Z" fill="#4B3E35"/>
<rect x="92.8223" y="578" width="104" height="58" rx="29" fill="#C8DFDE"/>
<path d="M92.8223 613H196.822C196.822 625.703 186.525 636 173.822 636H115.822C103.12 636 92.8223 625.703 92.8223 613Z" fill="#4B3E35"/>
<path d="M96.5049 186C96.5049 130.772 141.276 86 196.505 86H300.441C348.769 86 390.182 120.561 398.828 168.109L455.383 479.109C466.546 540.494 419.388 597 356.996 597H135.397C48.3473 597 2.86263 493.488 61.7363 429.367L70.1652 420.187C87.1054 401.737 96.505 377.602 96.505 352.555L96.5049 186Z" fill="#A37556"/>
<path d="M50.9576 183.579C57.7375 141.187 94.3085 110 137.239 110C179.464 110 215.647 140.194 223.206 181.737L236.381 254.149C247.545 315.511 200.406 372 138.037 372C76.5348 372 29.6211 316.987 39.334 256.256L50.9576 183.579Z" fill="#604F44"/>
<path d="M119.222 290.949C111.133 290.123 102.37 281.656 99 277.526C116.911 263.896 132.463 271.847 138 277.526C135.111 282.344 127.311 291.775 119.222 290.949Z" fill="#A2766B"/>
<path d="M119.706 173.789C115.288 197.391 100.429 259.496 119.706 266.579M119.706 266.579C130.822 276 168.741 293.521 186.631 296M119.706 266.579C94.3223 282 86.8223 289.5 82.8223 296" stroke="#3A2E2B" stroke-width="10" stroke-linecap="round"/>
<ellipse cx="118.322" cy="174" rx="25.5" ry="17" fill="#3A2E2B"/>
<path d="M270.822 131C280.989 131.5 304.022 137.2 314.822 156" stroke="#3A2E2B" stroke-width="15" stroke-linecap="round"/>
<path d="M376.197 53.1971C355.141 41.946 335.841 76.6367 328.822 95.3885L376.197 120C384.97 102.42 397.252 64.4481 376.197 53.1971Z" fill="#A37556"/>
<path d="M187 399C211.029 348.537 341.311 342.314 369.845 174.436C383.101 96.444 287.085 103.968 270.727 98.9907C177.242 70.5485 168.484 95.1358 110.036 116.478L109.97 116.502C106.684 117.702 102.816 119.114 98.9161 120.68C92.9934 123.463 87.4377 125.945 83.8537 127.998C82.345 128.971 81.0349 129.964 80 130.968C80.5142 130.121 81.8871 129.124 83.8537 127.998C87.9294 125.366 93.4542 122.873 98.9161 120.68C110.837 115.079 124.244 108.256 126.055 101.253C130.06 85.7645 124.553 68.7746 199.142 77.2684C273.731 85.7622 281.24 64.5168 360.834 98.9917C424.51 126.572 483.147 358.136 500 497.701C489.488 563.655 475.471 558.658 426.412 570.148C347.031 588.74 290.163 607.516 213.5 591.5C112.307 570.359 162.971 449.463 187 399Z" fill="#C8DFDE"/>
<path d="M425.504 420.192C403.408 416.348 388.612 395.318 392.457 373.221L403.5 309.758C407.345 287.661 428.375 272.865 450.471 276.71C472.568 280.555 487.364 301.585 483.519 323.681L472.476 387.145C468.631 409.242 447.601 424.037 425.504 420.192Z" fill="#89BBB9"/>
<path d="M400.621 326.303L403.5 309.758C407.345 287.661 428.375 272.865 450.471 276.71C472.568 280.555 487.364 301.585 483.519 323.681L480.64 340.227L400.621 326.303Z" fill="#4B3E35"/>
<g clip-path="url(#clip0_5022_11643)">
<path d="M554.24 44.4445L576.638 54.0151L589.033 25.0069C591.685 18.8005 588.883 11.5399 582.677 8.88813C576.47 6.23609 569.287 9.22996 566.635 15.4364L554.24 44.4445ZM386.196 127.41C390.108 129.082 394.982 128.132 399.852 124.948C414.716 115.183 426.581 113.553 439.399 119.03C451.947 124.392 458.026 133.69 459.952 150.469C460.787 156.729 462.698 160.099 466.475 161.713C470.388 163.385 474.279 162.494 479.111 158.655C491.701 149.356 508.152 147.45 521.104 152.985C534.057 158.519 544.052 171.726 546.033 187.251C546.599 193.396 548.51 196.766 552.558 198.496C556.335 200.11 560.092 199.161 565.058 195.38C578.649 185.231 589.57 183.197 602.118 188.559C614.935 194.036 621.959 203.738 625.042 221.171C626.107 226.891 628.789 231.069 632.837 232.799C639.584 235.682 646.4 232.053 649.514 224.766C672.401 171.203 662.281 78.0054 569.993 38.571C477.705 -0.863599 403.362 56.2425 380.474 109.806C377.361 117.092 379.449 124.527 386.196 127.41ZM417.679 307.279C442.1 317.714 468.483 307.128 478.976 282.573L535.071 151.294L512.673 141.723L456.578 273.002C451.562 284.74 439.43 289.608 427.422 284.477C415.683 279.461 410.95 267.387 415.966 255.649C419.309 247.824 416.836 240.543 409.954 237.603C403.208 234.72 396.507 238.08 393.163 245.906C382.671 270.461 393.392 296.901 417.679 307.279Z" fill="#3A6351"/>
</g>
<path d="M136.499 391C137.699 378.6 109.999 367.167 95.9995 363C94.6661 376.167 84.3995 409.7 53.9995 438.5C23.5995 467.3 21.9995 541.5 40.4995 562.5C63.9996 584.5 116.5 594.5 124.499 582C170.55 510.046 134.999 406.5 136.499 391Z" fill="#C8DFDE"/>
<circle cx="202" cy="418" r="9" fill="#89BBB9"/>
<circle cx="172" cy="489" r="9" fill="#89BBB9"/>
<circle cx="202" cy="569" r="9" fill="#89BBB9"/>
<circle cx="118" cy="418" r="9" fill="#89BBB9"/>
<circle cx="129" cy="489" r="9" fill="#89BBB9"/>
<circle cx="110" cy="560" r="9" fill="#89BBB9"/>
<defs>
<clipPath id="clip0_5022_11643">
<rect width="298" height="347" fill="white" transform="translate(368)"/>
</clipPath>
</defs>
</svg>
