<svg width="40" height="55" viewBox="0 0 40 55" fill="none" xmlns="http://www.w3.org/2000/svg">
<g clip-path="url(#clip0_3546_22490)">
<path d="M2.04997 54.6752C3.20308 54.6752 4.12558 53.7526 4.12558 52.6251V5.78323C4.12558 4.96324 4.66368 4.42514 5.43242 4.42514H33.6196C34.3884 4.42514 34.9263 4.96324 34.9263 5.78323V52.6251C34.9263 53.7526 35.8489 54.6752 37.0021 54.6752C38.1294 54.6752 39.052 53.7526 39.052 52.6251V5.527C39.052 2.40078 36.9252 0.299561 33.6964 0.299561H5.35557C2.15247 0.299561 0 2.40078 0 5.527V52.6251C0 53.7526 0.922487 54.6752 2.04997 54.6752Z" fill="#676767"/>
<path d="M7.9948 53.7785H31.0826C31.5439 53.7785 31.9283 53.3683 31.9283 52.907V8.26894C31.9283 7.78206 31.5439 7.39771 31.0826 7.39771H7.9948C7.50792 7.39771 7.12354 7.78206 7.12354 8.26894V52.907C7.12354 53.3683 7.50792 53.7785 7.9948 53.7785ZM25.8296 33.1761C24.7021 33.1761 23.7796 32.2535 23.7796 31.126C23.7796 29.973 24.7021 29.0762 25.8296 29.0762C26.9827 29.0762 27.8795 29.973 27.8795 31.126C27.8795 32.2535 26.9827 33.1761 25.8296 33.1761Z" fill="#676767"/>
</g>
<defs>
<clipPath id="clip0_3546_22490">
<rect width="40" height="54.4011" fill="white" transform="translate(0 0.299561)"/>
</clipPath>
</defs>
</svg>
