<svg width="293" height="86" viewBox="0 0 293 86" fill="none" xmlns="http://www.w3.org/2000/svg">
<path d="M20 68.5C20 64.3579 23.3579 61 27.5 61C31.6421 61 35 64.3579 35 68.5V79.75C35 83.2018 32.2018 86 28.75 86H26.25C22.7982 86 20 83.2018 20 79.75V68.5Z" fill="#A47551"/>
<path d="M258 68.5C258 64.3579 261.358 61 265.5 61C269.642 61 273 64.3579 273 68.5V79.75C273 83.2018 270.202 86 266.75 86H264.25C260.798 86 258 83.2018 258 79.75V68.5Z" fill="#A47551"/>
<rect width="293" height="78" rx="30" fill="#3A6351"/>
<path d="M27.968 20.644V23.13H23.876V36H20.796V23.13H16.704V20.644H27.968ZM35.1873 36.198C34.0139 36.198 32.9579 35.9413 32.0193 35.428C31.0806 34.9 30.3399 34.1593 29.7973 33.206C29.2693 32.2527 29.0053 31.1527 29.0053 29.906C29.0053 28.6593 29.2766 27.5593 29.8193 26.606C30.3766 25.6527 31.1319 24.9193 32.0853 24.406C33.0386 23.878 34.1019 23.614 35.2753 23.614C36.4486 23.614 37.5119 23.878 38.4653 24.406C39.4186 24.9193 40.1666 25.6527 40.7093 26.606C41.2666 27.5593 41.5453 28.6593 41.5453 29.906C41.5453 31.1527 41.2593 32.2527 40.6873 33.206C40.1299 34.1593 39.3673 34.9 38.3993 35.428C37.4459 35.9413 36.3753 36.198 35.1873 36.198ZM35.1873 33.514C35.7446 33.514 36.2653 33.382 36.7493 33.118C37.2479 32.8393 37.6439 32.4287 37.9373 31.886C38.2306 31.3433 38.3773 30.6833 38.3773 29.906C38.3773 28.7473 38.0693 27.86 37.4533 27.244C36.8519 26.6133 36.1113 26.298 35.2313 26.298C34.3513 26.298 33.6106 26.6133 33.0093 27.244C32.4226 27.86 32.1293 28.7473 32.1293 29.906C32.1293 31.0647 32.4153 31.9593 32.9873 32.59C33.5739 33.206 34.3073 33.514 35.1873 33.514ZM46.4446 25.572C46.8406 25.0147 47.3832 24.5527 48.0726 24.186C48.7766 23.8047 49.5759 23.614 50.4706 23.614C51.5119 23.614 52.4506 23.8707 53.2866 24.384C54.1372 24.8973 54.8046 25.6307 55.2886 26.584C55.7872 27.5227 56.0366 28.6153 56.0366 29.862C56.0366 31.1087 55.7872 32.216 55.2886 33.184C54.8046 34.1373 54.1372 34.878 53.2866 35.406C52.4506 35.934 51.5119 36.198 50.4706 36.198C49.5759 36.198 48.7839 36.0147 48.0946 35.648C47.4199 35.2813 46.8699 34.8193 46.4446 34.262V41.808H43.3646V23.812H46.4446V25.572ZM52.8906 29.862C52.8906 29.1287 52.7366 28.498 52.4286 27.97C52.1352 27.4273 51.7392 27.0167 51.2406 26.738C50.7566 26.4593 50.2286 26.32 49.6566 26.32C49.0992 26.32 48.5712 26.4667 48.0726 26.76C47.5886 27.0387 47.1926 27.4493 46.8846 27.992C46.5912 28.5347 46.4446 29.1727 46.4446 29.906C46.4446 30.6393 46.5912 31.2773 46.8846 31.82C47.1926 32.3627 47.5886 32.7807 48.0726 33.074C48.5712 33.3527 49.0992 33.492 49.6566 33.492C50.2286 33.492 50.7566 33.3453 51.2406 33.052C51.7392 32.7587 52.1352 32.3407 52.4286 31.798C52.7366 31.2553 52.8906 30.61 52.8906 29.862ZM59.3967 22.36C58.8541 22.36 58.3994 22.1913 58.0327 21.854C57.6807 21.502 57.5047 21.0693 57.5047 20.556C57.5047 20.0427 57.6807 19.6173 58.0327 19.28C58.3994 18.928 58.8541 18.752 59.3967 18.752C59.9394 18.752 60.3867 18.928 60.7387 19.28C61.1054 19.6173 61.2887 20.0427 61.2887 20.556C61.2887 21.0693 61.1054 21.502 60.7387 21.854C60.3867 22.1913 59.9394 22.36 59.3967 22.36ZM60.9147 23.812V36H57.8347V23.812H60.9147ZM62.7258 29.906C62.7258 28.6447 62.9824 27.5447 63.4958 26.606C64.0091 25.6527 64.7204 24.9193 65.6298 24.406C66.5391 23.878 67.5804 23.614 68.7538 23.614C70.2644 23.614 71.5111 23.9953 72.4938 24.758C73.4911 25.506 74.1584 26.562 74.4958 27.926H71.1738C70.9978 27.398 70.6971 26.9873 70.2718 26.694C69.8611 26.386 69.3478 26.232 68.7318 26.232C67.8518 26.232 67.1551 26.5547 66.6418 27.2C66.1284 27.8307 65.8718 28.7327 65.8718 29.906C65.8718 31.0647 66.1284 31.9667 66.6418 32.612C67.1551 33.2427 67.8518 33.558 68.7318 33.558C69.9784 33.558 70.7924 33.0007 71.1738 31.886H74.4958C74.1584 33.206 73.4911 34.2547 72.4938 35.032C71.4964 35.8093 70.2498 36.198 68.7538 36.198C67.5804 36.198 66.5391 35.9413 65.6298 35.428C64.7204 34.9 64.0091 34.1667 63.4958 33.228C62.9824 32.2747 62.7258 31.1673 62.7258 29.906ZM80.9761 36.198C79.9788 36.198 79.0841 36.022 78.2921 35.67C77.5001 35.3033 76.8695 34.812 76.4001 34.196C75.9455 33.58 75.6961 32.898 75.6521 32.15H78.7541C78.8128 32.6193 79.0401 33.008 79.4361 33.316C79.8468 33.624 80.3528 33.778 80.9541 33.778C81.5408 33.778 81.9955 33.6607 82.3181 33.426C82.6555 33.1913 82.8241 32.8907 82.8241 32.524C82.8241 32.128 82.6188 31.8347 82.2081 31.644C81.8121 31.4387 81.1741 31.2187 80.2941 30.984C79.3848 30.764 78.6368 30.5367 78.0501 30.302C77.4781 30.0673 76.9795 29.708 76.5541 29.224C76.1435 28.74 75.9381 28.0873 75.9381 27.266C75.9381 26.5913 76.1288 25.9753 76.5101 25.418C76.9061 24.8607 77.4635 24.4207 78.1821 24.098C78.9155 23.7753 79.7735 23.614 80.7561 23.614C82.2081 23.614 83.3668 23.9807 84.2321 24.714C85.0975 25.4327 85.5741 26.408 85.6621 27.64H82.7141C82.6701 27.156 82.4648 26.7747 82.0981 26.496C81.7461 26.2027 81.2695 26.056 80.6681 26.056C80.1108 26.056 79.6781 26.1587 79.3701 26.364C79.0768 26.5693 78.9301 26.8553 78.9301 27.222C78.9301 27.6327 79.1355 27.948 79.5461 28.168C79.9568 28.3733 80.5948 28.586 81.4601 28.806C82.3401 29.026 83.0661 29.2533 83.6381 29.488C84.2101 29.7227 84.7015 30.0893 85.1121 30.588C85.5375 31.072 85.7575 31.7173 85.7721 32.524C85.7721 33.228 85.5741 33.8587 85.1781 34.416C84.7968 34.9733 84.2395 35.4133 83.5061 35.736C82.7875 36.044 81.9441 36.198 80.9761 36.198ZM95.7426 33.558H100.803V36H92.6626V20.644H95.7426V33.558ZM103.882 22.36C103.34 22.36 102.885 22.1913 102.518 21.854C102.166 21.502 101.99 21.0693 101.99 20.556C101.99 20.0427 102.166 19.6173 102.518 19.28C102.885 18.928 103.34 18.752 103.882 18.752C104.425 18.752 104.872 18.928 105.224 19.28C105.591 19.6173 105.774 20.0427 105.774 20.556C105.774 21.0693 105.591 21.502 105.224 21.854C104.872 22.1913 104.425 22.36 103.882 22.36ZM105.4 23.812V36H102.32V23.812H105.4ZM111.083 25.594C111.479 25.0073 112.022 24.5307 112.711 24.164C113.415 23.7973 114.215 23.614 115.109 23.614C116.151 23.614 117.089 23.8707 117.925 24.384C118.776 24.8973 119.443 25.6307 119.927 26.584C120.426 27.5227 120.675 28.6153 120.675 29.862C120.675 31.1087 120.426 32.216 119.927 33.184C119.443 34.1373 118.776 34.878 117.925 35.406C117.089 35.934 116.151 36.198 115.109 36.198C114.2 36.198 113.401 36.022 112.711 35.67C112.037 35.3033 111.494 34.834 111.083 34.262V36H108.003V19.72H111.083V25.594ZM117.529 29.862C117.529 29.1287 117.375 28.498 117.067 27.97C116.774 27.4273 116.378 27.0167 115.879 26.738C115.395 26.4593 114.867 26.32 114.295 26.32C113.738 26.32 113.21 26.4667 112.711 26.76C112.227 27.0387 111.831 27.4493 111.523 27.992C111.23 28.5347 111.083 29.1727 111.083 29.906C111.083 30.6393 111.23 31.2773 111.523 31.82C111.831 32.3627 112.227 32.7807 112.711 33.074C113.21 33.3527 113.738 33.492 114.295 33.492C114.867 33.492 115.395 33.3453 115.879 33.052C116.378 32.7587 116.774 32.3407 117.067 31.798C117.375 31.2553 117.529 30.61 117.529 29.862ZM125.553 25.704C125.949 25.0587 126.463 24.5527 127.093 24.186C127.739 23.8193 128.472 23.636 129.293 23.636V26.87H128.479C127.511 26.87 126.778 27.0973 126.279 27.552C125.795 28.0067 125.553 28.7987 125.553 29.928V36H122.473V23.812H125.553V25.704ZM130.136 29.862C130.136 28.63 130.378 27.5373 130.862 26.584C131.361 25.6307 132.028 24.8973 132.864 24.384C133.715 23.8707 134.661 23.614 135.702 23.614C136.611 23.614 137.403 23.7973 138.078 24.164C138.767 24.5307 139.317 24.9927 139.728 25.55V23.812H142.83V36H139.728V34.218C139.332 34.79 138.782 35.2667 138.078 35.648C137.389 36.0147 136.589 36.198 135.68 36.198C134.653 36.198 133.715 35.934 132.864 35.406C132.028 34.878 131.361 34.1373 130.862 33.184C130.378 32.216 130.136 31.1087 130.136 29.862ZM139.728 29.906C139.728 29.158 139.581 28.52 139.288 27.992C138.995 27.4493 138.599 27.0387 138.1 26.76C137.601 26.4667 137.066 26.32 136.494 26.32C135.922 26.32 135.394 26.4593 134.91 26.738C134.426 27.0167 134.03 27.4273 133.722 27.97C133.429 28.498 133.282 29.1287 133.282 29.862C133.282 30.5953 133.429 31.2407 133.722 31.798C134.03 32.3407 134.426 32.7587 134.91 33.052C135.409 33.3453 135.937 33.492 136.494 33.492C137.066 33.492 137.601 33.3527 138.1 33.074C138.599 32.7807 138.995 32.37 139.288 31.842C139.581 31.2993 139.728 30.654 139.728 29.906ZM148.478 25.704C148.874 25.0587 149.387 24.5527 150.018 24.186C150.663 23.8193 151.397 23.636 152.218 23.636V26.87H151.404C150.436 26.87 149.703 27.0973 149.204 27.552C148.72 28.0067 148.478 28.7987 148.478 29.928V36H145.398V23.812H148.478V25.704ZM165.513 23.812L157.967 41.764H154.689L157.329 35.692L152.445 23.812H155.899L159.045 32.326L162.235 23.812H165.513Z" fill="white"/>
<path d="M18.352 51.278V54.54H21.908V55.59H18.352V58.95H22.328V60H17.078V50.228H22.328V51.278H18.352ZM26.6917 60.126C26.1037 60.126 25.5764 60.028 25.1097 59.832C24.6431 59.6267 24.2744 59.3467 24.0037 58.992C23.7331 58.628 23.5837 58.2127 23.5557 57.746H24.8717C24.9091 58.1287 25.0864 58.4413 25.4037 58.684C25.7304 58.9267 26.1551 59.048 26.6777 59.048C27.1631 59.048 27.5457 58.9407 27.8257 58.726C28.1057 58.5113 28.2457 58.2407 28.2457 57.914C28.2457 57.578 28.0964 57.3307 27.7977 57.172C27.4991 57.004 27.0371 56.8407 26.4117 56.682C25.8424 56.5327 25.3757 56.3833 25.0117 56.234C24.6571 56.0753 24.3491 55.8467 24.0877 55.548C23.8357 55.24 23.7097 54.8387 23.7097 54.344C23.7097 53.952 23.8264 53.5927 24.0597 53.266C24.2931 52.9393 24.6244 52.6827 25.0537 52.496C25.4831 52.3 25.9731 52.202 26.5237 52.202C27.3731 52.202 28.0591 52.4167 28.5817 52.846C29.1044 53.2753 29.3844 53.8633 29.4217 54.61H28.1477C28.1197 54.2087 27.9564 53.8867 27.6577 53.644C27.3684 53.4013 26.9764 53.28 26.4817 53.28C26.0244 53.28 25.6604 53.378 25.3897 53.574C25.1191 53.77 24.9837 54.0267 24.9837 54.344C24.9837 54.596 25.0631 54.806 25.2217 54.974C25.3897 55.1327 25.5951 55.2633 25.8377 55.366C26.0897 55.4593 26.4351 55.5667 26.8737 55.688C27.4244 55.8373 27.8724 55.9867 28.2177 56.136C28.5631 56.276 28.8571 56.4907 29.0997 56.78C29.3517 57.0693 29.4824 57.4473 29.4917 57.914C29.4917 58.334 29.3751 58.712 29.1417 59.048C28.9084 59.384 28.5771 59.65 28.1477 59.846C27.7277 60.0327 27.2424 60.126 26.6917 60.126ZM33.7262 60.126C33.1382 60.126 32.6109 60.028 32.1442 59.832C31.6775 59.6267 31.3089 59.3467 31.0382 58.992C30.7675 58.628 30.6182 58.2127 30.5902 57.746H31.9062C31.9435 58.1287 32.1209 58.4413 32.4382 58.684C32.7649 58.9267 33.1895 59.048 33.7122 59.048C34.1975 59.048 34.5802 58.9407 34.8602 58.726C35.1402 58.5113 35.2802 58.2407 35.2802 57.914C35.2802 57.578 35.1309 57.3307 34.8322 57.172C34.5335 57.004 34.0715 56.8407 33.4462 56.682C32.8769 56.5327 32.4102 56.3833 32.0462 56.234C31.6915 56.0753 31.3835 55.8467 31.1222 55.548C30.8702 55.24 30.7442 54.8387 30.7442 54.344C30.7442 53.952 30.8609 53.5927 31.0942 53.266C31.3275 52.9393 31.6589 52.6827 32.0882 52.496C32.5175 52.3 33.0075 52.202 33.5582 52.202C34.4075 52.202 35.0935 52.4167 35.6162 52.846C36.1389 53.2753 36.4189 53.8633 36.4562 54.61H35.1822C35.1542 54.2087 34.9909 53.8867 34.6922 53.644C34.4029 53.4013 34.0109 53.28 33.5162 53.28C33.0589 53.28 32.6949 53.378 32.4242 53.574C32.1535 53.77 32.0182 54.0267 32.0182 54.344C32.0182 54.596 32.0975 54.806 32.2562 54.974C32.4242 55.1327 32.6295 55.2633 32.8722 55.366C33.1242 55.4593 33.4695 55.5667 33.9082 55.688C34.4589 55.8373 34.9069 55.9867 35.2522 56.136C35.5975 56.276 35.8915 56.4907 36.1342 56.78C36.3862 57.0693 36.5169 57.4473 36.5262 57.914C36.5262 58.334 36.4095 58.712 36.1762 59.048C35.9429 59.384 35.6115 59.65 35.1822 59.846C34.7622 60.0327 34.2769 60.126 33.7262 60.126ZM45.0446 55.87C45.0446 56.1127 45.0306 56.3693 45.0026 56.64H38.8706C38.9173 57.396 39.174 57.9887 39.6406 58.418C40.1166 58.838 40.6906 59.048 41.3626 59.048C41.9133 59.048 42.3706 58.922 42.7346 58.67C43.108 58.4087 43.3693 58.0633 43.5186 57.634H44.8906C44.6853 58.3713 44.2746 58.9733 43.6586 59.44C43.0426 59.8973 42.2773 60.126 41.3626 60.126C40.6346 60.126 39.9813 59.9627 39.4026 59.636C38.8333 59.3093 38.3853 58.8473 38.0586 58.25C37.732 57.6433 37.5686 56.9433 37.5686 56.15C37.5686 55.3567 37.7273 54.6613 38.0446 54.064C38.362 53.4667 38.8053 53.0093 39.3746 52.692C39.9533 52.3653 40.616 52.202 41.3626 52.202C42.0906 52.202 42.7346 52.3607 43.2946 52.678C43.8546 52.9953 44.284 53.434 44.5826 53.994C44.8906 54.5447 45.0446 55.17 45.0446 55.87ZM43.7286 55.604C43.7286 55.1187 43.6213 54.7033 43.4066 54.358C43.192 54.0033 42.898 53.7373 42.5246 53.56C42.1606 53.3733 41.7546 53.28 41.3066 53.28C40.6626 53.28 40.112 53.4853 39.6546 53.896C39.2066 54.3067 38.95 54.876 38.8846 55.604H43.7286ZM50.1843 52.188C51.1176 52.188 51.8736 52.4727 52.4523 53.042C53.0309 53.602 53.3203 54.414 53.3203 55.478V60H52.0603V55.66C52.0603 54.8947 51.8689 54.3113 51.4863 53.91C51.1036 53.4993 50.5809 53.294 49.9183 53.294C49.2463 53.294 48.7096 53.504 48.3083 53.924C47.9163 54.344 47.7203 54.9553 47.7203 55.758V60H46.4463V52.328H47.7203V53.42C47.9723 53.028 48.3129 52.7247 48.7423 52.51C49.1809 52.2953 49.6616 52.188 50.1843 52.188ZM56.6754 53.378V57.9C56.6754 58.2733 56.7547 58.5393 56.9134 58.698C57.072 58.8473 57.3474 58.922 57.7394 58.922H58.6774V60H57.5294C56.82 60 56.288 59.8367 55.9334 59.51C55.5787 59.1833 55.4014 58.6467 55.4014 57.9V53.378H54.4074V52.328H55.4014V50.396H56.6754V52.328H58.6774V53.378H56.6754ZM60.599 51.082C60.3563 51.082 60.151 50.998 59.983 50.83C59.815 50.662 59.731 50.4567 59.731 50.214C59.731 49.9713 59.815 49.766 59.983 49.598C60.151 49.43 60.3563 49.346 60.599 49.346C60.8323 49.346 61.0283 49.43 61.187 49.598C61.355 49.766 61.439 49.9713 61.439 50.214C61.439 50.4567 61.355 50.662 61.187 50.83C61.0283 50.998 60.8323 51.082 60.599 51.082ZM61.215 52.328V60H59.941V52.328H61.215ZM62.6303 56.136C62.6303 55.352 62.7889 54.666 63.1063 54.078C63.4236 53.4807 63.8576 53.0187 64.4083 52.692C64.9683 52.3653 65.5889 52.202 66.2703 52.202C66.9423 52.202 67.5256 52.3467 68.0203 52.636C68.5149 52.9253 68.8836 53.2893 69.1263 53.728V52.328H70.4143V60H69.1263V58.572C68.8743 59.02 68.4963 59.3933 67.9923 59.692C67.4976 59.9813 66.9189 60.126 66.2563 60.126C65.5749 60.126 64.9589 59.958 64.4083 59.622C63.8576 59.286 63.4236 58.8147 63.1063 58.208C62.7889 57.6013 62.6303 56.9107 62.6303 56.136ZM69.1263 56.15C69.1263 55.5713 69.0096 55.0673 68.7763 54.638C68.5429 54.2087 68.2256 53.882 67.8243 53.658C67.4323 53.4247 66.9983 53.308 66.5223 53.308C66.0463 53.308 65.6123 53.42 65.2203 53.644C64.8283 53.868 64.5156 54.1947 64.2823 54.624C64.0489 55.0533 63.9323 55.5573 63.9323 56.136C63.9323 56.724 64.0489 57.2373 64.2823 57.676C64.5156 58.1053 64.8283 58.4367 65.2203 58.67C65.6123 58.894 66.0463 59.006 66.5223 59.006C66.9983 59.006 67.4323 58.894 67.8243 58.67C68.2256 58.4367 68.5429 58.1053 68.7763 57.676C69.0096 57.2373 69.1263 56.7287 69.1263 56.15ZM73.5612 49.64V60H72.2872V49.64H73.5612ZM82.027 53.378H80.417V60H79.143V53.378H78.149V52.328H79.143V51.782C79.143 50.9233 79.3623 50.298 79.801 49.906C80.249 49.5047 80.963 49.304 81.943 49.304V50.368C81.383 50.368 80.9863 50.48 80.753 50.704C80.529 50.9187 80.417 51.278 80.417 51.782V52.328H82.027V53.378ZM86.5784 60.126C85.8597 60.126 85.2064 59.9627 84.6184 59.636C84.0397 59.3093 83.5824 58.8473 83.2464 58.25C82.9197 57.6433 82.7564 56.9433 82.7564 56.15C82.7564 55.366 82.9244 54.6753 83.2604 54.078C83.6057 53.4713 84.0724 53.0093 84.6604 52.692C85.2484 52.3653 85.9064 52.202 86.6344 52.202C87.3624 52.202 88.0204 52.3653 88.6084 52.692C89.1964 53.0093 89.6584 53.4667 89.9944 54.064C90.3397 54.6613 90.5124 55.3567 90.5124 56.15C90.5124 56.9433 90.335 57.6433 89.9804 58.25C89.635 58.8473 89.1637 59.3093 88.5664 59.636C87.969 59.9627 87.3064 60.126 86.5784 60.126ZM86.5784 59.006C87.0357 59.006 87.465 58.8987 87.8664 58.684C88.2677 58.4693 88.5897 58.1473 88.8324 57.718C89.0844 57.2887 89.2104 56.766 89.2104 56.15C89.2104 55.534 89.089 55.0113 88.8464 54.582C88.6037 54.1527 88.2864 53.8353 87.8944 53.63C87.5024 53.4153 87.0777 53.308 86.6204 53.308C86.1537 53.308 85.7244 53.4153 85.3324 53.63C84.9497 53.8353 84.6417 54.1527 84.4084 54.582C84.175 55.0113 84.0584 55.534 84.0584 56.15C84.0584 56.7753 84.1704 57.3027 84.3944 57.732C84.6277 58.1613 84.9357 58.4833 85.3184 58.698C85.701 58.9033 86.121 59.006 86.5784 59.006ZM93.1815 53.574C93.4055 53.1353 93.7228 52.7947 94.1335 52.552C94.5535 52.3093 95.0621 52.188 95.6595 52.188V53.504H95.3235C93.8955 53.504 93.1815 54.2787 93.1815 55.828V60H91.9075V52.328H93.1815V53.574ZM99.8265 56.136C99.8265 55.352 99.9852 54.666 100.303 54.078C100.62 53.4807 101.054 53.0187 101.605 52.692C102.165 52.3653 102.79 52.202 103.481 52.202C104.078 52.202 104.633 52.342 105.147 52.622C105.66 52.8927 106.052 53.252 106.323 53.7V49.64H107.611V60H106.323V58.558C106.071 59.0153 105.697 59.3933 105.203 59.692C104.708 59.9813 104.129 60.126 103.467 60.126C102.785 60.126 102.165 59.958 101.605 59.622C101.054 59.286 100.62 58.8147 100.303 58.208C99.9852 57.6013 99.8265 56.9107 99.8265 56.136ZM106.323 56.15C106.323 55.5713 106.206 55.0673 105.973 54.638C105.739 54.2087 105.422 53.882 105.021 53.658C104.629 53.4247 104.195 53.308 103.719 53.308C103.243 53.308 102.809 53.42 102.417 53.644C102.025 53.868 101.712 54.1947 101.479 54.624C101.245 55.0533 101.129 55.5573 101.129 56.136C101.129 56.724 101.245 57.2373 101.479 57.676C101.712 58.1053 102.025 58.4367 102.417 58.67C102.809 58.894 103.243 59.006 103.719 59.006C104.195 59.006 104.629 58.894 105.021 58.67C105.422 58.4367 105.739 58.1053 105.973 57.676C106.206 57.2373 106.323 56.7287 106.323 56.15ZM109.007 56.136C109.007 55.352 109.166 54.666 109.483 54.078C109.801 53.4807 110.235 53.0187 110.785 52.692C111.345 52.3653 111.966 52.202 112.647 52.202C113.319 52.202 113.903 52.3467 114.397 52.636C114.892 52.9253 115.261 53.2893 115.503 53.728V52.328H116.791V60H115.503V58.572C115.251 59.02 114.873 59.3933 114.369 59.692C113.875 59.9813 113.296 60.126 112.633 60.126C111.952 60.126 111.336 59.958 110.785 59.622C110.235 59.286 109.801 58.8147 109.483 58.208C109.166 57.6013 109.007 56.9107 109.007 56.136ZM115.503 56.15C115.503 55.5713 115.387 55.0673 115.153 54.638C114.92 54.2087 114.603 53.882 114.201 53.658C113.809 53.4247 113.375 53.308 112.899 53.308C112.423 53.308 111.989 53.42 111.597 53.644C111.205 53.868 110.893 54.1947 110.659 54.624C110.426 55.0533 110.309 55.5573 110.309 56.136C110.309 56.724 110.426 57.2373 110.659 57.676C110.893 58.1053 111.205 58.4367 111.597 58.67C111.989 58.894 112.423 59.006 112.899 59.006C113.375 59.006 113.809 58.894 114.201 58.67C114.603 58.4367 114.92 58.1053 115.153 57.676C115.387 57.2373 115.503 56.7287 115.503 56.15ZM119.322 51.082C119.08 51.082 118.874 50.998 118.706 50.83C118.538 50.662 118.454 50.4567 118.454 50.214C118.454 49.9713 118.538 49.766 118.706 49.598C118.874 49.43 119.08 49.346 119.322 49.346C119.556 49.346 119.752 49.43 119.91 49.598C120.078 49.766 120.162 49.9713 120.162 50.214C120.162 50.4567 120.078 50.662 119.91 50.83C119.752 50.998 119.556 51.082 119.322 51.082ZM119.938 52.328V60H118.664V52.328H119.938ZM123.104 49.64V60H121.83V49.64H123.104ZM131.603 52.328L126.983 63.612H125.667L127.179 59.916L124.085 52.328H125.499L127.907 58.544L130.287 52.328H131.603ZM135.58 56.15C135.58 55.3567 135.739 54.666 136.056 54.078C136.373 53.4807 136.812 53.0187 137.372 52.692C137.941 52.3653 138.59 52.202 139.318 52.202C140.261 52.202 141.035 52.4307 141.642 52.888C142.258 53.3453 142.664 53.98 142.86 54.792H141.488C141.357 54.3253 141.101 53.9567 140.718 53.686C140.345 53.4153 139.878 53.28 139.318 53.28C138.59 53.28 138.002 53.532 137.554 54.036C137.106 54.5307 136.882 55.2353 136.882 56.15C136.882 57.074 137.106 57.788 137.554 58.292C138.002 58.796 138.59 59.048 139.318 59.048C139.878 59.048 140.345 58.9173 140.718 58.656C141.091 58.3947 141.348 58.0213 141.488 57.536H142.86C142.655 58.32 142.244 58.95 141.628 59.426C141.012 59.8927 140.242 60.126 139.318 60.126C138.59 60.126 137.941 59.9627 137.372 59.636C136.812 59.3093 136.373 58.8473 136.056 58.25C135.739 57.6527 135.58 56.9527 135.58 56.15ZM147.626 60.126C146.907 60.126 146.254 59.9627 145.666 59.636C145.087 59.3093 144.63 58.8473 144.294 58.25C143.967 57.6433 143.804 56.9433 143.804 56.15C143.804 55.366 143.972 54.6753 144.308 54.078C144.653 53.4713 145.12 53.0093 145.708 52.692C146.296 52.3653 146.954 52.202 147.682 52.202C148.41 52.202 149.068 52.3653 149.656 52.692C150.244 53.0093 150.706 53.4667 151.042 54.064C151.387 54.6613 151.56 55.3567 151.56 56.15C151.56 56.9433 151.383 57.6433 151.028 58.25C150.683 58.8473 150.211 59.3093 149.614 59.636C149.017 59.9627 148.354 60.126 147.626 60.126ZM147.626 59.006C148.083 59.006 148.513 58.8987 148.914 58.684C149.315 58.4693 149.637 58.1473 149.88 57.718C150.132 57.2887 150.258 56.766 150.258 56.15C150.258 55.534 150.137 55.0113 149.894 54.582C149.651 54.1527 149.334 53.8353 148.942 53.63C148.55 53.4153 148.125 53.308 147.668 53.308C147.201 53.308 146.772 53.4153 146.38 53.63C145.997 53.8353 145.689 54.1527 145.456 54.582C145.223 55.0113 145.106 55.534 145.106 56.15C145.106 56.7753 145.218 57.3027 145.442 57.732C145.675 58.1613 145.983 58.4833 146.366 58.698C146.749 58.9033 147.169 59.006 147.626 59.006ZM156.693 52.188C157.626 52.188 158.382 52.4727 158.961 53.042C159.54 53.602 159.829 54.414 159.829 55.478V60H158.569V55.66C158.569 54.8947 158.378 54.3113 157.995 53.91C157.612 53.4993 157.09 53.294 156.427 53.294C155.755 53.294 155.218 53.504 154.817 53.924C154.425 54.344 154.229 54.9553 154.229 55.758V60H152.955V52.328H154.229V53.42C154.481 53.028 154.822 52.7247 155.251 52.51C155.69 52.2953 156.17 52.188 156.693 52.188ZM164.486 58.824L166.866 52.328H168.224L165.214 60H163.73L160.72 52.328H162.092L164.486 58.824ZM176.198 55.87C176.198 56.1127 176.184 56.3693 176.156 56.64H170.024C170.071 57.396 170.327 57.9887 170.794 58.418C171.27 58.838 171.844 59.048 172.516 59.048C173.067 59.048 173.524 58.922 173.888 58.67C174.261 58.4087 174.523 58.0633 174.672 57.634H176.044C175.839 58.3713 175.428 58.9733 174.812 59.44C174.196 59.8973 173.431 60.126 172.516 60.126C171.788 60.126 171.135 59.9627 170.556 59.636C169.987 59.3093 169.539 58.8473 169.212 58.25C168.885 57.6433 168.722 56.9433 168.722 56.15C168.722 55.3567 168.881 54.6613 169.198 54.064C169.515 53.4667 169.959 53.0093 170.528 52.692C171.107 52.3653 171.769 52.202 172.516 52.202C173.244 52.202 173.888 52.3607 174.448 52.678C175.008 52.9953 175.437 53.434 175.736 53.994C176.044 54.5447 176.198 55.17 176.198 55.87ZM174.882 55.604C174.882 55.1187 174.775 54.7033 174.56 54.358C174.345 54.0033 174.051 53.7373 173.678 53.56C173.314 53.3733 172.908 53.28 172.46 53.28C171.816 53.28 171.265 53.4853 170.808 53.896C170.36 54.3067 170.103 54.876 170.038 55.604H174.882ZM178.873 53.574C179.097 53.1353 179.415 52.7947 179.825 52.552C180.245 52.3093 180.754 52.188 181.351 52.188V53.504H181.015C179.587 53.504 178.873 54.2787 178.873 55.828V60H177.599V52.328H178.873V53.574ZM185.258 60.126C184.67 60.126 184.143 60.028 183.676 59.832C183.209 59.6267 182.841 59.3467 182.57 58.992C182.299 58.628 182.15 58.2127 182.122 57.746H183.438C183.475 58.1287 183.653 58.4413 183.97 58.684C184.297 58.9267 184.721 59.048 185.244 59.048C185.729 59.048 186.112 58.9407 186.392 58.726C186.672 58.5113 186.812 58.2407 186.812 57.914C186.812 57.578 186.663 57.3307 186.364 57.172C186.065 57.004 185.603 56.8407 184.978 56.682C184.409 56.5327 183.942 56.3833 183.578 56.234C183.223 56.0753 182.915 55.8467 182.654 55.548C182.402 55.24 182.276 54.8387 182.276 54.344C182.276 53.952 182.393 53.5927 182.626 53.266C182.859 52.9393 183.191 52.6827 183.62 52.496C184.049 52.3 184.539 52.202 185.09 52.202C185.939 52.202 186.625 52.4167 187.148 52.846C187.671 53.2753 187.951 53.8633 187.988 54.61H186.714C186.686 54.2087 186.523 53.8867 186.224 53.644C185.935 53.4013 185.543 53.28 185.048 53.28C184.591 53.28 184.227 53.378 183.956 53.574C183.685 53.77 183.55 54.0267 183.55 54.344C183.55 54.596 183.629 54.806 183.788 54.974C183.956 55.1327 184.161 55.2633 184.404 55.366C184.656 55.4593 185.001 55.5667 185.44 55.688C185.991 55.8373 186.439 55.9867 186.784 56.136C187.129 56.276 187.423 56.4907 187.666 56.78C187.918 57.0693 188.049 57.4473 188.058 57.914C188.058 58.334 187.941 58.712 187.708 59.048C187.475 59.384 187.143 59.65 186.714 59.846C186.294 60.0327 185.809 60.126 185.258 60.126ZM189.101 56.136C189.101 55.352 189.259 54.666 189.577 54.078C189.894 53.4807 190.328 53.0187 190.879 52.692C191.439 52.3653 192.059 52.202 192.741 52.202C193.413 52.202 193.996 52.3467 194.491 52.636C194.985 52.9253 195.354 53.2893 195.597 53.728V52.328H196.885V60H195.597V58.572C195.345 59.02 194.967 59.3933 194.463 59.692C193.968 59.9813 193.389 60.126 192.727 60.126C192.045 60.126 191.429 59.958 190.879 59.622C190.328 59.286 189.894 58.8147 189.577 58.208C189.259 57.6013 189.101 56.9107 189.101 56.136ZM195.597 56.15C195.597 55.5713 195.48 55.0673 195.247 54.638C195.013 54.2087 194.696 53.882 194.295 53.658C193.903 53.4247 193.469 53.308 192.993 53.308C192.517 53.308 192.083 53.42 191.691 53.644C191.299 53.868 190.986 54.1947 190.753 54.624C190.519 55.0533 190.403 55.5573 190.403 56.136C190.403 56.724 190.519 57.2373 190.753 57.676C190.986 58.1053 191.299 58.4367 191.691 58.67C192.083 58.894 192.517 59.006 192.993 59.006C193.469 59.006 193.903 58.894 194.295 58.67C194.696 58.4367 195.013 58.1053 195.247 57.676C195.48 57.2373 195.597 56.7287 195.597 56.15ZM200.312 53.378V57.9C200.312 58.2733 200.391 58.5393 200.55 58.698C200.708 58.8473 200.984 58.922 201.376 58.922H202.314V60H201.166C200.456 60 199.924 59.8367 199.57 59.51C199.215 59.1833 199.038 58.6467 199.038 57.9V53.378H198.044V52.328H199.038V50.396H200.312V52.328H202.314V53.378H200.312ZM204.235 51.082C203.992 51.082 203.787 50.998 203.619 50.83C203.451 50.662 203.367 50.4567 203.367 50.214C203.367 49.9713 203.451 49.766 203.619 49.598C203.787 49.43 203.992 49.346 204.235 49.346C204.468 49.346 204.664 49.43 204.823 49.598C204.991 49.766 205.075 49.9713 205.075 50.214C205.075 50.4567 204.991 50.662 204.823 50.83C204.664 50.998 204.468 51.082 204.235 51.082ZM204.851 52.328V60H203.577V52.328H204.851ZM210.088 60.126C209.37 60.126 208.716 59.9627 208.128 59.636C207.55 59.3093 207.092 58.8473 206.756 58.25C206.43 57.6433 206.266 56.9433 206.266 56.15C206.266 55.366 206.434 54.6753 206.77 54.078C207.116 53.4713 207.582 53.0093 208.17 52.692C208.758 52.3653 209.416 52.202 210.144 52.202C210.872 52.202 211.53 52.3653 212.118 52.692C212.706 53.0093 213.168 53.4667 213.504 54.064C213.85 54.6613 214.022 55.3567 214.022 56.15C214.022 56.9433 213.845 57.6433 213.49 58.25C213.145 58.8473 212.674 59.3093 212.076 59.636C211.479 59.9627 210.816 60.126 210.088 60.126ZM210.088 59.006C210.546 59.006 210.975 58.8987 211.376 58.684C211.778 58.4693 212.1 58.1473 212.342 57.718C212.594 57.2887 212.72 56.766 212.72 56.15C212.72 55.534 212.599 55.0113 212.356 54.582C212.114 54.1527 211.796 53.8353 211.404 53.63C211.012 53.4153 210.588 53.308 210.13 53.308C209.664 53.308 209.234 53.4153 208.842 53.63C208.46 53.8353 208.152 54.1527 207.918 54.582C207.685 55.0113 207.568 55.534 207.568 56.15C207.568 56.7753 207.68 57.3027 207.904 57.732C208.138 58.1613 208.446 58.4833 208.828 58.698C209.211 58.9033 209.631 59.006 210.088 59.006ZM219.156 52.188C220.089 52.188 220.845 52.4727 221.424 53.042C222.002 53.602 222.292 54.414 222.292 55.478V60H221.032V55.66C221.032 54.8947 220.84 54.3113 220.458 53.91C220.075 53.4993 219.552 53.294 218.89 53.294C218.218 53.294 217.681 53.504 217.28 53.924C216.888 54.344 216.692 54.9553 216.692 55.758V60H215.418V52.328H216.692V53.42C216.944 53.028 217.284 52.7247 217.714 52.51C218.152 52.2953 218.633 52.188 219.156 52.188Z" fill="white"/>
<g clip-path="url(#clip0_3801_12956)">
<path d="M277 38.9951C277 38.751 276.902 38.5264 276.717 38.3506L268.982 30.7725C268.807 30.6064 268.592 30.5186 268.338 30.5186C267.84 30.5186 267.449 30.8994 267.449 31.4072C267.449 31.6514 267.547 31.876 267.703 32.042L274.812 38.9951L267.703 45.9483C267.547 46.1143 267.449 46.3291 267.449 46.5831C267.449 47.0909 267.84 47.4717 268.338 47.4717C268.592 47.4717 268.807 47.3838 268.982 47.2081L276.717 39.6396C276.902 39.4541 277 39.2393 277 38.9951Z" fill="white" fill-opacity="0.85"/>
</g>
<defs>
<clipPath id="clip0_3801_12956">
<rect width="11.6895" height="16.9629" fill="white" transform="translate(265.311 30.5186)"/>
</clipPath>
</defs>
</svg>
