<svg width="293" height="86" viewBox="0 0 293 86" fill="none" xmlns="http://www.w3.org/2000/svg">
<rect width="293" height="78" rx="30" fill="#3A6351"/>
<path d="M27.968 20.644V23.13H23.876V36H20.796V23.13H16.704V20.644H27.968ZM35.1873 36.198C34.0139 36.198 32.9579 35.9413 32.0193 35.428C31.0806 34.9 30.3399 34.1593 29.7973 33.206C29.2693 32.2527 29.0053 31.1527 29.0053 29.906C29.0053 28.6593 29.2766 27.5593 29.8193 26.606C30.3766 25.6527 31.1319 24.9193 32.0853 24.406C33.0386 23.878 34.1019 23.614 35.2753 23.614C36.4486 23.614 37.5119 23.878 38.4653 24.406C39.4186 24.9193 40.1666 25.6527 40.7093 26.606C41.2666 27.5593 41.5453 28.6593 41.5453 29.906C41.5453 31.1527 41.2593 32.2527 40.6873 33.206C40.1299 34.1593 39.3673 34.9 38.3993 35.428C37.4459 35.9413 36.3753 36.198 35.1873 36.198ZM35.1873 33.514C35.7446 33.514 36.2653 33.382 36.7493 33.118C37.2479 32.8393 37.6439 32.4287 37.9373 31.886C38.2306 31.3433 38.3773 30.6833 38.3773 29.906C38.3773 28.7473 38.0693 27.86 37.4533 27.244C36.8519 26.6133 36.1113 26.298 35.2313 26.298C34.3513 26.298 33.6106 26.6133 33.0093 27.244C32.4226 27.86 32.1293 28.7473 32.1293 29.906C32.1293 31.0647 32.4153 31.9593 32.9873 32.59C33.5739 33.206 34.3073 33.514 35.1873 33.514ZM46.4446 25.572C46.8406 25.0147 47.3832 24.5527 48.0726 24.186C48.7766 23.8047 49.5759 23.614 50.4706 23.614C51.5119 23.614 52.4506 23.8707 53.2866 24.384C54.1372 24.8973 54.8046 25.6307 55.2886 26.584C55.7872 27.5227 56.0366 28.6153 56.0366 29.862C56.0366 31.1087 55.7872 32.216 55.2886 33.184C54.8046 34.1373 54.1372 34.878 53.2866 35.406C52.4506 35.934 51.5119 36.198 50.4706 36.198C49.5759 36.198 48.7839 36.0147 48.0946 35.648C47.4199 35.2813 46.8699 34.8193 46.4446 34.262V41.808H43.3646V23.812H46.4446V25.572ZM52.8906 29.862C52.8906 29.1287 52.7366 28.498 52.4286 27.97C52.1352 27.4273 51.7392 27.0167 51.2406 26.738C50.7566 26.4593 50.2286 26.32 49.6566 26.32C49.0992 26.32 48.5712 26.4667 48.0726 26.76C47.5886 27.0387 47.1926 27.4493 46.8846 27.992C46.5912 28.5347 46.4446 29.1727 46.4446 29.906C46.4446 30.6393 46.5912 31.2773 46.8846 31.82C47.1926 32.3627 47.5886 32.7807 48.0726 33.074C48.5712 33.3527 49.0992 33.492 49.6566 33.492C50.2286 33.492 50.7566 33.3453 51.2406 33.052C51.7392 32.7587 52.1352 32.3407 52.4286 31.798C52.7366 31.2553 52.8906 30.61 52.8906 29.862ZM59.3967 22.36C58.8541 22.36 58.3994 22.1913 58.0327 21.854C57.6807 21.502 57.5047 21.0693 57.5047 20.556C57.5047 20.0427 57.6807 19.6173 58.0327 19.28C58.3994 18.928 58.8541 18.752 59.3967 18.752C59.9394 18.752 60.3867 18.928 60.7387 19.28C61.1054 19.6173 61.2887 20.0427 61.2887 20.556C61.2887 21.0693 61.1054 21.502 60.7387 21.854C60.3867 22.1913 59.9394 22.36 59.3967 22.36ZM60.9147 23.812V36H57.8347V23.812H60.9147ZM62.7258 29.906C62.7258 28.6447 62.9824 27.5447 63.4958 26.606C64.0091 25.6527 64.7204 24.9193 65.6298 24.406C66.5391 23.878 67.5804 23.614 68.7538 23.614C70.2644 23.614 71.5111 23.9953 72.4938 24.758C73.4911 25.506 74.1584 26.562 74.4958 27.926H71.1738C70.9978 27.398 70.6971 26.9873 70.2718 26.694C69.8611 26.386 69.3478 26.232 68.7318 26.232C67.8518 26.232 67.1551 26.5547 66.6418 27.2C66.1284 27.8307 65.8718 28.7327 65.8718 29.906C65.8718 31.0647 66.1284 31.9667 66.6418 32.612C67.1551 33.2427 67.8518 33.558 68.7318 33.558C69.9784 33.558 70.7924 33.0007 71.1738 31.886H74.4958C74.1584 33.206 73.4911 34.2547 72.4938 35.032C71.4964 35.8093 70.2498 36.198 68.7538 36.198C67.5804 36.198 66.5391 35.9413 65.6298 35.428C64.7204 34.9 64.0091 34.1667 63.4958 33.228C62.9824 32.2747 62.7258 31.1673 62.7258 29.906ZM80.9761 36.198C79.9788 36.198 79.0841 36.022 78.2921 35.67C77.5001 35.3033 76.8695 34.812 76.4001 34.196C75.9455 33.58 75.6961 32.898 75.6521 32.15H78.7541C78.8128 32.6193 79.0401 33.008 79.4361 33.316C79.8468 33.624 80.3528 33.778 80.9541 33.778C81.5408 33.778 81.9955 33.6607 82.3181 33.426C82.6555 33.1913 82.8241 32.8907 82.8241 32.524C82.8241 32.128 82.6188 31.8347 82.2081 31.644C81.8121 31.4387 81.1741 31.2187 80.2941 30.984C79.3848 30.764 78.6368 30.5367 78.0501 30.302C77.4781 30.0673 76.9795 29.708 76.5541 29.224C76.1435 28.74 75.9381 28.0873 75.9381 27.266C75.9381 26.5913 76.1288 25.9753 76.5101 25.418C76.9061 24.8607 77.4635 24.4207 78.1821 24.098C78.9155 23.7753 79.7735 23.614 80.7561 23.614C82.2081 23.614 83.3668 23.9807 84.2321 24.714C85.0975 25.4327 85.5741 26.408 85.6621 27.64H82.7141C82.6701 27.156 82.4648 26.7747 82.0981 26.496C81.7461 26.2027 81.2695 26.056 80.6681 26.056C80.1108 26.056 79.6781 26.1587 79.3701 26.364C79.0768 26.5693 78.9301 26.8553 78.9301 27.222C78.9301 27.6327 79.1355 27.948 79.5461 28.168C79.9568 28.3733 80.5948 28.586 81.4601 28.806C82.3401 29.026 83.0661 29.2533 83.6381 29.488C84.2101 29.7227 84.7015 30.0893 85.1121 30.588C85.5375 31.072 85.7575 31.7173 85.7721 32.524C85.7721 33.228 85.5741 33.8587 85.1781 34.416C84.7968 34.9733 84.2395 35.4133 83.5061 35.736C82.7875 36.044 81.9441 36.198 80.9761 36.198ZM95.7426 33.558H100.803V36H92.6626V20.644H95.7426V33.558ZM103.882 22.36C103.34 22.36 102.885 22.1913 102.518 21.854C102.166 21.502 101.99 21.0693 101.99 20.556C101.99 20.0427 102.166 19.6173 102.518 19.28C102.885 18.928 103.34 18.752 103.882 18.752C104.425 18.752 104.872 18.928 105.224 19.28C105.591 19.6173 105.774 20.0427 105.774 20.556C105.774 21.0693 105.591 21.502 105.224 21.854C104.872 22.1913 104.425 22.36 103.882 22.36ZM105.4 23.812V36H102.32V23.812H105.4ZM111.083 25.594C111.479 25.0073 112.022 24.5307 112.711 24.164C113.415 23.7973 114.215 23.614 115.109 23.614C116.151 23.614 117.089 23.8707 117.925 24.384C118.776 24.8973 119.443 25.6307 119.927 26.584C120.426 27.5227 120.675 28.6153 120.675 29.862C120.675 31.1087 120.426 32.216 119.927 33.184C119.443 34.1373 118.776 34.878 117.925 35.406C117.089 35.934 116.151 36.198 115.109 36.198C114.2 36.198 113.401 36.022 112.711 35.67C112.037 35.3033 111.494 34.834 111.083 34.262V36H108.003V19.72H111.083V25.594ZM117.529 29.862C117.529 29.1287 117.375 28.498 117.067 27.97C116.774 27.4273 116.378 27.0167 115.879 26.738C115.395 26.4593 114.867 26.32 114.295 26.32C113.738 26.32 113.21 26.4667 112.711 26.76C112.227 27.0387 111.831 27.4493 111.523 27.992C111.23 28.5347 111.083 29.1727 111.083 29.906C111.083 30.6393 111.23 31.2773 111.523 31.82C111.831 32.3627 112.227 32.7807 112.711 33.074C113.21 33.3527 113.738 33.492 114.295 33.492C114.867 33.492 115.395 33.3453 115.879 33.052C116.378 32.7587 116.774 32.3407 117.067 31.798C117.375 31.2553 117.529 30.61 117.529 29.862ZM125.553 25.704C125.949 25.0587 126.463 24.5527 127.093 24.186C127.739 23.8193 128.472 23.636 129.293 23.636V26.87H128.479C127.511 26.87 126.778 27.0973 126.279 27.552C125.795 28.0067 125.553 28.7987 125.553 29.928V36H122.473V23.812H125.553V25.704ZM130.136 29.862C130.136 28.63 130.378 27.5373 130.862 26.584C131.361 25.6307 132.028 24.8973 132.864 24.384C133.715 23.8707 134.661 23.614 135.702 23.614C136.611 23.614 137.403 23.7973 138.078 24.164C138.767 24.5307 139.317 24.9927 139.728 25.55V23.812H142.83V36H139.728V34.218C139.332 34.79 138.782 35.2667 138.078 35.648C137.389 36.0147 136.589 36.198 135.68 36.198C134.653 36.198 133.715 35.934 132.864 35.406C132.028 34.878 131.361 34.1373 130.862 33.184C130.378 32.216 130.136 31.1087 130.136 29.862ZM139.728 29.906C139.728 29.158 139.581 28.52 139.288 27.992C138.995 27.4493 138.599 27.0387 138.1 26.76C137.601 26.4667 137.066 26.32 136.494 26.32C135.922 26.32 135.394 26.4593 134.91 26.738C134.426 27.0167 134.03 27.4273 133.722 27.97C133.429 28.498 133.282 29.1287 133.282 29.862C133.282 30.5953 133.429 31.2407 133.722 31.798C134.03 32.3407 134.426 32.7587 134.91 33.052C135.409 33.3453 135.937 33.492 136.494 33.492C137.066 33.492 137.601 33.3527 138.1 33.074C138.599 32.7807 138.995 32.37 139.288 31.842C139.581 31.2993 139.728 30.654 139.728 29.906ZM148.478 25.704C148.874 25.0587 149.387 24.5527 150.018 24.186C150.663 23.8193 151.397 23.636 152.218 23.636V26.87H151.404C150.436 26.87 149.703 27.0973 149.204 27.552C148.72 28.0067 148.478 28.7987 148.478 29.928V36H145.398V23.812H148.478V25.704ZM165.513 23.812L157.967 41.764H154.689L157.329 35.692L152.445 23.812H155.899L159.045 32.326L162.235 23.812H165.513Z" fill="white"/>
<path d="M21.964 54.974C22.3187 55.03 22.6407 55.1747 22.93 55.408C23.2287 55.6413 23.462 55.9307 23.63 56.276C23.8073 56.6213 23.896 56.99 23.896 57.382C23.896 57.8767 23.77 58.3247 23.518 58.726C23.266 59.118 22.8973 59.4307 22.412 59.664C21.936 59.888 21.3713 60 20.718 60H17.078V50.242H20.578C21.2407 50.242 21.8053 50.354 22.272 50.578C22.7387 50.7927 23.0887 51.0867 23.322 51.46C23.5553 51.8333 23.672 52.2533 23.672 52.72C23.672 53.2987 23.5133 53.7793 23.196 54.162C22.888 54.5353 22.4773 54.806 21.964 54.974ZM18.352 54.456H20.494C21.0913 54.456 21.5533 54.316 21.88 54.036C22.2067 53.756 22.37 53.3687 22.37 52.874C22.37 52.3793 22.2067 51.992 21.88 51.712C21.5533 51.432 21.082 51.292 20.466 51.292H18.352V54.456ZM20.606 58.95C21.2407 58.95 21.7353 58.8007 22.09 58.502C22.4447 58.2033 22.622 57.788 22.622 57.256C22.622 56.7147 22.4353 56.29 22.062 55.982C21.6887 55.6647 21.1893 55.506 20.564 55.506H18.352V58.95H20.606ZM28.7299 60.126C28.0113 60.126 27.3579 59.9627 26.7699 59.636C26.1913 59.3093 25.7339 58.8473 25.3979 58.25C25.0713 57.6433 24.9079 56.9433 24.9079 56.15C24.9079 55.366 25.0759 54.6753 25.4119 54.078C25.7573 53.4713 26.2239 53.0093 26.8119 52.692C27.3999 52.3653 28.0579 52.202 28.7859 52.202C29.5139 52.202 30.1719 52.3653 30.7599 52.692C31.3479 53.0093 31.8099 53.4667 32.1459 54.064C32.4913 54.6613 32.6639 55.3567 32.6639 56.15C32.6639 56.9433 32.4866 57.6433 32.1319 58.25C31.7866 58.8473 31.3153 59.3093 30.7179 59.636C30.1206 59.9627 29.4579 60.126 28.7299 60.126ZM28.7299 59.006C29.1873 59.006 29.6166 58.8987 30.0179 58.684C30.4193 58.4693 30.7413 58.1473 30.9839 57.718C31.2359 57.2887 31.3619 56.766 31.3619 56.15C31.3619 55.534 31.2406 55.0113 30.9979 54.582C30.7553 54.1527 30.4379 53.8353 30.0459 53.63C29.6539 53.4153 29.2293 53.308 28.7719 53.308C28.3053 53.308 27.8759 53.4153 27.4839 53.63C27.1013 53.8353 26.7933 54.1527 26.5599 54.582C26.3266 55.0113 26.2099 55.534 26.2099 56.15C26.2099 56.7753 26.3219 57.3027 26.5459 57.732C26.7793 58.1613 27.0873 58.4833 27.4699 58.698C27.8526 58.9033 28.2726 59.006 28.7299 59.006ZM37.405 60.126C36.6863 60.126 36.033 59.9627 35.445 59.636C34.8663 59.3093 34.409 58.8473 34.073 58.25C33.7463 57.6433 33.583 56.9433 33.583 56.15C33.583 55.366 33.751 54.6753 34.087 54.078C34.4323 53.4713 34.899 53.0093 35.487 52.692C36.075 52.3653 36.733 52.202 37.461 52.202C38.189 52.202 38.847 52.3653 39.435 52.692C40.023 53.0093 40.485 53.4667 40.821 54.064C41.1663 54.6613 41.339 55.3567 41.339 56.15C41.339 56.9433 41.1617 57.6433 40.807 58.25C40.4617 58.8473 39.9903 59.3093 39.393 59.636C38.7957 59.9627 38.133 60.126 37.405 60.126ZM37.405 59.006C37.8623 59.006 38.2917 58.8987 38.693 58.684C39.0943 58.4693 39.4163 58.1473 39.659 57.718C39.911 57.2887 40.037 56.766 40.037 56.15C40.037 55.534 39.9157 55.0113 39.673 54.582C39.4303 54.1527 39.113 53.8353 38.721 53.63C38.329 53.4153 37.9043 53.308 37.447 53.308C36.9803 53.308 36.551 53.4153 36.159 53.63C35.7763 53.8353 35.4683 54.1527 35.235 54.582C35.0017 55.0113 34.885 55.534 34.885 56.15C34.885 56.7753 34.997 57.3027 35.221 57.732C35.4543 58.1613 35.7623 58.4833 36.145 58.698C36.5277 58.9033 36.9477 59.006 37.405 59.006ZM45.4501 60.126C44.8621 60.126 44.3348 60.028 43.8681 59.832C43.4014 59.6267 43.0328 59.3467 42.7621 58.992C42.4914 58.628 42.3421 58.2127 42.3141 57.746H43.6301C43.6674 58.1287 43.8448 58.4413 44.1621 58.684C44.4888 58.9267 44.9134 59.048 45.4361 59.048C45.9214 59.048 46.3041 58.9407 46.5841 58.726C46.8641 58.5113 47.0041 58.2407 47.0041 57.914C47.0041 57.578 46.8548 57.3307 46.5561 57.172C46.2574 57.004 45.7954 56.8407 45.1701 56.682C44.6008 56.5327 44.1341 56.3833 43.7701 56.234C43.4154 56.0753 43.1074 55.8467 42.8461 55.548C42.5941 55.24 42.4681 54.8387 42.4681 54.344C42.4681 53.952 42.5848 53.5927 42.8181 53.266C43.0514 52.9393 43.3828 52.6827 43.8121 52.496C44.2414 52.3 44.7314 52.202 45.2821 52.202C46.1314 52.202 46.8174 52.4167 47.3401 52.846C47.8628 53.2753 48.1428 53.8633 48.1801 54.61H46.9061C46.8781 54.2087 46.7148 53.8867 46.4161 53.644C46.1268 53.4013 45.7348 53.28 45.2401 53.28C44.7828 53.28 44.4188 53.378 44.1481 53.574C43.8774 53.77 43.7421 54.0267 43.7421 54.344C43.7421 54.596 43.8214 54.806 43.9801 54.974C44.1481 55.1327 44.3534 55.2633 44.5961 55.366C44.8481 55.4593 45.1934 55.5667 45.6321 55.688C46.1828 55.8373 46.6308 55.9867 46.9761 56.136C47.3214 56.276 47.6154 56.4907 47.8581 56.78C48.1101 57.0693 48.2408 57.4473 48.2501 57.914C48.2501 58.334 48.1334 58.712 47.9001 59.048C47.6668 59.384 47.3354 59.65 46.9061 59.846C46.4861 60.0327 46.0008 60.126 45.4501 60.126ZM51.3225 53.378V57.9C51.3225 58.2733 51.4019 58.5393 51.5605 58.698C51.7192 58.8473 51.9945 58.922 52.3865 58.922H53.3245V60H52.1765C51.4672 60 50.9352 59.8367 50.5805 59.51C50.2259 59.1833 50.0485 58.6467 50.0485 57.9V53.378H49.0545V52.328H50.0485V50.396H51.3225V52.328H53.3245V53.378H51.3225ZM67.2666 52.188C67.8639 52.188 68.3959 52.314 68.8626 52.566C69.3292 52.8087 69.6979 53.1773 69.9686 53.672C70.2392 54.1667 70.3746 54.7687 70.3746 55.478V60H69.1146V55.66C69.1146 54.8947 68.9232 54.3113 68.5406 53.91C68.1672 53.4993 67.6586 53.294 67.0146 53.294C66.3519 53.294 65.8246 53.5087 65.4326 53.938C65.0406 54.358 64.8446 54.9693 64.8446 55.772V60H63.5846V55.66C63.5846 54.8947 63.3932 54.3113 63.0106 53.91C62.6372 53.4993 62.1286 53.294 61.4846 53.294C60.8219 53.294 60.2946 53.5087 59.9026 53.938C59.5106 54.358 59.3146 54.9693 59.3146 55.772V60H58.0406V52.328H59.3146V53.434C59.5666 53.0327 59.9026 52.7247 60.3226 52.51C60.7519 52.2953 61.2232 52.188 61.7366 52.188C62.3806 52.188 62.9499 52.3327 63.4446 52.622C63.9392 52.9113 64.3079 53.336 64.5506 53.896C64.7652 53.3547 65.1199 52.9347 65.6146 52.636C66.1092 52.3373 66.6599 52.188 67.2666 52.188ZM79.1844 55.87C79.1844 56.1127 79.1704 56.3693 79.1424 56.64H73.0104C73.0571 57.396 73.3137 57.9887 73.7804 58.418C74.2564 58.838 74.8304 59.048 75.5024 59.048C76.0531 59.048 76.5104 58.922 76.8744 58.67C77.2477 58.4087 77.5091 58.0633 77.6584 57.634H79.0304C78.8251 58.3713 78.4144 58.9733 77.7984 59.44C77.1824 59.8973 76.4171 60.126 75.5024 60.126C74.7744 60.126 74.1211 59.9627 73.5424 59.636C72.9731 59.3093 72.5251 58.8473 72.1984 58.25C71.8717 57.6433 71.7084 56.9433 71.7084 56.15C71.7084 55.3567 71.8671 54.6613 72.1844 54.064C72.5017 53.4667 72.9451 53.0093 73.5144 52.692C74.0931 52.3653 74.7557 52.202 75.5024 52.202C76.2304 52.202 76.8744 52.3607 77.4344 52.678C77.9944 52.9953 78.4237 53.434 78.7224 53.994C79.0304 54.5447 79.1844 55.17 79.1844 55.87ZM77.8684 55.604C77.8684 55.1187 77.7611 54.7033 77.5464 54.358C77.3317 54.0033 77.0377 53.7373 76.6644 53.56C76.3004 53.3733 75.8944 53.28 75.4464 53.28C74.8024 53.28 74.2517 53.4853 73.7944 53.896C73.3464 54.3067 73.0897 54.876 73.0244 55.604H77.8684ZM89.812 52.188C90.4094 52.188 90.9414 52.314 91.408 52.566C91.8747 52.8087 92.2434 53.1773 92.514 53.672C92.7847 54.1667 92.92 54.7687 92.92 55.478V60H91.66V55.66C91.66 54.8947 91.4687 54.3113 91.086 53.91C90.7127 53.4993 90.204 53.294 89.56 53.294C88.8974 53.294 88.37 53.5087 87.978 53.938C87.586 54.358 87.39 54.9693 87.39 55.772V60H86.13V55.66C86.13 54.8947 85.9387 54.3113 85.556 53.91C85.1827 53.4993 84.674 53.294 84.03 53.294C83.3674 53.294 82.84 53.5087 82.448 53.938C82.056 54.358 81.86 54.9693 81.86 55.772V60H80.586V52.328H81.86V53.434C82.112 53.0327 82.448 52.7247 82.868 52.51C83.2974 52.2953 83.7687 52.188 84.282 52.188C84.926 52.188 85.4954 52.3327 85.99 52.622C86.4847 52.9113 86.8534 53.336 87.096 53.896C87.3107 53.3547 87.6654 52.9347 88.16 52.636C88.6547 52.3373 89.2054 52.188 89.812 52.188ZM98.0759 60.126C97.3572 60.126 96.7039 59.9627 96.1159 59.636C95.5372 59.3093 95.0799 58.8473 94.7439 58.25C94.4172 57.6433 94.2539 56.9433 94.2539 56.15C94.2539 55.366 94.4219 54.6753 94.7579 54.078C95.1032 53.4713 95.5699 53.0093 96.1579 52.692C96.7459 52.3653 97.4039 52.202 98.1319 52.202C98.8599 52.202 99.5179 52.3653 100.106 52.692C100.694 53.0093 101.156 53.4667 101.492 54.064C101.837 54.6613 102.01 55.3567 102.01 56.15C102.01 56.9433 101.833 57.6433 101.478 58.25C101.133 58.8473 100.661 59.3093 100.064 59.636C99.4665 59.9627 98.8039 60.126 98.0759 60.126ZM98.0759 59.006C98.5332 59.006 98.9625 58.8987 99.3639 58.684C99.7652 58.4693 100.087 58.1473 100.33 57.718C100.582 57.2887 100.708 56.766 100.708 56.15C100.708 55.534 100.587 55.0113 100.344 54.582C100.101 54.1527 99.7839 53.8353 99.3919 53.63C98.9999 53.4153 98.5752 53.308 98.1179 53.308C97.6512 53.308 97.2219 53.4153 96.8299 53.63C96.4472 53.8353 96.1392 54.1527 95.9059 54.582C95.6725 55.0113 95.5559 55.534 95.5559 56.15C95.5559 56.7753 95.6679 57.3027 95.8919 57.732C96.1252 58.1613 96.4332 58.4833 96.8159 58.698C97.1985 58.9033 97.6185 59.006 98.0759 59.006ZM104.679 53.574C104.903 53.1353 105.22 52.7947 105.631 52.552C106.051 52.3093 106.56 52.188 107.157 52.188V53.504H106.821C105.393 53.504 104.679 54.2787 104.679 55.828V60H103.405V52.328H104.679V53.574ZM114.956 52.328L110.336 63.612H109.02L110.532 59.916L107.438 52.328H108.852L111.26 58.544L113.64 52.328H114.956ZM129.629 52.328L127.235 60H125.919L124.071 53.91L122.223 60H120.907L118.499 52.328H119.801L121.565 58.768L123.469 52.328H124.771L126.633 58.782L128.369 52.328H129.629ZM131.271 51.082C131.028 51.082 130.823 50.998 130.655 50.83C130.487 50.662 130.403 50.4567 130.403 50.214C130.403 49.9713 130.487 49.766 130.655 49.598C130.823 49.43 131.028 49.346 131.271 49.346C131.504 49.346 131.7 49.43 131.859 49.598C132.027 49.766 132.111 49.9713 132.111 50.214C132.111 50.4567 132.027 50.662 131.859 50.83C131.7 50.998 131.504 51.082 131.271 51.082ZM131.887 52.328V60H130.613V52.328H131.887ZM135.332 53.378V57.9C135.332 58.2733 135.412 58.5393 135.57 58.698C135.729 58.8473 136.004 58.922 136.396 58.922H137.334V60H136.186C135.477 60 134.945 59.8367 134.59 59.51C134.236 59.1833 134.058 58.6467 134.058 57.9V53.378H133.064V52.328H134.058V50.396H135.332V52.328H137.334V53.378H135.332ZM142.406 52.188C142.985 52.188 143.507 52.314 143.974 52.566C144.441 52.8087 144.805 53.1773 145.066 53.672C145.337 54.1667 145.472 54.7687 145.472 55.478V60H144.212V55.66C144.212 54.8947 144.021 54.3113 143.638 53.91C143.255 53.4993 142.733 53.294 142.07 53.294C141.398 53.294 140.861 53.504 140.46 53.924C140.068 54.344 139.872 54.9553 139.872 55.758V60H138.598V49.64H139.872V53.42C140.124 53.028 140.469 52.7247 140.908 52.51C141.356 52.2953 141.855 52.188 142.406 52.188ZM157.726 55.87C157.726 56.1127 157.712 56.3693 157.684 56.64H151.552C151.598 57.396 151.855 57.9887 152.322 58.418C152.798 58.838 153.372 59.048 154.044 59.048C154.594 59.048 155.052 58.922 155.416 58.67C155.789 58.4087 156.05 58.0633 156.2 57.634H157.572C157.366 58.3713 156.956 58.9733 156.34 59.44C155.724 59.8973 154.958 60.126 154.044 60.126C153.316 60.126 152.662 59.9627 152.084 59.636C151.514 59.3093 151.066 58.8473 150.74 58.25C150.413 57.6433 150.25 56.9433 150.25 56.15C150.25 55.3567 150.408 54.6613 150.726 54.064C151.043 53.4667 151.486 53.0093 152.056 52.692C152.634 52.3653 153.297 52.202 154.044 52.202C154.772 52.202 155.416 52.3607 155.976 52.678C156.536 52.9953 156.965 53.434 157.264 53.994C157.572 54.5447 157.726 55.17 157.726 55.87ZM156.41 55.604C156.41 55.1187 156.302 54.7033 156.088 54.358C155.873 54.0033 155.579 53.7373 155.206 53.56C154.842 53.3733 154.436 53.28 153.988 53.28C153.344 53.28 152.793 53.4853 152.336 53.896C151.888 54.3067 151.631 54.876 151.566 55.604H156.41ZM161.983 58.824L164.363 52.328H165.721L162.711 60H161.227L158.217 52.328H159.589L161.983 58.824ZM173.695 55.87C173.695 56.1127 173.681 56.3693 173.653 56.64H167.521C167.567 57.396 167.824 57.9887 168.291 58.418C168.767 58.838 169.341 59.048 170.013 59.048C170.563 59.048 171.021 58.922 171.385 58.67C171.758 58.4087 172.019 58.0633 172.169 57.634H173.541C173.335 58.3713 172.925 58.9733 172.309 59.44C171.693 59.8973 170.927 60.126 170.013 60.126C169.285 60.126 168.631 59.9627 168.053 59.636C167.483 59.3093 167.035 58.8473 166.709 58.25C166.382 57.6433 166.219 56.9433 166.219 56.15C166.219 55.3567 166.377 54.6613 166.695 54.064C167.012 53.4667 167.455 53.0093 168.025 52.692C168.603 52.3653 169.266 52.202 170.013 52.202C170.741 52.202 171.385 52.3607 171.945 52.678C172.505 52.9953 172.934 53.434 173.233 53.994C173.541 54.5447 173.695 55.17 173.695 55.87ZM172.379 55.604C172.379 55.1187 172.271 54.7033 172.057 54.358C171.842 54.0033 171.548 53.7373 171.175 53.56C170.811 53.3733 170.405 53.28 169.957 53.28C169.313 53.28 168.762 53.4853 168.305 53.896C167.857 54.3067 167.6 54.876 167.535 55.604H172.379ZM176.37 53.574C176.594 53.1353 176.912 52.7947 177.322 52.552C177.742 52.3093 178.251 52.188 178.848 52.188V53.504H178.512C177.084 53.504 176.37 54.2787 176.37 55.828V60H175.096V52.328H176.37V53.574ZM186.647 52.328L182.027 63.612H180.711L182.223 59.916L179.129 52.328H180.543L182.951 58.544L185.331 52.328H186.647ZM192.374 53.574C192.598 53.1353 192.916 52.7947 193.326 52.552C193.746 52.3093 194.255 52.188 194.852 52.188V53.504H194.516C193.088 53.504 192.374 54.2787 192.374 55.828V60H191.1V52.328H192.374V53.574ZM203.043 55.87C203.043 56.1127 203.029 56.3693 203.001 56.64H196.869C196.916 57.396 197.172 57.9887 197.639 58.418C198.115 58.838 198.689 59.048 199.361 59.048C199.912 59.048 200.369 58.922 200.733 58.67C201.106 58.4087 201.368 58.0633 201.517 57.634H202.889C202.684 58.3713 202.273 58.9733 201.657 59.44C201.041 59.8973 200.276 60.126 199.361 60.126C198.633 60.126 197.98 59.9627 197.401 59.636C196.832 59.3093 196.384 58.8473 196.057 58.25C195.73 57.6433 195.567 56.9433 195.567 56.15C195.567 55.3567 195.726 54.6613 196.043 54.064C196.36 53.4667 196.804 53.0093 197.373 52.692C197.952 52.3653 198.614 52.202 199.361 52.202C200.089 52.202 200.733 52.3607 201.293 52.678C201.853 52.9953 202.282 53.434 202.581 53.994C202.889 54.5447 203.043 55.17 203.043 55.87ZM201.727 55.604C201.727 55.1187 201.62 54.7033 201.405 54.358C201.19 54.0033 200.896 53.7373 200.523 53.56C200.159 53.3733 199.753 53.28 199.305 53.28C198.661 53.28 198.11 53.4853 197.653 53.896C197.205 54.3067 196.948 54.876 196.883 55.604H201.727ZM207.3 58.824L209.68 52.328H211.038L208.028 60H206.544L203.534 52.328H204.906L207.3 58.824ZM212.67 51.082C212.427 51.082 212.222 50.998 212.054 50.83C211.886 50.662 211.802 50.4567 211.802 50.214C211.802 49.9713 211.886 49.766 212.054 49.598C212.222 49.43 212.427 49.346 212.67 49.346C212.903 49.346 213.099 49.43 213.258 49.598C213.426 49.766 213.51 49.9713 213.51 50.214C213.51 50.4567 213.426 50.662 213.258 50.83C213.099 50.998 212.903 51.082 212.67 51.082ZM213.286 52.328V60H212.012V52.328H213.286ZM222.177 55.87C222.177 56.1127 222.163 56.3693 222.135 56.64H216.003C216.05 57.396 216.307 57.9887 216.773 58.418C217.249 58.838 217.823 59.048 218.495 59.048C219.046 59.048 219.503 58.922 219.867 58.67C220.241 58.4087 220.502 58.0633 220.651 57.634H222.023C221.818 58.3713 221.407 58.9733 220.791 59.44C220.175 59.8973 219.41 60.126 218.495 60.126C217.767 60.126 217.114 59.9627 216.535 59.636C215.966 59.3093 215.518 58.8473 215.191 58.25C214.865 57.6433 214.701 56.9433 214.701 56.15C214.701 55.3567 214.86 54.6613 215.177 54.064C215.495 53.4667 215.938 53.0093 216.507 52.692C217.086 52.3653 217.749 52.202 218.495 52.202C219.223 52.202 219.867 52.3607 220.427 52.678C220.987 52.9953 221.417 53.434 221.715 53.994C222.023 54.5447 222.177 55.17 222.177 55.87ZM220.861 55.604C220.861 55.1187 220.754 54.7033 220.539 54.358C220.325 54.0033 220.031 53.7373 219.657 53.56C219.293 53.3733 218.887 53.28 218.439 53.28C217.795 53.28 217.245 53.4853 216.787 53.896C216.339 54.3067 216.083 54.876 216.017 55.604H220.861ZM233.799 52.328L231.405 60H230.089L228.241 53.91L226.393 60H225.077L222.669 52.328H223.971L225.735 58.768L227.639 52.328H228.941L230.803 58.782L232.539 52.328H233.799Z" fill="white"/>
<g clip-path="url(#clip0_3813_1306)">
<path d="M277 38.9951C277 38.751 276.902 38.5264 276.717 38.3506L268.982 30.7725C268.807 30.6064 268.592 30.5186 268.338 30.5186C267.84 30.5186 267.449 30.8994 267.449 31.4072C267.449 31.6514 267.547 31.876 267.703 32.042L274.812 38.9951L267.703 45.9483C267.547 46.1143 267.449 46.3291 267.449 46.5831C267.449 47.0909 267.84 47.4717 268.338 47.4717C268.592 47.4717 268.807 47.3838 268.982 47.2081L276.717 39.6396C276.902 39.4541 277 39.2393 277 38.9951Z" fill="white" fill-opacity="0.85"/>
</g>
<path d="M20 68.5C20 64.3579 23.3579 61 27.5 61V61C31.6421 61 35 64.3579 35 68.5V79.75C35 83.2018 32.2018 86 28.75 86H26.25C22.7982 86 20 83.2018 20 79.75V68.5Z" fill="#3A6351"/>
<path d="M258 68.5C258 64.3579 261.358 61 265.5 61V61C269.642 61 273 64.3579 273 68.5V79.75C273 83.2018 270.202 86 266.75 86H264.25C260.798 86 258 83.2018 258 79.75V68.5Z" fill="#3A6351"/>
<defs>
<clipPath id="clip0_3813_1306">
<rect width="11.6895" height="16.9629" fill="white" transform="translate(265.311 30.5186)"/>
</clipPath>
</defs>
</svg>
