<svg width="33" height="37" viewBox="0 0 33 37" fill="none" xmlns="http://www.w3.org/2000/svg">
<path d="M15.4587 0.133842C14.1761 -0.551552 13.0003 1.56174 12.5728 2.70407L15.4587 4.20336C15.9932 3.13243 16.7414 0.819235 15.4587 0.133842Z" fill="#A37556"/>
<path d="M8.52589 23.3137C9.23476 22.1457 8.86251 20.6241 7.69447 19.9153L4.33974 17.8794C3.17169 17.1705 1.65015 17.5428 0.941293 18.7108C0.232431 19.8789 0.604675 21.4004 1.77272 22.1093L5.12745 24.1452C6.2955 24.854 7.81703 24.4818 8.52589 23.3137Z" fill="#846047"/>
<path d="M5.24053 18.4102L4.36593 17.8794C3.19788 17.1705 1.67634 17.5428 0.967481 18.7108C0.258619 19.8789 0.630863 21.4004 1.79891 22.1093L2.67352 22.64L5.24053 18.4102Z" fill="#4B3E35"/>
<rect x="18.6646" y="32.7124" width="6.3355" height="3.53326" rx="1.76663" fill="#846047"/>
<path d="M18.6646 34.8442H25C25 35.6181 24.3727 36.2454 23.5989 36.2454H20.0657C19.2919 36.2454 18.6646 35.6181 18.6646 34.8442Z" fill="#4B3E35"/>
<rect x="6.479" y="32.7124" width="6.3355" height="3.53326" rx="1.76663" fill="#846047"/>
<path d="M6.479 34.8442H12.8145C12.8145 35.6181 12.1872 36.2454 11.4134 36.2454H7.88012C7.10631 36.2454 6.479 35.6181 6.479 34.8442Z" fill="#4B3E35"/>
<path d="M6.70525 8.83288C6.70525 5.46855 9.43258 2.74121 12.7969 2.74121H19.1284C22.0723 2.74121 24.5951 4.84654 25.1218 7.743L28.5669 26.6881C29.2469 30.4275 26.3742 33.8697 22.5735 33.8697H9.07439C3.77164 33.8697 1.00086 27.5641 4.58725 23.658L5.10072 23.0988C6.13265 21.9749 6.70525 20.5047 6.70525 18.9788L6.70525 8.83288Z" fill="#A37556"/>
<path d="M3.92993 8.68529C4.34294 6.10292 6.57072 4.20312 9.18591 4.20312C11.7581 4.20312 13.9623 6.04246 14.4227 8.5731L15.2253 12.9842C15.9054 16.7222 13.0339 20.1633 9.23454 20.1633C5.48801 20.1633 2.63018 16.8121 3.22186 13.1126L3.92993 8.68529Z" fill="#604F44"/>
<path d="M8.08688 15.2264C7.59412 15.1761 7.0603 14.6603 6.85498 14.4087C7.94609 13.5783 8.89349 14.0627 9.23079 14.4087C9.05481 14.7022 8.57964 15.2767 8.08688 15.2264Z" fill="#A2766B"/>
<path d="M8.11898 8.08838C7.84981 9.52614 6.94462 13.3095 8.11898 13.741M8.11898 13.741C8.79615 14.3149 11.1061 15.3822 12.1959 15.5332M8.11898 13.741C6.57263 14.6804 6.11574 15.1373 5.87207 15.5332" stroke="#3A2E2B" stroke-width="0.609167" stroke-linecap="round"/>
<ellipse cx="8.03388" cy="8.10153" rx="1.55342" ry="1.03561" fill="#3A2E2B"/>
<path d="M17.3237 5.48096C17.9431 5.51142 19.3462 5.85865 20.0041 7.00391" stroke="#3A2E2B" stroke-width="0.913751" stroke-linecap="round"/>
<path d="M25.3721 23.835C24.1742 23.1778 23.7358 21.674 24.3929 20.4761L26.2802 17.0356C26.9373 15.8377 28.4411 15.3993 29.6391 16.0564C30.837 16.7135 31.2754 18.2174 30.6182 19.4153L28.7309 22.8558C28.0738 24.0537 26.57 24.4921 25.3721 23.835Z" fill="#846047"/>
<path d="M25.7882 17.9326L26.2802 17.0356C26.9373 15.8377 28.4411 15.3993 29.6391 16.0564C30.837 16.7135 31.2754 18.2174 30.6182 19.4153L30.1262 20.3122L25.7882 17.9326Z" fill="#4B3E35"/>
<path d="M23.7444 0.74224C22.4617 0.0568466 21.2859 2.17014 20.8584 3.31247L23.7444 4.81176C24.2788 3.74083 25.027 1.42763 23.7444 0.74224Z" fill="#A37556"/>
</svg>
