<svg width="84" height="95" viewBox="0 0 84 95" fill="none" xmlns="http://www.w3.org/2000/svg">
<path d="M38.5855 1.32371C35.2586 -0.454008 32.209 5.02729 31.1001 7.99015L38.5855 11.8789C39.9716 9.10122 41.9123 3.10143 38.5855 1.32371Z" fill="#A37556"/>
<path d="M20.6045 61.4462C22.4431 58.4166 21.4776 54.4702 18.4481 52.6316L9.74682 47.351C6.71724 45.5124 2.7708 46.4779 0.932217 49.5075C-0.906372 52.5371 0.059124 56.4835 3.08871 58.3221L11.7899 63.6027C14.8195 65.4413 18.766 64.4758 20.6045 61.4462Z" fill="#846047"/>
<path d="M12.0832 48.7277L9.81475 47.351C6.78517 45.5124 2.83873 46.4779 1.00014 49.5075C-0.838448 52.5371 0.127048 56.4835 3.15664 58.3221L5.42512 59.6988L12.0832 48.7277Z" fill="#4B3E35"/>
<rect x="46.894" y="85.8228" width="16.4325" height="9.16428" rx="4.58214" fill="#846047"/>
<path d="M46.894 91.3525H63.3265C63.3265 93.3596 61.6995 94.9867 59.6924 94.9867H50.5282C48.5211 94.9867 46.894 93.3596 46.894 91.3525Z" fill="#4B3E35"/>
<rect x="15.2983" y="85.8228" width="16.4325" height="9.16428" rx="4.58214" fill="#846047"/>
<path d="M15.2983 91.3525H31.7308C31.7308 93.3596 30.1038 94.9867 28.0967 94.9867H18.9325C16.9254 94.9867 15.2983 93.3596 15.2983 91.3525Z" fill="#4B3E35"/>
<path d="M15.8797 23.887C15.8797 15.1609 22.9537 8.08691 31.6798 8.08691H48.1019C55.7377 8.08691 62.2809 13.5476 63.647 21.0601L72.5828 70.1984C74.3465 79.8973 66.8955 88.8254 57.0376 88.8254H22.0246C8.27076 88.8254 1.08415 72.4704 10.3862 62.3393L11.718 60.8888C14.3946 57.9737 15.8797 54.1603 15.8797 50.2028L15.8797 23.887Z" fill="#A37556"/>
<path d="M8.68144 23.5039C9.75266 16.806 15.5309 11.8784 22.314 11.8784C28.9855 11.8784 34.7025 16.6491 35.8968 23.2129L37.9784 34.6542C39.7424 44.3493 32.2945 53.2746 22.4401 53.2746C12.7226 53.2746 5.31025 44.5826 6.84489 34.987L8.68144 23.5039Z" fill="#604F44"/>
<path d="M19.4696 40.4697C18.1915 40.3392 16.8069 39.0014 16.2744 38.3488C19.1045 36.1952 21.5617 37.4514 22.4366 38.3488C21.9801 39.1101 20.7477 40.6002 19.4696 40.4697Z" fill="#A2766B"/>
<path d="M19.5471 21.9565C18.8489 25.6857 16.5011 35.4987 19.5471 36.6177M19.5471 36.6177C21.3035 38.1063 27.2949 40.8748 30.1215 41.2664M19.5471 36.6177C15.5363 39.0543 14.3513 40.2394 13.7192 41.2664" stroke="#3A2E2B" stroke-width="1.58001" stroke-linecap="round"/>
<ellipse cx="19.3289" cy="21.9908" rx="4.02912" ry="2.68608" fill="#3A2E2B"/>
<path d="M43.4224 15.1958C45.0287 15.2748 48.6681 16.1754 50.3746 19.1459" stroke="#3A2E2B" stroke-width="2.37001" stroke-linecap="round"/>
<path d="M64.3015 62.8006C61.1944 61.0962 60.0574 57.1957 61.7618 54.0887L66.657 45.1649C68.3614 42.0579 72.2618 40.9208 75.3689 42.6252C78.4759 44.3296 79.613 48.2301 77.9086 51.3371L73.0134 60.2609C71.309 63.3679 67.4085 64.505 64.3015 62.8006Z" fill="#846047"/>
<path d="M65.3808 47.4914L66.657 45.1649C68.3614 42.0579 72.2618 40.9208 75.3689 42.6252C78.4759 44.3296 79.613 48.2301 77.9086 51.3371L76.6324 53.6636L65.3808 47.4914Z" fill="#4B3E35"/>
<path d="M60.0718 2.90281C56.745 1.12509 53.6954 6.60639 52.5864 9.56926L60.0718 13.458C61.458 10.6803 63.3986 4.68053 60.0718 2.90281Z" fill="#A37556"/>
</svg>
