<svg width="106" height="155" viewBox="0 0 106 155" fill="none" xmlns="http://www.w3.org/2000/svg">
<path d="M42.8653 31.8101C38.4885 33.1384 40.5735 40.4531 42.1631 43.9444L51.9157 40.8605C50.7226 37.2902 47.2421 30.4818 42.8653 31.8101Z" fill="#A37556"/>
<path d="M75.9004 92.852C73.0535 89.633 68.1362 89.3314 64.9172 92.1782L55.6721 100.355C52.4531 103.202 52.1514 108.119 54.9983 111.338C57.8452 114.557 62.7625 114.858 65.9815 112.012L75.2266 103.835C78.4456 100.988 78.7472 96.071 75.9004 92.852Z" fill="#846047"/>
<path d="M58.1068 98.1444L55.6965 100.276C52.4775 103.123 52.1759 108.04 55.0228 111.259C57.8696 114.478 62.787 114.78 66.0059 111.933L68.4162 109.801L58.1068 98.1444Z" fill="#4B3E35"/>
<rect x="95.3545" y="124.231" width="19.9261" height="11.1126" rx="5.5563" transform="rotate(-45 95.3545 124.231)" fill="#846047"/>
<path d="M100.097 128.973L114.187 114.883C115.907 116.604 115.907 119.394 114.187 121.115L106.329 128.973C104.608 130.694 101.818 130.694 100.097 128.973Z" fill="#4B3E35"/>
<path d="M42.7452 70.6241C35.2629 63.1418 35.2629 51.0106 42.7452 43.5283L56.8264 29.447C63.3738 22.8996 73.6666 21.9714 81.2798 27.2417L131.076 61.7137C140.905 68.5178 142.171 82.5621 133.718 91.0149L103.696 121.037C91.9028 132.83 71.7169 124.969 71.006 108.306L70.9042 105.92C70.6997 101.125 68.7033 96.5822 65.3099 93.1888L42.7452 70.6241Z" fill="#A37556"/>
<path d="M36.2465 76.4671C31.4218 69.8054 32.1512 60.6256 37.9674 54.8094C43.688 49.0889 52.6808 48.2774 59.333 52.8816L70.9283 60.9071C80.7541 67.7077 82.0209 81.7471 73.5712 90.1968C65.2388 98.5292 51.4299 97.4319 44.518 87.8882L36.2465 76.4671Z" fill="#604F44"/>
<path d="M59.905 81.6302C58.6972 82.6142 56.3629 82.6543 55.3467 82.5513C55.9268 78.2782 59.1109 77.2484 60.6304 77.2676C60.8919 78.3118 61.1128 80.6462 59.905 81.6302Z" fill="#A2766B"/>
<path d="M44.2343 65.8262C46.8332 69.6224 53.2341 80.0495 56.8054 78.3973M56.8054 78.3973C59.5877 78.1676 67.0988 75.4042 69.8583 73.3163M56.8054 78.3973C55.4556 83.9255 55.4556 85.9577 55.7943 87.3802" stroke="#3A2E2B" stroke-width="1.91597" stroke-linecap="round"/>
<ellipse cx="44.0753" cy="66.0423" rx="4.88571" ry="3.25714" transform="rotate(-45 44.0753 66.0423)" fill="#3A2E2B"/>
<path d="M58.9102 39.5566C60.3553 38.247 64.248 35.8987 68.2582 36.9825" stroke="#3A2E2B" stroke-width="2.87395" stroke-linecap="round"/>
<path d="M104.829 56.5186C105.85 52.3445 110.062 49.7885 114.236 50.8097L126.225 53.7427C130.399 54.7639 132.955 58.9756 131.934 63.1497C130.913 67.3239 126.701 69.8798 122.527 68.8586L110.538 65.9256C106.364 64.9044 103.808 60.6928 104.829 56.5186Z" fill="#846047"/>
<path d="M123.099 52.9781L126.225 53.7427C130.399 54.7639 132.955 58.9756 131.934 63.1497C130.913 67.3239 126.701 69.8798 122.527 68.8586L119.401 68.094L123.099 52.9781Z" fill="#4B3E35"/>
<path d="M62.6456 14.7398C58.2687 16.068 60.3538 23.3827 61.9434 26.8741L71.696 23.7902C70.5029 20.2199 67.0224 13.4115 62.6456 14.7398Z" fill="#A37556"/>
<rect x="50.9404" y="99.2798" width="5.36471" height="7.47227" rx="2.68235" transform="rotate(-45 50.9404 99.2798)" fill="#4B3E35"/>
<path d="M33.4508 94.4981C33.1569 93.9889 33.7267 93.4191 34.236 93.713L39.0013 96.4633C39.1791 96.5659 39.3981 96.5659 39.5759 96.4633L44.3413 93.713C44.8505 93.4191 45.4203 93.9889 45.1264 94.4981L42.3761 99.2635C42.2735 99.4413 42.2735 99.6603 42.3761 99.8381L45.1264 104.603C45.4203 105.113 44.8505 105.682 44.3413 105.389L39.5759 102.638C39.3981 102.536 39.1791 102.536 39.0013 102.638L34.236 105.389C33.7267 105.682 33.1569 105.113 33.4508 104.603L36.2011 99.8381C36.3037 99.6603 36.3037 99.4413 36.2011 99.2635L33.4508 94.4981Z" fill="#E9B44C"/>
</svg>
